%TF.GenerationSoftware,KiCad,Pcbnew,9.0.7*%
%TF.CreationDate,2026-09-05T14:11:03-07:00*%
%TF.ProjectId,RC2014-Leonardo-Micro-Interface,52433230-3134-42d4-9c65-6f6e6172646f,3-pre*%
%TF.SameCoordinates,Original*%
%TF.FileFunction,Soldermask,Top*%
%TF.FilePolarity,Negative*%
%FSLAX46Y46*%
G04 Gerber Fmt 4.6, Leading zero omitted, Abs format (unit mm)*
G04 Created by KiCad (PCBNEW 9.0.7) date 2026-09-05 14:11:03*
%MOMM*%
%LPD*%
G01*
G04 APERTURE LIST*
G04 Aperture macros list*
%AMRoundRect*
0 Rectangle with rounded corners*
0 $1 Rounding radius*
0 $2 $3 $4 $5 $6 $7 $8 $9 X,Y pos of 4 corners*
0 Add a 4 corners polygon primitive as box body*
4,1,4,$2,$3,$4,$5,$6,$7,$8,$9,$2,$3,0*
0 Add four circle primitives for the rounded corners*
1,1,$1+$1,$2,$3*
1,1,$1+$1,$4,$5*
1,1,$1+$1,$6,$7*
1,1,$1+$1,$8,$9*
0 Add four rect primitives between the rounded corners*
20,1,$1+$1,$2,$3,$4,$5,0*
20,1,$1+$1,$4,$5,$6,$7,0*
20,1,$1+$1,$6,$7,$8,$9,0*
20,1,$1+$1,$8,$9,$2,$3,0*%
G04 Aperture macros list end*
%ADD10R,1.700000X1.700000*%
%ADD11C,1.700000*%
%ADD12RoundRect,0.250000X0.550000X-0.550000X0.550000X0.550000X-0.550000X0.550000X-0.550000X-0.550000X0*%
%ADD13C,1.600000*%
%ADD14RoundRect,0.162500X0.162500X-0.617500X0.162500X0.617500X-0.162500X0.617500X-0.162500X-0.617500X0*%
%ADD15RoundRect,0.150000X0.150000X-1.050000X0.150000X1.050000X-0.150000X1.050000X-0.150000X-1.050000X0*%
%ADD16RoundRect,0.250000X-0.475000X0.337500X-0.475000X-0.337500X0.475000X-0.337500X0.475000X0.337500X0*%
%ADD17RoundRect,0.150000X0.150000X-0.837500X0.150000X0.837500X-0.150000X0.837500X-0.150000X-0.837500X0*%
%ADD18R,1.600000X1.600000*%
%ADD19O,1.600000X1.600000*%
%ADD20RoundRect,0.250000X0.450000X-0.350000X0.450000X0.350000X-0.450000X0.350000X-0.450000X-0.350000X0*%
%TA.AperFunction,Profile*%
%ADD21C,0.050000*%
%TD*%
G04 APERTURE END LIST*
D10*
%TO.C,J1*%
X62659000Y-161990000D03*
D11*
X65199000Y-161990000D03*
X67739000Y-161990000D03*
X70279000Y-161990000D03*
X72819000Y-161990000D03*
X75359000Y-161990000D03*
X77899000Y-161990000D03*
X80439000Y-161990000D03*
X82979000Y-161990000D03*
X85519000Y-161990000D03*
X88059000Y-161990000D03*
X90599000Y-161990000D03*
X93139000Y-161990000D03*
X95679000Y-161990000D03*
X98219000Y-161990000D03*
X100759000Y-161990000D03*
X103299000Y-161990000D03*
X105839000Y-161990000D03*
X108379000Y-161990000D03*
X110919000Y-161990000D03*
X113459000Y-161990000D03*
X115999000Y-161990000D03*
X118539000Y-161990000D03*
X121079000Y-161990000D03*
X123619000Y-161990000D03*
X126159000Y-161990000D03*
X128699000Y-161990000D03*
X131239000Y-161990000D03*
X133779000Y-161990000D03*
X136319000Y-161990000D03*
X138859000Y-161990000D03*
X141399000Y-161990000D03*
X143939000Y-161990000D03*
X146479000Y-161990000D03*
X149019000Y-161990000D03*
X151559000Y-161990000D03*
X154099000Y-161990000D03*
X156639000Y-161990000D03*
X159179000Y-161990000D03*
X161719000Y-161990000D03*
%TD*%
D12*
%TO.C,U3*%
X132985000Y-133910000D03*
D13*
X135525000Y-133910000D03*
X138065000Y-133910000D03*
X140605000Y-133910000D03*
X143145000Y-133910000D03*
X145685000Y-133910000D03*
X148225000Y-133910000D03*
X148225000Y-126290000D03*
X145685000Y-126290000D03*
X143145000Y-126290000D03*
X140605000Y-126290000D03*
X138065000Y-126290000D03*
X135525000Y-126290000D03*
X132985000Y-126290000D03*
%TD*%
D14*
%TO.C,U2*%
X86950000Y-144800000D03*
X87900000Y-144800000D03*
X88850000Y-144800000D03*
X88850000Y-142100000D03*
X87900000Y-142100000D03*
X86950000Y-142100000D03*
%TD*%
D15*
%TO.C,U4*%
X71837500Y-145200000D03*
X73107500Y-145200000D03*
X74377500Y-145200000D03*
X75647500Y-145200000D03*
X76917500Y-145200000D03*
X78187500Y-145200000D03*
X79457500Y-145200000D03*
X80727500Y-145200000D03*
X80727500Y-138700000D03*
X79457500Y-138700000D03*
X78187500Y-138700000D03*
X76917500Y-138700000D03*
X75647500Y-138700000D03*
X74377500Y-138700000D03*
X73107500Y-138700000D03*
X71837500Y-138700000D03*
%TD*%
D16*
%TO.C,C8*%
X105550000Y-149912500D03*
X105550000Y-151987500D03*
%TD*%
%TO.C,C1*%
X83300000Y-149962500D03*
X83300000Y-152037500D03*
%TD*%
%TO.C,C7*%
X135150000Y-146312500D03*
X135150000Y-148387500D03*
%TD*%
D17*
%TO.C,U6*%
X95840000Y-146612500D03*
X97110000Y-146612500D03*
X98380000Y-146612500D03*
X99650000Y-146612500D03*
X100920000Y-146612500D03*
X102190000Y-146612500D03*
X103460000Y-146612500D03*
X103460000Y-139687500D03*
X102190000Y-139687500D03*
X100920000Y-139687500D03*
X99650000Y-139687500D03*
X98380000Y-139687500D03*
X97110000Y-139687500D03*
X95840000Y-139687500D03*
%TD*%
D16*
%TO.C,C2*%
X84900000Y-141112500D03*
X84900000Y-143187500D03*
%TD*%
%TO.C,C4*%
X69600000Y-138862500D03*
X69600000Y-140937500D03*
%TD*%
%TO.C,C6*%
X93000000Y-139662500D03*
X93000000Y-141737500D03*
%TD*%
D18*
%TO.C,M1*%
X68980000Y-133720000D03*
D19*
X71520000Y-133720000D03*
X74060000Y-133720000D03*
X76600000Y-133720000D03*
X79140000Y-133720000D03*
X81680000Y-133720000D03*
X84220000Y-133720000D03*
X86760000Y-133720000D03*
X89300000Y-133720000D03*
X91840000Y-133720000D03*
X94380000Y-133720000D03*
X96920000Y-133720000D03*
X96920000Y-118480000D03*
X94380000Y-118480000D03*
X91840000Y-118480000D03*
X89300000Y-118480000D03*
X86760000Y-118480000D03*
X84220000Y-118480000D03*
X81680000Y-118480000D03*
X79140000Y-118480000D03*
X76600000Y-118480000D03*
X74060000Y-118480000D03*
X71520000Y-118480000D03*
X68980000Y-118480000D03*
%TD*%
D17*
%TO.C,U1*%
X86000000Y-156775000D03*
X87270000Y-156775000D03*
X88540000Y-156775000D03*
X89810000Y-156775000D03*
X91080000Y-156775000D03*
X92350000Y-156775000D03*
X93620000Y-156775000D03*
X93620000Y-149850000D03*
X92350000Y-149850000D03*
X91080000Y-149850000D03*
X89810000Y-149850000D03*
X88540000Y-149850000D03*
X87270000Y-149850000D03*
X86000000Y-149850000D03*
%TD*%
D12*
%TO.C,U8*%
X108420000Y-153950000D03*
D13*
X110960000Y-153950000D03*
X113500000Y-153950000D03*
X116040000Y-153950000D03*
X118580000Y-153950000D03*
X121120000Y-153950000D03*
X123660000Y-153950000D03*
X126200000Y-153950000D03*
X128740000Y-153950000D03*
X131280000Y-153950000D03*
X131280000Y-146330000D03*
X128740000Y-146330000D03*
X126200000Y-146330000D03*
X123660000Y-146330000D03*
X121120000Y-146330000D03*
X118580000Y-146330000D03*
X116040000Y-146330000D03*
X113500000Y-146330000D03*
X110960000Y-146330000D03*
X108420000Y-146330000D03*
%TD*%
D10*
%TO.C,J4*%
X78650000Y-151170000D03*
D11*
X78650000Y-153710000D03*
X78650000Y-156250000D03*
%TD*%
D12*
%TO.C,U7*%
X137970000Y-153950000D03*
D13*
X140510000Y-153950000D03*
X143050000Y-153950000D03*
X145590000Y-153950000D03*
X148130000Y-153950000D03*
X150670000Y-153950000D03*
X153210000Y-153950000D03*
X155750000Y-153950000D03*
X158290000Y-153950000D03*
X160830000Y-153950000D03*
X160830000Y-146330000D03*
X158290000Y-146330000D03*
X155750000Y-146330000D03*
X153210000Y-146330000D03*
X150670000Y-146330000D03*
X148130000Y-146330000D03*
X145590000Y-146330000D03*
X143050000Y-146330000D03*
X140510000Y-146330000D03*
X137970000Y-146330000D03*
%TD*%
D16*
%TO.C,C5*%
X105300000Y-126412500D03*
X105300000Y-128487500D03*
%TD*%
D12*
%TO.C,U5*%
X108385000Y-134110000D03*
D13*
X110925000Y-134110000D03*
X113465000Y-134110000D03*
X116005000Y-134110000D03*
X118545000Y-134110000D03*
X121085000Y-134110000D03*
X123625000Y-134110000D03*
X123625000Y-126490000D03*
X121085000Y-126490000D03*
X118545000Y-126490000D03*
X116005000Y-126490000D03*
X113465000Y-126490000D03*
X110925000Y-126490000D03*
X108385000Y-126490000D03*
%TD*%
D20*
%TO.C,R1*%
X105300000Y-121050000D03*
X105300000Y-119050000D03*
%TD*%
%TO.C,R2*%
X109150000Y-121050000D03*
X109150000Y-119050000D03*
%TD*%
D10*
%TO.C,J5*%
X62660000Y-140450000D03*
D11*
X65200000Y-140450000D03*
X62660000Y-142990000D03*
X65200000Y-142990000D03*
X62660000Y-145530000D03*
X65200000Y-145530000D03*
X62660000Y-148070000D03*
X65200000Y-148070000D03*
X62660000Y-150610000D03*
X65200000Y-150610000D03*
X62660000Y-153150000D03*
X65200000Y-153150000D03*
X62660000Y-155690000D03*
X65200000Y-155690000D03*
X62660000Y-158230000D03*
X65200000Y-158230000D03*
%TD*%
D10*
%TO.C,J3*%
X76110000Y-151170000D03*
D11*
X76110000Y-153710000D03*
X76110000Y-156250000D03*
%TD*%
D16*
%TO.C,C3*%
X129850000Y-126412500D03*
X129850000Y-128487500D03*
%TD*%
D10*
%TO.C,J2*%
X73570000Y-151170000D03*
D11*
X73570000Y-153710000D03*
X73570000Y-156250000D03*
%TD*%
D21*
X60500000Y-115000000D02*
X164500000Y-115000000D01*
X60500000Y-165000000D02*
X164500000Y-165000000D01*
X60500000Y-115000000D02*
X60500000Y-164500000D01*
X164500000Y-165000000D02*
X164500000Y-115000000D01*
X60500000Y-165000000D02*
X60500000Y-164500000D01*
M02*
