M48
; DRILL file {KiCad 9.0.7} date 2026-09-05T14:10:57-0700
; FORMAT={-:-/ absolute / metric / decimal}
; #@! TF.CreationDate,2026-09-05T14:10:57-07:00
; #@! TF.GenerationSoftware,Kicad,Pcbnew,9.0.7
; #@! TF.FileFunction,Plated,1,2,PTH
FMAT,2
METRIC
; #@! TA.AperFunction,Plated,PTH,ViaDrill
T1C0.300
; #@! TA.AperFunction,Plated,PTH,ViaDrill
T2C0.400
; #@! TA.AperFunction,Plated,PTH,ComponentDrill
T3C0.800
; #@! TA.AperFunction,Plated,PTH,ComponentDrill
T4C1.000
%
G90
G05
T1
X65.105Y-136.816
X73.13Y-147.144
X74.641Y-141.677
X76.052Y-147.81
X76.249Y-143.578
X76.792Y-141.365
X77.811Y-147.532
X77.934Y-143.438
X78.861Y-142.147
X80.1Y-151.173
X81.919Y-151.625
X82.267Y-137.591
X82.886Y-148.568
X83.404Y-158.144
X84.828Y-155.165
X84.957Y-157.134
X88.875Y-131.474
X88.891Y-140.653
X89.329Y-161.1
X91.037Y-152.351
X91.443Y-144.708
X91.661Y-130.966
X94.559Y-138.295
X94.64Y-145.905
X96.654Y-144.569
X98.144Y-141.343
X100.092Y-149.203
X101.309Y-149.453
X101.68Y-159.673
X101.758Y-152.45
X103.297Y-160.435
X103.569Y-115.825
X105.323Y-154.764
X105.526Y-142.739
X106.253Y-145.321
X107.673Y-138.181
X112.456Y-127.673
X113.156Y-131.141
X114.795Y-130.457
X115.071Y-139.737
X115.413Y-138.072
X116.046Y-147.958
X116.611Y-143.219
X117.313Y-139.453
X121.433Y-120.027
X124.398Y-117.371
X124.41Y-137.667
X125.44Y-152.652
X126.689Y-118.445
X128.48Y-133.9
X136.791Y-141.69
X139.296Y-137.046
X140.104Y-141.863
X141.38Y-140.44
X142.273Y-139.872
T2
X67.616Y-137.88
X69.57Y-142.764
X96.99Y-141.559
X100.592Y-125.234
T3
X68.98Y-118.48
X68.98Y-133.72
X71.52Y-118.48
X71.52Y-133.72
X74.06Y-118.48
X74.06Y-133.72
X76.6Y-118.48
X76.6Y-133.72
X79.14Y-118.48
X79.14Y-133.72
X81.68Y-118.48
X81.68Y-133.72
X84.22Y-118.48
X84.22Y-133.72
X86.76Y-118.48
X86.76Y-133.72
X89.3Y-118.48
X89.3Y-133.72
X91.84Y-118.48
X91.84Y-133.72
X94.38Y-118.48
X94.38Y-133.72
X96.92Y-118.48
X96.92Y-133.72
X108.385Y-126.49
X108.385Y-134.11
X108.42Y-146.33
X108.42Y-153.95
X110.925Y-126.49
X110.925Y-134.11
X110.96Y-146.33
X110.96Y-153.95
X113.465Y-126.49
X113.465Y-134.11
X113.5Y-146.33
X113.5Y-153.95
X116.005Y-126.49
X116.005Y-134.11
X116.04Y-146.33
X116.04Y-153.95
X118.545Y-126.49
X118.545Y-134.11
X118.58Y-146.33
X118.58Y-153.95
X121.085Y-126.49
X121.085Y-134.11
X121.12Y-146.33
X121.12Y-153.95
X123.625Y-126.49
X123.625Y-134.11
X123.66Y-146.33
X123.66Y-153.95
X126.2Y-146.33
X126.2Y-153.95
X128.74Y-146.33
X128.74Y-153.95
X131.28Y-146.33
X131.28Y-153.95
X132.985Y-126.29
X132.985Y-133.91
X135.525Y-126.29
X135.525Y-133.91
X137.97Y-146.33
X137.97Y-153.95
X138.065Y-126.29
X138.065Y-133.91
X140.51Y-146.33
X140.51Y-153.95
X140.605Y-126.29
X140.605Y-133.91
X143.05Y-146.33
X143.05Y-153.95
X143.145Y-126.29
X143.145Y-133.91
X145.59Y-146.33
X145.59Y-153.95
X145.685Y-126.29
X145.685Y-133.91
X148.13Y-146.33
X148.13Y-153.95
X148.225Y-126.29
X148.225Y-133.91
X150.67Y-146.33
X150.67Y-153.95
X153.21Y-146.33
X153.21Y-153.95
X155.75Y-146.33
X155.75Y-153.95
X158.29Y-146.33
X158.29Y-153.95
X160.83Y-146.33
X160.83Y-153.95
T4
X62.659Y-161.99
X62.66Y-140.45
X62.66Y-142.99
X62.66Y-145.53
X62.66Y-148.07
X62.66Y-150.61
X62.66Y-153.15
X62.66Y-155.69
X62.66Y-158.23
X65.199Y-161.99
X65.2Y-140.45
X65.2Y-142.99
X65.2Y-145.53
X65.2Y-148.07
X65.2Y-150.61
X65.2Y-153.15
X65.2Y-155.69
X65.2Y-158.23
X67.739Y-161.99
X70.279Y-161.99
X72.819Y-161.99
X73.57Y-151.17
X73.57Y-153.71
X73.57Y-156.25
X75.359Y-161.99
X76.11Y-151.17
X76.11Y-153.71
X76.11Y-156.25
X77.899Y-161.99
X78.65Y-151.17
X78.65Y-153.71
X78.65Y-156.25
X80.439Y-161.99
X82.979Y-161.99
X85.519Y-161.99
X88.059Y-161.99
X90.599Y-161.99
X93.139Y-161.99
X95.679Y-161.99
X98.219Y-161.99
X100.759Y-161.99
X103.299Y-161.99
X105.839Y-161.99
X108.379Y-161.99
X110.919Y-161.99
X113.459Y-161.99
X115.999Y-161.99
X118.539Y-161.99
X121.079Y-161.99
X123.619Y-161.99
X126.159Y-161.99
X128.699Y-161.99
X131.239Y-161.99
X133.779Y-161.99
X136.319Y-161.99
X138.859Y-161.99
X141.399Y-161.99
X143.939Y-161.99
X146.479Y-161.99
X149.019Y-161.99
X151.559Y-161.99
X154.099Y-161.99
X156.639Y-161.99
X159.179Y-161.99
X161.719Y-161.99
M30
