M48
; DRILL file {KiCad 9.0.7} date 2026-09-04T15:57:35-0700
; FORMAT={-:-/ absolute / metric / decimal}
; #@! TF.CreationDate,2026-09-04T15:57:35-07:00
; #@! TF.GenerationSoftware,Kicad,Pcbnew,9.0.7
; #@! TF.FileFunction,Plated,1,2,PTH
FMAT,2
METRIC
; #@! TA.AperFunction,Plated,PTH,ViaDrill
T1C0.300
; #@! TA.AperFunction,Plated,PTH,ViaDrill
T2C0.400
; #@! TA.AperFunction,Plated,PTH,ComponentDrill
T3C0.500
; #@! TA.AperFunction,Plated,PTH,ComponentDrill
T4C0.800
; #@! TA.AperFunction,Plated,PTH,ComponentDrill
T5C1.000
; #@! TA.AperFunction,Plated,PTH,ComponentDrill
T6C1.016
%
G90
G05
T1
X64.018Y-145.77
X64.275Y-128.121
X67.261Y-125.267
X69.17Y-126.493
X70.138Y-145.725
X70.227Y-139.903
X70.29Y-125.971
X70.582Y-136.269
X70.82Y-157.438
X71.496Y-136.459
X71.548Y-126.32
X71.6Y-140.834
X72.83Y-137.093
X73.225Y-142.788
X73.427Y-145.644
X73.439Y-138.284
X73.901Y-141.371
X74.851Y-126.68
X74.91Y-140.907
X75.757Y-145.039
X75.804Y-157.45
X76.32Y-128.153
X77.627Y-122.758
X81.677Y-144.109
X81.898Y-150.901
X82.807Y-138.186
X83.153Y-126.099
X83.722Y-136.279
X84.331Y-137.752
X84.904Y-137.115
X85.134Y-156.672
X85.513Y-147.95
X86.139Y-136.969
X86.334Y-123.897
X87.055Y-160.303
X87.062Y-159.427
X88.616Y-158.932
X89.637Y-155.067
X91.886Y-134.916
X93.23Y-152.576
X94.742Y-156.919
X95.444Y-130.655
X97.313Y-136.476
X97.685Y-135.231
X98.497Y-142.511
X98.578Y-133.13
X100.062Y-134.439
X100.394Y-139.945
X101.269Y-144.16
X101.506Y-155.383
X103.017Y-131.05
X103.569Y-148.844
X103.866Y-157.635
X104.181Y-132.251
X105.615Y-122.606
X106.142Y-157.8
X106.41Y-144.05
X107.728Y-142.11
X108.235Y-139.456
X109.025Y-126.431
X109.5Y-147.4
X111.667Y-143.592
X111.891Y-128.475
X111.919Y-130.725
X111.937Y-134.871
X112.819Y-124.46
X113.102Y-132.215
X115.026Y-124.209
X115.9Y-157.9
X116.637Y-143.34
X117.101Y-135.492
X122.749Y-135.299
X124.075Y-133.74
X124.803Y-127.703
X124.858Y-159.688
X126.6Y-160.126
X127.641Y-139.305
X128.7Y-157.9
X130.129Y-138.524
X130.3Y-147.884
X131.4Y-156.5
X133.341Y-134.52
X133.781Y-148.565
X135.587Y-140.909
T2
X64.989Y-129.362
X65.292Y-147.857
X74.9Y-145.8
X76.5Y-145.7
X77.0Y-148.15
X77.08Y-149.55
X91.782Y-129.262
X97.053Y-155.673
X97.615Y-151.762
X102.819Y-128.14
X110.46Y-150.54
X157.159Y-151.708
T3
X67.8Y-155.15
X67.8Y-157.05
T4
X100.94Y-137.3
X100.94Y-152.54
X103.48Y-137.3
X103.48Y-152.54
X106.02Y-137.3
X106.02Y-152.54
X108.56Y-137.3
X108.56Y-152.54
X111.1Y-137.3
X111.1Y-152.54
X113.64Y-137.3
X113.64Y-152.54
X116.18Y-137.3
X116.18Y-152.54
X118.72Y-137.3
X118.72Y-152.54
X121.26Y-137.3
X121.26Y-152.54
X123.8Y-137.3
X123.8Y-152.54
X126.34Y-137.3
X126.34Y-152.54
X128.88Y-137.3
X128.88Y-152.54
X131.42Y-137.3
X131.42Y-152.54
X133.96Y-137.3
X133.96Y-152.54
T5
X62.659Y-161.99
X63.62Y-119.46
X63.62Y-122.0
X65.199Y-161.99
X66.16Y-119.46
X66.16Y-122.0
X67.739Y-161.99
X68.7Y-119.46
X68.7Y-122.0
X70.279Y-161.99
X71.24Y-119.46
X71.24Y-122.0
X72.819Y-161.99
X73.78Y-119.46
X73.78Y-122.0
X75.359Y-161.99
X76.32Y-119.46
X76.32Y-122.0
X77.899Y-161.99
X78.86Y-119.46
X78.86Y-122.0
X80.439Y-161.99
X81.4Y-119.46
X81.4Y-122.0
X82.979Y-161.99
X85.519Y-161.99
X88.059Y-161.99
X90.599Y-161.99
X91.96Y-142.16
X91.96Y-144.7
X91.96Y-147.24
X93.139Y-161.99
X94.5Y-142.16
X94.5Y-144.7
X94.5Y-147.24
X95.679Y-161.99
X96.09Y-119.46
X96.09Y-122.0
X97.04Y-142.16
X97.04Y-144.7
X97.04Y-147.24
X98.219Y-161.99
X98.63Y-119.46
X98.63Y-122.0
X100.759Y-161.99
X101.17Y-119.46
X101.17Y-122.0
X103.299Y-161.99
X103.71Y-119.46
X103.71Y-122.0
X105.839Y-161.99
X108.379Y-161.99
X110.919Y-161.99
X113.459Y-161.99
X115.999Y-161.99
X118.539Y-161.99
X121.079Y-161.99
X123.619Y-161.99
X126.159Y-161.99
X128.699Y-161.99
X131.239Y-161.99
X133.779Y-161.99
X136.319Y-161.99
X138.859Y-161.99
X141.399Y-161.99
X143.939Y-161.99
X146.479Y-161.99
X149.019Y-161.99
X151.559Y-161.99
X154.099Y-161.99
X156.639Y-161.99
X159.179Y-161.99
X161.719Y-161.99
T6
X140.2Y-136.1
X160.2Y-136.1
M30
