%TF.GenerationSoftware,KiCad,Pcbnew,9.0.7*%
%TF.CreationDate,2026-09-04T15:57:40-07:00*%
%TF.ProjectId,RC2014-CTC-DS1302-TIMER-V21,52433230-3134-42d4-9354-432d44533133,1*%
%TF.SameCoordinates,Original*%
%TF.FileFunction,Copper,L2,Bot*%
%TF.FilePolarity,Positive*%
%FSLAX46Y46*%
G04 Gerber Fmt 4.6, Leading zero omitted, Abs format (unit mm)*
G04 Created by KiCad (PCBNEW 9.0.7) date 2026-09-04 15:57:40*
%MOMM*%
%LPD*%
G01*
G04 APERTURE LIST*
G04 Aperture macros list*
%AMRoundRect*
0 Rectangle with rounded corners*
0 $1 Rounding radius*
0 $2 $3 $4 $5 $6 $7 $8 $9 X,Y pos of 4 corners*
0 Add a 4 corners polygon primitive as box body*
4,1,4,$2,$3,$4,$5,$6,$7,$8,$9,$2,$3,0*
0 Add four circle primitives for the rounded corners*
1,1,$1+$1,$2,$3*
1,1,$1+$1,$4,$5*
1,1,$1+$1,$6,$7*
1,1,$1+$1,$8,$9*
0 Add four rect primitives between the rounded corners*
20,1,$1+$1,$2,$3,$4,$5,0*
20,1,$1+$1,$4,$5,$6,$7,0*
20,1,$1+$1,$6,$7,$8,$9,0*
20,1,$1+$1,$8,$9,$2,$3,0*%
G04 Aperture macros list end*
%TA.AperFunction,ComponentPad*%
%ADD10R,1.700000X1.700000*%
%TD*%
%TA.AperFunction,ComponentPad*%
%ADD11C,1.700000*%
%TD*%
%TA.AperFunction,ComponentPad*%
%ADD12RoundRect,0.250000X0.550000X-0.550000X0.550000X0.550000X-0.550000X0.550000X-0.550000X-0.550000X0*%
%TD*%
%TA.AperFunction,ComponentPad*%
%ADD13C,1.600000*%
%TD*%
%TA.AperFunction,ComponentPad*%
%ADD14C,1.524000*%
%TD*%
%TA.AperFunction,ComponentPad*%
%ADD15C,1.000000*%
%TD*%
%TA.AperFunction,ViaPad*%
%ADD16C,0.800000*%
%TD*%
%TA.AperFunction,ViaPad*%
%ADD17C,0.600000*%
%TD*%
%TA.AperFunction,Conductor*%
%ADD18C,0.500000*%
%TD*%
%TA.AperFunction,Conductor*%
%ADD19C,0.254000*%
%TD*%
%TA.AperFunction,Conductor*%
%ADD20C,0.400000*%
%TD*%
%TA.AperFunction,Profile*%
%ADD21C,0.050000*%
%TD*%
G04 APERTURE END LIST*
D10*
%TO.P,J1,1,Pin_1*%
%TO.N,unconnected-(J1-Pin_1-Pad1)*%
X62659000Y-161990000D03*
D11*
%TO.P,J1,2,Pin_2*%
%TO.N,unconnected-(J1-Pin_2-Pad2)*%
X65199000Y-161990000D03*
%TO.P,J1,3,Pin_3*%
%TO.N,unconnected-(J1-Pin_3-Pad3)*%
X67739000Y-161990000D03*
%TO.P,J1,4,Pin_4*%
%TO.N,unconnected-(J1-Pin_4-Pad4)*%
X70279000Y-161990000D03*
%TO.P,J1,5,Pin_5*%
%TO.N,unconnected-(J1-Pin_5-Pad5)*%
X72819000Y-161990000D03*
%TO.P,J1,6,Pin_6*%
%TO.N,unconnected-(J1-Pin_6-Pad6)*%
X75359000Y-161990000D03*
%TO.P,J1,7,Pin_7*%
%TO.N,unconnected-(J1-Pin_7-Pad7)*%
X77899000Y-161990000D03*
%TO.P,J1,8,Pin_8*%
%TO.N,unconnected-(J1-Pin_8-Pad8)*%
X80439000Y-161990000D03*
%TO.P,J1,9,Pin_9*%
%TO.N,/A7*%
X82979000Y-161990000D03*
%TO.P,J1,10,Pin_10*%
%TO.N,/A6*%
X85519000Y-161990000D03*
%TO.P,J1,11,Pin_11*%
%TO.N,/A5*%
X88059000Y-161990000D03*
%TO.P,J1,12,Pin_12*%
%TO.N,/A4*%
X90599000Y-161990000D03*
%TO.P,J1,13,Pin_13*%
%TO.N,/A3*%
X93139000Y-161990000D03*
%TO.P,J1,14,Pin_14*%
%TO.N,/A2*%
X95679000Y-161990000D03*
%TO.P,J1,15,Pin_15*%
%TO.N,/A1*%
X98219000Y-161990000D03*
%TO.P,J1,16,Pin_16*%
%TO.N,/A0*%
X100759000Y-161990000D03*
%TO.P,J1,17,Pin_17*%
%TO.N,GND*%
X103299000Y-161990000D03*
%TO.P,J1,18,Pin_18*%
%TO.N,+5V*%
X105839000Y-161990000D03*
%TO.P,J1,19,Pin_19*%
%TO.N,/~{M1}*%
X108379000Y-161990000D03*
%TO.P,J1,20,Pin_20*%
%TO.N,/~{RESET}*%
X110919000Y-161990000D03*
%TO.P,J1,21,Pin_21*%
%TO.N,/CLOCK*%
X113459000Y-161990000D03*
%TO.P,J1,22,Pin_22*%
%TO.N,/~{INT}*%
X115999000Y-161990000D03*
%TO.P,J1,23,Pin_23*%
%TO.N,/~{MREQ}*%
X118539000Y-161990000D03*
%TO.P,J1,24,Pin_24*%
%TO.N,/~{WR}*%
X121079000Y-161990000D03*
%TO.P,J1,25,Pin_25*%
%TO.N,/~{RD}*%
X123619000Y-161990000D03*
%TO.P,J1,26,Pin_26*%
%TO.N,/~{IORQ}*%
X126159000Y-161990000D03*
%TO.P,J1,27,Pin_27*%
%TO.N,/D0*%
X128699000Y-161990000D03*
%TO.P,J1,28,Pin_28*%
%TO.N,/D1*%
X131239000Y-161990000D03*
%TO.P,J1,29,Pin_29*%
%TO.N,/D2*%
X133779000Y-161990000D03*
%TO.P,J1,30,Pin_30*%
%TO.N,/D3*%
X136319000Y-161990000D03*
%TO.P,J1,31,Pin_31*%
%TO.N,/D4*%
X138859000Y-161990000D03*
%TO.P,J1,32,Pin_32*%
%TO.N,/D5*%
X141399000Y-161990000D03*
%TO.P,J1,33,Pin_33*%
%TO.N,/D6*%
X143939000Y-161990000D03*
%TO.P,J1,34,Pin_34*%
%TO.N,/D7*%
X146479000Y-161990000D03*
%TO.P,J1,35,Pin_35*%
%TO.N,unconnected-(J1-Pin_35-Pad35)*%
X149019000Y-161990000D03*
%TO.P,J1,36,Pin_36*%
%TO.N,unconnected-(J1-Pin_36-Pad36)*%
X151559000Y-161990000D03*
%TO.P,J1,37,Pin_37*%
%TO.N,unconnected-(J1-Pin_37-Pad37)*%
X154099000Y-161990000D03*
%TO.P,J1,38,Pin_38*%
%TO.N,unconnected-(J1-Pin_38-Pad38)*%
X156639000Y-161990000D03*
%TO.P,J1,39,Pin_39*%
%TO.N,unconnected-(J1-Pin_39-Pad39)*%
X159179000Y-161990000D03*
%TO.P,J1,40,Pin_40*%
%TO.N,unconnected-(J1-Pin_40-Pad40)*%
X161719000Y-161990000D03*
%TD*%
D12*
%TO.P,U8,1,D4*%
%TO.N,/D4*%
X100940000Y-152540000D03*
D13*
%TO.P,U8,2,D5*%
%TO.N,/D5*%
X103480000Y-152540000D03*
%TO.P,U8,3,D6*%
%TO.N,/D6*%
X106020000Y-152540000D03*
%TO.P,U8,4,D7*%
%TO.N,/D7*%
X108560000Y-152540000D03*
%TO.P,U8,5,GND*%
%TO.N,GND*%
X111100000Y-152540000D03*
%TO.P,U8,6,~{RD}*%
%TO.N,/~{RD}*%
X113640000Y-152540000D03*
%TO.P,U8,7,ZC/TO0*%
%TO.N,Net-(U8-CLK{slash}TRG1)*%
X116180000Y-152540000D03*
%TO.P,U8,8,ZC/TO1*%
%TO.N,/C1_OUT*%
X118720000Y-152540000D03*
%TO.P,U8,9,ZC/TO2*%
%TO.N,/C2_OUT*%
X121260000Y-152540000D03*
%TO.P,U8,10,~{IORQ}*%
%TO.N,/~{IORQ}*%
X123800000Y-152540000D03*
%TO.P,U8,11,IEO*%
%TO.N,/IEO*%
X126340000Y-152540000D03*
%TO.P,U8,12,~{INT}*%
%TO.N,/~{INT}*%
X128880000Y-152540000D03*
%TO.P,U8,13,IEI*%
%TO.N,/IEI*%
X131420000Y-152540000D03*
%TO.P,U8,14,~{M1}*%
%TO.N,/~{M1}*%
X133960000Y-152540000D03*
%TO.P,U8,15,CLK*%
%TO.N,/CLOCK*%
X133960000Y-137300000D03*
%TO.P,U8,16,~{CE}*%
%TO.N,/~{CTC_CS}*%
X131420000Y-137300000D03*
%TO.P,U8,17,~{RESET}*%
%TO.N,/~{RESET}*%
X128880000Y-137300000D03*
%TO.P,U8,18,CS0*%
%TO.N,/A0*%
X126340000Y-137300000D03*
%TO.P,U8,19,CS1*%
%TO.N,/A1*%
X123800000Y-137300000D03*
%TO.P,U8,20,CLK/TRG3*%
%TO.N,/C3_IN*%
X121260000Y-137300000D03*
%TO.P,U8,21,CLK/TRIG2*%
%TO.N,/C2_IN*%
X118720000Y-137300000D03*
%TO.P,U8,22,CLK/TRG1*%
%TO.N,Net-(U8-CLK{slash}TRG1)*%
X116180000Y-137300000D03*
%TO.P,U8,23,CLK/TRG0*%
%TO.N,/CTC_CLK*%
X113640000Y-137300000D03*
%TO.P,U8,24,VCC*%
%TO.N,+5V*%
X111100000Y-137300000D03*
%TO.P,U8,25,D0*%
%TO.N,/D0*%
X108560000Y-137300000D03*
%TO.P,U8,26,D1*%
%TO.N,/D1*%
X106020000Y-137300000D03*
%TO.P,U8,27,D2*%
%TO.N,/D2*%
X103480000Y-137300000D03*
%TO.P,U8,28,D3*%
%TO.N,/D3*%
X100940000Y-137300000D03*
%TD*%
D10*
%TO.P,J4,1,Pin_1*%
%TO.N,/AS5*%
X94500000Y-142160000D03*
D11*
%TO.P,J4,2,Pin_2*%
%TO.N,/AS6*%
X94500000Y-144700000D03*
%TO.P,J4,3,Pin_3*%
%TO.N,/AS7*%
X94500000Y-147240000D03*
%TD*%
D10*
%TO.P,J5,1,Pin_1*%
%TO.N,Net-(J5-Pin_1)*%
X63620000Y-122000000D03*
D11*
%TO.P,J5,2,Pin_2*%
%TO.N,/~{CTC_CS}*%
X63620000Y-119460000D03*
%TO.P,J5,3,Pin_3*%
%TO.N,Net-(J5-Pin_3)*%
X66160000Y-122000000D03*
%TO.P,J5,4,Pin_4*%
%TO.N,/~{CTC_CS}*%
X66160000Y-119460000D03*
%TO.P,J5,5,Pin_5*%
%TO.N,Net-(J5-Pin_5)*%
X68700000Y-122000000D03*
%TO.P,J5,6,Pin_6*%
%TO.N,/~{CTC_CS}*%
X68700000Y-119460000D03*
%TO.P,J5,7,Pin_7*%
%TO.N,Net-(J5-Pin_7)*%
X71240000Y-122000000D03*
%TO.P,J5,8,Pin_8*%
%TO.N,/~{CTC_CS}*%
X71240000Y-119460000D03*
%TO.P,J5,9,Pin_9*%
%TO.N,Net-(J5-Pin_9)*%
X73780000Y-122000000D03*
%TO.P,J5,10,Pin_10*%
%TO.N,/~{RTC_CS}*%
X73780000Y-119460000D03*
%TO.P,J5,11,Pin_11*%
%TO.N,Net-(J5-Pin_11)*%
X76320000Y-122000000D03*
%TO.P,J5,12,Pin_12*%
%TO.N,/~{RTC_CS}*%
X76320000Y-119460000D03*
%TO.P,J5,13,Pin_13*%
%TO.N,Net-(J5-Pin_13)*%
X78860000Y-122000000D03*
%TO.P,J5,14,Pin_14*%
%TO.N,/~{RTC_CS}*%
X78860000Y-119460000D03*
%TO.P,J5,15,Pin_15*%
%TO.N,Net-(J5-Pin_15)*%
X81400000Y-122000000D03*
%TO.P,J5,16,Pin_16*%
%TO.N,/~{RTC_CS}*%
X81400000Y-119460000D03*
%TD*%
D14*
%TO.P,BT1,1,+*%
%TO.N,/VBAT*%
X140200050Y-136100000D03*
%TO.P,BT1,2,-*%
%TO.N,GND*%
X160200010Y-136100000D03*
%TD*%
D15*
%TO.P,Y2,1,1*%
%TO.N,Net-(U9-X1)*%
X67800000Y-157050000D03*
%TO.P,Y2,2,2*%
%TO.N,Net-(U9-X2)*%
X67800000Y-155150000D03*
%TD*%
D10*
%TO.P,J3,1,Pin_1*%
%TO.N,/~{A5}*%
X97040000Y-142160000D03*
D11*
%TO.P,J3,2,Pin_2*%
%TO.N,/~{A6}*%
X97040000Y-144700000D03*
%TO.P,J3,3,Pin_3*%
%TO.N,/~{A7}*%
X97040000Y-147240000D03*
%TD*%
D10*
%TO.P,J6,1,Pin_1*%
%TO.N,/IEI*%
X96090000Y-122000000D03*
D11*
%TO.P,J6,2,Pin_2*%
%TO.N,+5V*%
X96090000Y-119460000D03*
%TO.P,J6,3,Pin_3*%
%TO.N,/IEO*%
X98630000Y-122000000D03*
%TO.P,J6,4,Pin_4*%
%TO.N,/C1_OUT*%
X98630000Y-119460000D03*
%TO.P,J6,5,Pin_5*%
%TO.N,/C2_IN*%
X101170000Y-122000000D03*
%TO.P,J6,6,Pin_6*%
%TO.N,/C2_OUT*%
X101170000Y-119460000D03*
%TO.P,J6,7,Pin_7*%
%TO.N,/C3_IN*%
X103710000Y-122000000D03*
%TO.P,J6,8,Pin_8*%
%TO.N,GND*%
X103710000Y-119460000D03*
%TD*%
D10*
%TO.P,J2,1,Pin_1*%
%TO.N,/A5*%
X91960000Y-142160000D03*
D11*
%TO.P,J2,2,Pin_2*%
%TO.N,/A6*%
X91960000Y-144700000D03*
%TO.P,J2,3,Pin_3*%
%TO.N,/A7*%
X91960000Y-147240000D03*
%TD*%
D16*
%TO.N,GND*%
X157159000Y-151708400D03*
X74900000Y-145800000D03*
X97052800Y-155673500D03*
X77080000Y-149550000D03*
D17*
%TO.N,/D0*%
X81677400Y-144109400D03*
X130300000Y-147884000D03*
X109500000Y-147400000D03*
X82806700Y-138185700D03*
%TO.N,/D1*%
X130129000Y-138524500D03*
%TO.N,/D2*%
X103866400Y-157635400D03*
%TO.N,/D3*%
X71547900Y-126319800D03*
X100393900Y-139944900D03*
X133341400Y-134519600D03*
X70227000Y-139902700D03*
%TO.N,/D4*%
X75804300Y-157450200D03*
X69170100Y-126492700D03*
%TO.N,/D5*%
X74910000Y-140907200D03*
X101269100Y-144160000D03*
X72830000Y-137093400D03*
%TO.N,/D6*%
X70820200Y-157438000D03*
X106142300Y-157800500D03*
X67261300Y-125266700D03*
%TO.N,/D7*%
X71600400Y-140833800D03*
X107728400Y-142110000D03*
X70581900Y-136268900D03*
%TO.N,/A1*%
X124858300Y-159687600D03*
%TO.N,/A4*%
X87061600Y-159427100D03*
X86139500Y-136968600D03*
%TO.N,/A3*%
X83722400Y-136278600D03*
X88616000Y-158931600D03*
%TO.N,/A2*%
X84904400Y-137115300D03*
%TO.N,/A5*%
X93230000Y-152575500D03*
%TO.N,/A6*%
X85133800Y-156671700D03*
X85513400Y-147949700D03*
%TO.N,/A7*%
X89637100Y-155067300D03*
X87055400Y-160302800D03*
%TO.N,/A0*%
X126600200Y-160125600D03*
%TO.N,/~{RTC_CS}*%
X111919000Y-130724500D03*
X105614700Y-122605600D03*
X109025200Y-126431000D03*
X86334100Y-123897400D03*
%TO.N,/~{A5}*%
X94741700Y-156919200D03*
D16*
%TO.N,+5V*%
X91781700Y-129262500D03*
X97615000Y-151762500D03*
X76500000Y-145700000D03*
X110460500Y-150540300D03*
X77000000Y-148150000D03*
X65292000Y-147857500D03*
X102819000Y-128139600D03*
X64988600Y-129362500D03*
D17*
%TO.N,/AS6*%
X98577700Y-133129500D03*
%TO.N,/AS5*%
X95444300Y-130654900D03*
%TO.N,/AS7*%
X106410000Y-144050300D03*
X104180900Y-132250900D03*
%TO.N,/~{RTC_WR}*%
X76319600Y-128153000D03*
X77627300Y-122758500D03*
%TO.N,/~{RTC_RD}*%
X84330700Y-137751900D03*
X81898200Y-150900700D03*
%TO.N,Net-(J5-Pin_5)*%
X83152900Y-126099000D03*
%TO.N,Net-(J5-Pin_1)*%
X74850900Y-126679600D03*
%TO.N,/RTC_CLK*%
X64275100Y-128121000D03*
X64018100Y-145769900D03*
%TO.N,Net-(J5-Pin_15)*%
X91885700Y-134915800D03*
%TO.N,/RTC_IN*%
X71496200Y-136458900D03*
X73224800Y-142788400D03*
%TO.N,/RTC_CE*%
X70138000Y-145725100D03*
X70289800Y-125970500D03*
%TO.N,/RTC_WE*%
X75757100Y-145039400D03*
X73439500Y-138284300D03*
%TO.N,/CLOCK*%
X135586900Y-140908700D03*
X111666600Y-143592100D03*
%TO.N,/~{INT}*%
X128700000Y-157900000D03*
X115900000Y-157900000D03*
%TO.N,/~{RESET}*%
X108235300Y-139456000D03*
X127640600Y-139304600D03*
%TO.N,/~{WR}*%
X113101900Y-132214600D03*
%TO.N,/~{RD}*%
X111891100Y-128475100D03*
%TO.N,/~{IORQ}*%
X116636900Y-143340400D03*
X97313400Y-136476500D03*
X98496800Y-142510800D03*
%TO.N,/~{M1}*%
X103569400Y-148843600D03*
X133781100Y-148565000D03*
X97685100Y-135231000D03*
%TO.N,/VBAT*%
X73901400Y-141371100D03*
X73426700Y-145644200D03*
%TO.N,/C2_IN*%
X112818900Y-124460100D03*
%TO.N,/IEI*%
X101506400Y-155383300D03*
X131400000Y-156500000D03*
%TO.N,/C3_IN*%
X117101400Y-135492000D03*
%TO.N,/C2_OUT*%
X115026000Y-124208500D03*
%TO.N,/CTC_CLK*%
X124803000Y-127703200D03*
X122749400Y-135299300D03*
%TO.N,/IEO*%
X124074700Y-133739900D03*
X111937300Y-134871000D03*
%TO.N,Net-(U7-~{E0})*%
X100061800Y-134439000D03*
X103017300Y-131050000D03*
%TD*%
D18*
%TO.N,GND*%
X74900000Y-145800000D02*
X74900000Y-147370000D01*
X74900000Y-147370000D02*
X77080000Y-149550000D01*
X157159000Y-151708400D02*
X160200000Y-148667400D01*
X97052800Y-155743800D02*
X97052800Y-155673500D01*
X160200000Y-148667400D02*
X160200000Y-136100000D01*
X103299000Y-161990000D02*
X97052800Y-155743800D01*
D19*
%TO.N,/D0*%
X130300000Y-147884000D02*
X130238000Y-147946000D01*
X130238000Y-160451000D02*
X128699000Y-161990000D01*
X108560000Y-137300000D02*
X109500000Y-138240000D01*
X82806700Y-138185700D02*
X81677400Y-139315000D01*
X130238000Y-147946000D02*
X130238000Y-160451000D01*
X81677400Y-139315000D02*
X81677400Y-144109400D01*
X109500000Y-138240000D02*
X109500000Y-147400000D01*
%TO.N,/D1*%
X132605200Y-141000700D02*
X132605200Y-160623800D01*
X130129000Y-138524500D02*
X132605200Y-141000700D01*
X132605200Y-160623800D02*
X131239000Y-161990000D01*
%TO.N,/D2*%
X100566700Y-140737600D02*
X103480000Y-137824300D01*
X103866400Y-157635400D02*
X102210500Y-155979500D01*
X102210500Y-151806300D02*
X100566700Y-150162500D01*
X103480000Y-137824300D02*
X103480000Y-137300000D01*
X100566700Y-150162500D02*
X100566700Y-140737600D01*
X102210500Y-155979500D02*
X102210500Y-151806300D01*
%TO.N,/D3*%
X132775700Y-135085300D02*
X133341400Y-134519600D01*
X136319000Y-161990000D02*
X136319000Y-142709300D01*
X71547900Y-126319800D02*
X69899200Y-127968500D01*
X134749400Y-141139700D02*
X134749400Y-140819600D01*
X100393900Y-139944900D02*
X100940000Y-139398800D01*
X132775700Y-138845900D02*
X132775700Y-135085300D01*
X100940000Y-139398800D02*
X100940000Y-137300000D01*
X134749400Y-140819600D02*
X132775700Y-138845900D01*
X69899200Y-127968500D02*
X69899200Y-139574900D01*
X69899200Y-139574900D02*
X70227000Y-139902700D01*
X136319000Y-142709300D02*
X134749400Y-141139700D01*
%TO.N,/D4*%
X69170100Y-142961500D02*
X69165800Y-142965800D01*
X69165800Y-142965800D02*
X75804300Y-149604300D01*
X69170100Y-126492700D02*
X69170100Y-142961500D01*
X75804300Y-149604300D02*
X75804300Y-157450200D01*
%TO.N,/D5*%
X102720200Y-145611100D02*
X101269100Y-144160000D01*
X103480000Y-152540000D02*
X102720200Y-151780200D01*
X102720200Y-151780200D02*
X102720200Y-145611100D01*
X72741700Y-138703200D02*
X72741700Y-137181700D01*
X74910000Y-140871500D02*
X72741700Y-138703200D01*
X74910000Y-140907200D02*
X74910000Y-140871500D01*
X72741700Y-137181700D02*
X72830000Y-137093400D01*
%TO.N,/D6*%
X106020000Y-152540000D02*
X106142300Y-152662300D01*
X70820200Y-157438000D02*
X69455300Y-156073100D01*
X69455300Y-156073100D02*
X69455300Y-145179300D01*
X67261300Y-142985300D02*
X67261300Y-125266700D01*
X106142300Y-152662300D02*
X106142300Y-157800500D01*
X69455300Y-145179300D02*
X67261300Y-142985300D01*
%TO.N,/D7*%
X108560000Y-152540000D02*
X108560000Y-142941600D01*
X70581900Y-137982800D02*
X71600400Y-139001300D01*
X108560000Y-142941600D02*
X107728400Y-142110000D01*
X71600400Y-139001300D02*
X71600400Y-140833800D01*
X70581900Y-136268900D02*
X70581900Y-137982800D01*
%TO.N,/A1*%
X125055700Y-159490200D02*
X124858300Y-159687600D01*
X123800000Y-142755600D02*
X125055700Y-144011300D01*
X123800000Y-137300000D02*
X123800000Y-142755600D01*
X125055700Y-144011300D02*
X125055700Y-159490200D01*
%TO.N,/A4*%
X87061600Y-137890700D02*
X86139500Y-136968600D01*
X87061600Y-159427100D02*
X87061600Y-137890700D01*
%TO.N,/A3*%
X83722400Y-136278600D02*
X86475700Y-136278600D01*
X88616000Y-138418900D02*
X88616000Y-158931600D01*
X86475700Y-136278600D02*
X88616000Y-138418900D01*
%TO.N,/A2*%
X86789000Y-161003300D02*
X86372700Y-160587000D01*
X86789000Y-162500400D02*
X86789000Y-161003300D01*
X86372700Y-138583600D02*
X84904400Y-137115300D01*
X87560700Y-163272100D02*
X86789000Y-162500400D01*
X94396900Y-163272100D02*
X87560700Y-163272100D01*
X86372700Y-160587000D02*
X86372700Y-138583600D01*
X95679000Y-161990000D02*
X94396900Y-163272100D01*
%TO.N,/A5*%
X91960000Y-143392700D02*
X92474000Y-143392700D01*
X92474000Y-143392700D02*
X93230000Y-144148700D01*
X93230000Y-144148700D02*
X93230000Y-152575500D01*
X91960000Y-142160000D02*
X91960000Y-143392700D01*
X93230000Y-152575500D02*
X93230000Y-156819000D01*
X93230000Y-156819000D02*
X88059000Y-161990000D01*
%TO.N,/A6*%
X85513400Y-156292100D02*
X85133800Y-156671700D01*
X85133800Y-161604800D02*
X85133800Y-156671700D01*
X85519000Y-161990000D02*
X85133800Y-161604800D01*
X85513400Y-147949700D02*
X85513400Y-156292100D01*
%TO.N,/A7*%
X91960000Y-152744400D02*
X91960000Y-147240000D01*
X87055400Y-160302800D02*
X88210300Y-160302800D01*
X88210300Y-160302800D02*
X89637100Y-158876000D01*
X89637100Y-158876000D02*
X89637100Y-155067300D01*
X89637100Y-155067300D02*
X91960000Y-152744400D01*
%TO.N,/A0*%
X127546900Y-144804900D02*
X126340000Y-143598000D01*
X126600200Y-154792400D02*
X127546900Y-153845700D01*
X126600200Y-160125600D02*
X126600200Y-154792400D01*
X126340000Y-143598000D02*
X126340000Y-137300000D01*
X127546900Y-153845700D02*
X127546900Y-144804900D01*
%TO.N,/~{RTC_CS}*%
X81896700Y-119460000D02*
X86334100Y-123897400D01*
X105614700Y-122605600D02*
X105614700Y-123020500D01*
X105614700Y-123020500D02*
X109025200Y-126431000D01*
X81400000Y-119460000D02*
X81896700Y-119460000D01*
X111919000Y-130724500D02*
X109025200Y-127830700D01*
X109025200Y-127830700D02*
X109025200Y-126431000D01*
%TO.N,/~{A5}*%
X96492400Y-145970000D02*
X95770000Y-146692400D01*
X97040000Y-143392700D02*
X97502300Y-143392700D01*
X97040000Y-142160000D02*
X97040000Y-143392700D01*
X95770000Y-155890900D02*
X94741700Y-156919200D01*
X97564900Y-145970000D02*
X96492400Y-145970000D01*
X97502300Y-143392700D02*
X98319500Y-144209900D01*
X98319500Y-144209900D02*
X98319500Y-145215400D01*
X98319500Y-145215400D02*
X97564900Y-145970000D01*
X95770000Y-146692400D02*
X95770000Y-155890900D01*
%TO.N,+5V*%
X76478200Y-145921800D02*
X76700000Y-145700000D01*
D18*
X76478200Y-147500000D02*
X76478200Y-145721800D01*
D20*
X76478200Y-147628200D02*
X77000000Y-148150000D01*
D19*
X76478200Y-145721800D02*
X76500000Y-145700000D01*
D20*
X76478200Y-147500000D02*
X76478200Y-147628200D01*
D18*
X110460500Y-137939500D02*
X111100000Y-137300000D01*
X91781700Y-123768300D02*
X91781700Y-129262500D01*
X97615000Y-151762500D02*
X97615000Y-153766000D01*
X96090000Y-119460000D02*
X91781700Y-123768300D01*
X97615000Y-153766000D02*
X105839000Y-161990000D01*
X65292000Y-147857500D02*
X64988600Y-147554100D01*
X102819000Y-129019000D02*
X102819000Y-128139600D01*
X111100000Y-137300000D02*
X102819000Y-129019000D01*
X110460500Y-150540300D02*
X110460500Y-137939500D01*
X64988600Y-147554100D02*
X64988600Y-129362500D01*
D19*
%TO.N,/AS6*%
X98577700Y-133129500D02*
X95732700Y-135974500D01*
X95732700Y-143467300D02*
X94500000Y-144700000D01*
X95732700Y-135974500D02*
X95732700Y-143467300D01*
%TO.N,/AS5*%
X93267300Y-132831900D02*
X93267300Y-142160000D01*
X95444300Y-130654900D02*
X93267300Y-132831900D01*
X94500000Y-142160000D02*
X93267300Y-142160000D01*
%TO.N,/AS7*%
X107218700Y-135288700D02*
X107218700Y-140869800D01*
X104180900Y-132250900D02*
X107218700Y-135288700D01*
X107218700Y-140869800D02*
X106410000Y-141678500D01*
X106410000Y-141678500D02*
X106410000Y-144050300D01*
%TO.N,/~{RTC_WR}*%
X77627300Y-126845300D02*
X77627300Y-122758500D01*
X76319600Y-128153000D02*
X77627300Y-126845300D01*
%TO.N,/~{RTC_RD}*%
X84330700Y-148468200D02*
X84330700Y-137751900D01*
X81898200Y-150900700D02*
X84330700Y-148468200D01*
%TO.N,Net-(J5-Pin_5)*%
X80388400Y-128863500D02*
X75563500Y-128863500D01*
X83152900Y-126099000D02*
X80388400Y-128863500D01*
X75563500Y-128863500D02*
X68700000Y-122000000D01*
%TO.N,Net-(J5-Pin_1)*%
X67430000Y-122525900D02*
X67430000Y-121452400D01*
X67430000Y-121452400D02*
X68152400Y-120730000D01*
X64852700Y-122462400D02*
X65623000Y-123232700D01*
X68152400Y-120730000D02*
X71802100Y-120730000D01*
X63620000Y-122000000D02*
X64852700Y-122000000D01*
X66723200Y-123232700D02*
X67430000Y-122525900D01*
X65623000Y-123232700D02*
X66723200Y-123232700D01*
X72510000Y-121437900D02*
X72510000Y-124338700D01*
X71802100Y-120730000D02*
X72510000Y-121437900D01*
X64852700Y-122000000D02*
X64852700Y-122462400D01*
X72510000Y-124338700D02*
X74850900Y-126679600D01*
%TO.N,/RTC_CLK*%
X64018100Y-128378000D02*
X64275100Y-128121000D01*
X64018100Y-145769900D02*
X64018100Y-128378000D01*
%TO.N,Net-(J5-Pin_15)*%
X81400000Y-122000000D02*
X91885700Y-132485700D01*
X91885700Y-132485700D02*
X91885700Y-134915800D01*
%TO.N,/RTC_IN*%
X72110100Y-137072800D02*
X71496200Y-136458900D01*
X72110100Y-138792300D02*
X72110100Y-137072800D01*
X72838100Y-139520300D02*
X72110100Y-138792300D01*
X73224800Y-142788400D02*
X72838100Y-142401700D01*
X72838100Y-142401700D02*
X72838100Y-139520300D01*
%TO.N,/RTC_CE*%
X70094900Y-125775600D02*
X70289800Y-125970500D01*
X68858600Y-125775600D02*
X70094900Y-125775600D01*
X68487300Y-143236300D02*
X68487300Y-126146900D01*
X68487300Y-126146900D02*
X68858600Y-125775600D01*
X70061900Y-145725100D02*
X70061900Y-144810900D01*
X70061900Y-145725100D02*
X70138000Y-145725100D01*
X70061900Y-144810900D02*
X68487300Y-143236300D01*
%TO.N,/RTC_WE*%
X75757100Y-145039400D02*
X75757100Y-140601900D01*
X75757100Y-140601900D02*
X73439500Y-138284300D01*
%TO.N,/CLOCK*%
X111666600Y-143592100D02*
X111666600Y-151285300D01*
X111666600Y-151285300D02*
X112370000Y-151988700D01*
X113459000Y-154483000D02*
X113459000Y-161990000D01*
X133960000Y-137300000D02*
X135586900Y-138926900D01*
X112370000Y-153394000D02*
X113459000Y-154483000D01*
X135586900Y-138926900D02*
X135586900Y-140908700D01*
X112370000Y-151988700D02*
X112370000Y-153394000D01*
%TO.N,/~{INT}*%
X128700000Y-157900000D02*
X128700000Y-157600000D01*
X128700000Y-157600000D02*
X128880000Y-157420000D01*
X115999000Y-157999000D02*
X115900000Y-157900000D01*
X115999000Y-161990000D02*
X115999000Y-157999000D01*
X128880000Y-157420000D02*
X128880000Y-152540000D01*
%TO.N,/~{RESET}*%
X128880000Y-137300000D02*
X127640600Y-138539400D01*
X107045700Y-141827300D02*
X107045700Y-142392700D01*
X127640600Y-138539400D02*
X127640600Y-139304600D01*
X107353600Y-142700600D02*
X107353600Y-158424600D01*
X107353600Y-158424600D02*
X110919000Y-161990000D01*
X108235300Y-139456000D02*
X108235300Y-140637700D01*
X108235300Y-140637700D02*
X107045700Y-141827300D01*
X107045700Y-142392700D02*
X107353600Y-142700600D01*
%TO.N,/~{WR}*%
X114910000Y-134022700D02*
X113101900Y-132214600D01*
X124889100Y-162475500D02*
X124889100Y-161478700D01*
X115644400Y-153746000D02*
X114910000Y-153011600D01*
X122339600Y-163250600D02*
X124114000Y-163250600D01*
X114910000Y-153011600D02*
X114910000Y-134022700D01*
X117156400Y-153746000D02*
X115644400Y-153746000D01*
X121079000Y-161990000D02*
X122339600Y-163250600D01*
X124889100Y-161478700D02*
X117156400Y-153746000D01*
X124114000Y-163250600D02*
X124889100Y-162475500D01*
%TO.N,/~{RD}*%
X112620000Y-131731100D02*
X112620000Y-129204000D01*
X112447700Y-151345600D02*
X112447700Y-135326100D01*
X112419200Y-132497300D02*
X112419200Y-131931900D01*
X112419200Y-131931900D02*
X112620000Y-131731100D01*
X112447700Y-135326100D02*
X112620000Y-135153800D01*
X112620000Y-132698100D02*
X112419200Y-132497300D01*
X113640000Y-152540000D02*
X113640000Y-152537900D01*
X112620000Y-135153800D02*
X112620000Y-132698100D01*
X113640000Y-152537900D02*
X112447700Y-151345600D01*
X113640000Y-152540000D02*
X123090000Y-161990000D01*
X123090000Y-161990000D02*
X123619000Y-161990000D01*
X112620000Y-129204000D02*
X111891100Y-128475100D01*
%TO.N,/~{IORQ}*%
X123800000Y-153764500D02*
X118244300Y-153764500D01*
X123800000Y-159631000D02*
X123800000Y-153764500D01*
X118244300Y-153764500D02*
X117450000Y-152970200D01*
X98496800Y-137904000D02*
X98496800Y-142510800D01*
X126159000Y-161990000D02*
X123800000Y-159631000D01*
X117450000Y-151629200D02*
X116636900Y-150816100D01*
X97313400Y-136720600D02*
X98496800Y-137904000D01*
X116636900Y-150816100D02*
X116636900Y-143340400D01*
X117450000Y-152970200D02*
X117450000Y-151629200D01*
X97313400Y-136720600D02*
X97313400Y-136476500D01*
X123800000Y-153764500D02*
X123800000Y-152540000D01*
%TO.N,/~{M1}*%
X99201300Y-136747200D02*
X99201300Y-154045700D01*
X103516600Y-158361000D02*
X104676200Y-158361000D01*
X104676200Y-149950400D02*
X104676200Y-158361000D01*
X104676200Y-158361000D02*
X104750000Y-158361000D01*
X99201300Y-154045700D02*
X103516600Y-158361000D01*
X103569400Y-148843600D02*
X104676200Y-149950400D01*
X104750000Y-158361000D02*
X108379000Y-161990000D01*
X133781100Y-148565000D02*
X133960000Y-148743900D01*
X97685100Y-135231000D02*
X99201300Y-136747200D01*
X133960000Y-148743900D02*
X133960000Y-152540000D01*
%TO.N,/VBAT*%
X73907500Y-141377200D02*
X73901400Y-141371100D01*
X73907500Y-145163400D02*
X73907500Y-141377200D01*
X73426700Y-145644200D02*
X73907500Y-145163400D01*
%TO.N,/~{CTC_CS}*%
X124451400Y-117260000D02*
X73440000Y-117260000D01*
X131420000Y-137300000D02*
X131420000Y-124228600D01*
X73440000Y-117260000D02*
X71240000Y-119460000D01*
X131420000Y-124228600D02*
X124451400Y-117260000D01*
%TO.N,/C2_IN*%
X118720000Y-130361200D02*
X112818900Y-124460100D01*
X118720000Y-137300000D02*
X118720000Y-130361200D01*
%TO.N,/IEI*%
X99711100Y-153666500D02*
X99711100Y-135054100D01*
X99285900Y-126428600D02*
X96090000Y-123232700D01*
X101505200Y-155384500D02*
X101506400Y-155383300D01*
X101505200Y-155460600D02*
X101505200Y-155384500D01*
X131420000Y-156480000D02*
X131420000Y-152540000D01*
X101505200Y-155460600D02*
X99711100Y-153666500D01*
X99285900Y-134628900D02*
X99285900Y-126428600D01*
X99711100Y-135054100D02*
X99285900Y-134628900D01*
X131400000Y-156500000D02*
X131420000Y-156480000D01*
X96090000Y-122000000D02*
X96090000Y-123232700D01*
%TO.N,/C3_IN*%
X103796800Y-121913200D02*
X103710000Y-122000000D01*
X117101400Y-135492000D02*
X117101400Y-132719900D01*
X117101400Y-132719900D02*
X106294700Y-121913200D01*
X106294700Y-121913200D02*
X103796800Y-121913200D01*
%TO.N,/C1_OUT*%
X117485700Y-150585000D02*
X117485700Y-136073200D01*
X118720000Y-152540000D02*
X118720000Y-151819300D01*
X117784100Y-135774800D02*
X117784100Y-132681800D01*
X117784100Y-132681800D02*
X105832300Y-120730000D01*
X117485700Y-136073200D02*
X117784100Y-135774800D01*
X99900000Y-120730000D02*
X98630000Y-119460000D01*
X105832300Y-120730000D02*
X99900000Y-120730000D01*
X118720000Y-151819300D02*
X117485700Y-150585000D01*
%TO.N,/C2_OUT*%
X115026000Y-124208500D02*
X122066700Y-131249200D01*
X122450600Y-151349400D02*
X121260000Y-152540000D01*
X122066700Y-135582000D02*
X122450600Y-135965900D01*
X122066700Y-131249200D02*
X122066700Y-135582000D01*
X122450600Y-135965900D02*
X122450600Y-151349400D01*
%TO.N,/CTC_CLK*%
X124803000Y-127703200D02*
X122749400Y-129756800D01*
X122749400Y-129756800D02*
X122749400Y-135299300D01*
%TO.N,/IEO*%
X124074700Y-133739900D02*
X125070000Y-134735200D01*
X111501000Y-134871000D02*
X111937300Y-134871000D01*
X98630000Y-122000000D02*
X111501000Y-134871000D01*
X125070000Y-143048800D02*
X126340000Y-144318800D01*
X125070000Y-134735200D02*
X125070000Y-143048800D01*
X126340000Y-144318800D02*
X126340000Y-152540000D01*
%TO.N,Net-(U7-~{E0})*%
X103017300Y-131483500D02*
X100061800Y-134439000D01*
X103017300Y-131050000D02*
X103017300Y-131483500D01*
%TO.N,Net-(U8-CLK{slash}TRG1)*%
X116180000Y-137300000D02*
X115954200Y-137525800D01*
X115954200Y-152314200D02*
X116180000Y-152540000D01*
X115954200Y-137525800D02*
X115954200Y-152314200D01*
%TD*%
%TA.AperFunction,Conductor*%
%TO.N,GND*%
G36*
X102833075Y-162182993D02*
G01*
X102898901Y-162297007D01*
X102991993Y-162390099D01*
X103106007Y-162455925D01*
X103169590Y-162472962D01*
X102537282Y-163105269D01*
X102537282Y-163105270D01*
X102591449Y-163144624D01*
X102780782Y-163241095D01*
X102831483Y-163257569D01*
X102889158Y-163297006D01*
X102916357Y-163361365D01*
X102904442Y-163430211D01*
X102857198Y-163481687D01*
X102793165Y-163499500D01*
X101292343Y-163499500D01*
X101225304Y-163479815D01*
X101179549Y-163427011D01*
X101169605Y-163357853D01*
X101198630Y-163294297D01*
X101254025Y-163257569D01*
X101280480Y-163248973D01*
X101280483Y-163248972D01*
X101471009Y-163151894D01*
X101644004Y-163026206D01*
X101795206Y-162875004D01*
X101920894Y-162702009D01*
X101923283Y-162697319D01*
X101971254Y-162646522D01*
X102039074Y-162629724D01*
X102105210Y-162652258D01*
X102141196Y-162693783D01*
X102141829Y-162693396D01*
X102144167Y-162697211D01*
X102144251Y-162697308D01*
X102144371Y-162697545D01*
X102144373Y-162697547D01*
X102183728Y-162751716D01*
X102816037Y-162119408D01*
X102833075Y-162182993D01*
G37*
%TD.AperFunction*%
%TA.AperFunction,Conductor*%
G36*
X104414270Y-162751717D02*
G01*
X104414270Y-162751716D01*
X104453621Y-162697556D01*
X104453738Y-162697327D01*
X104453808Y-162697252D01*
X104456168Y-162693402D01*
X104456976Y-162693897D01*
X104501707Y-162646526D01*
X104569526Y-162629723D01*
X104635663Y-162652254D01*
X104674712Y-162697311D01*
X104677105Y-162702008D01*
X104713220Y-162751716D01*
X104802794Y-162875004D01*
X104953996Y-163026206D01*
X105126991Y-163151894D01*
X105220438Y-163199507D01*
X105317516Y-163248972D01*
X105317519Y-163248973D01*
X105343975Y-163257569D01*
X105401650Y-163297006D01*
X105428849Y-163361365D01*
X105416935Y-163430211D01*
X105369691Y-163481687D01*
X105305657Y-163499500D01*
X103804835Y-163499500D01*
X103737796Y-163479815D01*
X103692041Y-163427011D01*
X103682097Y-163357853D01*
X103711122Y-163294297D01*
X103766517Y-163257569D01*
X103817217Y-163241095D01*
X104006554Y-163144622D01*
X104060716Y-163105270D01*
X104060717Y-163105270D01*
X103428408Y-162472962D01*
X103491993Y-162455925D01*
X103606007Y-162390099D01*
X103699099Y-162297007D01*
X103764925Y-162182993D01*
X103781962Y-162119408D01*
X104414270Y-162751717D01*
G37*
%TD.AperFunction*%
%TA.AperFunction,Conductor*%
G36*
X163442539Y-117020185D02*
G01*
X163488294Y-117072989D01*
X163499500Y-117124500D01*
X163499500Y-163375500D01*
X163479815Y-163442539D01*
X163427011Y-163488294D01*
X163375500Y-163499500D01*
X162252343Y-163499500D01*
X162185304Y-163479815D01*
X162139549Y-163427011D01*
X162129605Y-163357853D01*
X162158630Y-163294297D01*
X162214025Y-163257569D01*
X162240480Y-163248973D01*
X162240483Y-163248972D01*
X162431009Y-163151894D01*
X162604004Y-163026206D01*
X162755206Y-162875004D01*
X162880894Y-162702009D01*
X162977972Y-162511483D01*
X163044049Y-162308116D01*
X163077500Y-162096916D01*
X163077500Y-161883084D01*
X163044049Y-161671884D01*
X162977972Y-161468517D01*
X162977972Y-161468516D01*
X162928507Y-161371438D01*
X162880894Y-161277991D01*
X162755206Y-161104996D01*
X162604004Y-160953794D01*
X162431009Y-160828106D01*
X162403833Y-160814259D01*
X162240483Y-160731027D01*
X162240480Y-160731026D01*
X162037117Y-160664951D01*
X161925111Y-160647211D01*
X161825916Y-160631500D01*
X161612084Y-160631500D01*
X161552685Y-160640908D01*
X161400882Y-160664951D01*
X161197519Y-160731026D01*
X161197516Y-160731027D01*
X161006990Y-160828106D01*
X160833993Y-160953796D01*
X160682796Y-161104993D01*
X160557105Y-161277991D01*
X160554727Y-161281873D01*
X160502914Y-161328748D01*
X160433984Y-161340169D01*
X160369822Y-161312512D01*
X160343273Y-161281873D01*
X160340894Y-161277991D01*
X160219134Y-161110403D01*
X160215206Y-161104996D01*
X160064004Y-160953794D01*
X159891009Y-160828106D01*
X159863833Y-160814259D01*
X159700483Y-160731027D01*
X159700480Y-160731026D01*
X159497117Y-160664951D01*
X159385111Y-160647211D01*
X159285916Y-160631500D01*
X159072084Y-160631500D01*
X159012685Y-160640908D01*
X158860882Y-160664951D01*
X158657519Y-160731026D01*
X158657516Y-160731027D01*
X158466990Y-160828106D01*
X158293993Y-160953796D01*
X158142796Y-161104993D01*
X158017105Y-161277991D01*
X158014727Y-161281873D01*
X157962914Y-161328748D01*
X157893984Y-161340169D01*
X157829822Y-161312512D01*
X157803273Y-161281873D01*
X157800894Y-161277991D01*
X157679134Y-161110403D01*
X157675206Y-161104996D01*
X157524004Y-160953794D01*
X157351009Y-160828106D01*
X157323833Y-160814259D01*
X157160483Y-160731027D01*
X157160480Y-160731026D01*
X156957117Y-160664951D01*
X156845111Y-160647211D01*
X156745916Y-160631500D01*
X156532084Y-160631500D01*
X156472685Y-160640908D01*
X156320882Y-160664951D01*
X156117519Y-160731026D01*
X156117516Y-160731027D01*
X155926990Y-160828106D01*
X155753993Y-160953796D01*
X155602796Y-161104993D01*
X155477105Y-161277991D01*
X155474727Y-161281873D01*
X155422914Y-161328748D01*
X155353984Y-161340169D01*
X155289822Y-161312512D01*
X155263273Y-161281873D01*
X155260894Y-161277991D01*
X155139134Y-161110403D01*
X155135206Y-161104996D01*
X154984004Y-160953794D01*
X154811009Y-160828106D01*
X154783833Y-160814259D01*
X154620483Y-160731027D01*
X154620480Y-160731026D01*
X154417117Y-160664951D01*
X154305111Y-160647211D01*
X154205916Y-160631500D01*
X153992084Y-160631500D01*
X153932685Y-160640908D01*
X153780882Y-160664951D01*
X153577519Y-160731026D01*
X153577516Y-160731027D01*
X153386990Y-160828106D01*
X153213993Y-160953796D01*
X153062796Y-161104993D01*
X152937105Y-161277991D01*
X152934727Y-161281873D01*
X152882914Y-161328748D01*
X152813984Y-161340169D01*
X152749822Y-161312512D01*
X152723273Y-161281873D01*
X152720894Y-161277991D01*
X152599134Y-161110403D01*
X152595206Y-161104996D01*
X152444004Y-160953794D01*
X152271009Y-160828106D01*
X152243833Y-160814259D01*
X152080483Y-160731027D01*
X152080480Y-160731026D01*
X151877117Y-160664951D01*
X151765111Y-160647211D01*
X151665916Y-160631500D01*
X151452084Y-160631500D01*
X151392685Y-160640908D01*
X151240882Y-160664951D01*
X151037519Y-160731026D01*
X151037516Y-160731027D01*
X150846990Y-160828106D01*
X150673993Y-160953796D01*
X150522796Y-161104993D01*
X150397105Y-161277991D01*
X150394727Y-161281873D01*
X150342914Y-161328748D01*
X150273984Y-161340169D01*
X150209822Y-161312512D01*
X150183273Y-161281873D01*
X150180894Y-161277991D01*
X150059134Y-161110403D01*
X150055206Y-161104996D01*
X149904004Y-160953794D01*
X149731009Y-160828106D01*
X149703833Y-160814259D01*
X149540483Y-160731027D01*
X149540480Y-160731026D01*
X149337117Y-160664951D01*
X149225111Y-160647211D01*
X149125916Y-160631500D01*
X148912084Y-160631500D01*
X148852685Y-160640908D01*
X148700882Y-160664951D01*
X148497519Y-160731026D01*
X148497516Y-160731027D01*
X148306990Y-160828106D01*
X148133993Y-160953796D01*
X147982796Y-161104993D01*
X147857105Y-161277991D01*
X147854727Y-161281873D01*
X147802914Y-161328748D01*
X147733984Y-161340169D01*
X147669822Y-161312512D01*
X147643273Y-161281873D01*
X147640894Y-161277991D01*
X147519134Y-161110403D01*
X147515206Y-161104996D01*
X147364004Y-160953794D01*
X147191009Y-160828106D01*
X147163833Y-160814259D01*
X147000483Y-160731027D01*
X147000480Y-160731026D01*
X146797117Y-160664951D01*
X146685111Y-160647211D01*
X146585916Y-160631500D01*
X146372084Y-160631500D01*
X146312685Y-160640908D01*
X146160882Y-160664951D01*
X145957519Y-160731026D01*
X145957516Y-160731027D01*
X145766990Y-160828106D01*
X145593993Y-160953796D01*
X145442796Y-161104993D01*
X145317105Y-161277991D01*
X145314727Y-161281873D01*
X145262914Y-161328748D01*
X145193984Y-161340169D01*
X145129822Y-161312512D01*
X145103273Y-161281873D01*
X145100894Y-161277991D01*
X144979134Y-161110403D01*
X144975206Y-161104996D01*
X144824004Y-160953794D01*
X144651009Y-160828106D01*
X144623833Y-160814259D01*
X144460483Y-160731027D01*
X144460480Y-160731026D01*
X144257117Y-160664951D01*
X144145111Y-160647211D01*
X144045916Y-160631500D01*
X143832084Y-160631500D01*
X143772685Y-160640908D01*
X143620882Y-160664951D01*
X143417519Y-160731026D01*
X143417516Y-160731027D01*
X143226990Y-160828106D01*
X143053993Y-160953796D01*
X142902796Y-161104993D01*
X142777105Y-161277991D01*
X142774727Y-161281873D01*
X142722914Y-161328748D01*
X142653984Y-161340169D01*
X142589822Y-161312512D01*
X142563273Y-161281873D01*
X142560894Y-161277991D01*
X142439134Y-161110403D01*
X142435206Y-161104996D01*
X142284004Y-160953794D01*
X142111009Y-160828106D01*
X142083833Y-160814259D01*
X141920483Y-160731027D01*
X141920480Y-160731026D01*
X141717117Y-160664951D01*
X141605111Y-160647211D01*
X141505916Y-160631500D01*
X141292084Y-160631500D01*
X141232685Y-160640908D01*
X141080882Y-160664951D01*
X140877519Y-160731026D01*
X140877516Y-160731027D01*
X140686990Y-160828106D01*
X140513993Y-160953796D01*
X140362796Y-161104993D01*
X140237105Y-161277991D01*
X140234727Y-161281873D01*
X140182914Y-161328748D01*
X140113984Y-161340169D01*
X140049822Y-161312512D01*
X140023273Y-161281873D01*
X140020894Y-161277991D01*
X139899134Y-161110403D01*
X139895206Y-161104996D01*
X139744004Y-160953794D01*
X139571009Y-160828106D01*
X139543833Y-160814259D01*
X139380483Y-160731027D01*
X139380480Y-160731026D01*
X139177117Y-160664951D01*
X139065111Y-160647211D01*
X138965916Y-160631500D01*
X138752084Y-160631500D01*
X138692685Y-160640908D01*
X138540882Y-160664951D01*
X138337519Y-160731026D01*
X138337516Y-160731027D01*
X138146990Y-160828106D01*
X137973993Y-160953796D01*
X137822796Y-161104993D01*
X137697105Y-161277991D01*
X137694727Y-161281873D01*
X137642914Y-161328748D01*
X137573984Y-161340169D01*
X137509822Y-161312512D01*
X137483273Y-161281873D01*
X137480894Y-161277991D01*
X137359134Y-161110403D01*
X137355206Y-161104996D01*
X137204004Y-160953794D01*
X137031009Y-160828106D01*
X137022203Y-160823619D01*
X136971408Y-160775644D01*
X136954500Y-160713135D01*
X136954500Y-142646708D01*
X136954499Y-142646704D01*
X136930078Y-142523931D01*
X136929914Y-142523534D01*
X136882176Y-142408284D01*
X136882169Y-142408271D01*
X136812626Y-142304193D01*
X136812625Y-142304192D01*
X136724108Y-142215675D01*
X136161394Y-141652961D01*
X136127909Y-141591638D01*
X136132893Y-141521946D01*
X136161394Y-141477599D01*
X136214898Y-141424094D01*
X136214903Y-141424089D01*
X136303383Y-141291668D01*
X136364330Y-141144531D01*
X136395400Y-140988330D01*
X136395400Y-140829070D01*
X136364330Y-140672869D01*
X136309007Y-140539309D01*
X136303384Y-140525733D01*
X136243297Y-140435806D01*
X136222420Y-140369128D01*
X136222400Y-140366916D01*
X136222400Y-138864308D01*
X136222399Y-138864304D01*
X136212333Y-138813698D01*
X136197978Y-138741531D01*
X136183732Y-138707137D01*
X136150076Y-138625884D01*
X136150069Y-138625871D01*
X136080526Y-138521793D01*
X136039305Y-138480572D01*
X135992008Y-138433275D01*
X135271229Y-137712496D01*
X135237744Y-137651173D01*
X135236437Y-137605417D01*
X135252415Y-137504539D01*
X135268500Y-137402981D01*
X135268500Y-137197019D01*
X135257079Y-137124909D01*
X135236280Y-136993591D01*
X135174419Y-136803204D01*
X135172634Y-136797710D01*
X135172632Y-136797707D01*
X135172632Y-136797705D01*
X135103266Y-136661569D01*
X135079129Y-136614197D01*
X135052839Y-136578012D01*
X134958073Y-136447576D01*
X134958069Y-136447571D01*
X134812428Y-136301930D01*
X134812423Y-136301926D01*
X134645806Y-136180873D01*
X134645805Y-136180872D01*
X134645803Y-136180871D01*
X134498118Y-136105621D01*
X134498117Y-136105620D01*
X134462296Y-136087368D01*
X134266408Y-136023719D01*
X134116705Y-136000009D01*
X138929550Y-136000009D01*
X138929550Y-136199990D01*
X138960834Y-136397511D01*
X139022629Y-136587700D01*
X139099472Y-136738511D01*
X139113421Y-136765887D01*
X139230967Y-136927675D01*
X139372375Y-137069083D01*
X139534163Y-137186629D01*
X139687516Y-137264767D01*
X139712349Y-137277420D01*
X139780964Y-137299714D01*
X139902540Y-137339216D01*
X140100059Y-137370500D01*
X140100060Y-137370500D01*
X140300040Y-137370500D01*
X140300041Y-137370500D01*
X140497560Y-137339216D01*
X140687753Y-137277419D01*
X140865937Y-137186629D01*
X141027725Y-137069083D01*
X141169133Y-136927675D01*
X141286679Y-136765887D01*
X141377469Y-136587703D01*
X141439266Y-136397510D01*
X141470550Y-136199991D01*
X141470550Y-136000678D01*
X158938010Y-136000678D01*
X158938010Y-136199321D01*
X158969085Y-136395520D01*
X158969085Y-136395523D01*
X159030467Y-136584437D01*
X159120651Y-136761432D01*
X159147740Y-136798715D01*
X159147741Y-136798716D01*
X159710514Y-136235942D01*
X159726629Y-136296081D01*
X159793508Y-136411920D01*
X159888090Y-136506502D01*
X160003929Y-136573381D01*
X160064067Y-136589494D01*
X159501293Y-137152268D01*
X159501293Y-137152269D01*
X159538577Y-137179358D01*
X159715572Y-137269542D01*
X159904487Y-137330924D01*
X160100689Y-137362000D01*
X160299331Y-137362000D01*
X160495530Y-137330924D01*
X160495533Y-137330924D01*
X160684447Y-137269542D01*
X160861435Y-137179362D01*
X160898726Y-137152268D01*
X160335952Y-136589494D01*
X160396091Y-136573381D01*
X160511930Y-136506502D01*
X160606512Y-136411920D01*
X160673391Y-136296081D01*
X160689505Y-136235942D01*
X161252278Y-136798715D01*
X161279372Y-136761425D01*
X161369552Y-136584437D01*
X161430934Y-136395523D01*
X161430934Y-136395520D01*
X161462010Y-136199321D01*
X161462010Y-136000678D01*
X161430934Y-135804479D01*
X161430934Y-135804476D01*
X161369552Y-135615562D01*
X161279368Y-135438567D01*
X161252278Y-135401283D01*
X160689504Y-135964057D01*
X160673391Y-135903919D01*
X160606512Y-135788080D01*
X160511930Y-135693498D01*
X160396091Y-135626619D01*
X160335952Y-135610504D01*
X160898726Y-135047731D01*
X160898725Y-135047730D01*
X160861442Y-135020641D01*
X160684447Y-134930457D01*
X160495532Y-134869075D01*
X160299331Y-134838000D01*
X160100689Y-134838000D01*
X159904489Y-134869075D01*
X159904486Y-134869075D01*
X159715572Y-134930457D01*
X159538574Y-135020643D01*
X159501293Y-135047729D01*
X159501292Y-135047730D01*
X160064068Y-135610504D01*
X160003929Y-135626619D01*
X159888090Y-135693498D01*
X159793508Y-135788080D01*
X159726629Y-135903919D01*
X159710514Y-135964057D01*
X159147740Y-135401282D01*
X159147739Y-135401283D01*
X159120653Y-135438564D01*
X159030467Y-135615562D01*
X158969085Y-135804476D01*
X158969085Y-135804479D01*
X158938010Y-136000678D01*
X141470550Y-136000678D01*
X141470550Y-136000009D01*
X141439266Y-135802490D01*
X141399944Y-135681467D01*
X141377470Y-135612299D01*
X141364826Y-135587484D01*
X141286679Y-135434113D01*
X141169133Y-135272325D01*
X141027725Y-135130917D01*
X140865937Y-135013371D01*
X140830212Y-134995168D01*
X140687750Y-134922579D01*
X140497561Y-134860784D01*
X140398800Y-134845142D01*
X140300041Y-134829500D01*
X140100059Y-134829500D01*
X140046392Y-134838000D01*
X139902538Y-134860784D01*
X139712349Y-134922579D01*
X139534162Y-135013371D01*
X139441856Y-135080435D01*
X139372375Y-135130917D01*
X139372373Y-135130919D01*
X139372372Y-135130919D01*
X139230969Y-135272322D01*
X139230969Y-135272323D01*
X139230967Y-135272325D01*
X139186332Y-135333760D01*
X139113421Y-135434112D01*
X139022629Y-135612299D01*
X138960834Y-135802488D01*
X138929550Y-136000009D01*
X134116705Y-136000009D01*
X134065948Y-135991970D01*
X134062981Y-135991500D01*
X133857019Y-135991500D01*
X133842662Y-135993774D01*
X133653590Y-136023720D01*
X133653587Y-136023720D01*
X133573518Y-136049737D01*
X133503677Y-136051732D01*
X133443844Y-136015652D01*
X133413016Y-135952951D01*
X133411200Y-135931806D01*
X133411200Y-135431819D01*
X133430885Y-135364780D01*
X133483689Y-135319025D01*
X133511003Y-135310203D01*
X133577231Y-135297030D01*
X133724368Y-135236083D01*
X133856789Y-135147603D01*
X133969403Y-135034989D01*
X134057883Y-134902568D01*
X134118830Y-134755431D01*
X134149900Y-134599230D01*
X134149900Y-134439970D01*
X134118830Y-134283769D01*
X134057883Y-134136632D01*
X134029110Y-134093570D01*
X133969404Y-134004212D01*
X133969398Y-134004205D01*
X133856794Y-133891601D01*
X133856787Y-133891595D01*
X133724369Y-133803117D01*
X133577231Y-133742170D01*
X133577223Y-133742168D01*
X133421034Y-133711100D01*
X133421030Y-133711100D01*
X133261770Y-133711100D01*
X133261765Y-133711100D01*
X133105576Y-133742168D01*
X133105568Y-133742170D01*
X132958430Y-133803117D01*
X132826012Y-133891595D01*
X132826005Y-133891601D01*
X132713401Y-134004205D01*
X132713395Y-134004212D01*
X132624917Y-134136630D01*
X132563970Y-134283768D01*
X132563968Y-134283774D01*
X132542870Y-134389841D01*
X132534105Y-134406596D01*
X132530086Y-134425075D01*
X132511340Y-134450116D01*
X132510485Y-134451752D01*
X132508935Y-134453330D01*
X132370592Y-134591675D01*
X132370589Y-134591676D01*
X132282077Y-134680188D01*
X132278211Y-134684900D01*
X132277109Y-134683995D01*
X132228980Y-134724211D01*
X132159654Y-134732913D01*
X132096630Y-134702752D01*
X132059915Y-134643306D01*
X132055500Y-134610511D01*
X132055500Y-124166008D01*
X132055499Y-124166004D01*
X132048978Y-124133223D01*
X132031078Y-124043231D01*
X132009139Y-123990265D01*
X131983176Y-123927584D01*
X131983169Y-123927571D01*
X131913626Y-123823493D01*
X131886002Y-123795869D01*
X131825108Y-123734975D01*
X125302314Y-117212181D01*
X125268829Y-117150858D01*
X125273813Y-117081166D01*
X125315685Y-117025233D01*
X125381149Y-117000816D01*
X125389995Y-117000500D01*
X163375500Y-117000500D01*
X163442539Y-117020185D01*
G37*
%TD.AperFunction*%
%TA.AperFunction,Conductor*%
G36*
X98496511Y-147611897D02*
G01*
X98547987Y-147659141D01*
X98565800Y-147723175D01*
X98565800Y-151141442D01*
X98546115Y-151208481D01*
X98493311Y-151254236D01*
X98424153Y-151264180D01*
X98360597Y-151235155D01*
X98338698Y-151210333D01*
X98320678Y-151183365D01*
X98320675Y-151183361D01*
X98194138Y-151056824D01*
X98194134Y-151056821D01*
X98045342Y-150957401D01*
X98045332Y-150957396D01*
X97880000Y-150888913D01*
X97879992Y-150888911D01*
X97704483Y-150854000D01*
X97704479Y-150854000D01*
X97525521Y-150854000D01*
X97525516Y-150854000D01*
X97350007Y-150888911D01*
X97349999Y-150888913D01*
X97184667Y-150957396D01*
X97184657Y-150957401D01*
X97035865Y-151056821D01*
X97035861Y-151056824D01*
X96909324Y-151183361D01*
X96909321Y-151183365D01*
X96809901Y-151332157D01*
X96809896Y-151332167D01*
X96741413Y-151497499D01*
X96741411Y-151497507D01*
X96706500Y-151673016D01*
X96706500Y-151851983D01*
X96741411Y-152027492D01*
X96741413Y-152027500D01*
X96799303Y-152167259D01*
X96809898Y-152192836D01*
X96835602Y-152231305D01*
X96856480Y-152297982D01*
X96856500Y-152300196D01*
X96856500Y-153840706D01*
X96858050Y-153848500D01*
X96860404Y-153860329D01*
X96860404Y-153860333D01*
X96885647Y-153987239D01*
X96885649Y-153987247D01*
X96923195Y-154077892D01*
X96942826Y-154125284D01*
X96984330Y-154187399D01*
X97025835Y-154249517D01*
X97025836Y-154249518D01*
X103213667Y-160437348D01*
X103247152Y-160498671D01*
X103242168Y-160568363D01*
X103200296Y-160624296D01*
X103145384Y-160647502D01*
X102982872Y-160673242D01*
X102982869Y-160673242D01*
X102780782Y-160738904D01*
X102591439Y-160835380D01*
X102537282Y-160874727D01*
X102537282Y-160874728D01*
X103169591Y-161507037D01*
X103106007Y-161524075D01*
X102991993Y-161589901D01*
X102898901Y-161682993D01*
X102833075Y-161797007D01*
X102816037Y-161860591D01*
X102183728Y-161228282D01*
X102183727Y-161228282D01*
X102144380Y-161282440D01*
X102144374Y-161282449D01*
X102144246Y-161282702D01*
X102144172Y-161282780D01*
X102141838Y-161286590D01*
X102141036Y-161286099D01*
X102096264Y-161333490D01*
X102028441Y-161350275D01*
X101962309Y-161327728D01*
X101923283Y-161282680D01*
X101920894Y-161277991D01*
X101795206Y-161104996D01*
X101644004Y-160953794D01*
X101471009Y-160828106D01*
X101443833Y-160814259D01*
X101280483Y-160731027D01*
X101280480Y-160731026D01*
X101077117Y-160664951D01*
X100965111Y-160647211D01*
X100865916Y-160631500D01*
X100652084Y-160631500D01*
X100592685Y-160640908D01*
X100440882Y-160664951D01*
X100237519Y-160731026D01*
X100237516Y-160731027D01*
X100046990Y-160828106D01*
X99873993Y-160953796D01*
X99722796Y-161104993D01*
X99597105Y-161277991D01*
X99594727Y-161281873D01*
X99542914Y-161328748D01*
X99473984Y-161340169D01*
X99409822Y-161312512D01*
X99383273Y-161281873D01*
X99380894Y-161277991D01*
X99259134Y-161110403D01*
X99255206Y-161104996D01*
X99104004Y-160953794D01*
X98931009Y-160828106D01*
X98903833Y-160814259D01*
X98740483Y-160731027D01*
X98740480Y-160731026D01*
X98537117Y-160664951D01*
X98425111Y-160647211D01*
X98325916Y-160631500D01*
X98112084Y-160631500D01*
X98052685Y-160640908D01*
X97900882Y-160664951D01*
X97697519Y-160731026D01*
X97697516Y-160731027D01*
X97506990Y-160828106D01*
X97333993Y-160953796D01*
X97182796Y-161104993D01*
X97057105Y-161277991D01*
X97054727Y-161281873D01*
X97002914Y-161328748D01*
X96933984Y-161340169D01*
X96869822Y-161312512D01*
X96843273Y-161281873D01*
X96840894Y-161277991D01*
X96719134Y-161110403D01*
X96715206Y-161104996D01*
X96564004Y-160953794D01*
X96391009Y-160828106D01*
X96363833Y-160814259D01*
X96200483Y-160731027D01*
X96200480Y-160731026D01*
X95997117Y-160664951D01*
X95885111Y-160647211D01*
X95785916Y-160631500D01*
X95572084Y-160631500D01*
X95512685Y-160640908D01*
X95360882Y-160664951D01*
X95157519Y-160731026D01*
X95157516Y-160731027D01*
X94966990Y-160828106D01*
X94793993Y-160953796D01*
X94642796Y-161104993D01*
X94517105Y-161277991D01*
X94514727Y-161281873D01*
X94462914Y-161328748D01*
X94393984Y-161340169D01*
X94329822Y-161312512D01*
X94303273Y-161281873D01*
X94300894Y-161277991D01*
X94179134Y-161110403D01*
X94175206Y-161104996D01*
X94024004Y-160953794D01*
X93851009Y-160828106D01*
X93823833Y-160814259D01*
X93660483Y-160731027D01*
X93660480Y-160731026D01*
X93457117Y-160664951D01*
X93345111Y-160647211D01*
X93245916Y-160631500D01*
X93032084Y-160631500D01*
X92972685Y-160640908D01*
X92820882Y-160664951D01*
X92617519Y-160731026D01*
X92617516Y-160731027D01*
X92426990Y-160828106D01*
X92253993Y-160953796D01*
X92102796Y-161104993D01*
X91977105Y-161277991D01*
X91974727Y-161281873D01*
X91922914Y-161328748D01*
X91853984Y-161340169D01*
X91789822Y-161312512D01*
X91763273Y-161281873D01*
X91760894Y-161277991D01*
X91639134Y-161110403D01*
X91635206Y-161104996D01*
X91484004Y-160953794D01*
X91311009Y-160828106D01*
X91283833Y-160814259D01*
X91120483Y-160731027D01*
X91120480Y-160731026D01*
X90917117Y-160664951D01*
X90805111Y-160647211D01*
X90705916Y-160631500D01*
X90615594Y-160631500D01*
X90548555Y-160611815D01*
X90502800Y-160559011D01*
X90492856Y-160489853D01*
X90521881Y-160426297D01*
X90527913Y-160419819D01*
X92024802Y-158922931D01*
X93723625Y-157224108D01*
X93760957Y-157168235D01*
X93814568Y-157123432D01*
X93883893Y-157114723D01*
X93946921Y-157144878D01*
X93978619Y-157189673D01*
X93987565Y-157211269D01*
X94025217Y-157302169D01*
X94113695Y-157434587D01*
X94113701Y-157434594D01*
X94226305Y-157547198D01*
X94226312Y-157547204D01*
X94358730Y-157635682D01*
X94358731Y-157635682D01*
X94358732Y-157635683D01*
X94505869Y-157696630D01*
X94627733Y-157720870D01*
X94662065Y-157727699D01*
X94662069Y-157727700D01*
X94662070Y-157727700D01*
X94821331Y-157727700D01*
X94821332Y-157727699D01*
X94977531Y-157696630D01*
X95124668Y-157635683D01*
X95257089Y-157547203D01*
X95369703Y-157434589D01*
X95458183Y-157302168D01*
X95519130Y-157155031D01*
X95540229Y-157048955D01*
X95572613Y-156987046D01*
X95574165Y-156985467D01*
X96263622Y-156296011D01*
X96263622Y-156296010D01*
X96263625Y-156296008D01*
X96333173Y-156191922D01*
X96381078Y-156076269D01*
X96405500Y-155953491D01*
X96405500Y-155828309D01*
X96405500Y-148632921D01*
X96425185Y-148565882D01*
X96477989Y-148520127D01*
X96547147Y-148510183D01*
X96567811Y-148514988D01*
X96721884Y-148565049D01*
X96933084Y-148598500D01*
X96933085Y-148598500D01*
X97146915Y-148598500D01*
X97146916Y-148598500D01*
X97358116Y-148565049D01*
X97561483Y-148498972D01*
X97752009Y-148401894D01*
X97925004Y-148276206D01*
X98076206Y-148125004D01*
X98201894Y-147952009D01*
X98298972Y-147761483D01*
X98323869Y-147684858D01*
X98363306Y-147627182D01*
X98427664Y-147599983D01*
X98496511Y-147611897D01*
G37*
%TD.AperFunction*%
%TA.AperFunction,Conductor*%
G36*
X72568444Y-117020185D02*
G01*
X72614199Y-117072989D01*
X72624143Y-117142147D01*
X72595118Y-117205703D01*
X72589086Y-117212181D01*
X71693512Y-118107753D01*
X71632189Y-118141238D01*
X71567520Y-118138005D01*
X71558120Y-118134951D01*
X71386396Y-118107753D01*
X71346916Y-118101500D01*
X71133084Y-118101500D01*
X71079392Y-118110004D01*
X70921882Y-118134951D01*
X70718519Y-118201026D01*
X70718516Y-118201027D01*
X70527990Y-118298106D01*
X70354993Y-118423796D01*
X70203796Y-118574993D01*
X70078105Y-118747991D01*
X70075727Y-118751873D01*
X70023914Y-118798748D01*
X69954984Y-118810169D01*
X69890822Y-118782512D01*
X69864273Y-118751873D01*
X69861894Y-118747991D01*
X69825778Y-118698282D01*
X69736206Y-118574996D01*
X69585004Y-118423794D01*
X69412009Y-118298106D01*
X69221483Y-118201027D01*
X69221480Y-118201026D01*
X69018117Y-118134951D01*
X68912516Y-118118225D01*
X68806916Y-118101500D01*
X68593084Y-118101500D01*
X68539392Y-118110004D01*
X68381882Y-118134951D01*
X68178519Y-118201026D01*
X68178516Y-118201027D01*
X67987990Y-118298106D01*
X67814993Y-118423796D01*
X67663796Y-118574993D01*
X67538105Y-118747991D01*
X67535727Y-118751873D01*
X67483914Y-118798748D01*
X67414984Y-118810169D01*
X67350822Y-118782512D01*
X67324273Y-118751873D01*
X67321894Y-118747991D01*
X67285778Y-118698282D01*
X67196206Y-118574996D01*
X67045004Y-118423794D01*
X66872009Y-118298106D01*
X66681483Y-118201027D01*
X66681480Y-118201026D01*
X66478117Y-118134951D01*
X66372516Y-118118225D01*
X66266916Y-118101500D01*
X66053084Y-118101500D01*
X65999392Y-118110004D01*
X65841882Y-118134951D01*
X65638519Y-118201026D01*
X65638516Y-118201027D01*
X65447990Y-118298106D01*
X65274993Y-118423796D01*
X65123796Y-118574993D01*
X64998105Y-118747991D01*
X64995727Y-118751873D01*
X64943914Y-118798748D01*
X64874984Y-118810169D01*
X64810822Y-118782512D01*
X64784273Y-118751873D01*
X64781894Y-118747991D01*
X64745778Y-118698282D01*
X64656206Y-118574996D01*
X64505004Y-118423794D01*
X64332009Y-118298106D01*
X64141483Y-118201027D01*
X64141480Y-118201026D01*
X63938117Y-118134951D01*
X63832516Y-118118225D01*
X63726916Y-118101500D01*
X63513084Y-118101500D01*
X63459392Y-118110004D01*
X63301882Y-118134951D01*
X63098519Y-118201026D01*
X63098516Y-118201027D01*
X62907990Y-118298106D01*
X62734993Y-118423796D01*
X62583796Y-118574993D01*
X62458106Y-118747990D01*
X62361027Y-118938516D01*
X62361026Y-118938519D01*
X62294951Y-119141882D01*
X62261500Y-119353084D01*
X62261500Y-119566915D01*
X62294951Y-119778117D01*
X62361026Y-119981480D01*
X62361027Y-119981483D01*
X62433124Y-120122980D01*
X62458106Y-120172009D01*
X62583794Y-120345004D01*
X62583796Y-120345006D01*
X62688971Y-120450181D01*
X62722456Y-120511504D01*
X62717472Y-120581196D01*
X62675600Y-120637129D01*
X62644625Y-120654043D01*
X62523795Y-120699111D01*
X62406739Y-120786739D01*
X62319111Y-120903795D01*
X62268011Y-121040795D01*
X62268011Y-121040797D01*
X62261500Y-121101345D01*
X62261500Y-122898654D01*
X62268011Y-122959202D01*
X62268011Y-122959204D01*
X62307448Y-123064934D01*
X62319111Y-123096204D01*
X62406739Y-123213261D01*
X62523796Y-123300889D01*
X62619336Y-123336524D01*
X62660793Y-123351987D01*
X62660799Y-123351989D01*
X62688050Y-123354918D01*
X62721345Y-123358499D01*
X62721362Y-123358500D01*
X64518638Y-123358500D01*
X64518654Y-123358499D01*
X64545692Y-123355591D01*
X64579201Y-123351989D01*
X64579205Y-123351987D01*
X64579207Y-123351987D01*
X64697076Y-123308024D01*
X64766767Y-123303039D01*
X64828088Y-123336521D01*
X65129375Y-123637808D01*
X65174235Y-123682668D01*
X65217893Y-123726326D01*
X65321971Y-123795869D01*
X65321984Y-123795876D01*
X65409440Y-123832101D01*
X65437631Y-123843778D01*
X65560404Y-123868199D01*
X65560408Y-123868200D01*
X65560409Y-123868200D01*
X66785792Y-123868200D01*
X66785793Y-123868199D01*
X66908569Y-123843778D01*
X67024222Y-123795873D01*
X67128308Y-123726325D01*
X67742097Y-123112534D01*
X67803418Y-123079051D01*
X67873109Y-123084035D01*
X67902661Y-123099899D01*
X67931760Y-123121040D01*
X67987991Y-123161894D01*
X68112539Y-123225354D01*
X68178516Y-123258972D01*
X68178519Y-123258973D01*
X68243626Y-123280127D01*
X68381884Y-123325049D01*
X68593084Y-123358500D01*
X68593085Y-123358500D01*
X68806915Y-123358500D01*
X68806916Y-123358500D01*
X69018116Y-123325049D01*
X69027512Y-123321995D01*
X69097351Y-123319999D01*
X69153512Y-123352245D01*
X70935302Y-125134035D01*
X70968787Y-125195358D01*
X70963803Y-125265050D01*
X70921931Y-125320983D01*
X70856467Y-125345400D01*
X70788194Y-125330548D01*
X70778731Y-125324818D01*
X70672769Y-125254017D01*
X70525631Y-125193070D01*
X70525623Y-125193068D01*
X70369434Y-125162000D01*
X70369430Y-125162000D01*
X70279801Y-125162000D01*
X70255610Y-125159617D01*
X70211368Y-125150816D01*
X70157492Y-125140100D01*
X70157491Y-125140100D01*
X68921191Y-125140100D01*
X68796009Y-125140100D01*
X68796004Y-125140100D01*
X68673238Y-125164520D01*
X68673226Y-125164523D01*
X68557584Y-125212423D01*
X68557571Y-125212430D01*
X68453492Y-125281974D01*
X68453488Y-125281977D01*
X68279553Y-125455912D01*
X68218230Y-125489397D01*
X68148538Y-125484413D01*
X68092605Y-125442541D01*
X68068188Y-125377077D01*
X68069732Y-125352445D01*
X68069203Y-125352393D01*
X68069800Y-125346331D01*
X68069800Y-125187069D01*
X68069799Y-125187065D01*
X68059251Y-125134035D01*
X68038730Y-125030869D01*
X67977783Y-124883732D01*
X67950612Y-124843068D01*
X67889304Y-124751312D01*
X67889298Y-124751305D01*
X67776694Y-124638701D01*
X67776687Y-124638695D01*
X67644269Y-124550217D01*
X67497131Y-124489270D01*
X67497123Y-124489268D01*
X67340934Y-124458200D01*
X67340930Y-124458200D01*
X67181670Y-124458200D01*
X67181665Y-124458200D01*
X67025476Y-124489268D01*
X67025468Y-124489270D01*
X66878330Y-124550217D01*
X66745912Y-124638695D01*
X66745905Y-124638701D01*
X66633301Y-124751305D01*
X66633295Y-124751312D01*
X66544817Y-124883730D01*
X66483870Y-125030868D01*
X66483868Y-125030876D01*
X66452800Y-125187065D01*
X66452800Y-125346334D01*
X66483868Y-125502523D01*
X66483870Y-125502531D01*
X66544815Y-125649664D01*
X66544820Y-125649674D01*
X66604902Y-125739592D01*
X66625780Y-125806269D01*
X66625800Y-125808483D01*
X66625800Y-143047895D01*
X66650220Y-143170661D01*
X66650223Y-143170673D01*
X66698123Y-143286315D01*
X66698130Y-143286328D01*
X66767674Y-143390407D01*
X66767677Y-143390411D01*
X68783481Y-145406214D01*
X68816966Y-145467537D01*
X68819800Y-145493895D01*
X68819800Y-154452213D01*
X68800115Y-154519252D01*
X68747311Y-154565007D01*
X68678153Y-154574951D01*
X68614597Y-154545926D01*
X68592698Y-154521104D01*
X68583353Y-154507119D01*
X68583350Y-154507115D01*
X68442884Y-154366649D01*
X68442880Y-154366646D01*
X68277710Y-154256282D01*
X68277701Y-154256277D01*
X68094169Y-154180256D01*
X68094161Y-154180254D01*
X67899333Y-154141500D01*
X67899329Y-154141500D01*
X67700671Y-154141500D01*
X67700666Y-154141500D01*
X67505838Y-154180254D01*
X67505830Y-154180256D01*
X67322298Y-154256277D01*
X67322289Y-154256282D01*
X67157119Y-154366646D01*
X67157115Y-154366649D01*
X67016649Y-154507115D01*
X67016646Y-154507119D01*
X66906282Y-154672289D01*
X66906277Y-154672298D01*
X66830256Y-154855830D01*
X66830254Y-154855838D01*
X66791500Y-155050666D01*
X66791500Y-155249333D01*
X66830254Y-155444161D01*
X66830256Y-155444169D01*
X66906277Y-155627701D01*
X66906282Y-155627710D01*
X67016646Y-155792880D01*
X67016649Y-155792884D01*
X67157115Y-155933350D01*
X67157119Y-155933353D01*
X67252220Y-155996898D01*
X67297025Y-156050510D01*
X67305732Y-156119835D01*
X67275578Y-156182863D01*
X67252220Y-156203102D01*
X67157119Y-156266646D01*
X67157115Y-156266649D01*
X67016649Y-156407115D01*
X67016646Y-156407119D01*
X66906282Y-156572289D01*
X66906277Y-156572298D01*
X66830256Y-156755830D01*
X66830254Y-156755838D01*
X66791500Y-156950666D01*
X66791500Y-157149333D01*
X66830254Y-157344161D01*
X66830256Y-157344169D01*
X66906277Y-157527701D01*
X66906282Y-157527710D01*
X67016646Y-157692880D01*
X67016649Y-157692884D01*
X67157115Y-157833350D01*
X67157119Y-157833353D01*
X67322289Y-157943717D01*
X67322298Y-157943722D01*
X67363874Y-157960943D01*
X67505831Y-158019744D01*
X67700666Y-158058499D01*
X67700670Y-158058500D01*
X67700671Y-158058500D01*
X67899330Y-158058500D01*
X67899331Y-158058499D01*
X68094169Y-158019744D01*
X68277704Y-157943721D01*
X68442881Y-157833353D01*
X68583353Y-157692881D01*
X68693721Y-157527704D01*
X68769744Y-157344169D01*
X68808500Y-157149329D01*
X68808500Y-156950671D01*
X68769744Y-156755831D01*
X68693721Y-156572296D01*
X68693720Y-156572295D01*
X68693717Y-156572289D01*
X68583353Y-156407119D01*
X68583350Y-156407115D01*
X68442884Y-156266649D01*
X68442880Y-156266646D01*
X68347780Y-156203102D01*
X68302975Y-156149490D01*
X68294268Y-156080165D01*
X68324422Y-156017137D01*
X68347780Y-155996898D01*
X68383129Y-155973277D01*
X68442881Y-155933353D01*
X68583353Y-155792881D01*
X68592697Y-155778897D01*
X68646308Y-155734091D01*
X68715633Y-155725382D01*
X68778661Y-155755536D01*
X68815381Y-155814978D01*
X68819800Y-155847786D01*
X68819800Y-156135695D01*
X68844220Y-156258461D01*
X68844223Y-156258473D01*
X68892123Y-156374115D01*
X68892130Y-156374128D01*
X68961674Y-156478207D01*
X68961677Y-156478211D01*
X69987734Y-157504267D01*
X70021219Y-157565590D01*
X70021670Y-157567757D01*
X70042768Y-157673823D01*
X70042770Y-157673831D01*
X70103717Y-157820969D01*
X70192195Y-157953387D01*
X70192201Y-157953394D01*
X70304805Y-158065998D01*
X70304812Y-158066004D01*
X70437230Y-158154482D01*
X70437231Y-158154482D01*
X70437232Y-158154483D01*
X70584369Y-158215430D01*
X70740565Y-158246499D01*
X70740569Y-158246500D01*
X70740570Y-158246500D01*
X70899831Y-158246500D01*
X70899832Y-158246499D01*
X71056031Y-158215430D01*
X71203168Y-158154483D01*
X71335589Y-158066003D01*
X71448203Y-157953389D01*
X71536683Y-157820968D01*
X71597630Y-157673831D01*
X71628700Y-157517630D01*
X71628700Y-157358370D01*
X71597630Y-157202169D01*
X71536683Y-157055032D01*
X71502831Y-157004369D01*
X71448204Y-156922612D01*
X71448198Y-156922605D01*
X71335594Y-156810001D01*
X71335587Y-156809995D01*
X71203169Y-156721517D01*
X71056031Y-156660570D01*
X71056023Y-156660568D01*
X70949957Y-156639470D01*
X70888046Y-156607085D01*
X70886467Y-156605534D01*
X70127119Y-155846186D01*
X70093634Y-155784863D01*
X70090800Y-155758505D01*
X70090800Y-146657600D01*
X70110485Y-146590561D01*
X70163289Y-146544806D01*
X70211579Y-146534300D01*
X70211569Y-146534197D01*
X70212458Y-146534109D01*
X70214800Y-146533600D01*
X70217631Y-146533600D01*
X70217632Y-146533599D01*
X70373831Y-146502530D01*
X70520968Y-146441583D01*
X70653389Y-146353103D01*
X70766003Y-146240489D01*
X70854483Y-146108068D01*
X70915430Y-145960931D01*
X70927704Y-145899223D01*
X70960088Y-145837314D01*
X71020803Y-145802740D01*
X71090573Y-145806479D01*
X71137002Y-145835735D01*
X75132481Y-149831214D01*
X75165966Y-149892537D01*
X75168800Y-149918895D01*
X75168800Y-156908416D01*
X75149115Y-156975455D01*
X75147903Y-156977306D01*
X75087815Y-157067233D01*
X75026870Y-157214368D01*
X75026868Y-157214376D01*
X74995800Y-157370565D01*
X74995800Y-157529834D01*
X75026868Y-157686023D01*
X75026870Y-157686031D01*
X75087817Y-157833169D01*
X75176295Y-157965587D01*
X75176301Y-157965594D01*
X75288905Y-158078198D01*
X75288912Y-158078204D01*
X75421330Y-158166682D01*
X75421331Y-158166682D01*
X75421332Y-158166683D01*
X75568469Y-158227630D01*
X75724665Y-158258699D01*
X75724669Y-158258700D01*
X75724670Y-158258700D01*
X75883931Y-158258700D01*
X75883932Y-158258699D01*
X76040131Y-158227630D01*
X76187268Y-158166683D01*
X76319689Y-158078203D01*
X76432303Y-157965589D01*
X76520783Y-157833168D01*
X76581730Y-157686031D01*
X76612800Y-157529830D01*
X76612800Y-157370570D01*
X76581730Y-157214369D01*
X76536595Y-157105404D01*
X76520784Y-157067233D01*
X76460697Y-156977306D01*
X76439820Y-156910628D01*
X76439800Y-156908416D01*
X76439800Y-149541708D01*
X76439799Y-149541704D01*
X76422906Y-149456776D01*
X76415378Y-149418931D01*
X76415376Y-149418926D01*
X76367476Y-149303284D01*
X76367469Y-149303271D01*
X76297926Y-149199193D01*
X76266725Y-149167992D01*
X76209408Y-149110675D01*
X73693226Y-146594493D01*
X73659741Y-146533170D01*
X73664725Y-146463478D01*
X73706597Y-146407545D01*
X73733446Y-146392255D01*
X73809668Y-146360683D01*
X73942089Y-146272203D01*
X74054703Y-146159589D01*
X74143183Y-146027168D01*
X74204130Y-145880031D01*
X74225229Y-145773955D01*
X74257611Y-145712048D01*
X74259099Y-145710532D01*
X74401125Y-145568508D01*
X74470673Y-145464422D01*
X74518578Y-145348769D01*
X74535991Y-145261230D01*
X74543000Y-145225993D01*
X74543000Y-141903753D01*
X74548327Y-141885609D01*
X74548665Y-141866700D01*
X74562165Y-141838482D01*
X74562685Y-141836714D01*
X74563898Y-141834862D01*
X74619409Y-141751784D01*
X74673021Y-141706979D01*
X74742346Y-141698272D01*
X74746702Y-141699058D01*
X74830365Y-141715699D01*
X74830369Y-141715700D01*
X74995722Y-141715700D01*
X74995722Y-141718061D01*
X75054090Y-141729130D01*
X75104801Y-141777194D01*
X75121600Y-141839515D01*
X75121600Y-144497616D01*
X75101915Y-144564655D01*
X75100703Y-144566506D01*
X75040615Y-144656433D01*
X74979670Y-144803568D01*
X74979668Y-144803576D01*
X74948600Y-144959765D01*
X74948600Y-145119034D01*
X74979668Y-145275223D01*
X74979670Y-145275231D01*
X75040617Y-145422369D01*
X75129095Y-145554787D01*
X75129101Y-145554794D01*
X75241705Y-145667398D01*
X75241712Y-145667404D01*
X75374130Y-145755882D01*
X75374131Y-145755882D01*
X75374132Y-145755883D01*
X75521269Y-145816830D01*
X75521279Y-145816832D01*
X75527099Y-145818598D01*
X75526553Y-145820396D01*
X75580702Y-145848718D01*
X75615279Y-145909432D01*
X75616221Y-145913764D01*
X75626411Y-145964992D01*
X75626413Y-145965000D01*
X75694897Y-146130334D01*
X75694900Y-146130340D01*
X75698801Y-146136178D01*
X75719680Y-146202855D01*
X75719700Y-146205070D01*
X75719700Y-147574706D01*
X75719700Y-147574708D01*
X75719699Y-147574708D01*
X75748847Y-147721240D01*
X75748849Y-147721246D01*
X75806026Y-147859285D01*
X75807676Y-147862371D01*
X75812877Y-147873369D01*
X75850335Y-147963801D01*
X75850336Y-147963804D01*
X75927870Y-148079841D01*
X75927871Y-148079842D01*
X75927872Y-148079843D01*
X76001633Y-148153604D01*
X76065893Y-148217863D01*
X76099378Y-148279186D01*
X76099829Y-148281354D01*
X76126411Y-148414992D01*
X76126413Y-148415000D01*
X76194896Y-148580332D01*
X76194901Y-148580342D01*
X76294321Y-148729134D01*
X76294324Y-148729138D01*
X76420861Y-148855675D01*
X76420865Y-148855678D01*
X76569657Y-148955098D01*
X76569661Y-148955100D01*
X76569664Y-148955102D01*
X76735000Y-149023587D01*
X76910516Y-149058499D01*
X76910520Y-149058500D01*
X76910521Y-149058500D01*
X77089480Y-149058500D01*
X77089481Y-149058499D01*
X77265000Y-149023587D01*
X77430336Y-148955102D01*
X77579135Y-148855678D01*
X77705678Y-148729135D01*
X77805102Y-148580336D01*
X77873587Y-148415000D01*
X77908500Y-148239479D01*
X77908500Y-148060521D01*
X77873587Y-147885000D01*
X77805102Y-147719664D01*
X77805100Y-147719661D01*
X77805098Y-147719657D01*
X77705678Y-147570865D01*
X77705675Y-147570861D01*
X77579138Y-147444324D01*
X77579134Y-147444321D01*
X77430342Y-147344901D01*
X77430336Y-147344898D01*
X77313246Y-147296397D01*
X77258843Y-147252555D01*
X77236779Y-147186261D01*
X77236700Y-147181836D01*
X77236700Y-146270322D01*
X77256385Y-146203283D01*
X77257598Y-146201431D01*
X77305098Y-146130342D01*
X77305099Y-146130340D01*
X77305102Y-146130336D01*
X77373587Y-145965000D01*
X77408500Y-145789479D01*
X77408500Y-145610521D01*
X77373587Y-145435000D01*
X77305102Y-145269664D01*
X77305100Y-145269661D01*
X77305098Y-145269657D01*
X77205678Y-145120865D01*
X77205675Y-145120861D01*
X77079138Y-144994324D01*
X77079134Y-144994321D01*
X76930342Y-144894901D01*
X76930332Y-144894896D01*
X76765000Y-144826413D01*
X76764992Y-144826411D01*
X76589153Y-144791434D01*
X76588822Y-144791260D01*
X76588450Y-144791292D01*
X76557851Y-144775060D01*
X76527242Y-144759049D01*
X76526946Y-144758666D01*
X76526727Y-144758550D01*
X76525805Y-144757189D01*
X76505237Y-144730553D01*
X76501614Y-144724105D01*
X76473583Y-144656432D01*
X76410839Y-144562528D01*
X76408493Y-144558352D01*
X76401685Y-144528782D01*
X76392620Y-144499828D01*
X76392600Y-144497616D01*
X76392600Y-140539308D01*
X76392599Y-140539304D01*
X76368179Y-140416538D01*
X76368178Y-140416531D01*
X76368176Y-140416526D01*
X76320276Y-140300884D01*
X76320269Y-140300871D01*
X76250726Y-140196793D01*
X76250725Y-140196792D01*
X76162208Y-140108275D01*
X74271964Y-138218031D01*
X74238479Y-138156708D01*
X74238058Y-138154692D01*
X74216930Y-138048469D01*
X74155983Y-137901332D01*
X74145552Y-137885721D01*
X74067504Y-137768912D01*
X74067498Y-137768905D01*
X73954894Y-137656301D01*
X73954887Y-137656295D01*
X73822469Y-137567817D01*
X73723751Y-137526926D01*
X73675331Y-137506870D01*
X73675330Y-137506869D01*
X73669703Y-137504539D01*
X73670732Y-137502052D01*
X73622014Y-137470028D01*
X73593646Y-137406177D01*
X73601998Y-137342343D01*
X73607430Y-137329231D01*
X73638500Y-137173030D01*
X73638500Y-137013770D01*
X73607430Y-136857569D01*
X73546483Y-136710432D01*
X73513833Y-136661568D01*
X73458004Y-136578012D01*
X73457998Y-136578005D01*
X73345394Y-136465401D01*
X73345387Y-136465395D01*
X73212969Y-136376917D01*
X73065831Y-136315970D01*
X73065823Y-136315968D01*
X72909634Y-136284900D01*
X72909630Y-136284900D01*
X72750370Y-136284900D01*
X72750365Y-136284900D01*
X72594176Y-136315968D01*
X72594168Y-136315970D01*
X72454695Y-136373742D01*
X72385225Y-136381211D01*
X72322746Y-136349936D01*
X72287094Y-136289847D01*
X72285628Y-136283392D01*
X72273630Y-136223069D01*
X72212683Y-136075932D01*
X72206196Y-136066224D01*
X72124204Y-135943512D01*
X72124198Y-135943505D01*
X72011594Y-135830901D01*
X72011587Y-135830895D01*
X71879169Y-135742417D01*
X71732031Y-135681470D01*
X71732023Y-135681468D01*
X71575834Y-135650400D01*
X71575830Y-135650400D01*
X71416570Y-135650400D01*
X71416565Y-135650400D01*
X71260376Y-135681467D01*
X71260369Y-135681470D01*
X71250284Y-135685647D01*
X71180814Y-135693112D01*
X71118337Y-135661833D01*
X71115157Y-135658764D01*
X71097294Y-135640901D01*
X71097287Y-135640895D01*
X70964869Y-135552417D01*
X70817731Y-135491470D01*
X70817723Y-135491468D01*
X70661534Y-135460400D01*
X70661530Y-135460400D01*
X70658700Y-135460400D01*
X70657271Y-135459980D01*
X70655469Y-135459803D01*
X70655502Y-135459461D01*
X70591661Y-135440715D01*
X70545906Y-135387911D01*
X70534700Y-135336400D01*
X70534700Y-128283094D01*
X70554385Y-128216055D01*
X70571014Y-128195417D01*
X71614167Y-127152264D01*
X71675490Y-127118780D01*
X71677584Y-127118343D01*
X71783731Y-127097230D01*
X71930868Y-127036283D01*
X72063289Y-126947803D01*
X72175903Y-126835189D01*
X72264383Y-126702768D01*
X72264384Y-126702764D01*
X72267256Y-126697394D01*
X72268825Y-126698232D01*
X72307372Y-126650375D01*
X72373661Y-126628293D01*
X72441364Y-126645555D01*
X72465799Y-126664532D01*
X75158388Y-129357122D01*
X75158392Y-129357125D01*
X75262471Y-129426669D01*
X75262484Y-129426676D01*
X75378126Y-129474576D01*
X75378131Y-129474578D01*
X75500904Y-129498999D01*
X75500908Y-129499000D01*
X75500909Y-129499000D01*
X80450992Y-129499000D01*
X80450993Y-129498999D01*
X80573769Y-129474578D01*
X80689422Y-129426673D01*
X80793508Y-129357125D01*
X83219168Y-126931463D01*
X83280489Y-126897980D01*
X83282562Y-126897547D01*
X83388731Y-126876430D01*
X83535868Y-126815483D01*
X83668289Y-126727003D01*
X83780903Y-126614389D01*
X83869383Y-126481968D01*
X83930330Y-126334831D01*
X83961400Y-126178630D01*
X83961400Y-126019370D01*
X83930330Y-125863169D01*
X83892097Y-125770868D01*
X83869383Y-125716031D01*
X83868254Y-125714342D01*
X83867934Y-125713320D01*
X83866513Y-125710662D01*
X83867017Y-125710392D01*
X83847375Y-125647665D01*
X83865859Y-125580284D01*
X83917837Y-125533594D01*
X83986807Y-125522417D01*
X84050871Y-125550302D01*
X84059036Y-125557769D01*
X91213881Y-132712614D01*
X91247366Y-132773937D01*
X91250200Y-132800295D01*
X91250200Y-134374016D01*
X91230515Y-134441055D01*
X91229303Y-134442906D01*
X91169215Y-134532833D01*
X91108270Y-134679968D01*
X91108268Y-134679976D01*
X91077200Y-134836165D01*
X91077200Y-134995434D01*
X91108268Y-135151623D01*
X91108270Y-135151631D01*
X91169217Y-135298769D01*
X91257695Y-135431187D01*
X91257701Y-135431194D01*
X91370305Y-135543798D01*
X91370312Y-135543804D01*
X91502730Y-135632282D01*
X91502731Y-135632282D01*
X91502732Y-135632283D01*
X91649869Y-135693230D01*
X91764187Y-135715969D01*
X91806065Y-135724299D01*
X91806069Y-135724300D01*
X91806070Y-135724300D01*
X91965331Y-135724300D01*
X91965332Y-135724299D01*
X92121531Y-135693230D01*
X92268668Y-135632283D01*
X92401089Y-135543803D01*
X92409769Y-135535123D01*
X92420119Y-135524774D01*
X92481442Y-135491289D01*
X92551134Y-135496273D01*
X92607067Y-135538145D01*
X92631484Y-135603609D01*
X92631800Y-135612455D01*
X92631800Y-140677500D01*
X92612115Y-140744539D01*
X92559311Y-140790294D01*
X92507800Y-140801500D01*
X91061345Y-140801500D01*
X91000797Y-140808011D01*
X91000795Y-140808011D01*
X90863795Y-140859111D01*
X90746739Y-140946739D01*
X90659111Y-141063795D01*
X90608011Y-141200795D01*
X90608011Y-141200797D01*
X90601500Y-141261345D01*
X90601500Y-143058654D01*
X90608011Y-143119202D01*
X90608011Y-143119204D01*
X90659111Y-143256204D01*
X90746739Y-143373261D01*
X90863796Y-143460889D01*
X90984626Y-143505956D01*
X91040557Y-143547827D01*
X91064974Y-143613291D01*
X91050122Y-143681564D01*
X91028972Y-143709818D01*
X90923793Y-143814997D01*
X90798106Y-143987990D01*
X90701027Y-144178516D01*
X90701026Y-144178519D01*
X90634951Y-144381882D01*
X90626812Y-144433269D01*
X90601500Y-144593084D01*
X90601500Y-144806916D01*
X90604797Y-144827730D01*
X90634951Y-145018117D01*
X90701026Y-145221480D01*
X90701027Y-145221483D01*
X90785329Y-145386933D01*
X90798106Y-145412009D01*
X90923794Y-145585004D01*
X91074996Y-145736206D01*
X91215123Y-145838014D01*
X91247991Y-145861894D01*
X91251873Y-145864273D01*
X91298748Y-145916086D01*
X91310169Y-145985016D01*
X91282512Y-146049178D01*
X91251873Y-146075727D01*
X91247991Y-146078105D01*
X91074993Y-146203796D01*
X90923796Y-146354993D01*
X90798106Y-146527990D01*
X90701027Y-146718516D01*
X90701026Y-146718519D01*
X90634951Y-146921882D01*
X90601500Y-147133084D01*
X90601500Y-147346915D01*
X90634951Y-147558117D01*
X90701026Y-147761480D01*
X90701027Y-147761483D01*
X90790456Y-147936995D01*
X90798106Y-147952009D01*
X90923794Y-148125004D01*
X91074996Y-148276206D01*
X91247991Y-148401894D01*
X91256790Y-148406377D01*
X91307588Y-148454349D01*
X91324500Y-148516864D01*
X91324500Y-152429804D01*
X91304815Y-152496843D01*
X91288181Y-152517485D01*
X89570831Y-154234834D01*
X89554235Y-154243896D01*
X89540625Y-154257029D01*
X89511129Y-154267433D01*
X89509508Y-154268319D01*
X89507341Y-154268770D01*
X89399691Y-154290183D01*
X89330100Y-154283956D01*
X89274922Y-154241093D01*
X89251678Y-154175203D01*
X89251500Y-154168566D01*
X89251500Y-138356308D01*
X89251499Y-138356304D01*
X89233403Y-138265330D01*
X89227078Y-138233531D01*
X89220658Y-138218031D01*
X89179176Y-138117884D01*
X89179169Y-138117871D01*
X89109626Y-138013793D01*
X89072600Y-137976767D01*
X89021108Y-137925275D01*
X87952885Y-136857052D01*
X86880811Y-135784977D01*
X86880807Y-135784974D01*
X86776728Y-135715430D01*
X86776715Y-135715423D01*
X86661073Y-135667523D01*
X86661061Y-135667520D01*
X86538295Y-135643100D01*
X86538291Y-135643100D01*
X84264184Y-135643100D01*
X84197145Y-135623415D01*
X84195294Y-135622203D01*
X84105366Y-135562115D01*
X83958231Y-135501170D01*
X83958223Y-135501168D01*
X83802034Y-135470100D01*
X83802030Y-135470100D01*
X83642770Y-135470100D01*
X83642765Y-135470100D01*
X83486576Y-135501168D01*
X83486568Y-135501170D01*
X83339430Y-135562117D01*
X83207012Y-135650595D01*
X83207007Y-135650600D01*
X83094401Y-135763205D01*
X83094395Y-135763212D01*
X83005917Y-135895630D01*
X82944970Y-136042768D01*
X82944968Y-136042776D01*
X82913900Y-136198965D01*
X82913900Y-136358234D01*
X82944968Y-136514423D01*
X82944970Y-136514431D01*
X83005917Y-136661569D01*
X83094395Y-136793987D01*
X83094401Y-136793994D01*
X83207005Y-136906598D01*
X83207012Y-136906604D01*
X83339430Y-136995082D01*
X83339431Y-136995082D01*
X83339432Y-136995083D01*
X83486569Y-137056030D01*
X83535587Y-137065780D01*
X83601774Y-137078946D01*
X83663685Y-137111331D01*
X83698259Y-137172046D01*
X83694520Y-137241816D01*
X83680686Y-137269453D01*
X83614216Y-137368933D01*
X83553270Y-137516068D01*
X83553267Y-137516077D01*
X83553265Y-137516091D01*
X83553261Y-137516097D01*
X83551501Y-137521901D01*
X83550400Y-137521567D01*
X83520877Y-137578001D01*
X83460159Y-137612572D01*
X83390390Y-137608829D01*
X83343968Y-137579575D01*
X83322094Y-137557701D01*
X83322087Y-137557695D01*
X83189669Y-137469217D01*
X83042531Y-137408270D01*
X83042523Y-137408268D01*
X82886334Y-137377200D01*
X82886330Y-137377200D01*
X82727070Y-137377200D01*
X82727065Y-137377200D01*
X82570876Y-137408268D01*
X82570868Y-137408270D01*
X82423730Y-137469217D01*
X82291312Y-137557695D01*
X82291305Y-137557701D01*
X82178701Y-137670305D01*
X82178695Y-137670312D01*
X82090217Y-137802730D01*
X82029270Y-137949868D01*
X82029268Y-137949874D01*
X82008170Y-138055942D01*
X81975785Y-138117853D01*
X81974234Y-138119431D01*
X81446167Y-138647500D01*
X81272292Y-138821375D01*
X81248936Y-138844731D01*
X81183773Y-138909893D01*
X81114230Y-139013971D01*
X81114223Y-139013984D01*
X81066323Y-139129626D01*
X81066320Y-139129638D01*
X81041900Y-139252404D01*
X81041900Y-143567616D01*
X81022215Y-143634655D01*
X81021003Y-143636506D01*
X80960915Y-143726433D01*
X80899970Y-143873568D01*
X80899968Y-143873576D01*
X80868900Y-144029765D01*
X80868900Y-144189034D01*
X80899968Y-144345223D01*
X80899970Y-144345231D01*
X80960917Y-144492369D01*
X81049395Y-144624787D01*
X81049401Y-144624794D01*
X81162005Y-144737398D01*
X81162012Y-144737404D01*
X81294430Y-144825882D01*
X81294431Y-144825882D01*
X81294432Y-144825883D01*
X81441569Y-144886830D01*
X81597765Y-144917899D01*
X81597769Y-144917900D01*
X81597770Y-144917900D01*
X81757031Y-144917900D01*
X81757032Y-144917899D01*
X81913231Y-144886830D01*
X82060368Y-144825883D01*
X82192789Y-144737403D01*
X82305403Y-144624789D01*
X82393883Y-144492368D01*
X82454830Y-144345231D01*
X82485900Y-144189030D01*
X82485900Y-144029770D01*
X82454830Y-143873569D01*
X82414842Y-143777030D01*
X82393884Y-143726433D01*
X82333797Y-143636506D01*
X82312920Y-143569828D01*
X82312900Y-143567616D01*
X82312900Y-139629594D01*
X82332585Y-139562555D01*
X82349215Y-139541917D01*
X82872967Y-139018164D01*
X82934290Y-138984680D01*
X82936384Y-138984243D01*
X83042531Y-138963130D01*
X83189668Y-138902183D01*
X83322089Y-138813703D01*
X83434703Y-138701089D01*
X83459810Y-138663514D01*
X83468098Y-138651110D01*
X83521710Y-138606304D01*
X83591035Y-138597597D01*
X83654062Y-138627751D01*
X83690782Y-138687194D01*
X83695200Y-138720000D01*
X83695200Y-148153604D01*
X83675515Y-148220643D01*
X83658881Y-148241285D01*
X81831931Y-150068234D01*
X81770608Y-150101719D01*
X81768442Y-150102170D01*
X81662374Y-150123268D01*
X81662368Y-150123270D01*
X81515230Y-150184217D01*
X81382812Y-150272695D01*
X81382805Y-150272701D01*
X81270201Y-150385305D01*
X81270195Y-150385312D01*
X81181717Y-150517730D01*
X81120770Y-150664868D01*
X81120768Y-150664876D01*
X81089700Y-150821065D01*
X81089700Y-150980334D01*
X81120768Y-151136523D01*
X81120770Y-151136531D01*
X81181717Y-151283669D01*
X81270195Y-151416087D01*
X81270201Y-151416094D01*
X81382805Y-151528698D01*
X81382812Y-151528704D01*
X81515230Y-151617182D01*
X81515231Y-151617182D01*
X81515232Y-151617183D01*
X81662369Y-151678130D01*
X81818565Y-151709199D01*
X81818569Y-151709200D01*
X81818570Y-151709200D01*
X81977831Y-151709200D01*
X81977832Y-151709199D01*
X82134031Y-151678130D01*
X82281168Y-151617183D01*
X82413589Y-151528703D01*
X82526203Y-151416089D01*
X82614683Y-151283668D01*
X82675630Y-151136531D01*
X82696729Y-151030455D01*
X82729113Y-150968546D01*
X82730665Y-150966967D01*
X84666219Y-149031414D01*
X84727542Y-148997929D01*
X84797234Y-149002913D01*
X84853167Y-149044785D01*
X84877584Y-149110249D01*
X84877900Y-149119095D01*
X84877900Y-155819728D01*
X84858215Y-155886767D01*
X84805411Y-155932522D01*
X84801356Y-155934288D01*
X84762157Y-155950525D01*
X84754997Y-155953492D01*
X84750830Y-155955218D01*
X84750825Y-155955220D01*
X84618408Y-156043698D01*
X84505801Y-156156305D01*
X84505795Y-156156312D01*
X84417317Y-156288730D01*
X84356370Y-156435868D01*
X84356368Y-156435876D01*
X84325300Y-156592065D01*
X84325300Y-156751334D01*
X84356368Y-156907523D01*
X84356370Y-156907531D01*
X84417315Y-157054664D01*
X84417320Y-157054674D01*
X84477402Y-157144592D01*
X84498280Y-157211269D01*
X84498300Y-157213483D01*
X84498300Y-161043364D01*
X84492362Y-161063584D01*
X84491232Y-161084631D01*
X84479786Y-161106412D01*
X84478615Y-161110403D01*
X84474869Y-161115903D01*
X84474784Y-161116019D01*
X84357106Y-161277991D01*
X84355057Y-161282012D01*
X84349569Y-161289621D01*
X84325506Y-161308308D01*
X84302914Y-161328748D01*
X84298178Y-161329532D01*
X84294387Y-161332477D01*
X84264041Y-161335188D01*
X84233984Y-161340169D01*
X84229575Y-161338268D01*
X84224794Y-161338696D01*
X84197801Y-161324572D01*
X84169822Y-161312512D01*
X84165733Y-161307793D01*
X84162887Y-161306304D01*
X84159907Y-161301069D01*
X84143273Y-161281873D01*
X84140894Y-161277991D01*
X84019134Y-161110403D01*
X84015206Y-161104996D01*
X83864004Y-160953794D01*
X83691009Y-160828106D01*
X83663833Y-160814259D01*
X83500483Y-160731027D01*
X83500480Y-160731026D01*
X83297117Y-160664951D01*
X83185111Y-160647211D01*
X83085916Y-160631500D01*
X82872084Y-160631500D01*
X82812685Y-160640908D01*
X82660882Y-160664951D01*
X82457519Y-160731026D01*
X82457516Y-160731027D01*
X82266990Y-160828106D01*
X82093993Y-160953796D01*
X81942796Y-161104993D01*
X81817105Y-161277991D01*
X81814727Y-161281873D01*
X81762914Y-161328748D01*
X81693984Y-161340169D01*
X81629822Y-161312512D01*
X81603273Y-161281873D01*
X81600894Y-161277991D01*
X81479134Y-161110403D01*
X81475206Y-161104996D01*
X81324004Y-160953794D01*
X81151009Y-160828106D01*
X81123833Y-160814259D01*
X80960483Y-160731027D01*
X80960480Y-160731026D01*
X80757117Y-160664951D01*
X80645111Y-160647211D01*
X80545916Y-160631500D01*
X80332084Y-160631500D01*
X80272685Y-160640908D01*
X80120882Y-160664951D01*
X79917519Y-160731026D01*
X79917516Y-160731027D01*
X79726990Y-160828106D01*
X79553993Y-160953796D01*
X79402796Y-161104993D01*
X79277105Y-161277991D01*
X79274727Y-161281873D01*
X79222914Y-161328748D01*
X79153984Y-161340169D01*
X79089822Y-161312512D01*
X79063273Y-161281873D01*
X79060894Y-161277991D01*
X78939134Y-161110403D01*
X78935206Y-161104996D01*
X78784004Y-160953794D01*
X78611009Y-160828106D01*
X78583833Y-160814259D01*
X78420483Y-160731027D01*
X78420480Y-160731026D01*
X78217117Y-160664951D01*
X78105111Y-160647211D01*
X78005916Y-160631500D01*
X77792084Y-160631500D01*
X77732685Y-160640908D01*
X77580882Y-160664951D01*
X77377519Y-160731026D01*
X77377516Y-160731027D01*
X77186990Y-160828106D01*
X77013993Y-160953796D01*
X76862796Y-161104993D01*
X76737105Y-161277991D01*
X76734727Y-161281873D01*
X76682914Y-161328748D01*
X76613984Y-161340169D01*
X76549822Y-161312512D01*
X76523273Y-161281873D01*
X76520894Y-161277991D01*
X76399134Y-161110403D01*
X76395206Y-161104996D01*
X76244004Y-160953794D01*
X76071009Y-160828106D01*
X76043833Y-160814259D01*
X75880483Y-160731027D01*
X75880480Y-160731026D01*
X75677117Y-160664951D01*
X75565111Y-160647211D01*
X75465916Y-160631500D01*
X75252084Y-160631500D01*
X75192685Y-160640908D01*
X75040882Y-160664951D01*
X74837519Y-160731026D01*
X74837516Y-160731027D01*
X74646990Y-160828106D01*
X74473993Y-160953796D01*
X74322796Y-161104993D01*
X74197105Y-161277991D01*
X74194727Y-161281873D01*
X74142914Y-161328748D01*
X74073984Y-161340169D01*
X74009822Y-161312512D01*
X73983273Y-161281873D01*
X73980894Y-161277991D01*
X73859134Y-161110403D01*
X73855206Y-161104996D01*
X73704004Y-160953794D01*
X73531009Y-160828106D01*
X73503833Y-160814259D01*
X73340483Y-160731027D01*
X73340480Y-160731026D01*
X73137117Y-160664951D01*
X73025111Y-160647211D01*
X72925916Y-160631500D01*
X72712084Y-160631500D01*
X72652685Y-160640908D01*
X72500882Y-160664951D01*
X72297519Y-160731026D01*
X72297516Y-160731027D01*
X72106990Y-160828106D01*
X71933993Y-160953796D01*
X71782796Y-161104993D01*
X71657105Y-161277991D01*
X71654727Y-161281873D01*
X71602914Y-161328748D01*
X71533984Y-161340169D01*
X71469822Y-161312512D01*
X71443273Y-161281873D01*
X71440894Y-161277991D01*
X71319134Y-161110403D01*
X71315206Y-161104996D01*
X71164004Y-160953794D01*
X70991009Y-160828106D01*
X70963833Y-160814259D01*
X70800483Y-160731027D01*
X70800480Y-160731026D01*
X70597117Y-160664951D01*
X70485111Y-160647211D01*
X70385916Y-160631500D01*
X70172084Y-160631500D01*
X70112685Y-160640908D01*
X69960882Y-160664951D01*
X69757519Y-160731026D01*
X69757516Y-160731027D01*
X69566990Y-160828106D01*
X69393993Y-160953796D01*
X69242796Y-161104993D01*
X69117105Y-161277991D01*
X69114727Y-161281873D01*
X69062914Y-161328748D01*
X68993984Y-161340169D01*
X68929822Y-161312512D01*
X68903273Y-161281873D01*
X68900894Y-161277991D01*
X68779134Y-161110403D01*
X68775206Y-161104996D01*
X68624004Y-160953794D01*
X68451009Y-160828106D01*
X68423833Y-160814259D01*
X68260483Y-160731027D01*
X68260480Y-160731026D01*
X68057117Y-160664951D01*
X67945111Y-160647211D01*
X67845916Y-160631500D01*
X67632084Y-160631500D01*
X67572685Y-160640908D01*
X67420882Y-160664951D01*
X67217519Y-160731026D01*
X67217516Y-160731027D01*
X67026990Y-160828106D01*
X66853993Y-160953796D01*
X66702796Y-161104993D01*
X66577105Y-161277991D01*
X66574727Y-161281873D01*
X66522914Y-161328748D01*
X66453984Y-161340169D01*
X66389822Y-161312512D01*
X66363273Y-161281873D01*
X66360894Y-161277991D01*
X66239134Y-161110403D01*
X66235206Y-161104996D01*
X66084004Y-160953794D01*
X65911009Y-160828106D01*
X65883833Y-160814259D01*
X65720483Y-160731027D01*
X65720480Y-160731026D01*
X65517117Y-160664951D01*
X65405111Y-160647211D01*
X65305916Y-160631500D01*
X65092084Y-160631500D01*
X65032685Y-160640908D01*
X64880882Y-160664951D01*
X64677519Y-160731026D01*
X64677516Y-160731027D01*
X64486990Y-160828106D01*
X64313997Y-160953793D01*
X64208818Y-161058972D01*
X64147495Y-161092456D01*
X64077803Y-161087472D01*
X64021870Y-161045600D01*
X64004958Y-161014629D01*
X63959889Y-160893796D01*
X63872261Y-160776739D01*
X63755204Y-160689111D01*
X63753727Y-160688560D01*
X63618203Y-160638011D01*
X63557654Y-160631500D01*
X63557638Y-160631500D01*
X61760362Y-160631500D01*
X61760345Y-160631500D01*
X61699797Y-160638011D01*
X61699796Y-160638011D01*
X61667833Y-160649933D01*
X61598141Y-160654917D01*
X61536818Y-160621432D01*
X61503334Y-160560109D01*
X61500500Y-160533751D01*
X61500500Y-145690265D01*
X63209600Y-145690265D01*
X63209600Y-145849534D01*
X63240668Y-146005723D01*
X63240670Y-146005731D01*
X63301617Y-146152869D01*
X63390095Y-146285287D01*
X63390101Y-146285294D01*
X63502705Y-146397898D01*
X63502712Y-146397904D01*
X63635130Y-146486382D01*
X63635131Y-146486382D01*
X63635132Y-146486383D01*
X63782269Y-146547330D01*
X63938465Y-146578399D01*
X63938469Y-146578400D01*
X64103822Y-146578400D01*
X64103822Y-146580651D01*
X64162561Y-146591775D01*
X64213285Y-146639826D01*
X64230100Y-146702175D01*
X64230100Y-147628808D01*
X64242655Y-147691923D01*
X64242655Y-147691924D01*
X64259247Y-147775339D01*
X64259249Y-147775347D01*
X64304668Y-147884999D01*
X64316426Y-147913384D01*
X64338874Y-147946980D01*
X64388713Y-148021570D01*
X64407227Y-148066268D01*
X64418411Y-148122494D01*
X64418413Y-148122500D01*
X64486896Y-148287832D01*
X64486901Y-148287842D01*
X64586321Y-148436634D01*
X64586324Y-148436638D01*
X64712861Y-148563175D01*
X64712865Y-148563178D01*
X64861657Y-148662598D01*
X64861661Y-148662600D01*
X64861664Y-148662602D01*
X65027000Y-148731087D01*
X65202516Y-148765999D01*
X65202520Y-148766000D01*
X65202521Y-148766000D01*
X65381480Y-148766000D01*
X65381481Y-148765999D01*
X65557000Y-148731087D01*
X65722336Y-148662602D01*
X65871135Y-148563178D01*
X65997678Y-148436635D01*
X66097102Y-148287836D01*
X66165587Y-148122500D01*
X66200500Y-147946979D01*
X66200500Y-147768021D01*
X66165587Y-147592500D01*
X66097102Y-147427164D01*
X66097100Y-147427161D01*
X66097098Y-147427157D01*
X65997678Y-147278365D01*
X65997675Y-147278361D01*
X65871138Y-147151824D01*
X65871134Y-147151821D01*
X65802209Y-147105766D01*
X65757404Y-147052153D01*
X65747100Y-147002664D01*
X65747100Y-129900196D01*
X65766785Y-129833157D01*
X65767970Y-129831346D01*
X65793702Y-129792836D01*
X65862187Y-129627500D01*
X65897100Y-129451979D01*
X65897100Y-129273021D01*
X65862187Y-129097500D01*
X65793702Y-128932164D01*
X65793700Y-128932161D01*
X65793698Y-128932157D01*
X65694278Y-128783365D01*
X65694275Y-128783361D01*
X65567738Y-128656824D01*
X65567734Y-128656821D01*
X65418942Y-128557401D01*
X65418932Y-128557396D01*
X65253600Y-128488913D01*
X65253594Y-128488911D01*
X65156526Y-128469603D01*
X65094615Y-128437218D01*
X65060041Y-128376502D01*
X65059101Y-128323794D01*
X65071314Y-128262395D01*
X65083600Y-128200630D01*
X65083600Y-128041370D01*
X65052530Y-127885169D01*
X64991583Y-127738032D01*
X64972356Y-127709257D01*
X64903104Y-127605612D01*
X64903098Y-127605605D01*
X64790494Y-127493001D01*
X64790487Y-127492995D01*
X64658069Y-127404517D01*
X64510931Y-127343570D01*
X64510923Y-127343568D01*
X64354734Y-127312500D01*
X64354730Y-127312500D01*
X64195470Y-127312500D01*
X64195465Y-127312500D01*
X64039276Y-127343568D01*
X64039268Y-127343570D01*
X63892130Y-127404517D01*
X63759712Y-127492995D01*
X63759705Y-127493001D01*
X63647101Y-127605605D01*
X63647095Y-127605612D01*
X63558617Y-127738030D01*
X63497670Y-127885168D01*
X63497668Y-127885174D01*
X63465825Y-128045260D01*
X63456592Y-128071073D01*
X63457258Y-128071349D01*
X63407023Y-128192626D01*
X63407020Y-128192638D01*
X63382600Y-128315404D01*
X63382600Y-145228116D01*
X63362915Y-145295155D01*
X63361703Y-145297006D01*
X63301615Y-145386933D01*
X63240670Y-145534068D01*
X63240668Y-145534076D01*
X63209600Y-145690265D01*
X61500500Y-145690265D01*
X61500500Y-117124500D01*
X61520185Y-117057461D01*
X61572989Y-117011706D01*
X61624500Y-117000500D01*
X72501405Y-117000500D01*
X72568444Y-117020185D01*
G37*
%TD.AperFunction*%
%TA.AperFunction,Conductor*%
G36*
X110700000Y-152592661D02*
G01*
X110727259Y-152694394D01*
X110779920Y-152785606D01*
X110854394Y-152860080D01*
X110945606Y-152912741D01*
X111047339Y-152940000D01*
X111053552Y-152940000D01*
X110374076Y-153619474D01*
X110418650Y-153651859D01*
X110600968Y-153744755D01*
X110795582Y-153807990D01*
X110997683Y-153840000D01*
X111202317Y-153840000D01*
X111404417Y-153807990D01*
X111599031Y-153744755D01*
X111680661Y-153703162D01*
X111749330Y-153690266D01*
X111814070Y-153716542D01*
X111840058Y-153744756D01*
X111876374Y-153799108D01*
X111876377Y-153799111D01*
X112787181Y-154709914D01*
X112820666Y-154771237D01*
X112823500Y-154797595D01*
X112823500Y-160713135D01*
X112803815Y-160780174D01*
X112755797Y-160823619D01*
X112746990Y-160828106D01*
X112573993Y-160953796D01*
X112422796Y-161104993D01*
X112297105Y-161277991D01*
X112294727Y-161281873D01*
X112242914Y-161328748D01*
X112173984Y-161340169D01*
X112109822Y-161312512D01*
X112083273Y-161281873D01*
X112080894Y-161277991D01*
X111959134Y-161110403D01*
X111955206Y-161104996D01*
X111804004Y-160953794D01*
X111631009Y-160828106D01*
X111603833Y-160814259D01*
X111440483Y-160731027D01*
X111440480Y-160731026D01*
X111237117Y-160664951D01*
X111125111Y-160647211D01*
X111025916Y-160631500D01*
X110812084Y-160631500D01*
X110803100Y-160632923D01*
X110600884Y-160664950D01*
X110591484Y-160668005D01*
X110521643Y-160669999D01*
X110465487Y-160637754D01*
X108025419Y-158197686D01*
X107991934Y-158136363D01*
X107989100Y-158110005D01*
X107989100Y-153901012D01*
X108008785Y-153833973D01*
X108061589Y-153788218D01*
X108130747Y-153778274D01*
X108151408Y-153783078D01*
X108227306Y-153807739D01*
X108253591Y-153816280D01*
X108355305Y-153832390D01*
X108457019Y-153848500D01*
X108457020Y-153848500D01*
X108662980Y-153848500D01*
X108662981Y-153848500D01*
X108866408Y-153816280D01*
X109062290Y-153752634D01*
X109245803Y-153659129D01*
X109412430Y-153538068D01*
X109558068Y-153392430D01*
X109679129Y-153225803D01*
X109724284Y-153137180D01*
X109772258Y-153086384D01*
X109840079Y-153069589D01*
X109906214Y-153092126D01*
X109945254Y-153137180D01*
X109988141Y-153221350D01*
X109988147Y-153221359D01*
X110020523Y-153265921D01*
X110020524Y-153265922D01*
X110700000Y-152586446D01*
X110700000Y-152592661D01*
G37*
%TD.AperFunction*%
%TA.AperFunction,Conductor*%
G36*
X109343691Y-148193248D02*
G01*
X109385795Y-148201622D01*
X109420367Y-148208499D01*
X109420369Y-148208500D01*
X109578000Y-148208500D01*
X109645039Y-148228185D01*
X109690794Y-148280989D01*
X109702000Y-148332500D01*
X109702000Y-150002603D01*
X109682315Y-150069642D01*
X109681103Y-150071492D01*
X109655398Y-150109963D01*
X109586913Y-150275299D01*
X109586911Y-150275307D01*
X109552000Y-150450816D01*
X109552000Y-150629783D01*
X109586911Y-150805292D01*
X109586913Y-150805300D01*
X109655396Y-150970632D01*
X109655401Y-150970642D01*
X109754821Y-151119434D01*
X109754824Y-151119438D01*
X109881361Y-151245975D01*
X109881365Y-151245978D01*
X110030157Y-151345398D01*
X110030161Y-151345400D01*
X110030164Y-151345402D01*
X110195500Y-151413887D01*
X110323309Y-151439309D01*
X110385218Y-151471693D01*
X110386797Y-151473245D01*
X111053553Y-152140000D01*
X111047339Y-152140000D01*
X110945606Y-152167259D01*
X110854394Y-152219920D01*
X110779920Y-152294394D01*
X110727259Y-152385606D01*
X110700000Y-152487339D01*
X110700000Y-152493553D01*
X110020524Y-151814077D01*
X110020523Y-151814077D01*
X109988143Y-151858645D01*
X109988141Y-151858648D01*
X109945253Y-151942820D01*
X109897279Y-151993615D01*
X109829457Y-152010410D01*
X109763323Y-151987872D01*
X109724284Y-151942819D01*
X109719515Y-151933459D01*
X109679129Y-151854197D01*
X109649980Y-151814077D01*
X109558073Y-151687576D01*
X109558069Y-151687571D01*
X109412428Y-151541930D01*
X109412423Y-151541926D01*
X109246615Y-151421460D01*
X109203949Y-151366130D01*
X109195500Y-151321142D01*
X109195500Y-148314865D01*
X109215185Y-148247826D01*
X109267989Y-148202071D01*
X109337147Y-148192127D01*
X109343691Y-148193248D01*
G37*
%TD.AperFunction*%
%TA.AperFunction,Conductor*%
G36*
X124203844Y-117915185D02*
G01*
X124224486Y-117931819D01*
X130748181Y-124455514D01*
X130781666Y-124516837D01*
X130784500Y-124543195D01*
X130784500Y-136081142D01*
X130764815Y-136148181D01*
X130733385Y-136181460D01*
X130567576Y-136301926D01*
X130567571Y-136301930D01*
X130421930Y-136447571D01*
X130421926Y-136447576D01*
X130300871Y-136614195D01*
X130260484Y-136693459D01*
X130212510Y-136744254D01*
X130144689Y-136761049D01*
X130078554Y-136738511D01*
X130039516Y-136693459D01*
X129999128Y-136614195D01*
X129878073Y-136447576D01*
X129878069Y-136447571D01*
X129732428Y-136301930D01*
X129732423Y-136301926D01*
X129565806Y-136180873D01*
X129565805Y-136180872D01*
X129565803Y-136180871D01*
X129473400Y-136133789D01*
X129382294Y-136087367D01*
X129186408Y-136023719D01*
X128985948Y-135991970D01*
X128982981Y-135991500D01*
X128777019Y-135991500D01*
X128774052Y-135991970D01*
X128573591Y-136023719D01*
X128377705Y-136087367D01*
X128194193Y-136180873D01*
X128027576Y-136301926D01*
X128027571Y-136301930D01*
X127881930Y-136447571D01*
X127881926Y-136447576D01*
X127760871Y-136614195D01*
X127720484Y-136693459D01*
X127672510Y-136744254D01*
X127604689Y-136761049D01*
X127538554Y-136738511D01*
X127499516Y-136693459D01*
X127459128Y-136614195D01*
X127338073Y-136447576D01*
X127338069Y-136447571D01*
X127192428Y-136301930D01*
X127192423Y-136301926D01*
X127025806Y-136180873D01*
X127025805Y-136180872D01*
X127025803Y-136180871D01*
X126933400Y-136133789D01*
X126842294Y-136087367D01*
X126646408Y-136023719D01*
X126445948Y-135991970D01*
X126442981Y-135991500D01*
X126237019Y-135991500D01*
X126222662Y-135993774D01*
X126033590Y-136023720D01*
X126033587Y-136023720D01*
X125867818Y-136077583D01*
X125797977Y-136079578D01*
X125738144Y-136043498D01*
X125707316Y-135980797D01*
X125705500Y-135959652D01*
X125705500Y-134672608D01*
X125705499Y-134672604D01*
X125690904Y-134599230D01*
X125681078Y-134549831D01*
X125641106Y-134453330D01*
X125633176Y-134434184D01*
X125633169Y-134434171D01*
X125563626Y-134330093D01*
X125519466Y-134285933D01*
X125475108Y-134241575D01*
X124907164Y-133673631D01*
X124873679Y-133612308D01*
X124873258Y-133610292D01*
X124852130Y-133504069D01*
X124791183Y-133356932D01*
X124731048Y-133266933D01*
X124702704Y-133224512D01*
X124702698Y-133224505D01*
X124590094Y-133111901D01*
X124590087Y-133111895D01*
X124457669Y-133023417D01*
X124310531Y-132962470D01*
X124310523Y-132962468D01*
X124154334Y-132931400D01*
X124154330Y-132931400D01*
X123995070Y-132931400D01*
X123995065Y-132931400D01*
X123838876Y-132962468D01*
X123838868Y-132962470D01*
X123691733Y-133023415D01*
X123577790Y-133099550D01*
X123511113Y-133120427D01*
X123443733Y-133101942D01*
X123397043Y-133049963D01*
X123384900Y-132996447D01*
X123384900Y-130071394D01*
X123404585Y-130004355D01*
X123421214Y-129983718D01*
X124869268Y-128535663D01*
X124930589Y-128502180D01*
X124932662Y-128501747D01*
X125038831Y-128480630D01*
X125185968Y-128419683D01*
X125318389Y-128331203D01*
X125431003Y-128218589D01*
X125519483Y-128086168D01*
X125580430Y-127939031D01*
X125611500Y-127782830D01*
X125611500Y-127623570D01*
X125580430Y-127467369D01*
X125519483Y-127320232D01*
X125511045Y-127307604D01*
X125431004Y-127187812D01*
X125430998Y-127187805D01*
X125318394Y-127075201D01*
X125318387Y-127075195D01*
X125185969Y-126986717D01*
X125038831Y-126925770D01*
X125038823Y-126925768D01*
X124882634Y-126894700D01*
X124882630Y-126894700D01*
X124723370Y-126894700D01*
X124723365Y-126894700D01*
X124567176Y-126925768D01*
X124567168Y-126925770D01*
X124420030Y-126986717D01*
X124287612Y-127075195D01*
X124287605Y-127075201D01*
X124175001Y-127187805D01*
X124174995Y-127187812D01*
X124086517Y-127320230D01*
X124025570Y-127467368D01*
X124025568Y-127467374D01*
X124004470Y-127573442D01*
X123972085Y-127635353D01*
X123970534Y-127636931D01*
X122749399Y-128858068D01*
X122344292Y-129263175D01*
X122300032Y-129307434D01*
X122255773Y-129351693D01*
X122186230Y-129455771D01*
X122186223Y-129455784D01*
X122138323Y-129571426D01*
X122138320Y-129571438D01*
X122113900Y-129694204D01*
X122113900Y-130098305D01*
X122094215Y-130165344D01*
X122041411Y-130211099D01*
X121972253Y-130221043D01*
X121908697Y-130192018D01*
X121902219Y-130185986D01*
X115858464Y-124142231D01*
X115824979Y-124080908D01*
X115824558Y-124078892D01*
X115803430Y-123972669D01*
X115742483Y-123825532D01*
X115737293Y-123817765D01*
X115654004Y-123693112D01*
X115653998Y-123693105D01*
X115541394Y-123580501D01*
X115541387Y-123580495D01*
X115408969Y-123492017D01*
X115261831Y-123431070D01*
X115261823Y-123431068D01*
X115105634Y-123400000D01*
X115105630Y-123400000D01*
X114946370Y-123400000D01*
X114946365Y-123400000D01*
X114790176Y-123431068D01*
X114790168Y-123431070D01*
X114643030Y-123492017D01*
X114510612Y-123580495D01*
X114510605Y-123580501D01*
X114398001Y-123693105D01*
X114397995Y-123693112D01*
X114309517Y-123825530D01*
X114248570Y-123972668D01*
X114248568Y-123972676D01*
X114217500Y-124128865D01*
X114217500Y-124288134D01*
X114248568Y-124444323D01*
X114248570Y-124444331D01*
X114309517Y-124591469D01*
X114397995Y-124723887D01*
X114398001Y-124723894D01*
X114510605Y-124836498D01*
X114510612Y-124836504D01*
X114643030Y-124924982D01*
X114643031Y-124924982D01*
X114643032Y-124924983D01*
X114790169Y-124985930D01*
X114896244Y-125007029D01*
X114958151Y-125039412D01*
X114959731Y-125040964D01*
X121394881Y-131476114D01*
X121428366Y-131537437D01*
X121431200Y-131563795D01*
X121431200Y-135644595D01*
X121454795Y-135763211D01*
X121455622Y-135767369D01*
X121470993Y-135804479D01*
X121477442Y-135820047D01*
X121484911Y-135889517D01*
X121453636Y-135951996D01*
X121393547Y-135987648D01*
X121362881Y-135991500D01*
X121157019Y-135991500D01*
X121154052Y-135991970D01*
X120953591Y-136023719D01*
X120757705Y-136087367D01*
X120574193Y-136180873D01*
X120407576Y-136301926D01*
X120407571Y-136301930D01*
X120261930Y-136447571D01*
X120261926Y-136447576D01*
X120140871Y-136614195D01*
X120100484Y-136693459D01*
X120052510Y-136744254D01*
X119984689Y-136761049D01*
X119918554Y-136738511D01*
X119879516Y-136693459D01*
X119839128Y-136614195D01*
X119718073Y-136447576D01*
X119718069Y-136447571D01*
X119572428Y-136301930D01*
X119572423Y-136301926D01*
X119406615Y-136181460D01*
X119363949Y-136126130D01*
X119355500Y-136081142D01*
X119355500Y-130298608D01*
X119355499Y-130298604D01*
X119351722Y-130279614D01*
X119331078Y-130175831D01*
X119316034Y-130139511D01*
X119283176Y-130060184D01*
X119283169Y-130060171D01*
X119213626Y-129956093D01*
X119195950Y-129938417D01*
X119125108Y-129867575D01*
X113651364Y-124393831D01*
X113617879Y-124332508D01*
X113617458Y-124330492D01*
X113596330Y-124224269D01*
X113535383Y-124077132D01*
X113534270Y-124075467D01*
X113446904Y-123944712D01*
X113446898Y-123944705D01*
X113334294Y-123832101D01*
X113334287Y-123832095D01*
X113201869Y-123743617D01*
X113054731Y-123682670D01*
X113054723Y-123682668D01*
X112898534Y-123651600D01*
X112898530Y-123651600D01*
X112739270Y-123651600D01*
X112739265Y-123651600D01*
X112583076Y-123682668D01*
X112583068Y-123682670D01*
X112435930Y-123743617D01*
X112303512Y-123832095D01*
X112303505Y-123832101D01*
X112190901Y-123944705D01*
X112190895Y-123944712D01*
X112102417Y-124077130D01*
X112041470Y-124224268D01*
X112041468Y-124224276D01*
X112010400Y-124380465D01*
X112010400Y-124539734D01*
X112041468Y-124695923D01*
X112041470Y-124695931D01*
X112102417Y-124843069D01*
X112190895Y-124975487D01*
X112190901Y-124975494D01*
X112303505Y-125088098D01*
X112303512Y-125088104D01*
X112435930Y-125176582D01*
X112435931Y-125176582D01*
X112435932Y-125176583D01*
X112583069Y-125237530D01*
X112689144Y-125258629D01*
X112751051Y-125291012D01*
X112752631Y-125292564D01*
X118048181Y-130588114D01*
X118081666Y-130649437D01*
X118084500Y-130675795D01*
X118084500Y-131784104D01*
X118064815Y-131851143D01*
X118012011Y-131896898D01*
X117942853Y-131906842D01*
X117879297Y-131877817D01*
X117872819Y-131871785D01*
X106237411Y-120236377D01*
X106237407Y-120236374D01*
X106133328Y-120166830D01*
X106133315Y-120166823D01*
X106017673Y-120118923D01*
X106017661Y-120118920D01*
X105894895Y-120094500D01*
X105894891Y-120094500D01*
X105093984Y-120094500D01*
X105026945Y-120074815D01*
X104981190Y-120022011D01*
X104971246Y-119952853D01*
X104976053Y-119932182D01*
X105026757Y-119776130D01*
X105026757Y-119776127D01*
X105060000Y-119566246D01*
X105060000Y-119353753D01*
X105026757Y-119143872D01*
X105026757Y-119143869D01*
X104961095Y-118941782D01*
X104864624Y-118752449D01*
X104825270Y-118698282D01*
X104825269Y-118698282D01*
X104192962Y-119330589D01*
X104175925Y-119267007D01*
X104110099Y-119152993D01*
X104017007Y-119059901D01*
X103902993Y-118994075D01*
X103839409Y-118977037D01*
X104471716Y-118344728D01*
X104417550Y-118305375D01*
X104228217Y-118208904D01*
X104026128Y-118143242D01*
X104018115Y-118141973D01*
X103954980Y-118112044D01*
X103918049Y-118052732D01*
X103919047Y-117982869D01*
X103957657Y-117924637D01*
X104021621Y-117896523D01*
X104037513Y-117895500D01*
X124136805Y-117895500D01*
X124203844Y-117915185D01*
G37*
%TD.AperFunction*%
%TA.AperFunction,Conductor*%
G36*
X103449526Y-117915185D02*
G01*
X103495281Y-117967989D01*
X103505225Y-118037147D01*
X103476200Y-118100703D01*
X103417422Y-118138477D01*
X103401885Y-118141973D01*
X103393872Y-118143242D01*
X103393869Y-118143242D01*
X103191782Y-118208904D01*
X103002439Y-118305380D01*
X102948282Y-118344727D01*
X102948282Y-118344728D01*
X103580591Y-118977037D01*
X103517007Y-118994075D01*
X103402993Y-119059901D01*
X103309901Y-119152993D01*
X103244075Y-119267007D01*
X103227037Y-119330591D01*
X102594728Y-118698282D01*
X102594727Y-118698282D01*
X102555380Y-118752440D01*
X102555374Y-118752449D01*
X102555246Y-118752702D01*
X102555172Y-118752780D01*
X102552838Y-118756590D01*
X102552036Y-118756099D01*
X102507264Y-118803490D01*
X102439441Y-118820275D01*
X102373309Y-118797728D01*
X102334283Y-118752680D01*
X102331894Y-118747991D01*
X102206206Y-118574996D01*
X102055004Y-118423794D01*
X101882009Y-118298106D01*
X101691483Y-118201027D01*
X101691480Y-118201026D01*
X101495750Y-118137431D01*
X101438075Y-118097994D01*
X101410876Y-118033635D01*
X101422790Y-117964789D01*
X101470034Y-117913313D01*
X101534068Y-117895500D01*
X103382487Y-117895500D01*
X103449526Y-117915185D01*
G37*
%TD.AperFunction*%
%TD*%
D21*
X60500000Y-116000000D02*
X60500000Y-164500000D01*
X164500000Y-116000000D02*
X164500000Y-164500000D01*
X60500000Y-116000000D02*
X164500000Y-116000000D01*
X164500000Y-164500000D02*
X60500000Y-164500000D01*
M02*
