M48
; DRILL file {KiCad 9.0.7} date 2026-09-05T13:43:26-0700
; FORMAT={-:-/ absolute / metric / decimal}
; #@! TF.CreationDate,2026-09-05T13:43:26-07:00
; #@! TF.GenerationSoftware,Kicad,Pcbnew,9.0.7
; #@! TF.FileFunction,Plated,1,2,PTH
FMAT,2
METRIC
; #@! TA.AperFunction,Plated,PTH,ViaDrill
T1C0.300
; #@! TA.AperFunction,Plated,PTH,ViaDrill
T2C0.400
; #@! TA.AperFunction,Plated,PTH,ComponentDrill
T3C0.800
; #@! TA.AperFunction,Plated,PTH,ComponentDrill
T4C1.000
%
G90
G05
T1
X105.117Y-81.234
X116.75Y-93.945
X118.435Y-94.165
X121.605Y-88.369
X122.647Y-89.909
X123.176Y-88.075
X124.716Y-85.507
X126.15Y-89.141
X127.424Y-68.357
X127.777Y-93.263
X127.843Y-86.831
X127.843Y-90.103
X131.135Y-87.811
X131.161Y-76.937
X134.466Y-89.141
X134.713Y-94.05
X136.651Y-78.85
X137.115Y-82.063
X138.279Y-81.695
X140.043Y-93.1
X142.728Y-80.583
X151.153Y-96.552
X157.955Y-89.382
X160.926Y-69.832
X163.505Y-69.829
X163.91Y-87.55
X168.354Y-70.199
X169.559Y-72.79
X170.191Y-69.91
X173.031Y-71.87
X180.821Y-72.662
X181.895Y-74.087
X182.545Y-72.505
X182.692Y-68.306
X184.483Y-72.182
X184.75Y-90.782
X187.306Y-69.531
X187.727Y-72.251
X190.671Y-91.158
X196.659Y-69.215
T2
X144.125Y-90.623
X148.207Y-82.69
X172.841Y-84.65
X191.01Y-69.315
X199.636Y-83.39
T3
X103.3Y-79.54
X103.3Y-82.08
X103.3Y-84.62
X103.3Y-87.16
X103.3Y-89.7
X103.3Y-92.24
X150.83Y-77.91
X150.83Y-93.15
X153.37Y-77.91
X153.37Y-93.15
X155.91Y-77.91
X155.91Y-93.15
X158.45Y-77.91
X158.45Y-93.15
X160.99Y-77.91
X160.99Y-93.15
X163.53Y-77.91
X163.53Y-93.15
X166.07Y-77.91
X166.07Y-93.15
X168.61Y-77.91
X168.61Y-93.15
X171.15Y-77.91
X171.15Y-93.15
X173.69Y-77.91
X173.69Y-93.15
X176.23Y-77.91
X176.23Y-93.15
X178.77Y-77.91
X178.77Y-93.15
X181.31Y-77.91
X181.31Y-93.15
X183.85Y-77.91
X183.85Y-93.15
X186.39Y-77.91
X186.39Y-93.15
X188.93Y-77.91
X188.93Y-93.15
X191.47Y-77.91
X191.47Y-93.15
X194.01Y-77.91
X194.01Y-93.15
X196.55Y-77.91
X196.55Y-93.15
X199.09Y-77.91
X199.09Y-93.15
T4
X102.5Y-98.0
X103.485Y-71.195
X103.485Y-73.736
X105.04Y-98.0
X106.025Y-71.195
X106.025Y-73.736
X107.58Y-98.0
X108.565Y-71.195
X108.565Y-73.736
X110.12Y-98.0
X111.105Y-71.195
X111.105Y-73.736
X112.66Y-98.0
X113.645Y-71.195
X113.645Y-73.736
X115.2Y-98.0
X116.185Y-71.195
X116.185Y-73.736
X117.74Y-98.0
X118.725Y-71.195
X118.725Y-73.736
X120.28Y-98.0
X121.265Y-71.195
X121.265Y-73.736
X122.82Y-98.0
X123.805Y-71.195
X123.805Y-73.736
X125.36Y-98.0
X126.345Y-71.195
X126.345Y-73.736
X127.9Y-98.0
X128.885Y-71.195
X128.885Y-73.736
X130.44Y-98.0
X131.425Y-71.195
X131.425Y-73.736
X132.98Y-98.0
X133.965Y-71.195
X133.965Y-73.736
X135.52Y-98.0
X136.505Y-71.195
X136.505Y-73.736
X138.06Y-98.0
X139.045Y-71.195
X139.045Y-73.736
X140.6Y-98.0
X141.585Y-71.195
X141.585Y-73.736
X143.14Y-98.0
X144.125Y-71.195
X144.125Y-73.736
X145.68Y-98.0
X148.22Y-98.0
X150.76Y-98.0
X153.3Y-98.0
X155.84Y-98.0
X158.38Y-98.0
X160.92Y-98.0
X163.46Y-98.0
X166.0Y-98.0
X168.54Y-98.0
X171.08Y-98.0
X173.62Y-98.0
X176.16Y-98.0
X178.7Y-98.0
X181.24Y-98.0
X183.78Y-98.0
X186.32Y-98.0
X188.86Y-98.0
X191.4Y-98.0
X193.94Y-98.0
X196.48Y-98.0
X199.02Y-98.0
X201.56Y-98.0
M30
