%TF.GenerationSoftware,KiCad,Pcbnew,9.0.7*%
%TF.CreationDate,2026-09-05T13:43:31-07:00*%
%TF.ProjectId,RC2014-FDC-V22,52433230-3134-42d4-9644-432d5632322e,rev?*%
%TF.SameCoordinates,Original*%
%TF.FileFunction,Copper,L1,Top*%
%TF.FilePolarity,Positive*%
%FSLAX46Y46*%
G04 Gerber Fmt 4.6, Leading zero omitted, Abs format (unit mm)*
G04 Created by KiCad (PCBNEW 9.0.7) date 2026-09-05 13:43:31*
%MOMM*%
%LPD*%
G01*
G04 APERTURE LIST*
G04 Aperture macros list*
%AMRoundRect*
0 Rectangle with rounded corners*
0 $1 Rounding radius*
0 $2 $3 $4 $5 $6 $7 $8 $9 X,Y pos of 4 corners*
0 Add a 4 corners polygon primitive as box body*
4,1,4,$2,$3,$4,$5,$6,$7,$8,$9,$2,$3,0*
0 Add four circle primitives for the rounded corners*
1,1,$1+$1,$2,$3*
1,1,$1+$1,$4,$5*
1,1,$1+$1,$6,$7*
1,1,$1+$1,$8,$9*
0 Add four rect primitives between the rounded corners*
20,1,$1+$1,$2,$3,$4,$5,0*
20,1,$1+$1,$4,$5,$6,$7,0*
20,1,$1+$1,$6,$7,$8,$9,0*
20,1,$1+$1,$8,$9,$2,$3,0*%
G04 Aperture macros list end*
%TA.AperFunction,SMDPad,CuDef*%
%ADD10RoundRect,0.250000X-0.475000X0.337500X-0.475000X-0.337500X0.475000X-0.337500X0.475000X0.337500X0*%
%TD*%
%TA.AperFunction,ComponentPad*%
%ADD11RoundRect,0.250000X0.550000X-0.550000X0.550000X0.550000X-0.550000X0.550000X-0.550000X-0.550000X0*%
%TD*%
%TA.AperFunction,ComponentPad*%
%ADD12C,1.600000*%
%TD*%
%TA.AperFunction,ComponentPad*%
%ADD13R,1.700000X1.700000*%
%TD*%
%TA.AperFunction,ComponentPad*%
%ADD14C,1.700000*%
%TD*%
%TA.AperFunction,ComponentPad*%
%ADD15R,1.600000X1.600000*%
%TD*%
%TA.AperFunction,SMDPad,CuDef*%
%ADD16RoundRect,0.150000X0.150000X-0.837500X0.150000X0.837500X-0.150000X0.837500X-0.150000X-0.837500X0*%
%TD*%
%TA.AperFunction,SMDPad,CuDef*%
%ADD17RoundRect,0.162500X0.162500X-0.617500X0.162500X0.617500X-0.162500X0.617500X-0.162500X-0.617500X0*%
%TD*%
%TA.AperFunction,SMDPad,CuDef*%
%ADD18R,1.800000X2.000000*%
%TD*%
%TA.AperFunction,SMDPad,CuDef*%
%ADD19RoundRect,0.137500X0.137500X-0.662500X0.137500X0.662500X-0.137500X0.662500X-0.137500X-0.662500X0*%
%TD*%
%TA.AperFunction,ViaPad*%
%ADD20C,0.600000*%
%TD*%
%TA.AperFunction,ViaPad*%
%ADD21C,0.800000*%
%TD*%
%TA.AperFunction,Conductor*%
%ADD22C,0.200000*%
%TD*%
%TA.AperFunction,Conductor*%
%ADD23C,0.500000*%
%TD*%
G04 APERTURE END LIST*
D10*
%TO.P,C2,1*%
%TO.N,+5V*%
X172150000Y-67762500D03*
%TO.P,C2,2*%
%TO.N,GND*%
X172150000Y-69837500D03*
%TD*%
D11*
%TO.P,U4,1,~{RD}*%
%TO.N,/~{RD}*%
X150830000Y-93150000D03*
D12*
%TO.P,U4,2,~{WR}*%
%TO.N,/~{WR}*%
X153370000Y-93150000D03*
%TO.P,U4,3,~{CS}*%
%TO.N,/~{FDC_CS}*%
X155910000Y-93150000D03*
%TO.P,U4,4,A0*%
%TO.N,/A0*%
X158450000Y-93150000D03*
%TO.P,U4,5,~{DACK}*%
%TO.N,/~{DACK}*%
X160990000Y-93150000D03*
%TO.P,U4,6,TC*%
%TO.N,+5V*%
X163530000Y-93150000D03*
%TO.P,U4,7,D0*%
%TO.N,/D0*%
X166070000Y-93150000D03*
%TO.P,U4,8,D1*%
%TO.N,/D1*%
X168610000Y-93150000D03*
%TO.P,U4,9,D2*%
%TO.N,/D2*%
X171150000Y-93150000D03*
%TO.P,U4,10,D3*%
%TO.N,/D3*%
X173690000Y-93150000D03*
%TO.P,U4,11,D4*%
%TO.N,/D4*%
X176230000Y-93150000D03*
%TO.P,U4,12,D5*%
%TO.N,/D5*%
X178770000Y-93150000D03*
%TO.P,U4,13,D6*%
%TO.N,/D6*%
X181310000Y-93150000D03*
%TO.P,U4,14,D7*%
%TO.N,/D7*%
X183850000Y-93150000D03*
%TO.P,U4,15,DMA*%
%TO.N,unconnected-(U4-DMA-Pad15)*%
X186390000Y-93150000D03*
%TO.P,U4,16,IRQ*%
%TO.N,unconnected-(U4-IRQ-Pad16)*%
X188930000Y-93150000D03*
%TO.P,U4,17,~{LDOR}*%
%TO.N,/~{DOR_WR}*%
X191470000Y-93150000D03*
%TO.P,U4,18,~{LDCR}*%
%TO.N,/~{CCR_WR}*%
X194010000Y-93150000D03*
%TO.P,U4,19,RST*%
%TO.N,/RESET*%
X196550000Y-93150000D03*
%TO.P,U4,20,~{RDD}*%
%TO.N,/~{RDATA}*%
X199090000Y-93150000D03*
%TO.P,U4,21,CLK2*%
%TO.N,GND*%
X199090000Y-77910000D03*
%TO.P,U4,22,DRV*%
X196550000Y-77910000D03*
%TO.P,U4,23,CLK1*%
%TO.N,Net-(U4-CLK1)*%
X194010000Y-77910000D03*
%TO.P,U4,24,PCVAL*%
%TO.N,+5V*%
X191470000Y-77910000D03*
%TO.P,U4,25,~{HS}*%
%TO.N,/~{HDSEL}*%
X188930000Y-77910000D03*
%TO.P,U4,26,~{WE}*%
%TO.N,/~{WE}*%
X186390000Y-77910000D03*
%TO.P,U4,27,~{WD}*%
%TO.N,/~{WDATA}*%
X183850000Y-77910000D03*
%TO.P,U4,28,~{DIRC}*%
%TO.N,/~{DIR}*%
X181310000Y-77910000D03*
%TO.P,U4,29,~{STEP}*%
%TO.N,/~{STEP}*%
X178770000Y-77910000D03*
%TO.P,U4,30,~{DS1}*%
%TO.N,/~{DSA}*%
X176230000Y-77910000D03*
%TO.P,U4,31,VSS*%
%TO.N,GND*%
X173690000Y-77910000D03*
%TO.P,U4,32,~{DS2}*%
%TO.N,/~{DSB}*%
X171150000Y-77910000D03*
%TO.P,U4,33,~{MO1}\u002C~{DS3}*%
%TO.N,/~{MEA}*%
X168610000Y-77910000D03*
%TO.P,U4,34,~{MO2}\u002C~{DS4}*%
%TO.N,/~{MEB}*%
X166070000Y-77910000D03*
%TO.P,U4,35,~{HDL}*%
%TO.N,unconnected-(U4-~{HDL}-Pad35)*%
X163530000Y-77910000D03*
%TO.P,U4,36,~{RWC}\u002C~{RPM}*%
%TO.N,/~{DENSEL}*%
X160990000Y-77910000D03*
%TO.P,U4,37,~{WP}*%
%TO.N,/~{WP}*%
X158450000Y-77910000D03*
%TO.P,U4,38,~{TR00}*%
%TO.N,/~{TRK0}*%
X155910000Y-77910000D03*
%TO.P,U4,39,~{IDX}*%
%TO.N,/~{INDEX}*%
X153370000Y-77910000D03*
%TO.P,U4,40,VCC*%
%TO.N,+5V*%
X150830000Y-77910000D03*
%TD*%
D13*
%TO.P,J2,1,Pin_1*%
%TO.N,GND*%
X103484800Y-73735500D03*
D14*
%TO.P,J2,2,Pin_2*%
%TO.N,/~{DENSEL}*%
X103484800Y-71195500D03*
%TO.P,J2,3,Pin_3*%
%TO.N,GND*%
X106024800Y-73735500D03*
%TO.P,J2,4,Pin_4*%
%TO.N,unconnected-(J2-Pin_4-Pad4)*%
X106024800Y-71195500D03*
%TO.P,J2,5,Pin_5*%
%TO.N,GND*%
X108564800Y-73735500D03*
%TO.P,J2,6,Pin_6*%
%TO.N,unconnected-(J2-Pin_6-Pad6)*%
X108564800Y-71195500D03*
%TO.P,J2,7,Pin_7*%
%TO.N,GND*%
X111104800Y-73735500D03*
%TO.P,J2,8,Pin_8*%
%TO.N,/~{INDEX}*%
X111104800Y-71195500D03*
%TO.P,J2,9,Pin_9*%
%TO.N,GND*%
X113644800Y-73735500D03*
%TO.P,J2,10,Pin_10*%
%TO.N,/~{MEA}*%
X113644800Y-71195500D03*
%TO.P,J2,11,Pin_11*%
%TO.N,GND*%
X116184800Y-73735500D03*
%TO.P,J2,12,Pin_12*%
%TO.N,/~{DSB}*%
X116184800Y-71195500D03*
%TO.P,J2,13,Pin_13*%
%TO.N,GND*%
X118724800Y-73735500D03*
%TO.P,J2,14,Pin_14*%
%TO.N,/~{DSA}*%
X118724800Y-71195500D03*
%TO.P,J2,15,Pin_15*%
%TO.N,GND*%
X121264800Y-73735500D03*
%TO.P,J2,16,Pin_16*%
%TO.N,/~{MEB}*%
X121264800Y-71195500D03*
%TO.P,J2,17,Pin_17*%
%TO.N,GND*%
X123804800Y-73735500D03*
%TO.P,J2,18,Pin_18*%
%TO.N,/~{DIR}*%
X123804800Y-71195500D03*
%TO.P,J2,19,Pin_19*%
%TO.N,GND*%
X126344800Y-73735500D03*
%TO.P,J2,20,Pin_20*%
%TO.N,/~{STEP}*%
X126344800Y-71195500D03*
%TO.P,J2,21,Pin_21*%
%TO.N,GND*%
X128884800Y-73735500D03*
%TO.P,J2,22,Pin_22*%
%TO.N,/~{WDATA}*%
X128884800Y-71195500D03*
%TO.P,J2,23,Pin_23*%
%TO.N,GND*%
X131424800Y-73735500D03*
%TO.P,J2,24,Pin_24*%
%TO.N,/~{WE}*%
X131424800Y-71195500D03*
%TO.P,J2,25,Pin_25*%
%TO.N,GND*%
X133964800Y-73735500D03*
%TO.P,J2,26,Pin_26*%
%TO.N,/~{TRK0}*%
X133964800Y-71195500D03*
%TO.P,J2,27,Pin_27*%
%TO.N,GND*%
X136504800Y-73735500D03*
%TO.P,J2,28,Pin_28*%
%TO.N,/~{WP}*%
X136504800Y-71195500D03*
%TO.P,J2,29,Pin_29*%
%TO.N,GND*%
X139044800Y-73735500D03*
%TO.P,J2,30,Pin_30*%
%TO.N,/~{RDATA}*%
X139044800Y-71195500D03*
%TO.P,J2,31,Pin_31*%
%TO.N,GND*%
X141584800Y-73735500D03*
%TO.P,J2,32,Pin_32*%
%TO.N,/~{HDSEL}*%
X141584800Y-71195500D03*
%TO.P,J2,33,Pin_33*%
%TO.N,GND*%
X144124800Y-73735500D03*
%TO.P,J2,34,Pin_34*%
%TO.N,/~{DC}*%
X144124800Y-71195500D03*
%TD*%
D15*
%TO.P,RN1,1,common*%
%TO.N,+5V*%
X103300000Y-92240000D03*
D12*
%TO.P,RN1,2,R1*%
%TO.N,/~{DC}*%
X103300000Y-89700000D03*
%TO.P,RN1,3,R2*%
%TO.N,/~{RDATA}*%
X103300000Y-87160000D03*
%TO.P,RN1,4,R3*%
%TO.N,/~{WP}*%
X103300000Y-84620000D03*
%TO.P,RN1,5,R4*%
%TO.N,/~{INDEX}*%
X103300000Y-82080000D03*
%TO.P,RN1,6,R5*%
%TO.N,/~{TRK0}*%
X103300000Y-79540000D03*
%TD*%
D13*
%TO.P,J1,1,Pin_1*%
%TO.N,unconnected-(J1-Pin_1-Pad1)*%
X102500000Y-98000000D03*
D14*
%TO.P,J1,2,Pin_2*%
%TO.N,unconnected-(J1-Pin_2-Pad2)*%
X105040000Y-98000000D03*
%TO.P,J1,3,Pin_3*%
%TO.N,unconnected-(J1-Pin_3-Pad3)*%
X107580000Y-98000000D03*
%TO.P,J1,4,Pin_4*%
%TO.N,unconnected-(J1-Pin_4-Pad4)*%
X110120000Y-98000000D03*
%TO.P,J1,5,Pin_5*%
%TO.N,unconnected-(J1-Pin_5-Pad5)*%
X112660000Y-98000000D03*
%TO.P,J1,6,Pin_6*%
%TO.N,unconnected-(J1-Pin_6-Pad6)*%
X115200000Y-98000000D03*
%TO.P,J1,7,Pin_7*%
%TO.N,unconnected-(J1-Pin_7-Pad7)*%
X117740000Y-98000000D03*
%TO.P,J1,8,Pin_8*%
%TO.N,unconnected-(J1-Pin_8-Pad8)*%
X120280000Y-98000000D03*
%TO.P,J1,9,Pin_9*%
%TO.N,/A7*%
X122820000Y-98000000D03*
%TO.P,J1,10,Pin_10*%
%TO.N,/A6*%
X125360000Y-98000000D03*
%TO.P,J1,11,Pin_11*%
%TO.N,/A5*%
X127900000Y-98000000D03*
%TO.P,J1,12,Pin_12*%
%TO.N,/A4*%
X130440000Y-98000000D03*
%TO.P,J1,13,Pin_13*%
%TO.N,/A3*%
X132980000Y-98000000D03*
%TO.P,J1,14,Pin_14*%
%TO.N,/A2*%
X135520000Y-98000000D03*
%TO.P,J1,15,Pin_15*%
%TO.N,/A1*%
X138060000Y-98000000D03*
%TO.P,J1,16,Pin_16*%
%TO.N,/A0*%
X140600000Y-98000000D03*
%TO.P,J1,17,Pin_17*%
%TO.N,GND*%
X143140000Y-98000000D03*
%TO.P,J1,18,Pin_18*%
%TO.N,+5V*%
X145680000Y-98000000D03*
%TO.P,J1,19,Pin_19*%
%TO.N,/~{M1}*%
X148220000Y-98000000D03*
%TO.P,J1,20,Pin_20*%
%TO.N,/~{RESET}*%
X150760000Y-98000000D03*
%TO.P,J1,21,Pin_21*%
%TO.N,/CLK*%
X153300000Y-98000000D03*
%TO.P,J1,22,Pin_22*%
%TO.N,/~{INT}*%
X155840000Y-98000000D03*
%TO.P,J1,23,Pin_23*%
%TO.N,/~{MREQ}*%
X158380000Y-98000000D03*
%TO.P,J1,24,Pin_24*%
%TO.N,/~{WR}*%
X160920000Y-98000000D03*
%TO.P,J1,25,Pin_25*%
%TO.N,/~{RD}*%
X163460000Y-98000000D03*
%TO.P,J1,26,Pin_26*%
%TO.N,/~{IORQ}*%
X166000000Y-98000000D03*
%TO.P,J1,27,Pin_27*%
%TO.N,/D0*%
X168540000Y-98000000D03*
%TO.P,J1,28,Pin_28*%
%TO.N,/D1*%
X171080000Y-98000000D03*
%TO.P,J1,29,Pin_29*%
%TO.N,/D2*%
X173620000Y-98000000D03*
%TO.P,J1,30,Pin_30*%
%TO.N,/D3*%
X176160000Y-98000000D03*
%TO.P,J1,31,Pin_31*%
%TO.N,/D4*%
X178700000Y-98000000D03*
%TO.P,J1,32,Pin_32*%
%TO.N,/D5*%
X181240000Y-98000000D03*
%TO.P,J1,33,Pin_33*%
%TO.N,/D6*%
X183780000Y-98000000D03*
%TO.P,J1,34,Pin_34*%
%TO.N,/D7*%
X186320000Y-98000000D03*
%TO.P,J1,35,Pin_35*%
%TO.N,unconnected-(J1-Pin_35-Pad35)*%
X188860000Y-98000000D03*
%TO.P,J1,36,Pin_36*%
%TO.N,unconnected-(J1-Pin_36-Pad36)*%
X191400000Y-98000000D03*
%TO.P,J1,37,Pin_37*%
%TO.N,unconnected-(J1-Pin_37-Pad37)*%
X193940000Y-98000000D03*
%TO.P,J1,38,Pin_38*%
%TO.N,unconnected-(J1-Pin_38-Pad38)*%
X196480000Y-98000000D03*
%TO.P,J1,39,Pin_39*%
%TO.N,unconnected-(J1-Pin_39-Pad39)*%
X199020000Y-98000000D03*
%TO.P,J1,40,Pin_40*%
%TO.N,unconnected-(J1-Pin_40-Pad40)*%
X201560000Y-98000000D03*
%TD*%
D10*
%TO.P,C1,1*%
%TO.N,+5V*%
X126440000Y-85737500D03*
%TO.P,C1,2*%
%TO.N,GND*%
X126440000Y-87812500D03*
%TD*%
%TO.P,C3,1*%
%TO.N,+5V*%
X110210000Y-85912500D03*
%TO.P,C3,2*%
%TO.N,GND*%
X110210000Y-87987500D03*
%TD*%
%TO.P,C5,1*%
%TO.N,+5V*%
X181400000Y-67662500D03*
%TO.P,C5,2*%
%TO.N,GND*%
X181400000Y-69737500D03*
%TD*%
D16*
%TO.P,U1,1*%
%TO.N,/~{DOR_WR}*%
X128990000Y-92612500D03*
%TO.P,U1,2*%
%TO.N,/~{RD}*%
X130260000Y-92612500D03*
%TO.P,U1,3*%
%TO.N,/~{DACK}*%
X131530000Y-92612500D03*
%TO.P,U1,4*%
%TO.N,/~{RD}*%
X132800000Y-92612500D03*
%TO.P,U1,5*%
%TO.N,/~{RTC_CS}*%
X134070000Y-92612500D03*
%TO.P,U1,6*%
%TO.N,/~{RTC_RD}*%
X135340000Y-92612500D03*
%TO.P,U1,7,GND*%
%TO.N,GND*%
X136610000Y-92612500D03*
%TO.P,U1,8*%
%TO.N,Net-(U3-~{E1})*%
X136610000Y-85687500D03*
%TO.P,U1,9*%
%TO.N,/~{IORQ}*%
X135340000Y-85687500D03*
%TO.P,U1,10*%
%TO.N,/A7*%
X134070000Y-85687500D03*
%TO.P,U1,11*%
%TO.N,unconnected-(U1-Pad11)*%
X132800000Y-85687500D03*
%TO.P,U1,12*%
%TO.N,GND*%
X131530000Y-85687500D03*
%TO.P,U1,13*%
X130260000Y-85687500D03*
%TO.P,U1,14,VCC*%
%TO.N,+5V*%
X128990000Y-85687500D03*
%TD*%
D17*
%TO.P,U2,1,1A*%
%TO.N,/~{M1}*%
X174300000Y-70650000D03*
%TO.P,U2,2,GND*%
%TO.N,GND*%
X175250000Y-70650000D03*
%TO.P,U2,3,2A*%
%TO.N,/~{RESET}*%
X176200000Y-70650000D03*
%TO.P,U2,4,2Y*%
%TO.N,/RESET*%
X176200000Y-67950000D03*
%TO.P,U2,5,V_{CC}*%
%TO.N,+5V*%
X175250000Y-67950000D03*
%TO.P,U2,6,1Y*%
%TO.N,Net-(U2-1Y)*%
X174300000Y-67950000D03*
%TD*%
D10*
%TO.P,C6,1*%
%TO.N,+5V*%
X189100000Y-68462500D03*
%TO.P,C6,2*%
%TO.N,GND*%
X189100000Y-70537500D03*
%TD*%
D18*
%TO.P,Y1,1,EN*%
%TO.N,unconnected-(Y1-EN-Pad1)*%
X191520000Y-71700000D03*
%TO.P,Y1,2,GND*%
%TO.N,GND*%
X196600000Y-71700000D03*
%TO.P,Y1,3,OUT*%
%TO.N,Net-(U4-CLK1)*%
X196600000Y-67700000D03*
%TO.P,Y1,4,Vdd*%
%TO.N,+5V*%
X191520000Y-67700000D03*
%TD*%
D10*
%TO.P,C4,1*%
%TO.N,+5V*%
X202000000Y-81925000D03*
%TO.P,C4,2*%
%TO.N,GND*%
X202000000Y-84000000D03*
%TD*%
D19*
%TO.P,U3,1,A0*%
%TO.N,/A3*%
X112410000Y-92550000D03*
%TO.P,U3,2,A1*%
%TO.N,/A4*%
X113680000Y-92550000D03*
%TO.P,U3,3,A2*%
%TO.N,/A6*%
X114950000Y-92550000D03*
%TO.P,U3,4,~{E0}*%
%TO.N,Net-(U2-1Y)*%
X116220000Y-92550000D03*
%TO.P,U3,5,~{E1}*%
%TO.N,Net-(U3-~{E1})*%
X117490000Y-92550000D03*
%TO.P,U3,6,E2*%
%TO.N,/A5*%
X118760000Y-92550000D03*
%TO.P,U3,7,~{Y7}*%
%TO.N,unconnected-(U3-~{Y7}-Pad7)*%
X120030000Y-92550000D03*
%TO.P,U3,8,GND*%
%TO.N,GND*%
X121300000Y-92550000D03*
%TO.P,U3,9,~{Y6}*%
%TO.N,/~{RTC_CS}*%
X121300000Y-86050000D03*
%TO.P,U3,10,~{Y5}*%
%TO.N,unconnected-(U3-~{Y5}-Pad10)*%
X120030000Y-86050000D03*
%TO.P,U3,11,~{Y4}*%
%TO.N,unconnected-(U3-~{Y4}-Pad11)*%
X118760000Y-86050000D03*
%TO.P,U3,12,~{Y3}*%
%TO.N,/~{DOR_WR}*%
X117490000Y-86050000D03*
%TO.P,U3,13,~{Y2}*%
%TO.N,/~{FDC_CS}*%
X116220000Y-86050000D03*
%TO.P,U3,14,~{Y1}*%
%TO.N,/~{CCR_WR}*%
X114950000Y-86050000D03*
%TO.P,U3,15,~{Y0}*%
%TO.N,unconnected-(U3-~{Y0}-Pad15)*%
X113680000Y-86050000D03*
%TO.P,U3,16,VCC*%
%TO.N,+5V*%
X112410000Y-86050000D03*
%TD*%
D17*
%TO.P,U5,1*%
%TO.N,/~{RTC_RD}*%
X183600000Y-70600000D03*
%TO.P,U5,2*%
%TO.N,/~{DC}*%
X184550000Y-70600000D03*
%TO.P,U5,3,GND*%
%TO.N,GND*%
X185500000Y-70600000D03*
%TO.P,U5,4*%
%TO.N,/D7*%
X185500000Y-67900000D03*
%TO.P,U5,5,VCC*%
%TO.N,+5V*%
X183600000Y-67900000D03*
%TD*%
D20*
%TO.N,/RESET*%
X182692500Y-68306200D03*
D21*
%TO.N,+5V*%
X191009600Y-69314800D03*
X148207400Y-82690000D03*
D20*
%TO.N,/~{M1}*%
X170190600Y-69910500D03*
D21*
%TO.N,GND*%
X172841400Y-84650000D03*
X144124800Y-90623000D03*
X199636200Y-83390200D03*
D20*
%TO.N,Net-(U2-1Y)*%
X116749800Y-93945400D03*
X127424100Y-68357300D03*
%TO.N,/D7*%
X187306400Y-69531200D03*
%TO.N,/~{RTC_RD}*%
X180821500Y-72661600D03*
X182545200Y-72505000D03*
X184750200Y-90782500D03*
X184482900Y-72181800D03*
%TO.N,/~{DC}*%
X187727400Y-72250800D03*
X181895500Y-74087000D03*
X142727800Y-80583100D03*
X105117400Y-81234300D03*
%TO.N,/~{FDC_CS}*%
X122647000Y-89908900D03*
X123176200Y-88074900D03*
X157955400Y-89382000D03*
%TO.N,/~{RTC_CS}*%
X124715800Y-85507100D03*
X134712800Y-94050200D03*
%TO.N,/~{CCR_WR}*%
X134465600Y-89141000D03*
X121605500Y-88368800D03*
%TO.N,Net-(U3-~{E1})*%
X126150500Y-89141000D03*
X118435400Y-94165000D03*
%TO.N,/~{DOR_WR}*%
X127843000Y-90102800D03*
X127843000Y-86831200D03*
X190671000Y-91157900D03*
X127776700Y-93263000D03*
%TO.N,/~{IORQ}*%
X163909800Y-87550000D03*
%TO.N,/~{RD}*%
X151152700Y-96551900D03*
%TO.N,/A7*%
X131135400Y-87811500D03*
%TO.N,/~{DSA}*%
X173030700Y-71870300D03*
%TO.N,/~{RDATA}*%
X137115000Y-82063200D03*
X140043000Y-93099600D03*
%TO.N,/~{MEB}*%
X163504900Y-69829200D03*
%TO.N,/~{WE}*%
X160925600Y-69831600D03*
%TO.N,/~{DIR}*%
X131160600Y-76936800D03*
%TO.N,/~{STEP}*%
X168354300Y-70199100D03*
%TO.N,/~{TRK0}*%
X136650600Y-78850000D03*
%TO.N,Net-(U4-CLK1)*%
X196659000Y-69214700D03*
%TO.N,/~{RESET}*%
X169558800Y-72789600D03*
%TO.N,/~{WP}*%
X138278900Y-81694700D03*
%TD*%
D22*
%TO.N,/RESET*%
X182397200Y-68601500D02*
X176851500Y-68601500D01*
X182692500Y-68306200D02*
X182397200Y-68601500D01*
X176851500Y-68601500D02*
X176200000Y-67950000D01*
D23*
%TO.N,+5V*%
X128557800Y-84664200D02*
X128990000Y-85096400D01*
X181508000Y-67554500D02*
X181400000Y-67662500D01*
X104551700Y-91570800D02*
X110210000Y-85912500D01*
X189405800Y-68462500D02*
X190168300Y-67700000D01*
X189778600Y-66634400D02*
X190844200Y-67700000D01*
X104551700Y-92240000D02*
X104551700Y-91570800D01*
X103300000Y-92240000D02*
X104551700Y-92240000D01*
X147879800Y-95800200D02*
X160879800Y-95800200D01*
X110347500Y-86050000D02*
X110210000Y-85912500D01*
X148082400Y-82815000D02*
X148207400Y-82690000D01*
X189252900Y-68462500D02*
X189405800Y-68462500D01*
X183191700Y-82688500D02*
X148208900Y-82688500D01*
X145680000Y-98000000D02*
X147879800Y-95800200D01*
X128992100Y-85096400D02*
X131398500Y-82690000D01*
X189100000Y-68462500D02*
X189252900Y-68462500D01*
X173244600Y-66667900D02*
X172150000Y-67762500D01*
X128990000Y-85096400D02*
X128990000Y-85687500D01*
X112410000Y-86050000D02*
X110347500Y-86050000D01*
X128990000Y-85096400D02*
X128992100Y-85096400D01*
X191470000Y-77910000D02*
X186980700Y-82399300D01*
X195485000Y-81925000D02*
X191470000Y-77910000D01*
X148208900Y-82688500D02*
X148207400Y-82690000D01*
X183480900Y-82399300D02*
X183191700Y-82688500D01*
X183600000Y-67900000D02*
X183254500Y-67554500D01*
X180405400Y-66667900D02*
X175250000Y-66667900D01*
X191520000Y-67700000D02*
X190844200Y-67700000D01*
X160879800Y-95800200D02*
X163530000Y-93150000D01*
X190157300Y-68462500D02*
X191009600Y-69314800D01*
X136678600Y-82690000D02*
X136803600Y-82815000D01*
X202000000Y-81925000D02*
X195485000Y-81925000D01*
X186980700Y-82399300D02*
X183480900Y-82399300D01*
X126440000Y-85737500D02*
X126490000Y-85687500D01*
X110210000Y-85912500D02*
X111458300Y-84664200D01*
X136803600Y-82815000D02*
X148082400Y-82815000D01*
X181400000Y-67662500D02*
X180405400Y-66667900D01*
X184865600Y-66634400D02*
X189778600Y-66634400D01*
X126490000Y-85687500D02*
X128990000Y-85687500D01*
X175250000Y-66667900D02*
X175250000Y-67950000D01*
X175250000Y-66667900D02*
X173244600Y-66667900D01*
X183600000Y-67900000D02*
X184865600Y-66634400D01*
X111458300Y-84664200D02*
X128557800Y-84664200D01*
X131398500Y-82690000D02*
X136678600Y-82690000D01*
X189252900Y-68462500D02*
X190157300Y-68462500D01*
X183480900Y-82399300D02*
X183191700Y-82688500D01*
X183254500Y-67554500D02*
X181508000Y-67554500D01*
X190844200Y-67700000D02*
X190168300Y-67700000D01*
D22*
%TO.N,/~{M1}*%
X174201000Y-70749000D02*
X171029100Y-70749000D01*
X174300000Y-70650000D02*
X174201000Y-70749000D01*
X171029100Y-70749000D02*
X170190600Y-69910500D01*
D23*
%TO.N,GND*%
X193727900Y-70179600D02*
X195248300Y-71700000D01*
X108564800Y-73735500D02*
X106024800Y-73735500D01*
X121300000Y-90917100D02*
X121300000Y-90991200D01*
X121300000Y-90861800D02*
X128723000Y-90861800D01*
X111343000Y-89120500D02*
X121300000Y-89120500D01*
X172150000Y-69837500D02*
X172580600Y-69406900D01*
X137984600Y-90623000D02*
X144124800Y-90623000D01*
X136504800Y-73735500D02*
X139044800Y-73735500D01*
X121264800Y-73735500D02*
X123804800Y-73735500D01*
X202000000Y-84000000D02*
X200246000Y-84000000D01*
X128723000Y-90861800D02*
X128888700Y-90696100D01*
X200246000Y-84000000D02*
X199636200Y-83390200D01*
X110210000Y-87987500D02*
X111343000Y-89120500D01*
X196550000Y-77910000D02*
X196600000Y-77910000D01*
X148098400Y-74311100D02*
X148475700Y-73933800D01*
X168147000Y-74712800D02*
X168582300Y-75148100D01*
X168582300Y-75148100D02*
X170928100Y-75148100D01*
X185500000Y-70600000D02*
X189037500Y-70600000D01*
X130260000Y-85687500D02*
X130260000Y-86322500D01*
X196600000Y-77910000D02*
X199090000Y-77910000D01*
X121300000Y-89120500D02*
X121300000Y-90861800D01*
X121300000Y-89120500D02*
X121916900Y-89120500D01*
X113644800Y-73735500D02*
X116184800Y-73735500D01*
X128770000Y-87812500D02*
X126440000Y-87812500D01*
X128884800Y-73735500D02*
X131424800Y-73735500D01*
X144124800Y-73735500D02*
X144700400Y-74311100D01*
X103484800Y-73735500D02*
X106024800Y-73735500D01*
X136610000Y-92612500D02*
X136610000Y-91997600D01*
X122210800Y-88826600D02*
X125401900Y-88826600D01*
X181069400Y-69406900D02*
X175250000Y-69406900D01*
X111104800Y-73735500D02*
X108564800Y-73735500D01*
X126416000Y-87812500D02*
X126440000Y-87812500D01*
X121916900Y-89120500D02*
X122210800Y-88826600D01*
X189100000Y-70537500D02*
X189457900Y-70179600D01*
X189457900Y-70179600D02*
X193727900Y-70179600D01*
X174101200Y-83390200D02*
X172841400Y-84650000D01*
X189037500Y-70600000D02*
X189100000Y-70537500D01*
X131530000Y-85687500D02*
X130260000Y-85687500D01*
X139044800Y-73735500D02*
X141584800Y-73735500D01*
X184389800Y-73151700D02*
X196600000Y-73151700D01*
X126344800Y-73735500D02*
X123804800Y-73735500D01*
X196600000Y-77910000D02*
X196600000Y-73151700D01*
X181400000Y-69737500D02*
X181400000Y-70161900D01*
X125401900Y-88826600D02*
X126416000Y-87812500D01*
X136504800Y-73735500D02*
X133964800Y-73735500D01*
X181400000Y-70161900D02*
X184389800Y-73151700D01*
X144700400Y-74311100D02*
X148098400Y-74311100D01*
X181400000Y-69737500D02*
X181069400Y-69406900D01*
X131424800Y-73735500D02*
X133964800Y-73735500D01*
X130260000Y-86322500D02*
X128770000Y-87812500D01*
X148475700Y-73933800D02*
X167164100Y-73933800D01*
X167943100Y-74712800D02*
X168147000Y-74712800D01*
X175250000Y-69406900D02*
X175250000Y-70650000D01*
X135308500Y-90696100D02*
X136610000Y-91997600D01*
X116184800Y-73735500D02*
X118724800Y-73735500D01*
X144124800Y-73735500D02*
X141584800Y-73735500D01*
X167164100Y-73933800D02*
X167943100Y-74712800D01*
X196600000Y-71700000D02*
X196600000Y-73151700D01*
X128888700Y-90696100D02*
X135308500Y-90696100D01*
X172580600Y-69406900D02*
X175250000Y-69406900D01*
X121300000Y-90861800D02*
X121300000Y-90917100D01*
X199636200Y-83390200D02*
X174101200Y-83390200D01*
X196600000Y-71700000D02*
X195248300Y-71700000D01*
X128884800Y-73735500D02*
X126344800Y-73735500D01*
X136610000Y-91997600D02*
X137984600Y-90623000D01*
X170928100Y-75148100D02*
X173690000Y-77910000D01*
X121300000Y-90991200D02*
X121300000Y-92550000D01*
D22*
%TO.N,Net-(U2-1Y)*%
X167577200Y-68001900D02*
X127779500Y-68001900D01*
X116749800Y-93945400D02*
X116220000Y-93415600D01*
X174300000Y-67950000D02*
X173554800Y-68695200D01*
X173554800Y-68695200D02*
X168270500Y-68695200D01*
X116749800Y-93758100D02*
X116749800Y-93945400D01*
X168270500Y-68695200D02*
X167577200Y-68001900D01*
X127779500Y-68001900D02*
X127424100Y-68357300D01*
X116220000Y-93415600D02*
X116220000Y-92550000D01*
X116749800Y-93945400D02*
X116749800Y-93758100D01*
%TO.N,/D7*%
X185500000Y-67900000D02*
X185675200Y-67900000D01*
X185675200Y-67900000D02*
X187306400Y-69531200D01*
%TO.N,/~{RTC_RD}*%
X184207000Y-71905900D02*
X184482900Y-72181800D01*
X139563500Y-91324700D02*
X136944000Y-93944200D01*
X182545200Y-72505000D02*
X180978100Y-72505000D01*
X144415400Y-91324700D02*
X139563500Y-91324700D01*
X184482900Y-72181800D02*
X184207000Y-71905900D01*
X135340000Y-92980500D02*
X135340000Y-92612500D01*
X136303700Y-93944200D02*
X135340000Y-92980500D01*
X182665700Y-72505000D02*
X182545200Y-72505000D01*
X136944000Y-93944200D02*
X136303700Y-93944200D01*
X144560400Y-91179700D02*
X144415400Y-91324700D01*
X184576400Y-90956300D02*
X184750200Y-90782500D01*
X182545200Y-72505000D02*
X182665700Y-72505000D01*
X183600000Y-71298900D02*
X183600000Y-70600000D01*
X184750200Y-90782500D02*
X184353000Y-91179700D01*
X184750200Y-90782500D02*
X184576400Y-90956300D01*
X184353000Y-91179700D02*
X144560400Y-91179700D01*
X184482900Y-72181800D02*
X183600000Y-71298900D01*
X180978100Y-72505000D02*
X180821500Y-72661600D01*
%TO.N,/~{DC}*%
X169147000Y-73794500D02*
X168647600Y-73794500D01*
X184550000Y-71134800D02*
X184550000Y-70600000D01*
X185666000Y-72250800D02*
X184550000Y-71134800D01*
X181895500Y-74087000D02*
X169439500Y-74087000D01*
X105768600Y-80583100D02*
X105117400Y-81234300D01*
X187727400Y-72250800D02*
X185666000Y-72250800D01*
X142727800Y-80583100D02*
X105768600Y-80583100D01*
X166048600Y-71195500D02*
X144124800Y-71195500D01*
X142837100Y-80583100D02*
X142727800Y-80583100D01*
X169439500Y-74087000D02*
X169147000Y-73794500D01*
X142727800Y-80583100D02*
X142837100Y-80583100D01*
X168647600Y-73794500D02*
X166048600Y-71195500D01*
%TO.N,/~{FDC_CS}*%
X134714800Y-89742700D02*
X135075400Y-89382100D01*
X122976900Y-87875600D02*
X123176200Y-88074900D01*
X134216500Y-89742700D02*
X134714800Y-89742700D01*
X123176200Y-88074900D02*
X122976900Y-87875600D01*
X126233500Y-89908900D02*
X126752300Y-89390100D01*
X126752300Y-89390100D02*
X133863900Y-89390100D01*
X135075400Y-89382000D02*
X157955400Y-89382000D01*
X117600600Y-87673300D02*
X116220000Y-86292700D01*
X122774600Y-87673300D02*
X117600600Y-87673300D01*
X135075400Y-89382100D02*
X135075400Y-89382000D01*
X133863900Y-89390100D02*
X134216500Y-89742700D01*
X122647000Y-89908900D02*
X126233500Y-89908900D01*
X116220000Y-86292700D02*
X116220000Y-86050000D01*
X123176200Y-88074900D02*
X122774600Y-87673300D01*
%TO.N,/A3*%
X124090000Y-98401300D02*
X124855500Y-99166800D01*
X123358400Y-96844800D02*
X124090000Y-97576400D01*
X116458800Y-96844800D02*
X123358400Y-96844800D01*
X131813200Y-99166800D02*
X132980000Y-98000000D01*
X112410000Y-92550000D02*
X112410000Y-92796000D01*
X112410000Y-92796000D02*
X116458800Y-96844800D01*
X124090000Y-97576400D02*
X124090000Y-98401300D01*
X124855500Y-99166800D02*
X131813200Y-99166800D01*
%TO.N,/A4*%
X119732500Y-93704900D02*
X126144900Y-93704900D01*
X119069600Y-91433600D02*
X119337200Y-91701200D01*
X114634300Y-91433600D02*
X119069600Y-91433600D01*
X113680000Y-92550000D02*
X113680000Y-92387900D01*
X119337200Y-93309600D02*
X119732500Y-93704900D01*
X126144900Y-93704900D02*
X130440000Y-98000000D01*
X113680000Y-92387900D02*
X114634300Y-91433600D01*
X119337200Y-91701200D02*
X119337200Y-93309600D01*
%TO.N,/A5*%
X118760000Y-92550000D02*
X118760000Y-93300400D01*
X120020600Y-94561000D02*
X124461000Y-94561000D01*
X124461000Y-94561000D02*
X127900000Y-98000000D01*
X118760000Y-93300400D02*
X120020600Y-94561000D01*
%TO.N,/~{RTC_CS}*%
X134070000Y-92612500D02*
X134712800Y-93255300D01*
X134712800Y-94050200D02*
X134712800Y-93901200D01*
X121300000Y-86050000D02*
X124172900Y-86050000D01*
X134712800Y-93901200D02*
X134712800Y-94050200D01*
X124172900Y-86050000D02*
X124715800Y-85507100D01*
X134712800Y-93255300D02*
X134712800Y-94050200D01*
%TO.N,/~{CCR_WR}*%
X121605500Y-88368800D02*
X116991100Y-88368800D01*
X194010000Y-93150000D02*
X189589800Y-88729800D01*
X134876800Y-88729800D02*
X134465600Y-89141000D01*
X114950000Y-86327700D02*
X114950000Y-86050000D01*
X116991100Y-88368800D02*
X114950000Y-86327700D01*
X189589800Y-88729800D02*
X134876800Y-88729800D01*
%TO.N,/A6*%
X123737400Y-96377400D02*
X125360000Y-98000000D01*
X114950000Y-92550000D02*
X114950000Y-92996400D01*
X114950000Y-92996400D02*
X118331000Y-96377400D01*
X118331000Y-96377400D02*
X123737400Y-96377400D01*
%TO.N,Net-(U3-~{E1})*%
X126588800Y-88702700D02*
X126150500Y-89141000D01*
X126150500Y-89141000D02*
X126369700Y-88921800D01*
X136610000Y-86056100D02*
X133963400Y-88702700D01*
X136610000Y-85687500D02*
X136610000Y-86056100D01*
X117490000Y-93219600D02*
X117490000Y-92550000D01*
X126369700Y-88921800D02*
X126150500Y-89141000D01*
X118435400Y-94165000D02*
X117490000Y-93219600D01*
X133963400Y-88702700D02*
X126588800Y-88702700D01*
%TO.N,/~{DOR_WR}*%
X134881100Y-90144400D02*
X135159900Y-89865600D01*
X127884600Y-90144400D02*
X134881100Y-90144400D01*
X125827300Y-86831200D02*
X127843000Y-86831200D01*
X117490000Y-86280700D02*
X118383300Y-87174000D01*
X145448600Y-89865600D02*
X145650100Y-90067100D01*
X118383300Y-87174000D02*
X125484500Y-87174000D01*
X135159900Y-89865600D02*
X145448600Y-89865600D01*
X117490000Y-86050000D02*
X117490000Y-86280700D01*
X145650100Y-90067100D02*
X189580200Y-90067100D01*
X125484500Y-87174000D02*
X125827300Y-86831200D01*
X127843000Y-90102800D02*
X127884600Y-90144400D01*
X189580200Y-90067100D02*
X190671000Y-91157900D01*
X127777900Y-93264200D02*
X127776700Y-93263000D01*
X128338300Y-93264200D02*
X128990000Y-92612500D01*
X127777900Y-93264200D02*
X128338300Y-93264200D01*
%TO.N,/~{IORQ}*%
X163909800Y-87550000D02*
X160757400Y-84397600D01*
X135340000Y-85272600D02*
X135340000Y-85687500D01*
X136215000Y-84397600D02*
X135340000Y-85272600D01*
X160757400Y-84397600D02*
X136215000Y-84397600D01*
%TO.N,/~{RD}*%
X132800000Y-92988200D02*
X134559400Y-94747600D01*
X162011900Y-96551900D02*
X163460000Y-98000000D01*
X134559400Y-94747600D02*
X137238100Y-94747600D01*
X132800000Y-92612500D02*
X132800000Y-92215800D01*
X137238100Y-94747600D02*
X138039900Y-93945800D01*
X138039900Y-93945800D02*
X150034200Y-93945800D01*
X150034200Y-93945800D02*
X150830000Y-93150000D01*
X132800000Y-92215800D02*
X131868800Y-91284600D01*
X151152700Y-96551900D02*
X162011900Y-96551900D01*
X132800000Y-92612500D02*
X132800000Y-92988200D01*
X131176200Y-91284600D02*
X130260000Y-92200800D01*
X131868800Y-91284600D02*
X131176200Y-91284600D01*
X130260000Y-92200800D02*
X130260000Y-92612500D01*
%TO.N,/~{DACK}*%
X133695000Y-95149300D02*
X137404400Y-95149300D01*
X137404400Y-95149300D02*
X138165800Y-94387900D01*
X131530000Y-92612500D02*
X131530000Y-92984300D01*
X131530000Y-92984300D02*
X133695000Y-95149300D01*
X156303600Y-94387900D02*
X157321600Y-93369900D01*
X157321600Y-93369900D02*
X157321600Y-92707900D01*
X157321600Y-92707900D02*
X158046400Y-91983100D01*
X158046400Y-91983100D02*
X159823100Y-91983100D01*
X159823100Y-91983100D02*
X160990000Y-93150000D01*
X138165800Y-94387900D02*
X156303600Y-94387900D01*
%TO.N,/A7*%
X132348600Y-87811500D02*
X131135400Y-87811500D01*
X134070000Y-85687500D02*
X134070000Y-86090100D01*
X134070000Y-86090100D02*
X132348600Y-87811500D01*
%TO.N,/~{DSA}*%
X127858300Y-69029700D02*
X120890600Y-69029700D01*
X170879600Y-71870300D02*
X168211000Y-69201700D01*
X128484400Y-68403600D02*
X127858300Y-69029700D01*
X173030700Y-71870300D02*
X170879600Y-71870300D01*
X168211000Y-69201700D02*
X167975600Y-69201700D01*
X120890600Y-69029700D02*
X118724800Y-71195500D01*
X167177500Y-68403600D02*
X128484400Y-68403600D01*
X167975600Y-69201700D02*
X167177500Y-68403600D01*
%TO.N,/~{RDATA}*%
X144726700Y-91581400D02*
X190243700Y-91581400D01*
X192571700Y-93328800D02*
X193537200Y-94294300D01*
X191679200Y-91784200D02*
X192571700Y-92676700D01*
X129333400Y-82604000D02*
X128211100Y-83726300D01*
X192571700Y-92676700D02*
X192571700Y-93328800D01*
X190446500Y-91784200D02*
X191679200Y-91784200D01*
X131245100Y-82063200D02*
X130704300Y-82604000D01*
X106733700Y-83726300D02*
X103300000Y-87160000D01*
X190243700Y-91581400D02*
X190446500Y-91784200D01*
X143208500Y-93099600D02*
X144726700Y-91581400D01*
X197945700Y-94294300D02*
X199090000Y-93150000D01*
X140043000Y-93099600D02*
X143208500Y-93099600D01*
X130704300Y-82604000D02*
X129333400Y-82604000D01*
X137115000Y-82063200D02*
X131245100Y-82063200D01*
X193537200Y-94294300D02*
X197945700Y-94294300D01*
X128211100Y-83726300D02*
X106733700Y-83726300D01*
%TO.N,/~{MEB}*%
X122418000Y-72348700D02*
X126880000Y-72348700D01*
X129161600Y-69225200D02*
X162900900Y-69225200D01*
X127733100Y-71495600D02*
X127733100Y-70653700D01*
X162900900Y-69225200D02*
X163504900Y-69829200D01*
X126880000Y-72348700D02*
X127733100Y-71495600D01*
X121264800Y-71195500D02*
X122418000Y-72348700D01*
X127733100Y-70653700D02*
X129161600Y-69225200D01*
%TO.N,/~{WE}*%
X160721000Y-69627000D02*
X160925600Y-69831600D01*
X132993300Y-69627000D02*
X160721000Y-69627000D01*
X131424800Y-71195500D02*
X132993300Y-69627000D01*
%TO.N,/~{DIR}*%
X158471800Y-76373700D02*
X159720000Y-77621900D01*
X137690900Y-76373700D02*
X158471800Y-76373700D01*
X180199100Y-79020900D02*
X181310000Y-77910000D01*
X131160600Y-76936800D02*
X137127800Y-76936800D01*
X159720000Y-77621900D02*
X159720000Y-78229300D01*
X159720000Y-78229300D02*
X160511600Y-79020900D01*
X137127800Y-76936800D02*
X137690900Y-76373700D01*
X160511600Y-79020900D02*
X180199100Y-79020900D01*
%TO.N,/~{DSB}*%
X119143200Y-72465500D02*
X117454800Y-72465500D01*
X166937100Y-74487000D02*
X170360100Y-77910000D01*
X162948400Y-74485500D02*
X162949900Y-74487000D01*
X120780600Y-74887200D02*
X119994800Y-74101400D01*
X119994800Y-74101400D02*
X119994800Y-73317100D01*
X148302500Y-74887200D02*
X120780600Y-74887200D01*
X162949900Y-74487000D02*
X166937100Y-74487000D01*
X148704200Y-74485500D02*
X162948400Y-74485500D01*
X148468800Y-74720900D02*
X148302500Y-74887200D01*
X117454800Y-72465500D02*
X116184800Y-71195500D01*
X148468800Y-74720900D02*
X148704200Y-74485500D01*
X119994800Y-73317100D02*
X119143200Y-72465500D01*
X148468800Y-74720900D02*
X148302500Y-74887200D01*
X170360100Y-77910000D02*
X171150000Y-77910000D01*
%TO.N,/A0*%
X156810400Y-94789600D02*
X158450000Y-93150000D01*
X140600000Y-98000000D02*
X143810400Y-94789600D01*
X143810400Y-94789600D02*
X156810400Y-94789600D01*
%TO.N,/~{DENSEL}*%
X131409800Y-76335100D02*
X103957700Y-76335100D01*
X102333100Y-74710500D02*
X102333100Y-72347200D01*
X159052000Y-75972000D02*
X137307700Y-75972000D01*
X131448400Y-76373700D02*
X131409800Y-76335100D01*
X136906000Y-76373700D02*
X131448400Y-76373700D01*
X103957700Y-76335100D02*
X102333100Y-74710500D01*
X160990000Y-77910000D02*
X159052000Y-75972000D01*
X137307700Y-75972000D02*
X136906000Y-76373700D01*
X102333100Y-72347200D02*
X103484800Y-71195500D01*
%TO.N,/~{STEP}*%
X128735000Y-68805300D02*
X166960500Y-68805300D01*
X166960500Y-68805300D02*
X168354300Y-70199100D01*
X126344800Y-71195500D02*
X128735000Y-68805300D01*
%TO.N,/~{TRK0}*%
X154790800Y-76790800D02*
X155910000Y-77910000D01*
X138709800Y-76790800D02*
X154790800Y-76790800D01*
X103300000Y-79540000D02*
X135960600Y-79540000D01*
X135960600Y-79540000D02*
X136650600Y-78850000D01*
X136650600Y-78850000D02*
X138709800Y-76790800D01*
%TO.N,/~{WDATA}*%
X128884800Y-71195500D02*
X130156300Y-72467000D01*
X130156300Y-72467000D02*
X146454100Y-72467000D01*
X168943200Y-74396200D02*
X169060900Y-74278500D01*
X180536300Y-74596300D02*
X183850000Y-77910000D01*
X147924000Y-73705300D02*
X147869900Y-73759400D01*
X148247200Y-73382100D02*
X167596500Y-73382100D01*
X147924000Y-73705300D02*
X147869900Y-73759400D01*
X169060900Y-74278500D02*
X169143400Y-74361000D01*
X147924000Y-73705300D02*
X148247200Y-73382100D01*
X169060900Y-74278500D02*
X169143400Y-74361000D01*
X168610600Y-74396200D02*
X168943200Y-74396200D01*
X167596500Y-73382100D02*
X168610600Y-74396200D01*
X169378700Y-74596300D02*
X180536300Y-74596300D01*
X147746500Y-73759400D02*
X147869900Y-73759400D01*
X169143400Y-74361000D02*
X169378700Y-74596300D01*
X146454100Y-72467000D02*
X147746500Y-73759400D01*
%TO.N,Net-(U4-CLK1)*%
X196600000Y-69001700D02*
X196659000Y-69060700D01*
X196600000Y-67700000D02*
X196600000Y-69001700D01*
X196659000Y-69060700D02*
X196659000Y-69214700D01*
%TO.N,/~{INDEX}*%
X138528100Y-81093000D02*
X138029800Y-81093000D01*
X129566000Y-81586600D02*
X129132100Y-81586600D01*
X129664900Y-81487700D02*
X129566000Y-81586600D01*
X150095200Y-81184800D02*
X138619900Y-81184800D01*
X128824100Y-81894600D02*
X128638700Y-82080000D01*
X129664900Y-81487700D02*
X129566000Y-81586600D01*
X138619900Y-81184800D02*
X138528100Y-81093000D01*
X128638700Y-82080000D02*
X103300000Y-82080000D01*
X138029800Y-81093000D02*
X137938000Y-81184800D01*
X129132100Y-81586600D02*
X128824100Y-81894600D01*
X130092800Y-81059800D02*
X129664900Y-81487700D01*
X128824100Y-81894600D02*
X128638700Y-82080000D01*
X137938000Y-81184800D02*
X137655500Y-81184800D01*
X137655500Y-81184800D02*
X137530500Y-81059800D01*
X153370000Y-77910000D02*
X150095200Y-81184800D01*
X137530500Y-81059800D02*
X130092800Y-81059800D01*
%TO.N,/~{HDSEL}*%
X176012200Y-73502000D02*
X175903000Y-73392800D01*
X176012200Y-73502000D02*
X176215500Y-73298700D01*
X181958100Y-73298700D02*
X176215500Y-73298700D01*
X166351700Y-70433300D02*
X160676500Y-70433300D01*
X175903000Y-73392800D02*
X169311200Y-73392800D01*
X176012200Y-73502000D02*
X176215500Y-73298700D01*
X160676500Y-70433300D02*
X160281200Y-70038000D01*
X188930000Y-77910000D02*
X185292000Y-74272000D01*
X169311200Y-73392800D02*
X166351700Y-70433300D01*
X185292000Y-74272000D02*
X182931400Y-74272000D01*
X182931400Y-74272000D02*
X181958100Y-73298700D01*
X160281200Y-70038000D02*
X142742300Y-70038000D01*
X142742300Y-70038000D02*
X141584800Y-71195500D01*
%TO.N,/~{RESET}*%
X169558800Y-72789600D02*
X174562700Y-72789600D01*
X176200000Y-71152300D02*
X176200000Y-70650000D01*
X174562700Y-72789600D02*
X176200000Y-71152300D01*
%TO.N,/~{MEA}*%
X166270300Y-75570300D02*
X137141300Y-75570300D01*
X136905900Y-75805700D02*
X136742600Y-75969000D01*
X137141300Y-75570300D02*
X136905900Y-75805700D01*
X168610000Y-77910000D02*
X166270300Y-75570300D01*
X114147800Y-75933400D02*
X112454200Y-74239800D01*
X112454200Y-72386100D02*
X113644800Y-71195500D01*
X112454200Y-74239800D02*
X112454200Y-72386100D01*
X136905900Y-75805700D02*
X136742600Y-75969000D01*
X136707000Y-75933400D02*
X114147800Y-75933400D01*
X136742600Y-75969000D02*
X136707000Y-75933400D01*
%TO.N,/~{WP}*%
X138278900Y-81586500D02*
X137489200Y-81586500D01*
X130393200Y-81461500D02*
X129793800Y-82060900D01*
X104698400Y-83221600D02*
X103300000Y-84620000D01*
X137489200Y-81586500D02*
X137364200Y-81461500D01*
X137364200Y-81461500D02*
X130393200Y-81461500D01*
X158450000Y-77910000D02*
X154773500Y-81586500D01*
X138278900Y-81694700D02*
X138278900Y-81586500D01*
X128065200Y-83221600D02*
X104698400Y-83221600D01*
X154773500Y-81586500D02*
X138278900Y-81586500D01*
X129225900Y-82060900D02*
X128065200Y-83221600D01*
X129793800Y-82060900D02*
X129225900Y-82060900D01*
%TD*%
%TA.AperFunction,Conductor*%
%TO.N,GND*%
G36*
X142674075Y-98192993D02*
G01*
X142739901Y-98307007D01*
X142832993Y-98400099D01*
X142947007Y-98465925D01*
X143010590Y-98482962D01*
X142378282Y-99115269D01*
X142378282Y-99115270D01*
X142432449Y-99154624D01*
X142621782Y-99251095D01*
X142641706Y-99257569D01*
X142699381Y-99297006D01*
X142726580Y-99361365D01*
X142714665Y-99430211D01*
X142667421Y-99481687D01*
X142603388Y-99499500D01*
X141138226Y-99499500D01*
X141071187Y-99479815D01*
X141025432Y-99427011D01*
X141015488Y-99357853D01*
X141044513Y-99294297D01*
X141099906Y-99257569D01*
X141118412Y-99251557D01*
X141307816Y-99155051D01*
X141394138Y-99092335D01*
X141479786Y-99030109D01*
X141479788Y-99030106D01*
X141479792Y-99030104D01*
X141630104Y-98879792D01*
X141630106Y-98879788D01*
X141630109Y-98879786D01*
X141715890Y-98761717D01*
X141755051Y-98707816D01*
X141759793Y-98698508D01*
X141807763Y-98647711D01*
X141875583Y-98630911D01*
X141941719Y-98653445D01*
X141980763Y-98698500D01*
X141985373Y-98707547D01*
X142024728Y-98761716D01*
X142657037Y-98129408D01*
X142674075Y-98192993D01*
G37*
%TD.AperFunction*%
%TA.AperFunction,Conductor*%
G36*
X144255270Y-98761717D02*
G01*
X144255270Y-98761716D01*
X144294622Y-98707555D01*
X144299232Y-98698507D01*
X144347205Y-98647709D01*
X144415025Y-98630912D01*
X144481161Y-98653447D01*
X144520204Y-98698504D01*
X144524949Y-98707817D01*
X144649890Y-98879786D01*
X144800213Y-99030109D01*
X144972179Y-99155048D01*
X144972181Y-99155049D01*
X144972184Y-99155051D01*
X145161588Y-99251557D01*
X145180092Y-99257569D01*
X145237768Y-99297006D01*
X145264966Y-99361365D01*
X145253051Y-99430211D01*
X145205807Y-99481687D01*
X145141774Y-99499500D01*
X143676612Y-99499500D01*
X143609573Y-99479815D01*
X143563818Y-99427011D01*
X143553874Y-99357853D01*
X143582899Y-99294297D01*
X143638294Y-99257569D01*
X143658217Y-99251095D01*
X143847554Y-99154622D01*
X143901716Y-99115270D01*
X143901717Y-99115270D01*
X143269408Y-98482962D01*
X143332993Y-98465925D01*
X143447007Y-98400099D01*
X143540099Y-98307007D01*
X143605925Y-98192993D01*
X143622962Y-98129408D01*
X144255270Y-98761717D01*
G37*
%TD.AperFunction*%
%TA.AperFunction,Conductor*%
G36*
X146996209Y-95409785D02*
G01*
X147041964Y-95462589D01*
X147051908Y-95531747D01*
X147022883Y-95595303D01*
X147016853Y-95601778D01*
X146454997Y-96163634D01*
X145988807Y-96629824D01*
X145927484Y-96663309D01*
X145881728Y-96664616D01*
X145786292Y-96649500D01*
X145786287Y-96649500D01*
X145573713Y-96649500D01*
X145525042Y-96657208D01*
X145363760Y-96682753D01*
X145287477Y-96707539D01*
X145219778Y-96729536D01*
X145161585Y-96748444D01*
X144972179Y-96844951D01*
X144800213Y-96969890D01*
X144649890Y-97120213D01*
X144524949Y-97292182D01*
X144520202Y-97301499D01*
X144472227Y-97352293D01*
X144404405Y-97369087D01*
X144338271Y-97346548D01*
X144299234Y-97301495D01*
X144294626Y-97292452D01*
X144255270Y-97238282D01*
X144255269Y-97238282D01*
X143622962Y-97870590D01*
X143605925Y-97807007D01*
X143540099Y-97692993D01*
X143447007Y-97599901D01*
X143332993Y-97534075D01*
X143269408Y-97517037D01*
X143901716Y-96884728D01*
X143847550Y-96845375D01*
X143658217Y-96748904D01*
X143456129Y-96683242D01*
X143246246Y-96650000D01*
X143098595Y-96650000D01*
X143031556Y-96630315D01*
X142985801Y-96577511D01*
X142975857Y-96508353D01*
X143004882Y-96444797D01*
X143010893Y-96438341D01*
X144022816Y-95426419D01*
X144084139Y-95392934D01*
X144110497Y-95390100D01*
X146929170Y-95390100D01*
X146996209Y-95409785D01*
G37*
%TD.AperFunction*%
%TA.AperFunction,Conductor*%
G36*
X191697319Y-79210635D02*
G01*
X191735106Y-79236473D01*
X194902048Y-82403415D01*
X194902049Y-82403416D01*
X195006584Y-82507951D01*
X195006585Y-82507952D01*
X195129498Y-82590080D01*
X195129511Y-82590087D01*
X195266082Y-82646656D01*
X195266087Y-82646658D01*
X195266091Y-82646658D01*
X195266092Y-82646659D01*
X195411079Y-82675500D01*
X195411082Y-82675500D01*
X200828752Y-82675500D01*
X200895791Y-82695185D01*
X200915761Y-82711152D01*
X200926430Y-82721660D01*
X200932288Y-82731156D01*
X201056344Y-82855212D01*
X201071583Y-82864611D01*
X201081568Y-82874445D01*
X201092008Y-82893223D01*
X201106379Y-82909199D01*
X201108650Y-82923154D01*
X201115520Y-82935510D01*
X201114151Y-82956951D01*
X201117603Y-82978161D01*
X201111968Y-82991128D01*
X201111068Y-83005238D01*
X201098322Y-83022538D01*
X201089761Y-83042244D01*
X201073286Y-83056521D01*
X201069626Y-83061490D01*
X201065921Y-83062904D01*
X201059665Y-83068326D01*
X201056660Y-83070179D01*
X201056655Y-83070183D01*
X200932684Y-83194154D01*
X200840643Y-83343375D01*
X200840641Y-83343380D01*
X200785494Y-83509802D01*
X200785493Y-83509809D01*
X200775000Y-83612513D01*
X200775000Y-83750000D01*
X201876000Y-83750000D01*
X201943039Y-83769685D01*
X201988794Y-83822489D01*
X202000000Y-83874000D01*
X202000000Y-84000000D01*
X202126000Y-84000000D01*
X202193039Y-84019685D01*
X202238794Y-84072489D01*
X202250000Y-84124000D01*
X202250000Y-85087499D01*
X202524972Y-85087499D01*
X202524986Y-85087498D01*
X202627697Y-85077005D01*
X202794119Y-85021858D01*
X202794126Y-85021855D01*
X202810402Y-85011816D01*
X202877794Y-84993375D01*
X202944458Y-85014297D01*
X202989228Y-85067938D01*
X202999500Y-85117354D01*
X202999500Y-97333949D01*
X202979815Y-97400988D01*
X202927011Y-97446743D01*
X202857853Y-97456687D01*
X202794297Y-97427662D01*
X202765015Y-97390244D01*
X202742751Y-97346548D01*
X202715051Y-97292184D01*
X202715049Y-97292181D01*
X202715048Y-97292179D01*
X202590109Y-97120213D01*
X202439786Y-96969890D01*
X202267820Y-96844951D01*
X202078414Y-96748444D01*
X202078413Y-96748443D01*
X202078412Y-96748443D01*
X201876243Y-96682754D01*
X201876241Y-96682753D01*
X201876240Y-96682753D01*
X201714957Y-96657208D01*
X201666287Y-96649500D01*
X201453713Y-96649500D01*
X201405042Y-96657208D01*
X201243760Y-96682753D01*
X201167477Y-96707539D01*
X201099778Y-96729536D01*
X201041585Y-96748444D01*
X200852179Y-96844951D01*
X200680213Y-96969890D01*
X200529890Y-97120213D01*
X200404949Y-97292182D01*
X200400484Y-97300946D01*
X200352509Y-97351742D01*
X200284688Y-97368536D01*
X200218553Y-97345998D01*
X200179516Y-97300946D01*
X200175050Y-97292182D01*
X200050109Y-97120213D01*
X199899786Y-96969890D01*
X199727820Y-96844951D01*
X199538414Y-96748444D01*
X199538413Y-96748443D01*
X199538412Y-96748443D01*
X199336243Y-96682754D01*
X199336241Y-96682753D01*
X199336240Y-96682753D01*
X199174957Y-96657208D01*
X199126287Y-96649500D01*
X198913713Y-96649500D01*
X198865042Y-96657208D01*
X198703760Y-96682753D01*
X198627477Y-96707539D01*
X198559778Y-96729536D01*
X198501585Y-96748444D01*
X198312179Y-96844951D01*
X198140213Y-96969890D01*
X197989890Y-97120213D01*
X197864949Y-97292182D01*
X197860484Y-97300946D01*
X197812509Y-97351742D01*
X197744688Y-97368536D01*
X197678553Y-97345998D01*
X197639516Y-97300946D01*
X197635050Y-97292182D01*
X197510109Y-97120213D01*
X197359786Y-96969890D01*
X197187820Y-96844951D01*
X196998414Y-96748444D01*
X196998413Y-96748443D01*
X196998412Y-96748443D01*
X196796243Y-96682754D01*
X196796241Y-96682753D01*
X196796240Y-96682753D01*
X196634957Y-96657208D01*
X196586287Y-96649500D01*
X196373713Y-96649500D01*
X196325042Y-96657208D01*
X196163760Y-96682753D01*
X196087477Y-96707539D01*
X196019778Y-96729536D01*
X195961585Y-96748444D01*
X195772179Y-96844951D01*
X195600213Y-96969890D01*
X195449890Y-97120213D01*
X195324949Y-97292182D01*
X195320484Y-97300946D01*
X195272509Y-97351742D01*
X195204688Y-97368536D01*
X195138553Y-97345998D01*
X195099516Y-97300946D01*
X195095050Y-97292182D01*
X194970109Y-97120213D01*
X194819786Y-96969890D01*
X194647820Y-96844951D01*
X194458414Y-96748444D01*
X194458413Y-96748443D01*
X194458412Y-96748443D01*
X194256243Y-96682754D01*
X194256241Y-96682753D01*
X194256240Y-96682753D01*
X194094957Y-96657208D01*
X194046287Y-96649500D01*
X193833713Y-96649500D01*
X193785042Y-96657208D01*
X193623760Y-96682753D01*
X193547477Y-96707539D01*
X193479778Y-96729536D01*
X193421585Y-96748444D01*
X193232179Y-96844951D01*
X193060213Y-96969890D01*
X192909890Y-97120213D01*
X192784949Y-97292182D01*
X192780484Y-97300946D01*
X192732509Y-97351742D01*
X192664688Y-97368536D01*
X192598553Y-97345998D01*
X192559516Y-97300946D01*
X192555050Y-97292182D01*
X192430109Y-97120213D01*
X192279786Y-96969890D01*
X192107820Y-96844951D01*
X191918414Y-96748444D01*
X191918413Y-96748443D01*
X191918412Y-96748443D01*
X191716243Y-96682754D01*
X191716241Y-96682753D01*
X191716240Y-96682753D01*
X191554957Y-96657208D01*
X191506287Y-96649500D01*
X191293713Y-96649500D01*
X191245042Y-96657208D01*
X191083760Y-96682753D01*
X191007477Y-96707539D01*
X190939778Y-96729536D01*
X190881585Y-96748444D01*
X190692179Y-96844951D01*
X190520213Y-96969890D01*
X190369890Y-97120213D01*
X190244949Y-97292182D01*
X190240484Y-97300946D01*
X190192509Y-97351742D01*
X190124688Y-97368536D01*
X190058553Y-97345998D01*
X190019516Y-97300946D01*
X190015050Y-97292182D01*
X189890109Y-97120213D01*
X189739786Y-96969890D01*
X189567820Y-96844951D01*
X189378414Y-96748444D01*
X189378413Y-96748443D01*
X189378412Y-96748443D01*
X189176243Y-96682754D01*
X189176241Y-96682753D01*
X189176240Y-96682753D01*
X189014957Y-96657208D01*
X188966287Y-96649500D01*
X188753713Y-96649500D01*
X188705042Y-96657208D01*
X188543760Y-96682753D01*
X188467477Y-96707539D01*
X188399778Y-96729536D01*
X188341585Y-96748444D01*
X188152179Y-96844951D01*
X187980213Y-96969890D01*
X187829890Y-97120213D01*
X187704949Y-97292182D01*
X187700484Y-97300946D01*
X187652509Y-97351742D01*
X187584688Y-97368536D01*
X187518553Y-97345998D01*
X187479516Y-97300946D01*
X187475050Y-97292182D01*
X187350109Y-97120213D01*
X187199786Y-96969890D01*
X187027820Y-96844951D01*
X186838414Y-96748444D01*
X186838413Y-96748443D01*
X186838412Y-96748443D01*
X186636243Y-96682754D01*
X186636241Y-96682753D01*
X186636240Y-96682753D01*
X186474957Y-96657208D01*
X186426287Y-96649500D01*
X186213713Y-96649500D01*
X186165042Y-96657208D01*
X186003760Y-96682753D01*
X185927477Y-96707539D01*
X185859778Y-96729536D01*
X185801585Y-96748444D01*
X185612179Y-96844951D01*
X185440213Y-96969890D01*
X185289890Y-97120213D01*
X185164949Y-97292182D01*
X185160484Y-97300946D01*
X185112509Y-97351742D01*
X185044688Y-97368536D01*
X184978553Y-97345998D01*
X184939516Y-97300946D01*
X184935050Y-97292182D01*
X184810109Y-97120213D01*
X184659786Y-96969890D01*
X184487820Y-96844951D01*
X184298414Y-96748444D01*
X184298413Y-96748443D01*
X184298412Y-96748443D01*
X184096243Y-96682754D01*
X184096241Y-96682753D01*
X184096240Y-96682753D01*
X183934957Y-96657208D01*
X183886287Y-96649500D01*
X183673713Y-96649500D01*
X183625042Y-96657208D01*
X183463760Y-96682753D01*
X183387477Y-96707539D01*
X183319778Y-96729536D01*
X183261585Y-96748444D01*
X183072179Y-96844951D01*
X182900213Y-96969890D01*
X182749890Y-97120213D01*
X182624949Y-97292182D01*
X182620484Y-97300946D01*
X182572509Y-97351742D01*
X182504688Y-97368536D01*
X182438553Y-97345998D01*
X182399516Y-97300946D01*
X182395050Y-97292182D01*
X182270109Y-97120213D01*
X182119786Y-96969890D01*
X181947820Y-96844951D01*
X181758414Y-96748444D01*
X181758413Y-96748443D01*
X181758412Y-96748443D01*
X181556243Y-96682754D01*
X181556241Y-96682753D01*
X181556240Y-96682753D01*
X181394957Y-96657208D01*
X181346287Y-96649500D01*
X181133713Y-96649500D01*
X181085042Y-96657208D01*
X180923760Y-96682753D01*
X180847477Y-96707539D01*
X180779778Y-96729536D01*
X180721585Y-96748444D01*
X180532179Y-96844951D01*
X180360213Y-96969890D01*
X180209890Y-97120213D01*
X180084949Y-97292182D01*
X180080484Y-97300946D01*
X180032509Y-97351742D01*
X179964688Y-97368536D01*
X179898553Y-97345998D01*
X179859516Y-97300946D01*
X179855050Y-97292182D01*
X179730109Y-97120213D01*
X179579786Y-96969890D01*
X179407820Y-96844951D01*
X179218414Y-96748444D01*
X179218413Y-96748443D01*
X179218412Y-96748443D01*
X179016243Y-96682754D01*
X179016241Y-96682753D01*
X179016240Y-96682753D01*
X178854957Y-96657208D01*
X178806287Y-96649500D01*
X178593713Y-96649500D01*
X178545042Y-96657208D01*
X178383760Y-96682753D01*
X178307477Y-96707539D01*
X178239778Y-96729536D01*
X178181585Y-96748444D01*
X177992179Y-96844951D01*
X177820213Y-96969890D01*
X177669890Y-97120213D01*
X177544949Y-97292182D01*
X177540484Y-97300946D01*
X177492509Y-97351742D01*
X177424688Y-97368536D01*
X177358553Y-97345998D01*
X177319516Y-97300946D01*
X177315050Y-97292182D01*
X177190109Y-97120213D01*
X177039786Y-96969890D01*
X176867820Y-96844951D01*
X176678414Y-96748444D01*
X176678413Y-96748443D01*
X176678412Y-96748443D01*
X176476243Y-96682754D01*
X176476241Y-96682753D01*
X176476240Y-96682753D01*
X176314957Y-96657208D01*
X176266287Y-96649500D01*
X176053713Y-96649500D01*
X176005042Y-96657208D01*
X175843760Y-96682753D01*
X175767477Y-96707539D01*
X175699778Y-96729536D01*
X175641585Y-96748444D01*
X175452179Y-96844951D01*
X175280213Y-96969890D01*
X175129890Y-97120213D01*
X175004949Y-97292182D01*
X175000484Y-97300946D01*
X174952509Y-97351742D01*
X174884688Y-97368536D01*
X174818553Y-97345998D01*
X174779516Y-97300946D01*
X174775050Y-97292182D01*
X174650109Y-97120213D01*
X174499786Y-96969890D01*
X174327820Y-96844951D01*
X174138414Y-96748444D01*
X174138413Y-96748443D01*
X174138412Y-96748443D01*
X173936243Y-96682754D01*
X173936241Y-96682753D01*
X173936240Y-96682753D01*
X173774957Y-96657208D01*
X173726287Y-96649500D01*
X173513713Y-96649500D01*
X173465042Y-96657208D01*
X173303760Y-96682753D01*
X173227477Y-96707539D01*
X173159778Y-96729536D01*
X173101585Y-96748444D01*
X172912179Y-96844951D01*
X172740213Y-96969890D01*
X172589890Y-97120213D01*
X172464949Y-97292182D01*
X172460484Y-97300946D01*
X172412509Y-97351742D01*
X172344688Y-97368536D01*
X172278553Y-97345998D01*
X172239516Y-97300946D01*
X172235050Y-97292182D01*
X172110109Y-97120213D01*
X171959786Y-96969890D01*
X171787820Y-96844951D01*
X171598414Y-96748444D01*
X171598413Y-96748443D01*
X171598412Y-96748443D01*
X171396243Y-96682754D01*
X171396241Y-96682753D01*
X171396240Y-96682753D01*
X171234957Y-96657208D01*
X171186287Y-96649500D01*
X170973713Y-96649500D01*
X170925042Y-96657208D01*
X170763760Y-96682753D01*
X170687477Y-96707539D01*
X170619778Y-96729536D01*
X170561585Y-96748444D01*
X170372179Y-96844951D01*
X170200213Y-96969890D01*
X170049890Y-97120213D01*
X169924949Y-97292182D01*
X169920484Y-97300946D01*
X169872509Y-97351742D01*
X169804688Y-97368536D01*
X169738553Y-97345998D01*
X169699516Y-97300946D01*
X169695050Y-97292182D01*
X169570109Y-97120213D01*
X169419786Y-96969890D01*
X169247820Y-96844951D01*
X169058414Y-96748444D01*
X169058413Y-96748443D01*
X169058412Y-96748443D01*
X168856243Y-96682754D01*
X168856241Y-96682753D01*
X168856240Y-96682753D01*
X168694957Y-96657208D01*
X168646287Y-96649500D01*
X168433713Y-96649500D01*
X168385042Y-96657208D01*
X168223760Y-96682753D01*
X168147477Y-96707539D01*
X168079778Y-96729536D01*
X168021585Y-96748444D01*
X167832179Y-96844951D01*
X167660213Y-96969890D01*
X167509890Y-97120213D01*
X167384949Y-97292182D01*
X167380484Y-97300946D01*
X167332509Y-97351742D01*
X167264688Y-97368536D01*
X167198553Y-97345998D01*
X167159516Y-97300946D01*
X167155050Y-97292182D01*
X167030109Y-97120213D01*
X166879786Y-96969890D01*
X166707820Y-96844951D01*
X166518414Y-96748444D01*
X166518413Y-96748443D01*
X166518412Y-96748443D01*
X166316243Y-96682754D01*
X166316241Y-96682753D01*
X166316240Y-96682753D01*
X166154957Y-96657208D01*
X166106287Y-96649500D01*
X165893713Y-96649500D01*
X165845042Y-96657208D01*
X165683760Y-96682753D01*
X165607477Y-96707539D01*
X165539778Y-96729536D01*
X165481585Y-96748444D01*
X165292179Y-96844951D01*
X165120213Y-96969890D01*
X164969890Y-97120213D01*
X164844949Y-97292182D01*
X164840484Y-97300946D01*
X164792509Y-97351742D01*
X164724688Y-97368536D01*
X164658553Y-97345998D01*
X164619516Y-97300946D01*
X164615050Y-97292182D01*
X164490109Y-97120213D01*
X164339786Y-96969890D01*
X164167820Y-96844951D01*
X163978414Y-96748444D01*
X163978413Y-96748443D01*
X163978412Y-96748443D01*
X163776243Y-96682754D01*
X163776241Y-96682753D01*
X163776240Y-96682753D01*
X163614957Y-96657208D01*
X163566287Y-96649500D01*
X163353713Y-96649500D01*
X163327757Y-96653611D01*
X163143757Y-96682753D01*
X163101473Y-96696492D01*
X163031632Y-96698486D01*
X162975476Y-96666241D01*
X162499490Y-96190255D01*
X162499488Y-96190252D01*
X162380617Y-96071381D01*
X162380616Y-96071380D01*
X162290084Y-96019112D01*
X162290083Y-96019111D01*
X162243683Y-95992322D01*
X162187781Y-95977343D01*
X162090957Y-95951399D01*
X162089331Y-95951399D01*
X162088011Y-95951011D01*
X162082897Y-95950338D01*
X162083001Y-95949540D01*
X162022292Y-95931714D01*
X161976537Y-95878910D01*
X161966593Y-95809752D01*
X161995618Y-95746196D01*
X162001650Y-95739718D01*
X162314949Y-95426419D01*
X163264895Y-94476471D01*
X163326216Y-94442988D01*
X163371971Y-94441681D01*
X163427648Y-94450500D01*
X163427649Y-94450500D01*
X163632351Y-94450500D01*
X163632352Y-94450500D01*
X163834534Y-94418477D01*
X164029219Y-94355220D01*
X164211610Y-94262287D01*
X164304590Y-94194732D01*
X164377213Y-94141971D01*
X164377215Y-94141968D01*
X164377219Y-94141966D01*
X164521966Y-93997219D01*
X164521968Y-93997215D01*
X164521971Y-93997213D01*
X164642284Y-93831614D01*
X164642285Y-93831613D01*
X164642287Y-93831610D01*
X164689516Y-93738917D01*
X164737489Y-93688123D01*
X164805310Y-93671328D01*
X164871445Y-93693865D01*
X164910483Y-93738917D01*
X164948521Y-93813570D01*
X164957715Y-93831614D01*
X165078028Y-93997213D01*
X165222786Y-94141971D01*
X165321563Y-94213735D01*
X165388390Y-94262287D01*
X165504607Y-94321503D01*
X165570776Y-94355218D01*
X165570778Y-94355218D01*
X165570781Y-94355220D01*
X165665715Y-94386066D01*
X165765465Y-94418477D01*
X165849564Y-94431797D01*
X165967648Y-94450500D01*
X165967649Y-94450500D01*
X166172351Y-94450500D01*
X166172352Y-94450500D01*
X166374534Y-94418477D01*
X166569219Y-94355220D01*
X166751610Y-94262287D01*
X166844590Y-94194732D01*
X166917213Y-94141971D01*
X166917215Y-94141968D01*
X166917219Y-94141966D01*
X167061966Y-93997219D01*
X167061968Y-93997215D01*
X167061971Y-93997213D01*
X167182284Y-93831614D01*
X167182285Y-93831613D01*
X167182287Y-93831610D01*
X167229516Y-93738917D01*
X167277489Y-93688123D01*
X167345310Y-93671328D01*
X167411445Y-93693865D01*
X167450483Y-93738917D01*
X167488521Y-93813570D01*
X167497715Y-93831614D01*
X167618028Y-93997213D01*
X167762786Y-94141971D01*
X167861563Y-94213735D01*
X167928390Y-94262287D01*
X168044607Y-94321503D01*
X168110776Y-94355218D01*
X168110778Y-94355218D01*
X168110781Y-94355220D01*
X168205715Y-94386066D01*
X168305465Y-94418477D01*
X168389564Y-94431797D01*
X168507648Y-94450500D01*
X168507649Y-94450500D01*
X168712351Y-94450500D01*
X168712352Y-94450500D01*
X168914534Y-94418477D01*
X169109219Y-94355220D01*
X169291610Y-94262287D01*
X169384590Y-94194732D01*
X169457213Y-94141971D01*
X169457215Y-94141968D01*
X169457219Y-94141966D01*
X169601966Y-93997219D01*
X169601968Y-93997215D01*
X169601971Y-93997213D01*
X169722284Y-93831614D01*
X169722285Y-93831613D01*
X169722287Y-93831610D01*
X169769516Y-93738917D01*
X169817489Y-93688123D01*
X169885310Y-93671328D01*
X169951445Y-93693865D01*
X169990483Y-93738917D01*
X170028521Y-93813570D01*
X170037715Y-93831614D01*
X170158028Y-93997213D01*
X170302786Y-94141971D01*
X170401563Y-94213735D01*
X170468390Y-94262287D01*
X170584607Y-94321503D01*
X170650776Y-94355218D01*
X170650778Y-94355218D01*
X170650781Y-94355220D01*
X170745715Y-94386066D01*
X170845465Y-94418477D01*
X170929564Y-94431797D01*
X171047648Y-94450500D01*
X171047649Y-94450500D01*
X171252351Y-94450500D01*
X171252352Y-94450500D01*
X171454534Y-94418477D01*
X171649219Y-94355220D01*
X171831610Y-94262287D01*
X171924590Y-94194732D01*
X171997213Y-94141971D01*
X171997215Y-94141968D01*
X171997219Y-94141966D01*
X172141966Y-93997219D01*
X172141968Y-93997215D01*
X172141971Y-93997213D01*
X172262284Y-93831614D01*
X172262285Y-93831613D01*
X172262287Y-93831610D01*
X172309516Y-93738917D01*
X172357489Y-93688123D01*
X172425310Y-93671328D01*
X172491445Y-93693865D01*
X172530483Y-93738917D01*
X172568521Y-93813570D01*
X172577715Y-93831614D01*
X172698028Y-93997213D01*
X172842786Y-94141971D01*
X172941563Y-94213735D01*
X173008390Y-94262287D01*
X173124607Y-94321503D01*
X173190776Y-94355218D01*
X173190778Y-94355218D01*
X173190781Y-94355220D01*
X173285715Y-94386066D01*
X173385465Y-94418477D01*
X173469564Y-94431797D01*
X173587648Y-94450500D01*
X173587649Y-94450500D01*
X173792351Y-94450500D01*
X173792352Y-94450500D01*
X173994534Y-94418477D01*
X174189219Y-94355220D01*
X174371610Y-94262287D01*
X174464590Y-94194732D01*
X174537213Y-94141971D01*
X174537215Y-94141968D01*
X174537219Y-94141966D01*
X174681966Y-93997219D01*
X174681968Y-93997215D01*
X174681971Y-93997213D01*
X174802284Y-93831614D01*
X174802285Y-93831613D01*
X174802287Y-93831610D01*
X174849516Y-93738917D01*
X174897489Y-93688123D01*
X174965310Y-93671328D01*
X175031445Y-93693865D01*
X175070483Y-93738917D01*
X175108521Y-93813570D01*
X175117715Y-93831614D01*
X175238028Y-93997213D01*
X175382786Y-94141971D01*
X175481563Y-94213735D01*
X175548390Y-94262287D01*
X175664607Y-94321503D01*
X175730776Y-94355218D01*
X175730778Y-94355218D01*
X175730781Y-94355220D01*
X175825715Y-94386066D01*
X175925465Y-94418477D01*
X176009564Y-94431797D01*
X176127648Y-94450500D01*
X176127649Y-94450500D01*
X176332351Y-94450500D01*
X176332352Y-94450500D01*
X176534534Y-94418477D01*
X176729219Y-94355220D01*
X176911610Y-94262287D01*
X177004590Y-94194732D01*
X177077213Y-94141971D01*
X177077215Y-94141968D01*
X177077219Y-94141966D01*
X177221966Y-93997219D01*
X177221968Y-93997215D01*
X177221971Y-93997213D01*
X177342284Y-93831614D01*
X177342285Y-93831613D01*
X177342287Y-93831610D01*
X177389516Y-93738917D01*
X177437489Y-93688123D01*
X177505310Y-93671328D01*
X177571445Y-93693865D01*
X177610483Y-93738917D01*
X177648521Y-93813570D01*
X177657715Y-93831614D01*
X177778028Y-93997213D01*
X177922786Y-94141971D01*
X178021563Y-94213735D01*
X178088390Y-94262287D01*
X178204607Y-94321503D01*
X178270776Y-94355218D01*
X178270778Y-94355218D01*
X178270781Y-94355220D01*
X178365715Y-94386066D01*
X178465465Y-94418477D01*
X178549564Y-94431797D01*
X178667648Y-94450500D01*
X178667649Y-94450500D01*
X178872351Y-94450500D01*
X178872352Y-94450500D01*
X179074534Y-94418477D01*
X179269219Y-94355220D01*
X179451610Y-94262287D01*
X179544590Y-94194732D01*
X179617213Y-94141971D01*
X179617215Y-94141968D01*
X179617219Y-94141966D01*
X179761966Y-93997219D01*
X179761968Y-93997215D01*
X179761971Y-93997213D01*
X179882284Y-93831614D01*
X179882285Y-93831613D01*
X179882287Y-93831610D01*
X179929516Y-93738917D01*
X179977489Y-93688123D01*
X180045310Y-93671328D01*
X180111445Y-93693865D01*
X180150483Y-93738917D01*
X180188521Y-93813570D01*
X180197715Y-93831614D01*
X180318028Y-93997213D01*
X180462786Y-94141971D01*
X180561563Y-94213735D01*
X180628390Y-94262287D01*
X180744607Y-94321503D01*
X180810776Y-94355218D01*
X180810778Y-94355218D01*
X180810781Y-94355220D01*
X180905715Y-94386066D01*
X181005465Y-94418477D01*
X181089564Y-94431797D01*
X181207648Y-94450500D01*
X181207649Y-94450500D01*
X181412351Y-94450500D01*
X181412352Y-94450500D01*
X181614534Y-94418477D01*
X181809219Y-94355220D01*
X181991610Y-94262287D01*
X182084590Y-94194732D01*
X182157213Y-94141971D01*
X182157215Y-94141968D01*
X182157219Y-94141966D01*
X182301966Y-93997219D01*
X182301968Y-93997215D01*
X182301971Y-93997213D01*
X182422284Y-93831614D01*
X182422285Y-93831613D01*
X182422287Y-93831610D01*
X182469516Y-93738917D01*
X182517489Y-93688123D01*
X182585310Y-93671328D01*
X182651445Y-93693865D01*
X182690483Y-93738917D01*
X182728521Y-93813570D01*
X182737715Y-93831614D01*
X182858028Y-93997213D01*
X183002786Y-94141971D01*
X183101563Y-94213735D01*
X183168390Y-94262287D01*
X183284607Y-94321503D01*
X183350776Y-94355218D01*
X183350778Y-94355218D01*
X183350781Y-94355220D01*
X183445715Y-94386066D01*
X183545465Y-94418477D01*
X183629564Y-94431797D01*
X183747648Y-94450500D01*
X183747649Y-94450500D01*
X183952351Y-94450500D01*
X183952352Y-94450500D01*
X184154534Y-94418477D01*
X184349219Y-94355220D01*
X184531610Y-94262287D01*
X184624590Y-94194732D01*
X184697213Y-94141971D01*
X184697215Y-94141968D01*
X184697219Y-94141966D01*
X184841966Y-93997219D01*
X184841968Y-93997215D01*
X184841971Y-93997213D01*
X184962284Y-93831614D01*
X184962285Y-93831613D01*
X184962287Y-93831610D01*
X185009516Y-93738917D01*
X185057489Y-93688123D01*
X185125310Y-93671328D01*
X185191445Y-93693865D01*
X185230483Y-93738917D01*
X185268521Y-93813570D01*
X185277715Y-93831614D01*
X185398028Y-93997213D01*
X185542786Y-94141971D01*
X185641563Y-94213735D01*
X185708390Y-94262287D01*
X185824607Y-94321503D01*
X185890776Y-94355218D01*
X185890778Y-94355218D01*
X185890781Y-94355220D01*
X185985715Y-94386066D01*
X186085465Y-94418477D01*
X186169564Y-94431797D01*
X186287648Y-94450500D01*
X186287649Y-94450500D01*
X186492351Y-94450500D01*
X186492352Y-94450500D01*
X186694534Y-94418477D01*
X186889219Y-94355220D01*
X187071610Y-94262287D01*
X187164590Y-94194732D01*
X187237213Y-94141971D01*
X187237215Y-94141968D01*
X187237219Y-94141966D01*
X187381966Y-93997219D01*
X187381968Y-93997215D01*
X187381971Y-93997213D01*
X187502284Y-93831614D01*
X187502285Y-93831613D01*
X187502287Y-93831610D01*
X187549516Y-93738917D01*
X187597489Y-93688123D01*
X187665310Y-93671328D01*
X187731445Y-93693865D01*
X187770483Y-93738917D01*
X187808521Y-93813570D01*
X187817715Y-93831614D01*
X187938028Y-93997213D01*
X188082786Y-94141971D01*
X188181563Y-94213735D01*
X188248390Y-94262287D01*
X188364607Y-94321503D01*
X188430776Y-94355218D01*
X188430778Y-94355218D01*
X188430781Y-94355220D01*
X188525715Y-94386066D01*
X188625465Y-94418477D01*
X188709564Y-94431797D01*
X188827648Y-94450500D01*
X188827649Y-94450500D01*
X189032351Y-94450500D01*
X189032352Y-94450500D01*
X189234534Y-94418477D01*
X189429219Y-94355220D01*
X189611610Y-94262287D01*
X189704590Y-94194732D01*
X189777213Y-94141971D01*
X189777215Y-94141968D01*
X189777219Y-94141966D01*
X189921966Y-93997219D01*
X189921968Y-93997215D01*
X189921971Y-93997213D01*
X190042284Y-93831614D01*
X190042285Y-93831613D01*
X190042287Y-93831610D01*
X190089516Y-93738917D01*
X190137489Y-93688123D01*
X190205310Y-93671328D01*
X190271445Y-93693865D01*
X190310483Y-93738917D01*
X190348521Y-93813570D01*
X190357715Y-93831614D01*
X190478028Y-93997213D01*
X190622786Y-94141971D01*
X190721563Y-94213735D01*
X190788390Y-94262287D01*
X190904607Y-94321503D01*
X190970776Y-94355218D01*
X190970778Y-94355218D01*
X190970781Y-94355220D01*
X191065715Y-94386066D01*
X191165465Y-94418477D01*
X191249564Y-94431797D01*
X191367648Y-94450500D01*
X191367649Y-94450500D01*
X191572351Y-94450500D01*
X191572352Y-94450500D01*
X191774534Y-94418477D01*
X191969219Y-94355220D01*
X192151610Y-94262287D01*
X192244590Y-94194732D01*
X192317213Y-94141971D01*
X192317215Y-94141968D01*
X192317219Y-94141966D01*
X192338744Y-94120441D01*
X192400067Y-94086956D01*
X192469759Y-94091940D01*
X192514106Y-94120441D01*
X193052339Y-94658674D01*
X193052349Y-94658685D01*
X193056679Y-94663015D01*
X193056680Y-94663016D01*
X193168484Y-94774820D01*
X193246630Y-94819937D01*
X193289168Y-94844497D01*
X193305415Y-94853877D01*
X193458142Y-94894800D01*
X193458143Y-94894800D01*
X197859031Y-94894800D01*
X197859047Y-94894801D01*
X197866643Y-94894801D01*
X198024754Y-94894801D01*
X198024757Y-94894801D01*
X198177485Y-94853877D01*
X198236270Y-94819937D01*
X198314416Y-94774820D01*
X198426220Y-94663016D01*
X198426220Y-94663014D01*
X198436424Y-94652811D01*
X198436428Y-94652806D01*
X198645158Y-94444075D01*
X198706479Y-94410592D01*
X198771151Y-94413825D01*
X198785466Y-94418477D01*
X198987648Y-94450500D01*
X198987649Y-94450500D01*
X199192351Y-94450500D01*
X199192352Y-94450500D01*
X199394534Y-94418477D01*
X199589219Y-94355220D01*
X199771610Y-94262287D01*
X199864590Y-94194732D01*
X199937213Y-94141971D01*
X199937215Y-94141968D01*
X199937219Y-94141966D01*
X200081966Y-93997219D01*
X200081968Y-93997215D01*
X200081971Y-93997213D01*
X200144059Y-93911754D01*
X200202287Y-93831610D01*
X200295220Y-93649219D01*
X200358477Y-93454534D01*
X200390500Y-93252352D01*
X200390500Y-93047648D01*
X200386240Y-93020753D01*
X200358477Y-92845465D01*
X200317196Y-92718416D01*
X200295220Y-92650781D01*
X200295218Y-92650778D01*
X200295218Y-92650776D01*
X200249515Y-92561080D01*
X200202287Y-92468390D01*
X200165156Y-92417283D01*
X200081971Y-92302786D01*
X199937213Y-92158028D01*
X199771613Y-92037715D01*
X199771612Y-92037714D01*
X199771610Y-92037713D01*
X199693059Y-91997689D01*
X199589223Y-91944781D01*
X199394534Y-91881522D01*
X199219995Y-91853878D01*
X199192352Y-91849500D01*
X198987648Y-91849500D01*
X198963329Y-91853351D01*
X198785465Y-91881522D01*
X198590776Y-91944781D01*
X198408386Y-92037715D01*
X198242786Y-92158028D01*
X198098028Y-92302786D01*
X197977715Y-92468386D01*
X197930485Y-92561080D01*
X197882510Y-92611876D01*
X197814689Y-92628671D01*
X197748554Y-92606134D01*
X197709515Y-92561080D01*
X197680783Y-92504691D01*
X197662287Y-92468390D01*
X197625156Y-92417283D01*
X197541971Y-92302786D01*
X197397213Y-92158028D01*
X197231613Y-92037715D01*
X197231612Y-92037714D01*
X197231610Y-92037713D01*
X197153059Y-91997689D01*
X197049223Y-91944781D01*
X196854534Y-91881522D01*
X196679995Y-91853878D01*
X196652352Y-91849500D01*
X196447648Y-91849500D01*
X196423329Y-91853351D01*
X196245465Y-91881522D01*
X196050776Y-91944781D01*
X195868386Y-92037715D01*
X195702786Y-92158028D01*
X195558028Y-92302786D01*
X195437715Y-92468386D01*
X195390485Y-92561080D01*
X195342510Y-92611876D01*
X195274689Y-92628671D01*
X195208554Y-92606134D01*
X195169515Y-92561080D01*
X195140783Y-92504691D01*
X195122287Y-92468390D01*
X195085156Y-92417283D01*
X195001971Y-92302786D01*
X194857213Y-92158028D01*
X194691613Y-92037715D01*
X194691612Y-92037714D01*
X194691610Y-92037713D01*
X194613059Y-91997689D01*
X194509223Y-91944781D01*
X194314534Y-91881522D01*
X194139995Y-91853878D01*
X194112352Y-91849500D01*
X193907648Y-91849500D01*
X193867211Y-91855904D01*
X193705462Y-91881523D01*
X193705460Y-91881523D01*
X193691149Y-91886173D01*
X193621308Y-91888164D01*
X193565157Y-91855921D01*
X190077390Y-88368155D01*
X190077388Y-88368152D01*
X189958517Y-88249281D01*
X189958512Y-88249277D01*
X189838896Y-88180218D01*
X189838893Y-88180216D01*
X189821585Y-88170223D01*
X189821582Y-88170222D01*
X189791626Y-88162195D01*
X189668857Y-88129299D01*
X189510743Y-88129299D01*
X189503147Y-88129299D01*
X189503131Y-88129300D01*
X164717466Y-88129300D01*
X164650427Y-88109615D01*
X164604672Y-88056811D01*
X164594728Y-87987653D01*
X164614363Y-87936411D01*
X164619188Y-87929188D01*
X164619188Y-87929187D01*
X164619194Y-87929179D01*
X164679537Y-87783497D01*
X164710300Y-87628842D01*
X164710300Y-87471158D01*
X164710300Y-87471155D01*
X164710299Y-87471153D01*
X164702451Y-87431700D01*
X164679537Y-87316503D01*
X164673203Y-87301211D01*
X164619197Y-87170827D01*
X164619190Y-87170814D01*
X164531589Y-87039711D01*
X164531586Y-87039707D01*
X164420092Y-86928213D01*
X164420088Y-86928210D01*
X164288985Y-86840609D01*
X164288972Y-86840602D01*
X164143301Y-86780264D01*
X164143291Y-86780261D01*
X163987949Y-86749361D01*
X163926038Y-86716976D01*
X163924460Y-86715425D01*
X161596521Y-84387486D01*
X200775001Y-84387486D01*
X200785494Y-84490197D01*
X200840641Y-84656619D01*
X200840643Y-84656624D01*
X200932684Y-84805845D01*
X201056654Y-84929815D01*
X201205875Y-85021856D01*
X201205880Y-85021858D01*
X201372302Y-85077005D01*
X201372309Y-85077006D01*
X201475019Y-85087499D01*
X201749999Y-85087499D01*
X201750000Y-85087498D01*
X201750000Y-84250000D01*
X200775001Y-84250000D01*
X200775001Y-84387486D01*
X161596521Y-84387486D01*
X161244990Y-84035955D01*
X161244988Y-84035952D01*
X161126117Y-83917081D01*
X161126116Y-83917080D01*
X161039304Y-83866960D01*
X161039304Y-83866959D01*
X161039300Y-83866958D01*
X160989185Y-83838023D01*
X160836457Y-83797099D01*
X160678343Y-83797099D01*
X160670747Y-83797099D01*
X160670731Y-83797100D01*
X148510855Y-83797100D01*
X148443816Y-83777415D01*
X148398061Y-83724611D01*
X148388117Y-83655453D01*
X148417142Y-83591897D01*
X148465409Y-83560571D01*
X148464438Y-83558225D01*
X148470066Y-83555894D01*
X148633947Y-83488013D01*
X148676024Y-83459897D01*
X148742700Y-83439020D01*
X148744915Y-83439000D01*
X183265620Y-83439000D01*
X183387377Y-83414780D01*
X183410613Y-83410158D01*
X183547195Y-83353584D01*
X183598205Y-83319500D01*
X183670116Y-83271452D01*
X183759118Y-83182449D01*
X183763081Y-83179100D01*
X183790482Y-83166988D01*
X183816772Y-83152634D01*
X183824951Y-83151754D01*
X183826987Y-83150855D01*
X183829567Y-83151258D01*
X183843130Y-83149800D01*
X187054620Y-83149800D01*
X187152162Y-83130396D01*
X187199613Y-83120958D01*
X187336195Y-83064384D01*
X187413097Y-83013000D01*
X187459116Y-82982252D01*
X191204895Y-79236471D01*
X191266216Y-79202988D01*
X191311971Y-79201681D01*
X191367648Y-79210500D01*
X191367649Y-79210500D01*
X191572350Y-79210500D01*
X191572352Y-79210500D01*
X191628027Y-79201681D01*
X191697319Y-79210635D01*
G37*
%TD.AperFunction*%
%TA.AperFunction,Conductor*%
G36*
X202942539Y-64020185D02*
G01*
X202988294Y-64072989D01*
X202999500Y-64124500D01*
X202999500Y-80807058D01*
X202979815Y-80874097D01*
X202927011Y-80919852D01*
X202857853Y-80929796D01*
X202810406Y-80912599D01*
X202806695Y-80910310D01*
X202794334Y-80902686D01*
X202627797Y-80847501D01*
X202627795Y-80847500D01*
X202525010Y-80837000D01*
X201474998Y-80837000D01*
X201474980Y-80837001D01*
X201372203Y-80847500D01*
X201372200Y-80847501D01*
X201205668Y-80902685D01*
X201205663Y-80902687D01*
X201056342Y-80994789D01*
X200932288Y-81118843D01*
X200927807Y-81124511D01*
X200925984Y-81123069D01*
X200882335Y-81162325D01*
X200828752Y-81174500D01*
X195847229Y-81174500D01*
X195780190Y-81154815D01*
X195759548Y-81138181D01*
X194042301Y-79420933D01*
X194008816Y-79359610D01*
X194013800Y-79289918D01*
X194055672Y-79233985D01*
X194110584Y-79210779D01*
X194112346Y-79210500D01*
X194112352Y-79210500D01*
X194314534Y-79178477D01*
X194509219Y-79115220D01*
X194691610Y-79022287D01*
X194784590Y-78954732D01*
X194857213Y-78901971D01*
X194857215Y-78901968D01*
X194857219Y-78901966D01*
X195001966Y-78757219D01*
X195001968Y-78757215D01*
X195001971Y-78757213D01*
X195122286Y-78591611D01*
X195122415Y-78591359D01*
X195169795Y-78498369D01*
X195217769Y-78447573D01*
X195285590Y-78430778D01*
X195351725Y-78453315D01*
X195390765Y-78498369D01*
X195438141Y-78591350D01*
X195438147Y-78591359D01*
X195470523Y-78635921D01*
X195470524Y-78635922D01*
X196150000Y-77956446D01*
X196150000Y-77962661D01*
X196177259Y-78064394D01*
X196229920Y-78155606D01*
X196304394Y-78230080D01*
X196395606Y-78282741D01*
X196497339Y-78310000D01*
X196503553Y-78310000D01*
X195824076Y-78989474D01*
X195868650Y-79021859D01*
X196050968Y-79114755D01*
X196245582Y-79177990D01*
X196447683Y-79210000D01*
X196652317Y-79210000D01*
X196854417Y-79177990D01*
X197049031Y-79114755D01*
X197231349Y-79021859D01*
X197275921Y-78989474D01*
X196596447Y-78310000D01*
X196602661Y-78310000D01*
X196704394Y-78282741D01*
X196795606Y-78230080D01*
X196870080Y-78155606D01*
X196922741Y-78064394D01*
X196950000Y-77962661D01*
X196950000Y-77956447D01*
X197629474Y-78635921D01*
X197661861Y-78591347D01*
X197661861Y-78591346D01*
X197709515Y-78497820D01*
X197757489Y-78447024D01*
X197825310Y-78430228D01*
X197891445Y-78452765D01*
X197930485Y-78497819D01*
X197978141Y-78591350D01*
X197978147Y-78591359D01*
X198010523Y-78635921D01*
X198010524Y-78635922D01*
X198690000Y-77956446D01*
X198690000Y-77962661D01*
X198717259Y-78064394D01*
X198769920Y-78155606D01*
X198844394Y-78230080D01*
X198935606Y-78282741D01*
X199037339Y-78310000D01*
X199043553Y-78310000D01*
X198364076Y-78989474D01*
X198408650Y-79021859D01*
X198590968Y-79114755D01*
X198785582Y-79177990D01*
X198987683Y-79210000D01*
X199192317Y-79210000D01*
X199394417Y-79177990D01*
X199589031Y-79114755D01*
X199771349Y-79021859D01*
X199815921Y-78989474D01*
X199136447Y-78310000D01*
X199142661Y-78310000D01*
X199244394Y-78282741D01*
X199335606Y-78230080D01*
X199410080Y-78155606D01*
X199462741Y-78064394D01*
X199490000Y-77962661D01*
X199490000Y-77956447D01*
X200169474Y-78635921D01*
X200201859Y-78591349D01*
X200294755Y-78409031D01*
X200357990Y-78214417D01*
X200390000Y-78012317D01*
X200390000Y-77807682D01*
X200357990Y-77605582D01*
X200294755Y-77410968D01*
X200201859Y-77228650D01*
X200169474Y-77184077D01*
X200169474Y-77184076D01*
X199490000Y-77863551D01*
X199490000Y-77857339D01*
X199462741Y-77755606D01*
X199410080Y-77664394D01*
X199335606Y-77589920D01*
X199244394Y-77537259D01*
X199142661Y-77510000D01*
X199136446Y-77510000D01*
X199815922Y-76830524D01*
X199815921Y-76830523D01*
X199771359Y-76798147D01*
X199771350Y-76798141D01*
X199589031Y-76705244D01*
X199394417Y-76642009D01*
X199192317Y-76610000D01*
X198987683Y-76610000D01*
X198785582Y-76642009D01*
X198590968Y-76705244D01*
X198408644Y-76798143D01*
X198364077Y-76830523D01*
X198364077Y-76830524D01*
X199043554Y-77510000D01*
X199037339Y-77510000D01*
X198935606Y-77537259D01*
X198844394Y-77589920D01*
X198769920Y-77664394D01*
X198717259Y-77755606D01*
X198690000Y-77857339D01*
X198690000Y-77863553D01*
X198010524Y-77184077D01*
X198010523Y-77184077D01*
X197978143Y-77228644D01*
X197930485Y-77322180D01*
X197882510Y-77372976D01*
X197814689Y-77389771D01*
X197748554Y-77367233D01*
X197709515Y-77322180D01*
X197661859Y-77228650D01*
X197629474Y-77184077D01*
X197629474Y-77184076D01*
X196950000Y-77863551D01*
X196950000Y-77857339D01*
X196922741Y-77755606D01*
X196870080Y-77664394D01*
X196795606Y-77589920D01*
X196704394Y-77537259D01*
X196602661Y-77510000D01*
X196596446Y-77510000D01*
X197275922Y-76830524D01*
X197275921Y-76830523D01*
X197231359Y-76798147D01*
X197231350Y-76798141D01*
X197049031Y-76705244D01*
X196854417Y-76642009D01*
X196652317Y-76610000D01*
X196447683Y-76610000D01*
X196245582Y-76642009D01*
X196050968Y-76705244D01*
X195868644Y-76798143D01*
X195824077Y-76830523D01*
X195824077Y-76830524D01*
X196503554Y-77510000D01*
X196497339Y-77510000D01*
X196395606Y-77537259D01*
X196304394Y-77589920D01*
X196229920Y-77664394D01*
X196177259Y-77755606D01*
X196150000Y-77857339D01*
X196150000Y-77863553D01*
X195470524Y-77184077D01*
X195470523Y-77184077D01*
X195438143Y-77228644D01*
X195390765Y-77321630D01*
X195342790Y-77372426D01*
X195274969Y-77389221D01*
X195208834Y-77366683D01*
X195169795Y-77321630D01*
X195122284Y-77228385D01*
X195001971Y-77062786D01*
X194857213Y-76918028D01*
X194691613Y-76797715D01*
X194691612Y-76797714D01*
X194691610Y-76797713D01*
X194634653Y-76768691D01*
X194509223Y-76704781D01*
X194314534Y-76641522D01*
X194139995Y-76613878D01*
X194112352Y-76609500D01*
X193907648Y-76609500D01*
X193883329Y-76613351D01*
X193705465Y-76641522D01*
X193510776Y-76704781D01*
X193328386Y-76797715D01*
X193162786Y-76918028D01*
X193018028Y-77062786D01*
X192897715Y-77228386D01*
X192850485Y-77321080D01*
X192802510Y-77371876D01*
X192734689Y-77388671D01*
X192668554Y-77366134D01*
X192629515Y-77321080D01*
X192582419Y-77228650D01*
X192582287Y-77228390D01*
X192550092Y-77184077D01*
X192461971Y-77062786D01*
X192317213Y-76918028D01*
X192151613Y-76797715D01*
X192151612Y-76797714D01*
X192151610Y-76797713D01*
X192094653Y-76768691D01*
X191969223Y-76704781D01*
X191774534Y-76641522D01*
X191599995Y-76613878D01*
X191572352Y-76609500D01*
X191367648Y-76609500D01*
X191343329Y-76613351D01*
X191165465Y-76641522D01*
X190970776Y-76704781D01*
X190788386Y-76797715D01*
X190622786Y-76918028D01*
X190478028Y-77062786D01*
X190357715Y-77228386D01*
X190310485Y-77321080D01*
X190262510Y-77371876D01*
X190194689Y-77388671D01*
X190128554Y-77366134D01*
X190089515Y-77321080D01*
X190042419Y-77228650D01*
X190042287Y-77228390D01*
X190010092Y-77184077D01*
X189921971Y-77062786D01*
X189777213Y-76918028D01*
X189611613Y-76797715D01*
X189611612Y-76797714D01*
X189611610Y-76797713D01*
X189554653Y-76768691D01*
X189429223Y-76704781D01*
X189234534Y-76641522D01*
X189059995Y-76613878D01*
X189032352Y-76609500D01*
X188827648Y-76609500D01*
X188789599Y-76615526D01*
X188625468Y-76641522D01*
X188616717Y-76644365D01*
X188611154Y-76646173D01*
X188541313Y-76648167D01*
X188485157Y-76615922D01*
X185779590Y-73910355D01*
X185779588Y-73910352D01*
X185660717Y-73791481D01*
X185660716Y-73791480D01*
X185573904Y-73741360D01*
X185573904Y-73741359D01*
X185573900Y-73741358D01*
X185523785Y-73712423D01*
X185371057Y-73671499D01*
X185212943Y-73671499D01*
X185205347Y-73671499D01*
X185205331Y-73671500D01*
X183231497Y-73671500D01*
X183164458Y-73651815D01*
X183143816Y-73635181D01*
X182910518Y-73401883D01*
X182877033Y-73340560D01*
X182882017Y-73270868D01*
X182923889Y-73214935D01*
X182929286Y-73211114D01*
X183055489Y-73126789D01*
X183166989Y-73015289D01*
X183254594Y-72884179D01*
X183314937Y-72738497D01*
X183345700Y-72583842D01*
X183345700Y-72426158D01*
X183345700Y-72426155D01*
X183345699Y-72426153D01*
X183330660Y-72350548D01*
X183314937Y-72271503D01*
X183286462Y-72202758D01*
X183264694Y-72150204D01*
X183257225Y-72080735D01*
X183288500Y-72018256D01*
X183348589Y-71982604D01*
X183418415Y-71985098D01*
X183466936Y-72015071D01*
X183648325Y-72196460D01*
X183681810Y-72257783D01*
X183682261Y-72259949D01*
X183713161Y-72415291D01*
X183713164Y-72415301D01*
X183773502Y-72560972D01*
X183773509Y-72560985D01*
X183861110Y-72692088D01*
X183861113Y-72692092D01*
X183972607Y-72803586D01*
X183972611Y-72803589D01*
X184103714Y-72891190D01*
X184103727Y-72891197D01*
X184239705Y-72947520D01*
X184249403Y-72951537D01*
X184397895Y-72981074D01*
X184404053Y-72982299D01*
X184404056Y-72982300D01*
X184404058Y-72982300D01*
X184561744Y-72982300D01*
X184561745Y-72982299D01*
X184716397Y-72951537D01*
X184862079Y-72891194D01*
X184993189Y-72803589D01*
X185093691Y-72703086D01*
X185155012Y-72669603D01*
X185224704Y-72674587D01*
X185269052Y-72703088D01*
X185297284Y-72731320D01*
X185297286Y-72731321D01*
X185297290Y-72731324D01*
X185422459Y-72803589D01*
X185434216Y-72810377D01*
X185519479Y-72833223D01*
X185586942Y-72851300D01*
X185586943Y-72851300D01*
X187147634Y-72851300D01*
X187214673Y-72870985D01*
X187216525Y-72872198D01*
X187348214Y-72960190D01*
X187348227Y-72960197D01*
X187481233Y-73015289D01*
X187493903Y-73020537D01*
X187579438Y-73037551D01*
X187648553Y-73051299D01*
X187648556Y-73051300D01*
X187648558Y-73051300D01*
X187806244Y-73051300D01*
X187806245Y-73051299D01*
X187960897Y-73020537D01*
X188106579Y-72960194D01*
X188237689Y-72872589D01*
X188349189Y-72761089D01*
X188436794Y-72629979D01*
X188497137Y-72484297D01*
X188527900Y-72329642D01*
X188527900Y-72171958D01*
X188527900Y-72171955D01*
X188527899Y-72171953D01*
X188516652Y-72115410D01*
X188497137Y-72017303D01*
X188497135Y-72017298D01*
X188436797Y-71871627D01*
X188436795Y-71871623D01*
X188436794Y-71871621D01*
X188396152Y-71810796D01*
X188375274Y-71744119D01*
X188393758Y-71676739D01*
X188445737Y-71630048D01*
X188511857Y-71618547D01*
X188575019Y-71624999D01*
X188849999Y-71624999D01*
X188850000Y-71624998D01*
X188850000Y-70787500D01*
X187875001Y-70787500D01*
X187875001Y-70924986D01*
X187885494Y-71027697D01*
X187940641Y-71194119D01*
X187940645Y-71194128D01*
X187990132Y-71274359D01*
X188008572Y-71341751D01*
X187987649Y-71408415D01*
X187934007Y-71453184D01*
X187864676Y-71461845D01*
X187860403Y-71461073D01*
X187806242Y-71450300D01*
X187648558Y-71450300D01*
X187648555Y-71450300D01*
X187493910Y-71481061D01*
X187493898Y-71481064D01*
X187348227Y-71541402D01*
X187348214Y-71541409D01*
X187216525Y-71629402D01*
X187149847Y-71650280D01*
X187147634Y-71650300D01*
X186390075Y-71650300D01*
X186323036Y-71630615D01*
X186277281Y-71577811D01*
X186267337Y-71508653D01*
X186271689Y-71489410D01*
X186318934Y-71337792D01*
X186325000Y-71271043D01*
X186325000Y-70850000D01*
X185624000Y-70850000D01*
X185556961Y-70830315D01*
X185511206Y-70777511D01*
X185500000Y-70726000D01*
X185500000Y-70474000D01*
X185519685Y-70406961D01*
X185572489Y-70361206D01*
X185624000Y-70350000D01*
X186325000Y-70350000D01*
X186325000Y-69928959D01*
X186320124Y-69875313D01*
X186333660Y-69806767D01*
X186382105Y-69756420D01*
X186450080Y-69740258D01*
X186516002Y-69763410D01*
X186558176Y-69816636D01*
X186597004Y-69910375D01*
X186597009Y-69910385D01*
X186684610Y-70041488D01*
X186684613Y-70041492D01*
X186796107Y-70152986D01*
X186796111Y-70152989D01*
X186927214Y-70240590D01*
X186927227Y-70240597D01*
X187040463Y-70287500D01*
X187072903Y-70300937D01*
X187227553Y-70331699D01*
X187227556Y-70331700D01*
X187227558Y-70331700D01*
X187385244Y-70331700D01*
X187385245Y-70331699D01*
X187539897Y-70300937D01*
X187685579Y-70240594D01*
X187685584Y-70240590D01*
X187685587Y-70240589D01*
X187686396Y-70240049D01*
X187686884Y-70239895D01*
X187690954Y-70237721D01*
X187691366Y-70238492D01*
X187753073Y-70219170D01*
X187820454Y-70237654D01*
X187842969Y-70255469D01*
X187875000Y-70287500D01*
X188976000Y-70287500D01*
X189043039Y-70307185D01*
X189088794Y-70359989D01*
X189100000Y-70411500D01*
X189100000Y-70537500D01*
X189226000Y-70537500D01*
X189293039Y-70557185D01*
X189338794Y-70609989D01*
X189350000Y-70661500D01*
X189350000Y-71624999D01*
X189624972Y-71624999D01*
X189624986Y-71624998D01*
X189727697Y-71614505D01*
X189894119Y-71559358D01*
X189894130Y-71559353D01*
X189930403Y-71536980D01*
X189997795Y-71518539D01*
X190064459Y-71539461D01*
X190109229Y-71593103D01*
X190119500Y-71642518D01*
X190119500Y-72747870D01*
X190119501Y-72747876D01*
X190125908Y-72807483D01*
X190176202Y-72942328D01*
X190176206Y-72942335D01*
X190262452Y-73057544D01*
X190262455Y-73057547D01*
X190377664Y-73143793D01*
X190377671Y-73143797D01*
X190512517Y-73194091D01*
X190512516Y-73194091D01*
X190519444Y-73194835D01*
X190572127Y-73200500D01*
X192467872Y-73200499D01*
X192527483Y-73194091D01*
X192662331Y-73143796D01*
X192777546Y-73057546D01*
X192863796Y-72942331D01*
X192914091Y-72807483D01*
X192920500Y-72747873D01*
X192920500Y-72747844D01*
X195200000Y-72747844D01*
X195206401Y-72807372D01*
X195206403Y-72807379D01*
X195256645Y-72942086D01*
X195256649Y-72942093D01*
X195342809Y-73057187D01*
X195342812Y-73057190D01*
X195457906Y-73143350D01*
X195457913Y-73143354D01*
X195592620Y-73193596D01*
X195592627Y-73193598D01*
X195652155Y-73199999D01*
X195652172Y-73200000D01*
X196350000Y-73200000D01*
X196850000Y-73200000D01*
X197547828Y-73200000D01*
X197547844Y-73199999D01*
X197607372Y-73193598D01*
X197607379Y-73193596D01*
X197742086Y-73143354D01*
X197742093Y-73143350D01*
X197857187Y-73057190D01*
X197857190Y-73057187D01*
X197943350Y-72942093D01*
X197943354Y-72942086D01*
X197993596Y-72807379D01*
X197993598Y-72807372D01*
X197999999Y-72747844D01*
X198000000Y-72747827D01*
X198000000Y-71950000D01*
X196850000Y-71950000D01*
X196850000Y-73200000D01*
X196350000Y-73200000D01*
X196350000Y-71950000D01*
X195200000Y-71950000D01*
X195200000Y-72747844D01*
X192920500Y-72747844D01*
X192920499Y-71680022D01*
X192920499Y-70652129D01*
X192920498Y-70652123D01*
X192919700Y-70644703D01*
X192914091Y-70592517D01*
X192903468Y-70564036D01*
X192863797Y-70457671D01*
X192863793Y-70457664D01*
X192777547Y-70342455D01*
X192777544Y-70342452D01*
X192662335Y-70256206D01*
X192662328Y-70256202D01*
X192527482Y-70205908D01*
X192527483Y-70205908D01*
X192467883Y-70199501D01*
X192467881Y-70199500D01*
X192467873Y-70199500D01*
X192467865Y-70199500D01*
X191697762Y-70199500D01*
X191630723Y-70179815D01*
X191584968Y-70127011D01*
X191575024Y-70057853D01*
X191604049Y-69994297D01*
X191610081Y-69987819D01*
X191709061Y-69888838D01*
X191709064Y-69888835D01*
X191807613Y-69741347D01*
X191809207Y-69737500D01*
X191826738Y-69695175D01*
X191875494Y-69577466D01*
X191876858Y-69570612D01*
X191910099Y-69403495D01*
X191910100Y-69403493D01*
X191910100Y-69324499D01*
X191929785Y-69257460D01*
X191982589Y-69211705D01*
X192034100Y-69200499D01*
X192467871Y-69200499D01*
X192467872Y-69200499D01*
X192527483Y-69194091D01*
X192662331Y-69143796D01*
X192777546Y-69057546D01*
X192863796Y-68942331D01*
X192914091Y-68807483D01*
X192920500Y-68747873D01*
X192920499Y-66652135D01*
X195199500Y-66652135D01*
X195199500Y-68747870D01*
X195199501Y-68747876D01*
X195205908Y-68807483D01*
X195256202Y-68942328D01*
X195256206Y-68942335D01*
X195342452Y-69057544D01*
X195342455Y-69057547D01*
X195457664Y-69143793D01*
X195457671Y-69143797D01*
X195459811Y-69144595D01*
X195592517Y-69194091D01*
X195652127Y-69200500D01*
X195738228Y-69200499D01*
X195805266Y-69220183D01*
X195851022Y-69272986D01*
X195859845Y-69300307D01*
X195889261Y-69448191D01*
X195889264Y-69448201D01*
X195949602Y-69593872D01*
X195949609Y-69593885D01*
X196037210Y-69724988D01*
X196037213Y-69724992D01*
X196148707Y-69836486D01*
X196148711Y-69836489D01*
X196279814Y-69924090D01*
X196279827Y-69924097D01*
X196369980Y-69961439D01*
X196424384Y-70005279D01*
X196446449Y-70071573D01*
X196429170Y-70139273D01*
X196378033Y-70186884D01*
X196322528Y-70200000D01*
X195652155Y-70200000D01*
X195592627Y-70206401D01*
X195592620Y-70206403D01*
X195457913Y-70256645D01*
X195457906Y-70256649D01*
X195342812Y-70342809D01*
X195342809Y-70342812D01*
X195256649Y-70457906D01*
X195256645Y-70457913D01*
X195206403Y-70592620D01*
X195206401Y-70592627D01*
X195200000Y-70652155D01*
X195200000Y-71450000D01*
X198000000Y-71450000D01*
X198000000Y-70652172D01*
X197999999Y-70652155D01*
X197993598Y-70592627D01*
X197993596Y-70592620D01*
X197943354Y-70457913D01*
X197943350Y-70457906D01*
X197857190Y-70342812D01*
X197857187Y-70342809D01*
X197742093Y-70256649D01*
X197742086Y-70256645D01*
X197607379Y-70206403D01*
X197607372Y-70206401D01*
X197547844Y-70200000D01*
X196995472Y-70200000D01*
X196928433Y-70180315D01*
X196882678Y-70127511D01*
X196872734Y-70058353D01*
X196901759Y-69994797D01*
X196948020Y-69961439D01*
X197038172Y-69924097D01*
X197038172Y-69924096D01*
X197038179Y-69924094D01*
X197169289Y-69836489D01*
X197280789Y-69724989D01*
X197368394Y-69593879D01*
X197428737Y-69448197D01*
X197458706Y-69297534D01*
X197491091Y-69235623D01*
X197551806Y-69201049D01*
X197567068Y-69198435D01*
X197607483Y-69194091D01*
X197742331Y-69143796D01*
X197857546Y-69057546D01*
X197943796Y-68942331D01*
X197994091Y-68807483D01*
X198000500Y-68747873D01*
X198000499Y-66652128D01*
X197994091Y-66592517D01*
X197991287Y-66585000D01*
X197943797Y-66457671D01*
X197943793Y-66457664D01*
X197857547Y-66342455D01*
X197857544Y-66342452D01*
X197742335Y-66256206D01*
X197742328Y-66256202D01*
X197607482Y-66205908D01*
X197607483Y-66205908D01*
X197547883Y-66199501D01*
X197547881Y-66199500D01*
X197547873Y-66199500D01*
X197547864Y-66199500D01*
X195652129Y-66199500D01*
X195652123Y-66199501D01*
X195592516Y-66205908D01*
X195457671Y-66256202D01*
X195457664Y-66256206D01*
X195342455Y-66342452D01*
X195342452Y-66342455D01*
X195256206Y-66457664D01*
X195256202Y-66457671D01*
X195205908Y-66592517D01*
X195199501Y-66652116D01*
X195199501Y-66652123D01*
X195199500Y-66652135D01*
X192920499Y-66652135D01*
X192920499Y-66652128D01*
X192914091Y-66592517D01*
X192911287Y-66585000D01*
X192863797Y-66457671D01*
X192863793Y-66457664D01*
X192777547Y-66342455D01*
X192777544Y-66342452D01*
X192662335Y-66256206D01*
X192662328Y-66256202D01*
X192527482Y-66205908D01*
X192527483Y-66205908D01*
X192467883Y-66199501D01*
X192467881Y-66199500D01*
X192467873Y-66199500D01*
X192467864Y-66199500D01*
X190572129Y-66199500D01*
X190572123Y-66199501D01*
X190512512Y-66205909D01*
X190504969Y-66207692D01*
X190504605Y-66206154D01*
X190443881Y-66210489D01*
X190382576Y-66177008D01*
X190257016Y-66051448D01*
X190257015Y-66051447D01*
X190257014Y-66051446D01*
X190183329Y-66002212D01*
X190183329Y-66002213D01*
X190134091Y-65969313D01*
X189997517Y-65912743D01*
X189997507Y-65912740D01*
X189852520Y-65883900D01*
X189852518Y-65883900D01*
X184791682Y-65883900D01*
X184791676Y-65883900D01*
X184762842Y-65889634D01*
X184762843Y-65889635D01*
X184646693Y-65912739D01*
X184646683Y-65912742D01*
X184566681Y-65945879D01*
X184566682Y-65945880D01*
X184565809Y-65946242D01*
X184510105Y-65969316D01*
X184460873Y-66002212D01*
X184459969Y-66002816D01*
X184387182Y-66051449D01*
X183855450Y-66583181D01*
X183794127Y-66616666D01*
X183767769Y-66619500D01*
X183383901Y-66619500D01*
X183317117Y-66625568D01*
X183317106Y-66625571D01*
X183163401Y-66673467D01*
X183025608Y-66756766D01*
X183025607Y-66756767D01*
X183014694Y-66767681D01*
X182953371Y-66801166D01*
X182927013Y-66804000D01*
X182466730Y-66804000D01*
X182399691Y-66784315D01*
X182379049Y-66767681D01*
X182343657Y-66732289D01*
X182343656Y-66732288D01*
X182213707Y-66652135D01*
X182194336Y-66640187D01*
X182194331Y-66640185D01*
X182188283Y-66638181D01*
X182027797Y-66585001D01*
X182027795Y-66585000D01*
X181925016Y-66574500D01*
X181925009Y-66574500D01*
X181424730Y-66574500D01*
X181357691Y-66554815D01*
X181337049Y-66538181D01*
X180883821Y-66084952D01*
X180883814Y-66084946D01*
X180810129Y-66035712D01*
X180810129Y-66035713D01*
X180760891Y-66002813D01*
X180624317Y-65946243D01*
X180624307Y-65946240D01*
X180479320Y-65917400D01*
X180479318Y-65917400D01*
X175323918Y-65917400D01*
X173318517Y-65917400D01*
X173170682Y-65917400D01*
X173170680Y-65917400D01*
X173025692Y-65946240D01*
X173025682Y-65946243D01*
X172889111Y-66002812D01*
X172889098Y-66002819D01*
X172766184Y-66084948D01*
X172766180Y-66084951D01*
X172212950Y-66638181D01*
X172151627Y-66671666D01*
X172125269Y-66674500D01*
X171624998Y-66674500D01*
X171624980Y-66674501D01*
X171522203Y-66685000D01*
X171522200Y-66685001D01*
X171355668Y-66740185D01*
X171355663Y-66740187D01*
X171206342Y-66832289D01*
X171082289Y-66956342D01*
X170990187Y-67105663D01*
X170990186Y-67105666D01*
X170935001Y-67272203D01*
X170935001Y-67272204D01*
X170935000Y-67272204D01*
X170924500Y-67374983D01*
X170924500Y-67374991D01*
X170924500Y-67710455D01*
X170924501Y-67970700D01*
X170904817Y-68037739D01*
X170852013Y-68083494D01*
X170800501Y-68094700D01*
X168570597Y-68094700D01*
X168503558Y-68075015D01*
X168482916Y-68058381D01*
X168064790Y-67640255D01*
X168064788Y-67640252D01*
X167945917Y-67521381D01*
X167945916Y-67521380D01*
X167859104Y-67471260D01*
X167859104Y-67471259D01*
X167859100Y-67471258D01*
X167808985Y-67442323D01*
X167656257Y-67401399D01*
X167498143Y-67401399D01*
X167490547Y-67401399D01*
X167490531Y-67401400D01*
X127866170Y-67401400D01*
X127866154Y-67401399D01*
X127858558Y-67401399D01*
X127700443Y-67401399D01*
X127636996Y-67418400D01*
X127547714Y-67442323D01*
X127547709Y-67442326D01*
X127410790Y-67521375D01*
X127410779Y-67521383D01*
X127409431Y-67522732D01*
X127408015Y-67523504D01*
X127404339Y-67526326D01*
X127403898Y-67525752D01*
X127348106Y-67556213D01*
X127345948Y-67556662D01*
X127190608Y-67587561D01*
X127190598Y-67587564D01*
X127044927Y-67647902D01*
X127044914Y-67647909D01*
X126913811Y-67735510D01*
X126913807Y-67735513D01*
X126802313Y-67847007D01*
X126802310Y-67847011D01*
X126714709Y-67978114D01*
X126714702Y-67978127D01*
X126654364Y-68123798D01*
X126654361Y-68123810D01*
X126623600Y-68278453D01*
X126623600Y-68305200D01*
X126603915Y-68372239D01*
X126551111Y-68417994D01*
X126499600Y-68429200D01*
X120977270Y-68429200D01*
X120977254Y-68429199D01*
X120969658Y-68429199D01*
X120811543Y-68429199D01*
X120735179Y-68449661D01*
X120658814Y-68470123D01*
X120658809Y-68470126D01*
X120521890Y-68549175D01*
X120521882Y-68549181D01*
X119209322Y-69861741D01*
X119147999Y-69895226D01*
X119083323Y-69891991D01*
X119041045Y-69878254D01*
X118857781Y-69849228D01*
X118831087Y-69845000D01*
X118618513Y-69845000D01*
X118591819Y-69849228D01*
X118408560Y-69878253D01*
X118206385Y-69943944D01*
X118016979Y-70040451D01*
X117845013Y-70165390D01*
X117694690Y-70315713D01*
X117569749Y-70487682D01*
X117565284Y-70496446D01*
X117517309Y-70547242D01*
X117449488Y-70564036D01*
X117383353Y-70541498D01*
X117344316Y-70496446D01*
X117339850Y-70487682D01*
X117214909Y-70315713D01*
X117064586Y-70165390D01*
X116892620Y-70040451D01*
X116703214Y-69943944D01*
X116703213Y-69943943D01*
X116703212Y-69943943D01*
X116501043Y-69878254D01*
X116501041Y-69878253D01*
X116501040Y-69878253D01*
X116317781Y-69849228D01*
X116291087Y-69845000D01*
X116078513Y-69845000D01*
X116051819Y-69849228D01*
X115868560Y-69878253D01*
X115666385Y-69943944D01*
X115476979Y-70040451D01*
X115305013Y-70165390D01*
X115154690Y-70315713D01*
X115029749Y-70487682D01*
X115025284Y-70496446D01*
X114977309Y-70547242D01*
X114909488Y-70564036D01*
X114843353Y-70541498D01*
X114804316Y-70496446D01*
X114799850Y-70487682D01*
X114674909Y-70315713D01*
X114524586Y-70165390D01*
X114352620Y-70040451D01*
X114163214Y-69943944D01*
X114163213Y-69943943D01*
X114163212Y-69943943D01*
X113961043Y-69878254D01*
X113961041Y-69878253D01*
X113961040Y-69878253D01*
X113777781Y-69849228D01*
X113751087Y-69845000D01*
X113538513Y-69845000D01*
X113511819Y-69849228D01*
X113328560Y-69878253D01*
X113126385Y-69943944D01*
X112936979Y-70040451D01*
X112765013Y-70165390D01*
X112614690Y-70315713D01*
X112489749Y-70487682D01*
X112485284Y-70496446D01*
X112437309Y-70547242D01*
X112369488Y-70564036D01*
X112303353Y-70541498D01*
X112264316Y-70496446D01*
X112259850Y-70487682D01*
X112134909Y-70315713D01*
X111984586Y-70165390D01*
X111812620Y-70040451D01*
X111623214Y-69943944D01*
X111623213Y-69943943D01*
X111623212Y-69943943D01*
X111421043Y-69878254D01*
X111421041Y-69878253D01*
X111421040Y-69878253D01*
X111237781Y-69849228D01*
X111211087Y-69845000D01*
X110998513Y-69845000D01*
X110971819Y-69849228D01*
X110788560Y-69878253D01*
X110586385Y-69943944D01*
X110396979Y-70040451D01*
X110225013Y-70165390D01*
X110074690Y-70315713D01*
X109949749Y-70487682D01*
X109945284Y-70496446D01*
X109897309Y-70547242D01*
X109829488Y-70564036D01*
X109763353Y-70541498D01*
X109724316Y-70496446D01*
X109719850Y-70487682D01*
X109594909Y-70315713D01*
X109444586Y-70165390D01*
X109272620Y-70040451D01*
X109083214Y-69943944D01*
X109083213Y-69943943D01*
X109083212Y-69943943D01*
X108881043Y-69878254D01*
X108881041Y-69878253D01*
X108881040Y-69878253D01*
X108697781Y-69849228D01*
X108671087Y-69845000D01*
X108458513Y-69845000D01*
X108431819Y-69849228D01*
X108248560Y-69878253D01*
X108046385Y-69943944D01*
X107856979Y-70040451D01*
X107685013Y-70165390D01*
X107534690Y-70315713D01*
X107409749Y-70487682D01*
X107405284Y-70496446D01*
X107357309Y-70547242D01*
X107289488Y-70564036D01*
X107223353Y-70541498D01*
X107184316Y-70496446D01*
X107179850Y-70487682D01*
X107054909Y-70315713D01*
X106904586Y-70165390D01*
X106732620Y-70040451D01*
X106543214Y-69943944D01*
X106543213Y-69943943D01*
X106543212Y-69943943D01*
X106341043Y-69878254D01*
X106341041Y-69878253D01*
X106341040Y-69878253D01*
X106157781Y-69849228D01*
X106131087Y-69845000D01*
X105918513Y-69845000D01*
X105891819Y-69849228D01*
X105708560Y-69878253D01*
X105506385Y-69943944D01*
X105316979Y-70040451D01*
X105145013Y-70165390D01*
X104994690Y-70315713D01*
X104869749Y-70487682D01*
X104865284Y-70496446D01*
X104817309Y-70547242D01*
X104749488Y-70564036D01*
X104683353Y-70541498D01*
X104644316Y-70496446D01*
X104639850Y-70487682D01*
X104514909Y-70315713D01*
X104364586Y-70165390D01*
X104192620Y-70040451D01*
X104003214Y-69943944D01*
X104003213Y-69943943D01*
X104003212Y-69943943D01*
X103801043Y-69878254D01*
X103801041Y-69878253D01*
X103801040Y-69878253D01*
X103617781Y-69849228D01*
X103591087Y-69845000D01*
X103378513Y-69845000D01*
X103351819Y-69849228D01*
X103168560Y-69878253D01*
X102966385Y-69943944D01*
X102776979Y-70040451D01*
X102605013Y-70165390D01*
X102454690Y-70315713D01*
X102329751Y-70487679D01*
X102233244Y-70677085D01*
X102167553Y-70879260D01*
X102148493Y-70999600D01*
X102134300Y-71089213D01*
X102134300Y-71301787D01*
X102140003Y-71337792D01*
X102167554Y-71511744D01*
X102167554Y-71511747D01*
X102181291Y-71554023D01*
X102183286Y-71623864D01*
X102151041Y-71680022D01*
X101964386Y-71866678D01*
X101852581Y-71978482D01*
X101852579Y-71978485D01*
X101846451Y-71989100D01*
X101816538Y-72040912D01*
X101802461Y-72065294D01*
X101802459Y-72065296D01*
X101773525Y-72115409D01*
X101773524Y-72115410D01*
X101758373Y-72171953D01*
X101732599Y-72268143D01*
X101732599Y-72268145D01*
X101732599Y-72436246D01*
X101732600Y-72436259D01*
X101732600Y-74623830D01*
X101732599Y-74623848D01*
X101732599Y-74789554D01*
X101732598Y-74789554D01*
X101773523Y-74942285D01*
X101789409Y-74969800D01*
X101789408Y-74969800D01*
X101789409Y-74969801D01*
X101852575Y-75079209D01*
X101852581Y-75079217D01*
X101971449Y-75198085D01*
X101971455Y-75198090D01*
X103472839Y-76699474D01*
X103472849Y-76699485D01*
X103477179Y-76703815D01*
X103477180Y-76703816D01*
X103588984Y-76815620D01*
X103588986Y-76815621D01*
X103588990Y-76815624D01*
X103698915Y-76879088D01*
X103725916Y-76894677D01*
X103813086Y-76918034D01*
X103878642Y-76935600D01*
X103878643Y-76935600D01*
X130242414Y-76935600D01*
X130309453Y-76955285D01*
X130355208Y-77008089D01*
X130364031Y-77035408D01*
X130390861Y-77170291D01*
X130390864Y-77170301D01*
X130451202Y-77315972D01*
X130451209Y-77315985D01*
X130538810Y-77447088D01*
X130538813Y-77447092D01*
X130650307Y-77558586D01*
X130650311Y-77558589D01*
X130781414Y-77646190D01*
X130781427Y-77646197D01*
X130860494Y-77678947D01*
X130927103Y-77706537D01*
X131081753Y-77737299D01*
X131081756Y-77737300D01*
X131081758Y-77737300D01*
X131239444Y-77737300D01*
X131239445Y-77737299D01*
X131394097Y-77706537D01*
X131539779Y-77646194D01*
X131600733Y-77605466D01*
X131671475Y-77558198D01*
X131738153Y-77537320D01*
X131740366Y-77537300D01*
X136814703Y-77537300D01*
X136881742Y-77556985D01*
X136927497Y-77609789D01*
X136937441Y-77678947D01*
X136908416Y-77742503D01*
X136902384Y-77748981D01*
X136635939Y-78015425D01*
X136574616Y-78048910D01*
X136572450Y-78049361D01*
X136417108Y-78080261D01*
X136417098Y-78080264D01*
X136271427Y-78140602D01*
X136271414Y-78140609D01*
X136140311Y-78228210D01*
X136140307Y-78228213D01*
X136028813Y-78339707D01*
X136028810Y-78339711D01*
X135941209Y-78470814D01*
X135941202Y-78470827D01*
X135880864Y-78616498D01*
X135880861Y-78616508D01*
X135849961Y-78771850D01*
X135841196Y-78788605D01*
X135837177Y-78807084D01*
X135818431Y-78832125D01*
X135817576Y-78833761D01*
X135816026Y-78835339D01*
X135748182Y-78903182D01*
X135686862Y-78936666D01*
X135660503Y-78939500D01*
X104529602Y-78939500D01*
X104462563Y-78919815D01*
X104419117Y-78871795D01*
X104416286Y-78866239D01*
X104412287Y-78858390D01*
X104412285Y-78858387D01*
X104412284Y-78858385D01*
X104291971Y-78692786D01*
X104147213Y-78548028D01*
X103981613Y-78427715D01*
X103981612Y-78427714D01*
X103981610Y-78427713D01*
X103905557Y-78388962D01*
X103799223Y-78334781D01*
X103604534Y-78271522D01*
X103429995Y-78243878D01*
X103402352Y-78239500D01*
X103197648Y-78239500D01*
X103173329Y-78243351D01*
X102995465Y-78271522D01*
X102800776Y-78334781D01*
X102618386Y-78427715D01*
X102452786Y-78548028D01*
X102308028Y-78692786D01*
X102187715Y-78858386D01*
X102094781Y-79040776D01*
X102031522Y-79235465D01*
X102002976Y-79415703D01*
X101999500Y-79437648D01*
X101999500Y-79642352D01*
X102000884Y-79651089D01*
X102031522Y-79844534D01*
X102094781Y-80039223D01*
X102146385Y-80140500D01*
X102184032Y-80214386D01*
X102187715Y-80221613D01*
X102308028Y-80387213D01*
X102452786Y-80531971D01*
X102563645Y-80612513D01*
X102618390Y-80652287D01*
X102709840Y-80698883D01*
X102711080Y-80699515D01*
X102761876Y-80747490D01*
X102778671Y-80815311D01*
X102756134Y-80881446D01*
X102711080Y-80920485D01*
X102618386Y-80967715D01*
X102452786Y-81088028D01*
X102308028Y-81232786D01*
X102187715Y-81398386D01*
X102094781Y-81580776D01*
X102031522Y-81775465D01*
X101999500Y-81977648D01*
X101999500Y-82182351D01*
X102031522Y-82384534D01*
X102094781Y-82579223D01*
X102187715Y-82761613D01*
X102308028Y-82927213D01*
X102452786Y-83071971D01*
X102607749Y-83184556D01*
X102618390Y-83192287D01*
X102709840Y-83238883D01*
X102711080Y-83239515D01*
X102761876Y-83287490D01*
X102778671Y-83355311D01*
X102756134Y-83421446D01*
X102711080Y-83460485D01*
X102618386Y-83507715D01*
X102452786Y-83628028D01*
X102308028Y-83772786D01*
X102187715Y-83938386D01*
X102094781Y-84120776D01*
X102031522Y-84315465D01*
X101999500Y-84517648D01*
X101999500Y-84722351D01*
X102031522Y-84924534D01*
X102094781Y-85119223D01*
X102187715Y-85301613D01*
X102308028Y-85467213D01*
X102452786Y-85611971D01*
X102556745Y-85687500D01*
X102618390Y-85732287D01*
X102709840Y-85778883D01*
X102711080Y-85779515D01*
X102761876Y-85827490D01*
X102778671Y-85895311D01*
X102756134Y-85961446D01*
X102711080Y-86000485D01*
X102618386Y-86047715D01*
X102452786Y-86168028D01*
X102308028Y-86312786D01*
X102187715Y-86478386D01*
X102094781Y-86660776D01*
X102031522Y-86855465D01*
X101999500Y-87057648D01*
X101999500Y-87262351D01*
X102031522Y-87464534D01*
X102094781Y-87659223D01*
X102187715Y-87841613D01*
X102308028Y-88007213D01*
X102452786Y-88151971D01*
X102607749Y-88264556D01*
X102618390Y-88272287D01*
X102684691Y-88306069D01*
X102711080Y-88319515D01*
X102761876Y-88367490D01*
X102778671Y-88435311D01*
X102756134Y-88501446D01*
X102711080Y-88540485D01*
X102618386Y-88587715D01*
X102452786Y-88708028D01*
X102308028Y-88852786D01*
X102187715Y-89018386D01*
X102094781Y-89200776D01*
X102031522Y-89395465D01*
X101999500Y-89597648D01*
X101999500Y-89802351D01*
X102031522Y-90004534D01*
X102094781Y-90199223D01*
X102187715Y-90381613D01*
X102308028Y-90547213D01*
X102452784Y-90691969D01*
X102489068Y-90718330D01*
X102531735Y-90773659D01*
X102537715Y-90843273D01*
X102505109Y-90905068D01*
X102444271Y-90939426D01*
X102429440Y-90941938D01*
X102392519Y-90945907D01*
X102257671Y-90996202D01*
X102257664Y-90996206D01*
X102142455Y-91082452D01*
X102142452Y-91082455D01*
X102056206Y-91197664D01*
X102056202Y-91197671D01*
X102005908Y-91332517D01*
X101999501Y-91392116D01*
X101999500Y-91392135D01*
X101999500Y-93087870D01*
X101999501Y-93087876D01*
X102005908Y-93147483D01*
X102056202Y-93282328D01*
X102056206Y-93282335D01*
X102142452Y-93397544D01*
X102142455Y-93397547D01*
X102257664Y-93483793D01*
X102257671Y-93483797D01*
X102392517Y-93534091D01*
X102392516Y-93534091D01*
X102399444Y-93534835D01*
X102452127Y-93540500D01*
X104147872Y-93540499D01*
X104207483Y-93534091D01*
X104342331Y-93483796D01*
X104457546Y-93397546D01*
X104543796Y-93282331D01*
X104594091Y-93147483D01*
X104600500Y-93087873D01*
X104600500Y-93087870D01*
X104600855Y-93084572D01*
X104602497Y-93084748D01*
X104623462Y-93024980D01*
X104678562Y-92982017D01*
X104699968Y-92975710D01*
X104770613Y-92961658D01*
X104907195Y-92905084D01*
X105030116Y-92822951D01*
X105134651Y-92718416D01*
X105216784Y-92595495D01*
X105218122Y-92592266D01*
X105259130Y-92493263D01*
X105273358Y-92458913D01*
X105294684Y-92351702D01*
X105302200Y-92313920D01*
X105302200Y-91933028D01*
X105321885Y-91865989D01*
X105338514Y-91845352D01*
X108784162Y-88399704D01*
X108845480Y-88366222D01*
X108915172Y-88371206D01*
X108971105Y-88413078D01*
X108993776Y-88471143D01*
X108994077Y-88471079D01*
X108994472Y-88472926D01*
X108995195Y-88474777D01*
X108995493Y-88477694D01*
X109050641Y-88644119D01*
X109050643Y-88644124D01*
X109142684Y-88793345D01*
X109266654Y-88917315D01*
X109415875Y-89009356D01*
X109415880Y-89009358D01*
X109582302Y-89064505D01*
X109582309Y-89064506D01*
X109685019Y-89074999D01*
X109959999Y-89074999D01*
X110460000Y-89074999D01*
X110734972Y-89074999D01*
X110734986Y-89074998D01*
X110837697Y-89064505D01*
X111004119Y-89009358D01*
X111004124Y-89009356D01*
X111153345Y-88917315D01*
X111277315Y-88793345D01*
X111369356Y-88644124D01*
X111369358Y-88644119D01*
X111424505Y-88477697D01*
X111424506Y-88477690D01*
X111434999Y-88374986D01*
X111435000Y-88374973D01*
X111435000Y-88237500D01*
X110460000Y-88237500D01*
X110460000Y-89074999D01*
X109959999Y-89074999D01*
X109960000Y-89074998D01*
X109960000Y-88111500D01*
X109979685Y-88044461D01*
X110032489Y-87998706D01*
X110084000Y-87987500D01*
X110210000Y-87987500D01*
X110210000Y-87861500D01*
X110229685Y-87794461D01*
X110282489Y-87748706D01*
X110334000Y-87737500D01*
X111434999Y-87737500D01*
X111434999Y-87600028D01*
X111434998Y-87600013D01*
X111424505Y-87497302D01*
X111369358Y-87330880D01*
X111369356Y-87330875D01*
X111277315Y-87181654D01*
X111153344Y-87057683D01*
X111153341Y-87057681D01*
X111150339Y-87055829D01*
X111148713Y-87054021D01*
X111147677Y-87053202D01*
X111147817Y-87053024D01*
X111130638Y-87033924D01*
X111109009Y-87013921D01*
X111107539Y-87008240D01*
X111103617Y-87003880D01*
X111098886Y-86974804D01*
X111091505Y-86946280D01*
X111093339Y-86940707D01*
X111092397Y-86934917D01*
X111104137Y-86907898D01*
X111113349Y-86879912D01*
X111118374Y-86875136D01*
X111120243Y-86870836D01*
X111137313Y-86854001D01*
X111143525Y-86848960D01*
X111153656Y-86842712D01*
X111164104Y-86832263D01*
X111169103Y-86828208D01*
X111195635Y-86817114D01*
X111220872Y-86803334D01*
X111231265Y-86802216D01*
X111233565Y-86801255D01*
X111236075Y-86801699D01*
X111247230Y-86800500D01*
X111540584Y-86800500D01*
X111607623Y-86820185D01*
X111653378Y-86872989D01*
X111659660Y-86889904D01*
X111682317Y-86967891D01*
X111682320Y-86967896D01*
X111764369Y-87106636D01*
X111764378Y-87106648D01*
X111878351Y-87220621D01*
X111878355Y-87220624D01*
X111878357Y-87220626D01*
X111878360Y-87220627D01*
X111878363Y-87220630D01*
X111970856Y-87275329D01*
X112017106Y-87302681D01*
X112047936Y-87311638D01*
X112171897Y-87347653D01*
X112171900Y-87347653D01*
X112171902Y-87347654D01*
X112208065Y-87350500D01*
X112611934Y-87350499D01*
X112648098Y-87347654D01*
X112802894Y-87302681D01*
X112941643Y-87220626D01*
X112957317Y-87204952D01*
X113018639Y-87171465D01*
X113088331Y-87176448D01*
X113132683Y-87204952D01*
X113148357Y-87220626D01*
X113148361Y-87220628D01*
X113148363Y-87220630D01*
X113240856Y-87275329D01*
X113287106Y-87302681D01*
X113317936Y-87311638D01*
X113441897Y-87347653D01*
X113441900Y-87347653D01*
X113441902Y-87347654D01*
X113478065Y-87350500D01*
X113881934Y-87350499D01*
X113918098Y-87347654D01*
X114072894Y-87302681D01*
X114211643Y-87220626D01*
X114227317Y-87204952D01*
X114288639Y-87171465D01*
X114358331Y-87176448D01*
X114402683Y-87204952D01*
X114418357Y-87220626D01*
X114418361Y-87220628D01*
X114418363Y-87220630D01*
X114510856Y-87275329D01*
X114557106Y-87302681D01*
X114587936Y-87311638D01*
X114711897Y-87347653D01*
X114711900Y-87347653D01*
X114711902Y-87347654D01*
X114748065Y-87350500D01*
X115072202Y-87350499D01*
X115139241Y-87370183D01*
X115159883Y-87386818D01*
X116506239Y-88733174D01*
X116506249Y-88733185D01*
X116510579Y-88737515D01*
X116510580Y-88737516D01*
X116622384Y-88849320D01*
X116673945Y-88879088D01*
X116709195Y-88899439D01*
X116709197Y-88899441D01*
X116759313Y-88928376D01*
X116759315Y-88928377D01*
X116912042Y-88969300D01*
X116912043Y-88969300D01*
X121025734Y-88969300D01*
X121092773Y-88988985D01*
X121094625Y-88990198D01*
X121226314Y-89078190D01*
X121226327Y-89078197D01*
X121299245Y-89108400D01*
X121372003Y-89138537D01*
X121526653Y-89169299D01*
X121526656Y-89169300D01*
X121526658Y-89169300D01*
X121684344Y-89169300D01*
X121684345Y-89169299D01*
X121838997Y-89138537D01*
X121984679Y-89078194D01*
X122115789Y-88990589D01*
X122227289Y-88879089D01*
X122314894Y-88747979D01*
X122361710Y-88634954D01*
X122405548Y-88580555D01*
X122471842Y-88558489D01*
X122539541Y-88575768D01*
X122563950Y-88594729D01*
X122665907Y-88696686D01*
X122665911Y-88696689D01*
X122797014Y-88784290D01*
X122797027Y-88784297D01*
X122942698Y-88844635D01*
X122942703Y-88844637D01*
X123097353Y-88875399D01*
X123097356Y-88875400D01*
X123097358Y-88875400D01*
X123255044Y-88875400D01*
X123255045Y-88875399D01*
X123409697Y-88844637D01*
X123555379Y-88784294D01*
X123686489Y-88696689D01*
X123797989Y-88585189D01*
X123885594Y-88454079D01*
X123945937Y-88308397D01*
X123976700Y-88153742D01*
X123976700Y-87996058D01*
X123976700Y-87996055D01*
X123976699Y-87996053D01*
X123962107Y-87922691D01*
X123968334Y-87853100D01*
X124011197Y-87797922D01*
X124077087Y-87774678D01*
X124083724Y-87774500D01*
X125397831Y-87774500D01*
X125397847Y-87774501D01*
X125405443Y-87774501D01*
X125563554Y-87774501D01*
X125563557Y-87774501D01*
X125716285Y-87733577D01*
X125781853Y-87695721D01*
X125853216Y-87654520D01*
X125914774Y-87592961D01*
X125921355Y-87587938D01*
X125946553Y-87578267D01*
X125970240Y-87565334D01*
X125984155Y-87563837D01*
X125986586Y-87562905D01*
X125988716Y-87563347D01*
X125996598Y-87562500D01*
X127492043Y-87562500D01*
X127539495Y-87571939D01*
X127609503Y-87600937D01*
X127609506Y-87600937D01*
X127609511Y-87600939D01*
X127764153Y-87631699D01*
X127764156Y-87631700D01*
X127764158Y-87631700D01*
X127921844Y-87631700D01*
X127921845Y-87631699D01*
X128076497Y-87600937D01*
X128222179Y-87540594D01*
X128353289Y-87452989D01*
X128464789Y-87341489D01*
X128552394Y-87210379D01*
X128552395Y-87210374D01*
X128553148Y-87209249D01*
X128606760Y-87164443D01*
X128676085Y-87155736D01*
X128690831Y-87159059D01*
X128737431Y-87172598D01*
X128774306Y-87175500D01*
X128774314Y-87175500D01*
X129205686Y-87175500D01*
X129205694Y-87175500D01*
X129242569Y-87172598D01*
X129242571Y-87172597D01*
X129242573Y-87172597D01*
X129300608Y-87155736D01*
X129400398Y-87126744D01*
X129541865Y-87043081D01*
X129541870Y-87043076D01*
X129548026Y-87038301D01*
X129549839Y-87040638D01*
X129598949Y-87013798D01*
X129668643Y-87018756D01*
X129700996Y-87039551D01*
X129702278Y-87037900D01*
X129708447Y-87042685D01*
X129849801Y-87126281D01*
X130007514Y-87172100D01*
X130007511Y-87172100D01*
X130009998Y-87172295D01*
X130010000Y-87172295D01*
X130010000Y-85811500D01*
X130029685Y-85744461D01*
X130082489Y-85698706D01*
X130134000Y-85687500D01*
X130260000Y-85687500D01*
X130260000Y-85561500D01*
X130279685Y-85494461D01*
X130332489Y-85448706D01*
X130384000Y-85437500D01*
X131280000Y-85437500D01*
X131280000Y-84202703D01*
X131277506Y-84202900D01*
X131275378Y-84203519D01*
X131274140Y-84203515D01*
X131271281Y-84204038D01*
X131271183Y-84203506D01*
X131205508Y-84203317D01*
X131146840Y-84165372D01*
X131117999Y-84101733D01*
X131128142Y-84032604D01*
X131153103Y-83996763D01*
X131673048Y-83476819D01*
X131734371Y-83443334D01*
X131760729Y-83440500D01*
X136351249Y-83440500D01*
X136365052Y-83443926D01*
X136376015Y-83442998D01*
X136397648Y-83452018D01*
X136409242Y-83454897D01*
X136414853Y-83457865D01*
X136448105Y-83480084D01*
X136482945Y-83494515D01*
X136584688Y-83536659D01*
X136659215Y-83551483D01*
X136721124Y-83583867D01*
X136755698Y-83644583D01*
X136751959Y-83714352D01*
X136711093Y-83771025D01*
X136646075Y-83796606D01*
X136635022Y-83797100D01*
X136301669Y-83797100D01*
X136301653Y-83797099D01*
X136294057Y-83797099D01*
X136135943Y-83797099D01*
X136041188Y-83822489D01*
X135983210Y-83838024D01*
X135983209Y-83838025D01*
X135933096Y-83866959D01*
X135933095Y-83866960D01*
X135889689Y-83892020D01*
X135846285Y-83917079D01*
X135846282Y-83917081D01*
X135600183Y-84163181D01*
X135538860Y-84196666D01*
X135512502Y-84199500D01*
X135124298Y-84199500D01*
X135087432Y-84202401D01*
X135087426Y-84202402D01*
X134929606Y-84248254D01*
X134929603Y-84248255D01*
X134788137Y-84331917D01*
X134781969Y-84336702D01*
X134780072Y-84334256D01*
X134731358Y-84360857D01*
X134661666Y-84355873D01*
X134629296Y-84335069D01*
X134628031Y-84336702D01*
X134621862Y-84331917D01*
X134483347Y-84250000D01*
X134480398Y-84248256D01*
X134480397Y-84248255D01*
X134480396Y-84248255D01*
X134480393Y-84248254D01*
X134322573Y-84202402D01*
X134322567Y-84202401D01*
X134285701Y-84199500D01*
X134285694Y-84199500D01*
X133854306Y-84199500D01*
X133854298Y-84199500D01*
X133817432Y-84202401D01*
X133817426Y-84202402D01*
X133659606Y-84248254D01*
X133659603Y-84248255D01*
X133518137Y-84331917D01*
X133511969Y-84336702D01*
X133510072Y-84334256D01*
X133461358Y-84360857D01*
X133391666Y-84355873D01*
X133359296Y-84335069D01*
X133358031Y-84336702D01*
X133351862Y-84331917D01*
X133213347Y-84250000D01*
X133210398Y-84248256D01*
X133210397Y-84248255D01*
X133210396Y-84248255D01*
X133210393Y-84248254D01*
X133052573Y-84202402D01*
X133052567Y-84202401D01*
X133015701Y-84199500D01*
X133015694Y-84199500D01*
X132584306Y-84199500D01*
X132584298Y-84199500D01*
X132547432Y-84202401D01*
X132547426Y-84202402D01*
X132389606Y-84248254D01*
X132389603Y-84248255D01*
X132248140Y-84331915D01*
X132241974Y-84336699D01*
X132240174Y-84334379D01*
X132190913Y-84361230D01*
X132121225Y-84356193D01*
X132088992Y-84335461D01*
X132087722Y-84337100D01*
X132081552Y-84332314D01*
X131940196Y-84248717D01*
X131940193Y-84248716D01*
X131782494Y-84202900D01*
X131782497Y-84202900D01*
X131780000Y-84202703D01*
X131780000Y-85563500D01*
X131760315Y-85630539D01*
X131707511Y-85676294D01*
X131656000Y-85687500D01*
X131530000Y-85687500D01*
X131530000Y-85813500D01*
X131510315Y-85880539D01*
X131457511Y-85926294D01*
X131406000Y-85937500D01*
X130510000Y-85937500D01*
X130510000Y-87188954D01*
X130523578Y-87211654D01*
X130521333Y-87281488D01*
X130506642Y-87311638D01*
X130426012Y-87432309D01*
X130426002Y-87432327D01*
X130365664Y-87577998D01*
X130365661Y-87578010D01*
X130334900Y-87732653D01*
X130334900Y-87732658D01*
X130334900Y-87890342D01*
X130334900Y-87890344D01*
X130334899Y-87890344D01*
X130347564Y-87954008D01*
X130341337Y-88023600D01*
X130298475Y-88078777D01*
X130232585Y-88102022D01*
X130225947Y-88102200D01*
X127756062Y-88102200D01*
X127689023Y-88082515D01*
X127668381Y-88065881D01*
X127665000Y-88062500D01*
X125215001Y-88062500D01*
X125215001Y-88199986D01*
X125225494Y-88302697D01*
X125280641Y-88469119D01*
X125280643Y-88469124D01*
X125372684Y-88618345D01*
X125404502Y-88650163D01*
X125437987Y-88711486D01*
X125433003Y-88781178D01*
X125431382Y-88785296D01*
X125380764Y-88907498D01*
X125380761Y-88907510D01*
X125350000Y-89062153D01*
X125350000Y-89184400D01*
X125330315Y-89251439D01*
X125277511Y-89297194D01*
X125226000Y-89308400D01*
X123226766Y-89308400D01*
X123159727Y-89288715D01*
X123157875Y-89287502D01*
X123026185Y-89199509D01*
X123026172Y-89199502D01*
X122880501Y-89139164D01*
X122880489Y-89139161D01*
X122725845Y-89108400D01*
X122725842Y-89108400D01*
X122568158Y-89108400D01*
X122568155Y-89108400D01*
X122413510Y-89139161D01*
X122413498Y-89139164D01*
X122267827Y-89199502D01*
X122267814Y-89199509D01*
X122136711Y-89287110D01*
X122136707Y-89287113D01*
X122025213Y-89398607D01*
X122025210Y-89398611D01*
X121937609Y-89529714D01*
X121937602Y-89529727D01*
X121877264Y-89675398D01*
X121877261Y-89675410D01*
X121846500Y-89830053D01*
X121846500Y-89987746D01*
X121877261Y-90142389D01*
X121877264Y-90142401D01*
X121937602Y-90288072D01*
X121937609Y-90288085D01*
X122025210Y-90419188D01*
X122025213Y-90419192D01*
X122136707Y-90530686D01*
X122136711Y-90530689D01*
X122267814Y-90618290D01*
X122267827Y-90618297D01*
X122404824Y-90675042D01*
X122413503Y-90678637D01*
X122540890Y-90703976D01*
X122568153Y-90709399D01*
X122568156Y-90709400D01*
X122568158Y-90709400D01*
X122725844Y-90709400D01*
X122725845Y-90709399D01*
X122880497Y-90678637D01*
X123010185Y-90624919D01*
X123026172Y-90618297D01*
X123026172Y-90618296D01*
X123026179Y-90618294D01*
X123042417Y-90607444D01*
X123157875Y-90530298D01*
X123224553Y-90509420D01*
X123226766Y-90509400D01*
X126146831Y-90509400D01*
X126146847Y-90509401D01*
X126154443Y-90509401D01*
X126312554Y-90509401D01*
X126312557Y-90509401D01*
X126465285Y-90468477D01*
X126540282Y-90425177D01*
X126602216Y-90389420D01*
X126714020Y-90277616D01*
X126714020Y-90277614D01*
X126724223Y-90267412D01*
X126724227Y-90267406D01*
X126839887Y-90151747D01*
X126901207Y-90118264D01*
X126970899Y-90123248D01*
X127026832Y-90165120D01*
X127049182Y-90215238D01*
X127073261Y-90336291D01*
X127073264Y-90336301D01*
X127133602Y-90481972D01*
X127133609Y-90481985D01*
X127221210Y-90613088D01*
X127221213Y-90613092D01*
X127332707Y-90724586D01*
X127332711Y-90724589D01*
X127463814Y-90812190D01*
X127463827Y-90812197D01*
X127609498Y-90872535D01*
X127609503Y-90872537D01*
X127762439Y-90902958D01*
X127764153Y-90903299D01*
X127764156Y-90903300D01*
X127764158Y-90903300D01*
X127921844Y-90903300D01*
X127921845Y-90903299D01*
X128076497Y-90872537D01*
X128209637Y-90817389D01*
X128222172Y-90812197D01*
X128222172Y-90812196D01*
X128222179Y-90812194D01*
X128291616Y-90765797D01*
X128358292Y-90744920D01*
X128360506Y-90744900D01*
X130567302Y-90744900D01*
X130588547Y-90751138D01*
X130610636Y-90752718D01*
X130621419Y-90760790D01*
X130634341Y-90764585D01*
X130648840Y-90781318D01*
X130666569Y-90794590D01*
X130671276Y-90807210D01*
X130680096Y-90817389D01*
X130683247Y-90839306D01*
X130690986Y-90860054D01*
X130688123Y-90873214D01*
X130690040Y-90886547D01*
X130680840Y-90906690D01*
X130676134Y-90928327D01*
X130662865Y-90946052D01*
X130661015Y-90950103D01*
X130654983Y-90956581D01*
X130523383Y-91088181D01*
X130462060Y-91121666D01*
X130435702Y-91124500D01*
X130044298Y-91124500D01*
X130007432Y-91127401D01*
X130007426Y-91127402D01*
X129849606Y-91173254D01*
X129849603Y-91173255D01*
X129708137Y-91256917D01*
X129701969Y-91261702D01*
X129700072Y-91259256D01*
X129651358Y-91285857D01*
X129581666Y-91280873D01*
X129549296Y-91260069D01*
X129548031Y-91261702D01*
X129541862Y-91256917D01*
X129441670Y-91197664D01*
X129400398Y-91173256D01*
X129400397Y-91173255D01*
X129400396Y-91173255D01*
X129400393Y-91173254D01*
X129242573Y-91127402D01*
X129242567Y-91127401D01*
X129205701Y-91124500D01*
X129205694Y-91124500D01*
X128774306Y-91124500D01*
X128774298Y-91124500D01*
X128737432Y-91127401D01*
X128737426Y-91127402D01*
X128579606Y-91173254D01*
X128579603Y-91173255D01*
X128438137Y-91256917D01*
X128438129Y-91256923D01*
X128321923Y-91373129D01*
X128321917Y-91373137D01*
X128238255Y-91514603D01*
X128238254Y-91514606D01*
X128192402Y-91672426D01*
X128192401Y-91672432D01*
X128189500Y-91709298D01*
X128189500Y-92381953D01*
X128169815Y-92448992D01*
X128117011Y-92494747D01*
X128047853Y-92504691D01*
X128018053Y-92496516D01*
X128010204Y-92493265D01*
X128010197Y-92493263D01*
X128010195Y-92493262D01*
X128010189Y-92493261D01*
X127855545Y-92462500D01*
X127855542Y-92462500D01*
X127697858Y-92462500D01*
X127697855Y-92462500D01*
X127543210Y-92493261D01*
X127543198Y-92493264D01*
X127397527Y-92553602D01*
X127397514Y-92553609D01*
X127266411Y-92641210D01*
X127266407Y-92641213D01*
X127154913Y-92752707D01*
X127154910Y-92752711D01*
X127067309Y-92883814D01*
X127067302Y-92883827D01*
X127006964Y-93029498D01*
X127006961Y-93029510D01*
X126976200Y-93184153D01*
X126976200Y-93341842D01*
X126982147Y-93371743D01*
X126979126Y-93405482D01*
X126976711Y-93439266D01*
X126976020Y-93440188D01*
X126975918Y-93441334D01*
X126955142Y-93468077D01*
X126934839Y-93495199D01*
X126933760Y-93495601D01*
X126933054Y-93496511D01*
X126901108Y-93507779D01*
X126869375Y-93519616D01*
X126868249Y-93519371D01*
X126867164Y-93519754D01*
X126834206Y-93511965D01*
X126801102Y-93504764D01*
X126799888Y-93503855D01*
X126799167Y-93503685D01*
X126772848Y-93483613D01*
X126632490Y-93343255D01*
X126632488Y-93343252D01*
X126513617Y-93224381D01*
X126513616Y-93224380D01*
X126410274Y-93164716D01*
X126410273Y-93164715D01*
X126376683Y-93145322D01*
X126320781Y-93130343D01*
X126223957Y-93104399D01*
X126065843Y-93104399D01*
X126058247Y-93104399D01*
X126058231Y-93104400D01*
X122199000Y-93104400D01*
X122131961Y-93084715D01*
X122086206Y-93031911D01*
X122075000Y-92980400D01*
X122075000Y-92800000D01*
X121424000Y-92800000D01*
X121356961Y-92780315D01*
X121311206Y-92727511D01*
X121300000Y-92676000D01*
X121300000Y-92550000D01*
X121174000Y-92550000D01*
X121106961Y-92530315D01*
X121061206Y-92477511D01*
X121050000Y-92426000D01*
X121050000Y-91256324D01*
X121550000Y-91256324D01*
X121550000Y-92300000D01*
X122074999Y-92300000D01*
X122074999Y-91823128D01*
X122074998Y-91823106D01*
X122072155Y-91786978D01*
X122027220Y-91632310D01*
X122027219Y-91632307D01*
X121945229Y-91493668D01*
X121945223Y-91493660D01*
X121831339Y-91379776D01*
X121831331Y-91379770D01*
X121692692Y-91297780D01*
X121692689Y-91297778D01*
X121550001Y-91256323D01*
X121550000Y-91256324D01*
X121050000Y-91256324D01*
X121049998Y-91256323D01*
X120907310Y-91297778D01*
X120907307Y-91297780D01*
X120768671Y-91379768D01*
X120768659Y-91379777D01*
X120753030Y-91395406D01*
X120691705Y-91428888D01*
X120622014Y-91423901D01*
X120577672Y-91395402D01*
X120561648Y-91379378D01*
X120561636Y-91379369D01*
X120422896Y-91297320D01*
X120422889Y-91297317D01*
X120268102Y-91252346D01*
X120268096Y-91252345D01*
X120231935Y-91249500D01*
X119828077Y-91249500D01*
X119828047Y-91249502D01*
X119798527Y-91251824D01*
X119798079Y-91251730D01*
X119797651Y-91251890D01*
X119763967Y-91244562D01*
X119730150Y-91237457D01*
X119729672Y-91237102D01*
X119729378Y-91237038D01*
X119701126Y-91215890D01*
X119567559Y-91082324D01*
X119567558Y-91082322D01*
X119438317Y-90953081D01*
X119438316Y-90953080D01*
X119351504Y-90902960D01*
X119351504Y-90902959D01*
X119351500Y-90902958D01*
X119301385Y-90874023D01*
X119148657Y-90833099D01*
X118990543Y-90833099D01*
X118982947Y-90833099D01*
X118982931Y-90833100D01*
X114720969Y-90833100D01*
X114720953Y-90833099D01*
X114713357Y-90833099D01*
X114555243Y-90833099D01*
X114466418Y-90856900D01*
X114402510Y-90874024D01*
X114402509Y-90874025D01*
X114352396Y-90902959D01*
X114352395Y-90902960D01*
X114308989Y-90928020D01*
X114265585Y-90953079D01*
X114265582Y-90953081D01*
X114153780Y-91064883D01*
X114153780Y-91064884D01*
X114153778Y-91064886D01*
X114045410Y-91173254D01*
X114003221Y-91215443D01*
X113941898Y-91248927D01*
X113905812Y-91251379D01*
X113881935Y-91249500D01*
X113478077Y-91249500D01*
X113478052Y-91249501D01*
X113441901Y-91252346D01*
X113287110Y-91297317D01*
X113287103Y-91297320D01*
X113148363Y-91379369D01*
X113148351Y-91379378D01*
X113132681Y-91395049D01*
X113071358Y-91428534D01*
X113001666Y-91423550D01*
X112957319Y-91395049D01*
X112941648Y-91379378D01*
X112941636Y-91379369D01*
X112802896Y-91297320D01*
X112802889Y-91297317D01*
X112648102Y-91252346D01*
X112648096Y-91252345D01*
X112611935Y-91249500D01*
X112208077Y-91249500D01*
X112208052Y-91249501D01*
X112171901Y-91252346D01*
X112017110Y-91297317D01*
X112017103Y-91297320D01*
X111878363Y-91379369D01*
X111878351Y-91379378D01*
X111764378Y-91493351D01*
X111764369Y-91493363D01*
X111682320Y-91632103D01*
X111682317Y-91632110D01*
X111637346Y-91786897D01*
X111637345Y-91786903D01*
X111634500Y-91823057D01*
X111634500Y-93276922D01*
X111634501Y-93276947D01*
X111637346Y-93313098D01*
X111682317Y-93467889D01*
X111682320Y-93467896D01*
X111764369Y-93606636D01*
X111764378Y-93606648D01*
X111878351Y-93720621D01*
X111878355Y-93720624D01*
X111878357Y-93720626D01*
X111878360Y-93720627D01*
X111878363Y-93720630D01*
X111967406Y-93773289D01*
X112017106Y-93802681D01*
X112054586Y-93813570D01*
X112171897Y-93847653D01*
X112171900Y-93847653D01*
X112171902Y-93847654D01*
X112208065Y-93850500D01*
X112563902Y-93850499D01*
X112630941Y-93870183D01*
X112651583Y-93886818D01*
X115202584Y-96437819D01*
X115236069Y-96499142D01*
X115231085Y-96568834D01*
X115189213Y-96624767D01*
X115123749Y-96649184D01*
X115114903Y-96649500D01*
X115093713Y-96649500D01*
X115045042Y-96657208D01*
X114883760Y-96682753D01*
X114807477Y-96707539D01*
X114739778Y-96729536D01*
X114681585Y-96748444D01*
X114492179Y-96844951D01*
X114320213Y-96969890D01*
X114169890Y-97120213D01*
X114044949Y-97292182D01*
X114040484Y-97300946D01*
X113992509Y-97351742D01*
X113924688Y-97368536D01*
X113858553Y-97345998D01*
X113819516Y-97300946D01*
X113815050Y-97292182D01*
X113690109Y-97120213D01*
X113539786Y-96969890D01*
X113367820Y-96844951D01*
X113178414Y-96748444D01*
X113178413Y-96748443D01*
X113178412Y-96748443D01*
X112976243Y-96682754D01*
X112976241Y-96682753D01*
X112976240Y-96682753D01*
X112814957Y-96657208D01*
X112766287Y-96649500D01*
X112553713Y-96649500D01*
X112505042Y-96657208D01*
X112343760Y-96682753D01*
X112267477Y-96707539D01*
X112199778Y-96729536D01*
X112141585Y-96748444D01*
X111952179Y-96844951D01*
X111780213Y-96969890D01*
X111629890Y-97120213D01*
X111504949Y-97292182D01*
X111500484Y-97300946D01*
X111452509Y-97351742D01*
X111384688Y-97368536D01*
X111318553Y-97345998D01*
X111279516Y-97300946D01*
X111275050Y-97292182D01*
X111150109Y-97120213D01*
X110999786Y-96969890D01*
X110827820Y-96844951D01*
X110638414Y-96748444D01*
X110638413Y-96748443D01*
X110638412Y-96748443D01*
X110436243Y-96682754D01*
X110436241Y-96682753D01*
X110436240Y-96682753D01*
X110274957Y-96657208D01*
X110226287Y-96649500D01*
X110013713Y-96649500D01*
X109965042Y-96657208D01*
X109803760Y-96682753D01*
X109727477Y-96707539D01*
X109659778Y-96729536D01*
X109601585Y-96748444D01*
X109412179Y-96844951D01*
X109240213Y-96969890D01*
X109089890Y-97120213D01*
X108964949Y-97292182D01*
X108960484Y-97300946D01*
X108912509Y-97351742D01*
X108844688Y-97368536D01*
X108778553Y-97345998D01*
X108739516Y-97300946D01*
X108735050Y-97292182D01*
X108610109Y-97120213D01*
X108459786Y-96969890D01*
X108287820Y-96844951D01*
X108098414Y-96748444D01*
X108098413Y-96748443D01*
X108098412Y-96748443D01*
X107896243Y-96682754D01*
X107896241Y-96682753D01*
X107896240Y-96682753D01*
X107734957Y-96657208D01*
X107686287Y-96649500D01*
X107473713Y-96649500D01*
X107425042Y-96657208D01*
X107263760Y-96682753D01*
X107187477Y-96707539D01*
X107119778Y-96729536D01*
X107061585Y-96748444D01*
X106872179Y-96844951D01*
X106700213Y-96969890D01*
X106549890Y-97120213D01*
X106424949Y-97292182D01*
X106420484Y-97300946D01*
X106372509Y-97351742D01*
X106304688Y-97368536D01*
X106238553Y-97345998D01*
X106199516Y-97300946D01*
X106195050Y-97292182D01*
X106070109Y-97120213D01*
X105919786Y-96969890D01*
X105747820Y-96844951D01*
X105558414Y-96748444D01*
X105558413Y-96748443D01*
X105558412Y-96748443D01*
X105356243Y-96682754D01*
X105356241Y-96682753D01*
X105356240Y-96682753D01*
X105194957Y-96657208D01*
X105146287Y-96649500D01*
X104933713Y-96649500D01*
X104885042Y-96657208D01*
X104723760Y-96682753D01*
X104647477Y-96707539D01*
X104579778Y-96729536D01*
X104521585Y-96748444D01*
X104332179Y-96844951D01*
X104160215Y-96969889D01*
X104046673Y-97083431D01*
X103985350Y-97116915D01*
X103915658Y-97111931D01*
X103859725Y-97070059D01*
X103842810Y-97039082D01*
X103793797Y-96907671D01*
X103793793Y-96907664D01*
X103707547Y-96792455D01*
X103707544Y-96792452D01*
X103592335Y-96706206D01*
X103592328Y-96706202D01*
X103457482Y-96655908D01*
X103457483Y-96655908D01*
X103397883Y-96649501D01*
X103397881Y-96649500D01*
X103397873Y-96649500D01*
X103397864Y-96649500D01*
X101602129Y-96649500D01*
X101602123Y-96649501D01*
X101542516Y-96655908D01*
X101407671Y-96706202D01*
X101407664Y-96706206D01*
X101292455Y-96792452D01*
X101292452Y-96792455D01*
X101223766Y-96884208D01*
X101167832Y-96926079D01*
X101098141Y-96931063D01*
X101036818Y-96897577D01*
X101003334Y-96836254D01*
X101000500Y-96809897D01*
X101000500Y-64124500D01*
X101020185Y-64057461D01*
X101072989Y-64011706D01*
X101124500Y-64000500D01*
X202875500Y-64000500D01*
X202942539Y-64020185D01*
G37*
%TD.AperFunction*%
%TA.AperFunction,Conductor*%
G36*
X144165913Y-90475877D02*
G01*
X144199398Y-90485620D01*
X144199502Y-90485740D01*
X144199655Y-90485785D01*
X144222267Y-90511881D01*
X144245283Y-90538310D01*
X144245306Y-90538469D01*
X144245410Y-90538589D01*
X144250349Y-90572940D01*
X144255397Y-90607444D01*
X144255331Y-90607588D01*
X144255354Y-90607747D01*
X144240861Y-90639480D01*
X144226529Y-90671071D01*
X144226372Y-90671206D01*
X144226329Y-90671303D01*
X144225049Y-90672359D01*
X144199913Y-90694250D01*
X144197311Y-90695931D01*
X144191684Y-90699180D01*
X144190589Y-90700274D01*
X144184282Y-90704350D01*
X144155393Y-90712909D01*
X144127304Y-90723770D01*
X144122244Y-90722732D01*
X144117291Y-90724200D01*
X139484440Y-90724200D01*
X139443519Y-90735164D01*
X139443519Y-90735165D01*
X139407188Y-90744900D01*
X139331714Y-90765123D01*
X139331709Y-90765126D01*
X139194790Y-90844175D01*
X139194782Y-90844181D01*
X137621681Y-92417283D01*
X137560358Y-92450768D01*
X137490666Y-92445784D01*
X137434733Y-92403912D01*
X137410316Y-92338448D01*
X137410000Y-92329602D01*
X137410000Y-91709365D01*
X137409999Y-91709350D01*
X137407100Y-91672510D01*
X137407099Y-91672504D01*
X137361283Y-91514806D01*
X137361282Y-91514803D01*
X137277685Y-91373447D01*
X137277678Y-91373438D01*
X137161561Y-91257321D01*
X137161552Y-91257314D01*
X137020196Y-91173717D01*
X137020193Y-91173716D01*
X136862494Y-91127900D01*
X136862497Y-91127900D01*
X136860000Y-91127703D01*
X136860000Y-92488500D01*
X136840315Y-92555539D01*
X136787511Y-92601294D01*
X136736000Y-92612500D01*
X136484000Y-92612500D01*
X136416961Y-92592815D01*
X136371206Y-92540011D01*
X136360000Y-92488500D01*
X136360000Y-91127703D01*
X136357503Y-91127900D01*
X136199806Y-91173716D01*
X136199803Y-91173717D01*
X136058449Y-91257313D01*
X136052283Y-91262097D01*
X136050389Y-91259655D01*
X136001580Y-91286239D01*
X135931894Y-91281179D01*
X135899227Y-91260159D01*
X135898031Y-91261702D01*
X135891862Y-91256917D01*
X135791670Y-91197664D01*
X135750398Y-91173256D01*
X135750397Y-91173255D01*
X135750396Y-91173255D01*
X135750393Y-91173254D01*
X135592573Y-91127402D01*
X135592567Y-91127401D01*
X135555701Y-91124500D01*
X135555694Y-91124500D01*
X135124306Y-91124500D01*
X135124298Y-91124500D01*
X135087432Y-91127401D01*
X135087426Y-91127402D01*
X134929606Y-91173254D01*
X134929603Y-91173255D01*
X134788137Y-91256917D01*
X134781969Y-91261702D01*
X134780072Y-91259256D01*
X134731358Y-91285857D01*
X134661666Y-91280873D01*
X134629296Y-91260069D01*
X134628031Y-91261702D01*
X134621862Y-91256917D01*
X134521670Y-91197664D01*
X134480398Y-91173256D01*
X134480397Y-91173255D01*
X134480396Y-91173255D01*
X134480393Y-91173254D01*
X134322573Y-91127402D01*
X134322567Y-91127401D01*
X134285701Y-91124500D01*
X134285694Y-91124500D01*
X133854306Y-91124500D01*
X133854298Y-91124500D01*
X133817432Y-91127401D01*
X133817426Y-91127402D01*
X133659606Y-91173254D01*
X133659603Y-91173255D01*
X133518137Y-91256917D01*
X133511969Y-91261702D01*
X133510072Y-91259256D01*
X133461358Y-91285857D01*
X133391666Y-91280873D01*
X133359296Y-91260069D01*
X133358031Y-91261702D01*
X133351862Y-91256917D01*
X133251670Y-91197664D01*
X133210398Y-91173256D01*
X133210397Y-91173255D01*
X133210396Y-91173255D01*
X133210393Y-91173254D01*
X133052573Y-91127402D01*
X133052567Y-91127401D01*
X133015701Y-91124500D01*
X133015694Y-91124500D01*
X132609298Y-91124500D01*
X132579854Y-91115854D01*
X132549872Y-91109332D01*
X132544856Y-91105577D01*
X132542259Y-91104815D01*
X132521621Y-91088185D01*
X132390014Y-90956579D01*
X132356531Y-90895259D01*
X132361515Y-90825567D01*
X132403386Y-90769633D01*
X132468850Y-90745216D01*
X132477697Y-90744900D01*
X134794431Y-90744900D01*
X134794447Y-90744901D01*
X134802043Y-90744901D01*
X134960154Y-90744901D01*
X134960157Y-90744901D01*
X135112885Y-90703977D01*
X135163004Y-90675039D01*
X135249816Y-90624920D01*
X135361620Y-90513116D01*
X135361620Y-90513115D01*
X135372316Y-90502419D01*
X135433639Y-90468934D01*
X135459998Y-90466100D01*
X144132616Y-90466100D01*
X144165913Y-90475877D01*
G37*
%TD.AperFunction*%
%TA.AperFunction,Conductor*%
G36*
X168856547Y-74996701D02*
G01*
X168864143Y-74996701D01*
X168878503Y-74996701D01*
X168945542Y-75016386D01*
X168966184Y-75033020D01*
X169009984Y-75076820D01*
X169009986Y-75076821D01*
X169009990Y-75076824D01*
X169146909Y-75155873D01*
X169146916Y-75155877D01*
X169258719Y-75185834D01*
X169299642Y-75196800D01*
X169299643Y-75196800D01*
X180236203Y-75196800D01*
X180303242Y-75216485D01*
X180323884Y-75233119D01*
X181488584Y-76397819D01*
X181522069Y-76459142D01*
X181517085Y-76528834D01*
X181475213Y-76584767D01*
X181409749Y-76609184D01*
X181400903Y-76609500D01*
X181207648Y-76609500D01*
X181183329Y-76613351D01*
X181005465Y-76641522D01*
X180810776Y-76704781D01*
X180628386Y-76797715D01*
X180462786Y-76918028D01*
X180318028Y-77062786D01*
X180197715Y-77228386D01*
X180150485Y-77321080D01*
X180102510Y-77371876D01*
X180034689Y-77388671D01*
X179968554Y-77366134D01*
X179929515Y-77321080D01*
X179882419Y-77228650D01*
X179882287Y-77228390D01*
X179850092Y-77184077D01*
X179761971Y-77062786D01*
X179617213Y-76918028D01*
X179451613Y-76797715D01*
X179451612Y-76797714D01*
X179451610Y-76797713D01*
X179394653Y-76768691D01*
X179269223Y-76704781D01*
X179074534Y-76641522D01*
X178899995Y-76613878D01*
X178872352Y-76609500D01*
X178667648Y-76609500D01*
X178643329Y-76613351D01*
X178465465Y-76641522D01*
X178270776Y-76704781D01*
X178088386Y-76797715D01*
X177922786Y-76918028D01*
X177778028Y-77062786D01*
X177657715Y-77228386D01*
X177610485Y-77321080D01*
X177562510Y-77371876D01*
X177494689Y-77388671D01*
X177428554Y-77366134D01*
X177389515Y-77321080D01*
X177342419Y-77228650D01*
X177342287Y-77228390D01*
X177310092Y-77184077D01*
X177221971Y-77062786D01*
X177077213Y-76918028D01*
X176911613Y-76797715D01*
X176911612Y-76797714D01*
X176911610Y-76797713D01*
X176854653Y-76768691D01*
X176729223Y-76704781D01*
X176534534Y-76641522D01*
X176359995Y-76613878D01*
X176332352Y-76609500D01*
X176127648Y-76609500D01*
X176103329Y-76613351D01*
X175925465Y-76641522D01*
X175730776Y-76704781D01*
X175548386Y-76797715D01*
X175382786Y-76918028D01*
X175238028Y-77062786D01*
X175117713Y-77228388D01*
X175070203Y-77321630D01*
X175022228Y-77372426D01*
X174954407Y-77389220D01*
X174888272Y-77366682D01*
X174849234Y-77321628D01*
X174801861Y-77228652D01*
X174769474Y-77184077D01*
X174769474Y-77184076D01*
X174090000Y-77863551D01*
X174090000Y-77857339D01*
X174062741Y-77755606D01*
X174010080Y-77664394D01*
X173935606Y-77589920D01*
X173844394Y-77537259D01*
X173742661Y-77510000D01*
X173736446Y-77510000D01*
X174415922Y-76830524D01*
X174415921Y-76830523D01*
X174371359Y-76798147D01*
X174371350Y-76798141D01*
X174189031Y-76705244D01*
X173994417Y-76642009D01*
X173792317Y-76610000D01*
X173587683Y-76610000D01*
X173385582Y-76642009D01*
X173190968Y-76705244D01*
X173008644Y-76798143D01*
X172964077Y-76830523D01*
X172964077Y-76830524D01*
X173643554Y-77510000D01*
X173637339Y-77510000D01*
X173535606Y-77537259D01*
X173444394Y-77589920D01*
X173369920Y-77664394D01*
X173317259Y-77755606D01*
X173290000Y-77857339D01*
X173290000Y-77863553D01*
X172610524Y-77184077D01*
X172610523Y-77184077D01*
X172578143Y-77228644D01*
X172530765Y-77321630D01*
X172482790Y-77372426D01*
X172414969Y-77389221D01*
X172348834Y-77366683D01*
X172309795Y-77321630D01*
X172262284Y-77228385D01*
X172141971Y-77062786D01*
X171997213Y-76918028D01*
X171831613Y-76797715D01*
X171831612Y-76797714D01*
X171831610Y-76797713D01*
X171774653Y-76768691D01*
X171649223Y-76704781D01*
X171454534Y-76641522D01*
X171279995Y-76613878D01*
X171252352Y-76609500D01*
X171047648Y-76609500D01*
X171023329Y-76613351D01*
X170845465Y-76641522D01*
X170650776Y-76704781D01*
X170468387Y-76797714D01*
X170338988Y-76891726D01*
X170273181Y-76915205D01*
X170205128Y-76899379D01*
X170178423Y-76879088D01*
X168507717Y-75208382D01*
X168474232Y-75147059D01*
X168479216Y-75077367D01*
X168521088Y-75021434D01*
X168586552Y-74997017D01*
X168595398Y-74996701D01*
X168697253Y-74996701D01*
X168697269Y-74996700D01*
X168856531Y-74996700D01*
X168856547Y-74996701D01*
G37*
%TD.AperFunction*%
%TA.AperFunction,Conductor*%
G36*
X110638875Y-73928493D02*
G01*
X110704701Y-74042507D01*
X110797793Y-74135599D01*
X110911807Y-74201425D01*
X110975389Y-74218462D01*
X110343082Y-74850769D01*
X110343082Y-74850770D01*
X110397249Y-74890124D01*
X110586582Y-74986595D01*
X110788670Y-75052257D01*
X110998554Y-75085500D01*
X111211046Y-75085500D01*
X111420927Y-75052257D01*
X111420930Y-75052257D01*
X111623017Y-74986595D01*
X111812357Y-74890120D01*
X111983219Y-74765983D01*
X112049025Y-74742503D01*
X112117079Y-74758328D01*
X112143785Y-74778620D01*
X112888084Y-75522919D01*
X112921569Y-75584242D01*
X112916585Y-75653934D01*
X112874713Y-75709867D01*
X112809249Y-75734284D01*
X112800403Y-75734600D01*
X104257797Y-75734600D01*
X104190758Y-75714915D01*
X104170116Y-75698281D01*
X103769016Y-75297181D01*
X103735531Y-75235858D01*
X103740515Y-75166166D01*
X103782387Y-75110233D01*
X103847851Y-75085816D01*
X103856697Y-75085500D01*
X104382628Y-75085500D01*
X104382644Y-75085499D01*
X104442172Y-75079098D01*
X104442179Y-75079096D01*
X104576886Y-75028854D01*
X104576893Y-75028850D01*
X104691987Y-74942690D01*
X104691990Y-74942687D01*
X104778150Y-74827593D01*
X104778154Y-74827586D01*
X104800329Y-74768132D01*
X104839119Y-74594890D01*
X104839482Y-74594234D01*
X104839442Y-74593484D01*
X104872442Y-74534302D01*
X105541837Y-73864908D01*
X105558875Y-73928493D01*
X105624701Y-74042507D01*
X105717793Y-74135599D01*
X105831807Y-74201425D01*
X105895390Y-74218462D01*
X105263082Y-74850769D01*
X105263082Y-74850770D01*
X105317249Y-74890124D01*
X105506582Y-74986595D01*
X105708670Y-75052257D01*
X105918554Y-75085500D01*
X106131046Y-75085500D01*
X106340927Y-75052257D01*
X106340930Y-75052257D01*
X106543017Y-74986595D01*
X106732354Y-74890122D01*
X106786516Y-74850770D01*
X106786517Y-74850770D01*
X106154208Y-74218462D01*
X106217793Y-74201425D01*
X106331807Y-74135599D01*
X106424899Y-74042507D01*
X106490725Y-73928493D01*
X106507762Y-73864909D01*
X107140070Y-74497217D01*
X107140070Y-74497216D01*
X107179422Y-74443054D01*
X107184314Y-74433454D01*
X107232288Y-74382657D01*
X107300108Y-74365861D01*
X107366244Y-74388397D01*
X107405286Y-74433454D01*
X107410175Y-74443050D01*
X107449528Y-74497216D01*
X108081837Y-73864908D01*
X108098875Y-73928493D01*
X108164701Y-74042507D01*
X108257793Y-74135599D01*
X108371807Y-74201425D01*
X108435390Y-74218462D01*
X107803082Y-74850769D01*
X107803082Y-74850770D01*
X107857249Y-74890124D01*
X108046582Y-74986595D01*
X108248670Y-75052257D01*
X108458554Y-75085500D01*
X108671046Y-75085500D01*
X108880927Y-75052257D01*
X108880930Y-75052257D01*
X109083017Y-74986595D01*
X109272354Y-74890122D01*
X109326516Y-74850770D01*
X109326517Y-74850770D01*
X108694208Y-74218462D01*
X108757793Y-74201425D01*
X108871807Y-74135599D01*
X108964899Y-74042507D01*
X109030725Y-73928493D01*
X109047762Y-73864909D01*
X109680070Y-74497217D01*
X109680070Y-74497216D01*
X109719422Y-74443054D01*
X109724314Y-74433454D01*
X109772288Y-74382657D01*
X109840108Y-74365861D01*
X109906244Y-74388397D01*
X109945286Y-74433454D01*
X109950175Y-74443050D01*
X109989528Y-74497216D01*
X110621837Y-73864908D01*
X110638875Y-73928493D01*
G37*
%TD.AperFunction*%
%TA.AperFunction,Conductor*%
G36*
X118258875Y-73928493D02*
G01*
X118324701Y-74042507D01*
X118417793Y-74135599D01*
X118531807Y-74201425D01*
X118595390Y-74218462D01*
X117963082Y-74850769D01*
X117963082Y-74850770D01*
X118017249Y-74890124D01*
X118206582Y-74986595D01*
X118408670Y-75052257D01*
X118614766Y-75084900D01*
X118834834Y-75084900D01*
X119040927Y-75052257D01*
X119040930Y-75052257D01*
X119243017Y-74986595D01*
X119432354Y-74890122D01*
X119486516Y-74850770D01*
X119486517Y-74850770D01*
X118854208Y-74218462D01*
X118917793Y-74201425D01*
X119031807Y-74135599D01*
X119124899Y-74042507D01*
X119190725Y-73928493D01*
X119207762Y-73864908D01*
X119357980Y-74015126D01*
X119391465Y-74076449D01*
X119394299Y-74102807D01*
X119394299Y-74180454D01*
X119394298Y-74180454D01*
X119435224Y-74333187D01*
X119450646Y-74359898D01*
X119450647Y-74359900D01*
X119514277Y-74470112D01*
X119514281Y-74470117D01*
X119633149Y-74588985D01*
X119633155Y-74588990D01*
X120165384Y-75121219D01*
X120198869Y-75182542D01*
X120193885Y-75252234D01*
X120152013Y-75308167D01*
X120086549Y-75332584D01*
X120077703Y-75332900D01*
X116303538Y-75332900D01*
X116236499Y-75313215D01*
X116190744Y-75260411D01*
X116186859Y-75233392D01*
X116187035Y-75236129D01*
X116153110Y-75297210D01*
X116091547Y-75330253D01*
X116066062Y-75332900D01*
X114447897Y-75332900D01*
X114380858Y-75313215D01*
X114360216Y-75296581D01*
X114208983Y-75145348D01*
X114175498Y-75084025D01*
X114180482Y-75014333D01*
X114222354Y-74958400D01*
X114240369Y-74947182D01*
X114352354Y-74890122D01*
X114406516Y-74850770D01*
X114406517Y-74850770D01*
X113774209Y-74218462D01*
X113837793Y-74201425D01*
X113951807Y-74135599D01*
X114044899Y-74042507D01*
X114110725Y-73928493D01*
X114127762Y-73864909D01*
X114760070Y-74497217D01*
X114760070Y-74497216D01*
X114799422Y-74443054D01*
X114804314Y-74433454D01*
X114852288Y-74382657D01*
X114920108Y-74365861D01*
X114986244Y-74388397D01*
X115025286Y-74433454D01*
X115030175Y-74443050D01*
X115069528Y-74497216D01*
X115701837Y-73864908D01*
X115718875Y-73928493D01*
X115784701Y-74042507D01*
X115877793Y-74135599D01*
X115991807Y-74201425D01*
X116055390Y-74218462D01*
X115423082Y-74850769D01*
X115423082Y-74850770D01*
X115477249Y-74890124D01*
X115666582Y-74986595D01*
X115868670Y-75052257D01*
X116083365Y-75086262D01*
X116083080Y-75088058D01*
X116141085Y-75110170D01*
X116182553Y-75166404D01*
X116183736Y-75184822D01*
X116209825Y-75127697D01*
X116268603Y-75089923D01*
X116286298Y-75086664D01*
X116286235Y-75086262D01*
X116500927Y-75052257D01*
X116500930Y-75052257D01*
X116703017Y-74986595D01*
X116892354Y-74890122D01*
X116946516Y-74850770D01*
X116946517Y-74850770D01*
X116314208Y-74218462D01*
X116377793Y-74201425D01*
X116491807Y-74135599D01*
X116584899Y-74042507D01*
X116650725Y-73928493D01*
X116667762Y-73864908D01*
X117300070Y-74497217D01*
X117300070Y-74497216D01*
X117339422Y-74443054D01*
X117344314Y-74433454D01*
X117392288Y-74382657D01*
X117460108Y-74365861D01*
X117526244Y-74388397D01*
X117565286Y-74433454D01*
X117570175Y-74443050D01*
X117609528Y-74497216D01*
X118241836Y-73864907D01*
X118258875Y-73928493D01*
G37*
%TD.AperFunction*%
%TA.AperFunction,Conductor*%
G36*
X146221042Y-73087185D02*
G01*
X146241684Y-73103819D01*
X147212883Y-74075019D01*
X147246368Y-74136342D01*
X147241384Y-74206034D01*
X147199512Y-74261967D01*
X147134048Y-74286384D01*
X147125202Y-74286700D01*
X145535850Y-74286700D01*
X145468811Y-74267015D01*
X145423056Y-74214211D01*
X145413112Y-74145053D01*
X145417919Y-74124382D01*
X145441557Y-74051630D01*
X145441557Y-74051627D01*
X145474800Y-73841746D01*
X145474800Y-73629253D01*
X145441557Y-73419372D01*
X145441557Y-73419369D01*
X145379968Y-73229818D01*
X145377973Y-73159977D01*
X145414053Y-73100144D01*
X145476754Y-73069316D01*
X145497899Y-73067500D01*
X146154003Y-73067500D01*
X146221042Y-73087185D01*
G37*
%TD.AperFunction*%
%TA.AperFunction,Conductor*%
G36*
X104826244Y-71849499D02*
G01*
X104865284Y-71894554D01*
X104869391Y-71902615D01*
X104869751Y-71903320D01*
X104994690Y-72075286D01*
X105145013Y-72225609D01*
X105316979Y-72350548D01*
X105316981Y-72350549D01*
X105316984Y-72350551D01*
X105326293Y-72355294D01*
X105377090Y-72403266D01*
X105393887Y-72471087D01*
X105371352Y-72537222D01*
X105326305Y-72576260D01*
X105317246Y-72580876D01*
X105317240Y-72580880D01*
X105263082Y-72620227D01*
X105263082Y-72620228D01*
X105895391Y-73252537D01*
X105831807Y-73269575D01*
X105717793Y-73335401D01*
X105624701Y-73428493D01*
X105558875Y-73542507D01*
X105541837Y-73606091D01*
X104872442Y-72936696D01*
X104838957Y-72875373D01*
X104839877Y-72860666D01*
X104837301Y-72860944D01*
X104828396Y-72778119D01*
X104778154Y-72643413D01*
X104778150Y-72643406D01*
X104691990Y-72528312D01*
X104691987Y-72528309D01*
X104576893Y-72442149D01*
X104576888Y-72442146D01*
X104445328Y-72393077D01*
X104389395Y-72351205D01*
X104364978Y-72285741D01*
X104379830Y-72217468D01*
X104400975Y-72189220D01*
X104514904Y-72075292D01*
X104517191Y-72072145D01*
X104615570Y-71936736D01*
X104639851Y-71903316D01*
X104644314Y-71894554D01*
X104692288Y-71843759D01*
X104760108Y-71826963D01*
X104826244Y-71849499D01*
G37*
%TD.AperFunction*%
%TA.AperFunction,Conductor*%
G36*
X107366244Y-71849499D02*
G01*
X107405284Y-71894554D01*
X107409391Y-71902615D01*
X107409751Y-71903320D01*
X107534690Y-72075286D01*
X107685013Y-72225609D01*
X107856979Y-72350548D01*
X107856981Y-72350549D01*
X107856984Y-72350551D01*
X107866293Y-72355294D01*
X107917090Y-72403266D01*
X107933887Y-72471087D01*
X107911352Y-72537222D01*
X107866305Y-72576260D01*
X107857246Y-72580876D01*
X107857240Y-72580880D01*
X107803082Y-72620227D01*
X107803082Y-72620228D01*
X108435391Y-73252537D01*
X108371807Y-73269575D01*
X108257793Y-73335401D01*
X108164701Y-73428493D01*
X108098875Y-73542507D01*
X108081837Y-73606091D01*
X107449528Y-72973782D01*
X107449527Y-72973782D01*
X107410180Y-73027940D01*
X107405283Y-73037551D01*
X107357306Y-73088345D01*
X107289484Y-73105138D01*
X107223350Y-73082598D01*
X107184316Y-73037548D01*
X107179426Y-73027952D01*
X107140070Y-72973782D01*
X107140069Y-72973782D01*
X106507762Y-73606090D01*
X106490725Y-73542507D01*
X106424899Y-73428493D01*
X106331807Y-73335401D01*
X106217793Y-73269575D01*
X106154209Y-73252537D01*
X106786516Y-72620228D01*
X106732347Y-72580873D01*
X106732347Y-72580872D01*
X106723300Y-72576263D01*
X106672506Y-72528288D01*
X106655712Y-72460466D01*
X106678251Y-72394332D01*
X106723308Y-72355293D01*
X106732616Y-72350551D01*
X106826399Y-72282414D01*
X106904586Y-72225609D01*
X106904588Y-72225606D01*
X106904592Y-72225604D01*
X107054904Y-72075292D01*
X107054906Y-72075288D01*
X107054909Y-72075286D01*
X107179848Y-71903320D01*
X107179847Y-71903320D01*
X107179851Y-71903316D01*
X107184314Y-71894554D01*
X107232288Y-71843759D01*
X107300108Y-71826963D01*
X107366244Y-71849499D01*
G37*
%TD.AperFunction*%
%TA.AperFunction,Conductor*%
G36*
X109906244Y-71849499D02*
G01*
X109945284Y-71894554D01*
X109949391Y-71902615D01*
X109949751Y-71903320D01*
X110074690Y-72075286D01*
X110225013Y-72225609D01*
X110396979Y-72350548D01*
X110396981Y-72350549D01*
X110396984Y-72350551D01*
X110406293Y-72355294D01*
X110457090Y-72403266D01*
X110473887Y-72471087D01*
X110451352Y-72537222D01*
X110406305Y-72576260D01*
X110397246Y-72580876D01*
X110397240Y-72580880D01*
X110343082Y-72620227D01*
X110343082Y-72620228D01*
X110975391Y-73252537D01*
X110911807Y-73269575D01*
X110797793Y-73335401D01*
X110704701Y-73428493D01*
X110638875Y-73542507D01*
X110621837Y-73606091D01*
X109989528Y-72973782D01*
X109989527Y-72973782D01*
X109950180Y-73027940D01*
X109945283Y-73037551D01*
X109897306Y-73088345D01*
X109829484Y-73105138D01*
X109763350Y-73082598D01*
X109724316Y-73037548D01*
X109719426Y-73027952D01*
X109680070Y-72973782D01*
X109680069Y-72973782D01*
X109047762Y-73606090D01*
X109030725Y-73542507D01*
X108964899Y-73428493D01*
X108871807Y-73335401D01*
X108757793Y-73269575D01*
X108694209Y-73252537D01*
X109326516Y-72620228D01*
X109272347Y-72580873D01*
X109272347Y-72580872D01*
X109263300Y-72576263D01*
X109212506Y-72528288D01*
X109195712Y-72460466D01*
X109218251Y-72394332D01*
X109263308Y-72355293D01*
X109272616Y-72350551D01*
X109366399Y-72282414D01*
X109444586Y-72225609D01*
X109444588Y-72225606D01*
X109444592Y-72225604D01*
X109594904Y-72075292D01*
X109594906Y-72075288D01*
X109594909Y-72075286D01*
X109719848Y-71903320D01*
X109719847Y-71903320D01*
X109719851Y-71903316D01*
X109724314Y-71894554D01*
X109772288Y-71843759D01*
X109840108Y-71826963D01*
X109906244Y-71849499D01*
G37*
%TD.AperFunction*%
%TA.AperFunction,Conductor*%
G36*
X114986244Y-71849499D02*
G01*
X115025284Y-71894554D01*
X115029391Y-71902615D01*
X115029751Y-71903320D01*
X115154690Y-72075286D01*
X115305013Y-72225609D01*
X115476979Y-72350548D01*
X115476981Y-72350549D01*
X115476984Y-72350551D01*
X115486293Y-72355294D01*
X115537090Y-72403266D01*
X115553887Y-72471087D01*
X115531352Y-72537222D01*
X115486305Y-72576260D01*
X115477246Y-72580876D01*
X115477240Y-72580880D01*
X115423082Y-72620227D01*
X115423082Y-72620228D01*
X116055391Y-73252537D01*
X115991807Y-73269575D01*
X115877793Y-73335401D01*
X115784701Y-73428493D01*
X115718875Y-73542507D01*
X115701837Y-73606091D01*
X115069528Y-72973782D01*
X115069527Y-72973782D01*
X115030180Y-73027940D01*
X115025283Y-73037551D01*
X114977306Y-73088345D01*
X114909484Y-73105138D01*
X114843350Y-73082598D01*
X114804316Y-73037548D01*
X114799426Y-73027952D01*
X114760070Y-72973782D01*
X114127762Y-73606090D01*
X114110725Y-73542507D01*
X114044899Y-73428493D01*
X113951807Y-73335401D01*
X113837793Y-73269575D01*
X113774207Y-73252536D01*
X114406516Y-72620228D01*
X114352347Y-72580873D01*
X114352347Y-72580872D01*
X114343300Y-72576263D01*
X114292506Y-72528288D01*
X114275712Y-72460466D01*
X114298251Y-72394332D01*
X114343308Y-72355293D01*
X114352616Y-72350551D01*
X114446399Y-72282414D01*
X114524586Y-72225609D01*
X114524588Y-72225606D01*
X114524592Y-72225604D01*
X114674904Y-72075292D01*
X114674906Y-72075288D01*
X114674909Y-72075286D01*
X114799848Y-71903320D01*
X114799847Y-71903320D01*
X114799851Y-71903316D01*
X114804314Y-71894554D01*
X114852288Y-71843759D01*
X114920108Y-71826963D01*
X114986244Y-71849499D01*
G37*
%TD.AperFunction*%
%TA.AperFunction,Conductor*%
G36*
X120066244Y-71849499D02*
G01*
X120105284Y-71894554D01*
X120109391Y-71902615D01*
X120109751Y-71903320D01*
X120234690Y-72075286D01*
X120385013Y-72225609D01*
X120556979Y-72350548D01*
X120556981Y-72350549D01*
X120556984Y-72350551D01*
X120566293Y-72355294D01*
X120617090Y-72403266D01*
X120633887Y-72471087D01*
X120611352Y-72537222D01*
X120566305Y-72576260D01*
X120557246Y-72580876D01*
X120557240Y-72580880D01*
X120503082Y-72620227D01*
X120503082Y-72620228D01*
X121135391Y-73252537D01*
X121071807Y-73269575D01*
X120957793Y-73335401D01*
X120864701Y-73428493D01*
X120798875Y-73542507D01*
X120781837Y-73606091D01*
X120631619Y-73455873D01*
X120598134Y-73394550D01*
X120595300Y-73368192D01*
X120595300Y-73238045D01*
X120595299Y-73238039D01*
X120593096Y-73229818D01*
X120591747Y-73224781D01*
X120554377Y-73085315D01*
X120494901Y-72982300D01*
X120475320Y-72948384D01*
X120363516Y-72836580D01*
X120363513Y-72836578D01*
X119765543Y-72238608D01*
X119732058Y-72177285D01*
X119737042Y-72107593D01*
X119752906Y-72078042D01*
X119791516Y-72024900D01*
X119879851Y-71903316D01*
X119884314Y-71894554D01*
X119932288Y-71843759D01*
X120000108Y-71826963D01*
X120066244Y-71849499D01*
G37*
%TD.AperFunction*%
%TA.AperFunction,Conductor*%
G36*
X127972705Y-72207742D02*
G01*
X128002256Y-72223605D01*
X128174568Y-72348796D01*
X128176984Y-72350551D01*
X128187999Y-72356163D01*
X128189639Y-72357063D01*
X128213012Y-72380527D01*
X128237090Y-72403266D01*
X128237562Y-72405172D01*
X128238948Y-72406564D01*
X128245926Y-72438946D01*
X128253887Y-72471087D01*
X128253253Y-72472944D01*
X128253668Y-72474866D01*
X128242029Y-72505886D01*
X128231352Y-72537222D01*
X128229752Y-72538608D01*
X128229124Y-72540283D01*
X128219786Y-72547244D01*
X128186305Y-72576260D01*
X128177246Y-72580876D01*
X128177240Y-72580880D01*
X128123082Y-72620227D01*
X128123082Y-72620228D01*
X128755391Y-73252537D01*
X128691807Y-73269575D01*
X128577793Y-73335401D01*
X128484701Y-73428493D01*
X128418875Y-73542507D01*
X128401837Y-73606091D01*
X127769528Y-72973782D01*
X127769527Y-72973782D01*
X127730180Y-73027940D01*
X127725283Y-73037551D01*
X127677306Y-73088345D01*
X127609484Y-73105138D01*
X127543350Y-73082598D01*
X127519811Y-73060959D01*
X127452777Y-72981074D01*
X126827762Y-73606089D01*
X126810725Y-73542507D01*
X126744899Y-73428493D01*
X126651807Y-73335401D01*
X126537793Y-73269575D01*
X126474208Y-73252537D01*
X126741226Y-72985520D01*
X126802549Y-72952035D01*
X126828907Y-72949201D01*
X126959054Y-72949201D01*
X126959057Y-72949201D01*
X127111785Y-72908277D01*
X127161904Y-72879339D01*
X127248716Y-72829220D01*
X127360520Y-72717416D01*
X127360520Y-72717414D01*
X127370728Y-72707207D01*
X127370730Y-72707204D01*
X127841692Y-72236241D01*
X127903013Y-72202758D01*
X127972705Y-72207742D01*
G37*
%TD.AperFunction*%
%TA.AperFunction,Conductor*%
G36*
X176772443Y-69202000D02*
G01*
X176930557Y-69202000D01*
X180052808Y-69202000D01*
X180119847Y-69221685D01*
X180165602Y-69274489D01*
X180176166Y-69338599D01*
X180175001Y-69350004D01*
X180175000Y-69350026D01*
X180175000Y-69487500D01*
X181276000Y-69487500D01*
X181343039Y-69507185D01*
X181388794Y-69559989D01*
X181400000Y-69611500D01*
X181400000Y-69737500D01*
X181526000Y-69737500D01*
X181593039Y-69757185D01*
X181638794Y-69809989D01*
X181650000Y-69861500D01*
X181650000Y-70824999D01*
X181924972Y-70824999D01*
X181924986Y-70824998D01*
X182027697Y-70814505D01*
X182194119Y-70759358D01*
X182194124Y-70759356D01*
X182343345Y-70667315D01*
X182467317Y-70543343D01*
X182544961Y-70417462D01*
X182596909Y-70370737D01*
X182665871Y-70359514D01*
X182729954Y-70387357D01*
X182768810Y-70445426D01*
X182774500Y-70482558D01*
X182774500Y-71271098D01*
X182780568Y-71337882D01*
X182780571Y-71337893D01*
X182828467Y-71491598D01*
X182828468Y-71491600D01*
X182828469Y-71491602D01*
X182855901Y-71536980D01*
X182857243Y-71539199D01*
X182875079Y-71606753D01*
X182853562Y-71673227D01*
X182799521Y-71717515D01*
X182730116Y-71725556D01*
X182726935Y-71724966D01*
X182624046Y-71704500D01*
X182624042Y-71704500D01*
X182466358Y-71704500D01*
X182466355Y-71704500D01*
X182311710Y-71735261D01*
X182311698Y-71735264D01*
X182166027Y-71795602D01*
X182166014Y-71795609D01*
X182034325Y-71883602D01*
X181967647Y-71904480D01*
X181965434Y-71904500D01*
X181110170Y-71904500D01*
X181062720Y-71895062D01*
X181061498Y-71894556D01*
X181054997Y-71891863D01*
X181054988Y-71891860D01*
X180900345Y-71861100D01*
X180900342Y-71861100D01*
X180742658Y-71861100D01*
X180742655Y-71861100D01*
X180588010Y-71891861D01*
X180587998Y-71891864D01*
X180442327Y-71952202D01*
X180442314Y-71952209D01*
X180311211Y-72039810D01*
X180311207Y-72039813D01*
X180199713Y-72151307D01*
X180199710Y-72151311D01*
X180112109Y-72282414D01*
X180112102Y-72282427D01*
X180051764Y-72428098D01*
X180051761Y-72428110D01*
X180020999Y-72582754D01*
X180020646Y-72586350D01*
X180019934Y-72588113D01*
X180019811Y-72588732D01*
X180019693Y-72588708D01*
X179994488Y-72651138D01*
X179937455Y-72691499D01*
X179897243Y-72698200D01*
X176302170Y-72698200D01*
X176302154Y-72698199D01*
X176294558Y-72698199D01*
X176136443Y-72698199D01*
X176064737Y-72717413D01*
X175983714Y-72739123D01*
X175983713Y-72739124D01*
X175920387Y-72775686D01*
X175904899Y-72779835D01*
X175893325Y-72787275D01*
X175858393Y-72792298D01*
X175858390Y-72792299D01*
X175823943Y-72792299D01*
X175823939Y-72792299D01*
X175816334Y-72792300D01*
X175816333Y-72792299D01*
X175816331Y-72792300D01*
X175708597Y-72792300D01*
X175641558Y-72772615D01*
X175595803Y-72719811D01*
X175585859Y-72650653D01*
X175614884Y-72587097D01*
X175620916Y-72580619D01*
X176234716Y-71966818D01*
X176296039Y-71933333D01*
X176322397Y-71930499D01*
X176416097Y-71930499D01*
X176482882Y-71924431D01*
X176482885Y-71924430D01*
X176482887Y-71924430D01*
X176636602Y-71876531D01*
X176774388Y-71793236D01*
X176888236Y-71679388D01*
X176971531Y-71541602D01*
X177019430Y-71387887D01*
X177025500Y-71321091D01*
X177025499Y-70124986D01*
X180175001Y-70124986D01*
X180185494Y-70227697D01*
X180240641Y-70394119D01*
X180240643Y-70394124D01*
X180332684Y-70543345D01*
X180456654Y-70667315D01*
X180605875Y-70759356D01*
X180605880Y-70759358D01*
X180772302Y-70814505D01*
X180772309Y-70814506D01*
X180875019Y-70824999D01*
X181149999Y-70824999D01*
X181150000Y-70824998D01*
X181150000Y-69987500D01*
X180175001Y-69987500D01*
X180175001Y-70124986D01*
X177025499Y-70124986D01*
X177025499Y-69978910D01*
X177025499Y-69978909D01*
X177025499Y-69978901D01*
X177022633Y-69947358D01*
X177019431Y-69912117D01*
X177019428Y-69912106D01*
X176971532Y-69758401D01*
X176971531Y-69758400D01*
X176971531Y-69758398D01*
X176888236Y-69620612D01*
X176888234Y-69620610D01*
X176888233Y-69620608D01*
X176774391Y-69506766D01*
X176760899Y-69498610D01*
X176636602Y-69423469D01*
X176620286Y-69418384D01*
X176592849Y-69400106D01*
X176564829Y-69382751D01*
X176563912Y-69380828D01*
X176562140Y-69379648D01*
X176548940Y-69349437D01*
X176534751Y-69319687D01*
X176535018Y-69317574D01*
X176534166Y-69315623D01*
X176539395Y-69283068D01*
X176543542Y-69250372D01*
X176544909Y-69248739D01*
X176545247Y-69246638D01*
X176567236Y-69222089D01*
X176588412Y-69196814D01*
X176590970Y-69195593D01*
X176591866Y-69194594D01*
X176620268Y-69181621D01*
X176621150Y-69181346D01*
X176690151Y-69179950D01*
X176772443Y-69202000D01*
G37*
%TD.AperFunction*%
%TD*%
M02*
