%TF.GenerationSoftware,KiCad,Pcbnew,9.0.7*%
%TF.CreationDate,2026-09-04T15:08:01-07:00*%
%TF.ProjectId,RC2014-512K-RAMROM-V2,52433230-3134-42d3-9531-324b2d52414d,rev?*%
%TF.SameCoordinates,Original*%
%TF.FileFunction,Soldermask,Top*%
%TF.FilePolarity,Negative*%
%FSLAX46Y46*%
G04 Gerber Fmt 4.6, Leading zero omitted, Abs format (unit mm)*
G04 Created by KiCad (PCBNEW 9.0.7) date 2026-09-04 15:08:01*
%MOMM*%
%LPD*%
G01*
G04 APERTURE LIST*
G04 Aperture macros list*
%AMRoundRect*
0 Rectangle with rounded corners*
0 $1 Rounding radius*
0 $2 $3 $4 $5 $6 $7 $8 $9 X,Y pos of 4 corners*
0 Add a 4 corners polygon primitive as box body*
4,1,4,$2,$3,$4,$5,$6,$7,$8,$9,$2,$3,0*
0 Add four circle primitives for the rounded corners*
1,1,$1+$1,$2,$3*
1,1,$1+$1,$4,$5*
1,1,$1+$1,$6,$7*
1,1,$1+$1,$8,$9*
0 Add four rect primitives between the rounded corners*
20,1,$1+$1,$2,$3,$4,$5,0*
20,1,$1+$1,$4,$5,$6,$7,0*
20,1,$1+$1,$6,$7,$8,$9,0*
20,1,$1+$1,$8,$9,$2,$3,0*%
G04 Aperture macros list end*
%ADD10RoundRect,0.137500X0.137500X-0.662500X0.137500X0.662500X-0.137500X0.662500X-0.137500X-0.662500X0*%
%ADD11RoundRect,0.250000X-0.475000X0.337500X-0.475000X-0.337500X0.475000X-0.337500X0.475000X0.337500X0*%
%ADD12R,0.300000X1.600000*%
%ADD13RoundRect,0.150000X0.150000X-0.875000X0.150000X0.875000X-0.150000X0.875000X-0.150000X-0.875000X0*%
%ADD14R,1.700000X1.700000*%
%ADD15C,1.700000*%
%ADD16RoundRect,0.150000X-1.050000X-0.150000X1.050000X-0.150000X1.050000X0.150000X-1.050000X0.150000X0*%
G04 APERTURE END LIST*
D10*
%TO.C,U3*%
X117755000Y-116250000D03*
X119025000Y-116250000D03*
X120295000Y-116250000D03*
X121565000Y-116250000D03*
X122835000Y-116250000D03*
X124105000Y-116250000D03*
X125375000Y-116250000D03*
X126645000Y-116250000D03*
X126645000Y-109750000D03*
X125375000Y-109750000D03*
X124105000Y-109750000D03*
X122835000Y-109750000D03*
X121565000Y-109750000D03*
X120295000Y-109750000D03*
X119025000Y-109750000D03*
X117755000Y-109750000D03*
%TD*%
%TO.C,U7*%
X91510000Y-98700000D03*
X92780000Y-98700000D03*
X94050000Y-98700000D03*
X95320000Y-98700000D03*
X96590000Y-98700000D03*
X97860000Y-98700000D03*
X99130000Y-98700000D03*
X100400000Y-98700000D03*
X100400000Y-92200000D03*
X99130000Y-92200000D03*
X97860000Y-92200000D03*
X96590000Y-92200000D03*
X95320000Y-92200000D03*
X94050000Y-92200000D03*
X92780000Y-92200000D03*
X91510000Y-92200000D03*
%TD*%
D11*
%TO.C,C1*%
X135500000Y-109762500D03*
X135500000Y-111837500D03*
%TD*%
D10*
%TO.C,U6*%
X100610000Y-112600000D03*
X101880000Y-112600000D03*
X103150000Y-112600000D03*
X104420000Y-112600000D03*
X105690000Y-112600000D03*
X106960000Y-112600000D03*
X108230000Y-112600000D03*
X109500000Y-112600000D03*
X109500000Y-106100000D03*
X108230000Y-106100000D03*
X106960000Y-106100000D03*
X105690000Y-106100000D03*
X104420000Y-106100000D03*
X103150000Y-106100000D03*
X101880000Y-106100000D03*
X100610000Y-106100000D03*
%TD*%
%TO.C,U1*%
X137980000Y-116250000D03*
X139250000Y-116250000D03*
X140520000Y-116250000D03*
X141790000Y-116250000D03*
X143060000Y-116250000D03*
X144330000Y-116250000D03*
X145600000Y-116250000D03*
X146870000Y-116250000D03*
X146870000Y-109750000D03*
X145600000Y-109750000D03*
X144330000Y-109750000D03*
X143060000Y-109750000D03*
X141790000Y-109750000D03*
X140520000Y-109750000D03*
X139250000Y-109750000D03*
X137980000Y-109750000D03*
%TD*%
D11*
%TO.C,C5*%
X170900000Y-111362500D03*
X170900000Y-113437500D03*
%TD*%
D12*
%TO.C,U5*%
X173450000Y-115400000D03*
X174100000Y-115400000D03*
X174750000Y-115400000D03*
X175400000Y-115400000D03*
X175400000Y-112000000D03*
X174750000Y-112000000D03*
X174100000Y-112000000D03*
X173450000Y-112000000D03*
%TD*%
D13*
%TO.C,U4*%
X106350000Y-100200000D03*
X107620000Y-100200000D03*
X108890000Y-100200000D03*
X110160000Y-100200000D03*
X111430000Y-100200000D03*
X112700000Y-100200000D03*
X113970000Y-100200000D03*
X115240000Y-100200000D03*
X116510000Y-100200000D03*
X117780000Y-100200000D03*
X119050000Y-100200000D03*
X120320000Y-100200000D03*
X121590000Y-100200000D03*
X122860000Y-100200000D03*
X124130000Y-100200000D03*
X125400000Y-100200000D03*
X125400000Y-87100000D03*
X124130000Y-87100000D03*
X122860000Y-87100000D03*
X121590000Y-87100000D03*
X120320000Y-87100000D03*
X119050000Y-87100000D03*
X117780000Y-87100000D03*
X116510000Y-87100000D03*
X115240000Y-87100000D03*
X113970000Y-87100000D03*
X112700000Y-87100000D03*
X111430000Y-87100000D03*
X110160000Y-87100000D03*
X108890000Y-87100000D03*
X107620000Y-87100000D03*
X106350000Y-87100000D03*
%TD*%
D11*
%TO.C,C6*%
X98200000Y-106137500D03*
X98200000Y-108212500D03*
%TD*%
D14*
%TO.C,U2*%
X143140000Y-100200000D03*
D15*
X145680000Y-100200000D03*
X148220000Y-100200000D03*
X150760000Y-100200000D03*
X153300000Y-100200000D03*
X155840000Y-100200000D03*
X158380000Y-100200000D03*
X160920000Y-100200000D03*
X163460000Y-100200000D03*
X166000000Y-100200000D03*
X168540000Y-100200000D03*
X171080000Y-100200000D03*
X173620000Y-100200000D03*
X176160000Y-100200000D03*
X178700000Y-100200000D03*
X181240000Y-100200000D03*
X181240000Y-84960000D03*
X178700000Y-84960000D03*
X176160000Y-84960000D03*
X173620000Y-84960000D03*
X171080000Y-84960000D03*
X168540000Y-84960000D03*
X166000000Y-84960000D03*
X163460000Y-84960000D03*
X160920000Y-84960000D03*
X158380000Y-84960000D03*
X155840000Y-84960000D03*
X153300000Y-84960000D03*
X150760000Y-84960000D03*
X148220000Y-84960000D03*
X145680000Y-84960000D03*
X143140000Y-84960000D03*
%TD*%
D11*
%TO.C,C4*%
X103900000Y-87062500D03*
X103900000Y-89137500D03*
%TD*%
%TO.C,C2*%
X130200000Y-85162500D03*
X130200000Y-87237500D03*
%TD*%
%TO.C,C7*%
X89000000Y-92137500D03*
X89000000Y-94212500D03*
%TD*%
D14*
%TO.C,J1*%
X87300000Y-123100000D03*
D15*
X89840000Y-123100000D03*
X92380000Y-123100000D03*
X94920000Y-123100000D03*
X97460000Y-123100000D03*
X100000000Y-123100000D03*
X102540000Y-123100000D03*
X105080000Y-123100000D03*
X107620000Y-123100000D03*
X110160000Y-123100000D03*
X112700000Y-123100000D03*
X115240000Y-123100000D03*
X117780000Y-123100000D03*
X120320000Y-123100000D03*
X122860000Y-123100000D03*
X125400000Y-123100000D03*
X127940000Y-123100000D03*
X130480000Y-123100000D03*
X133020000Y-123100000D03*
X135560000Y-123100000D03*
X138100000Y-123100000D03*
X140640000Y-123100000D03*
X143180000Y-123100000D03*
X145720000Y-123100000D03*
X148260000Y-123100000D03*
X150800000Y-123100000D03*
X153340000Y-123100000D03*
X155880000Y-123100000D03*
X158420000Y-123100000D03*
X160960000Y-123100000D03*
X163500000Y-123100000D03*
X166040000Y-123100000D03*
X168580000Y-123100000D03*
X171120000Y-123100000D03*
X173660000Y-123100000D03*
X176200000Y-123100000D03*
X178740000Y-123100000D03*
X181280000Y-123100000D03*
X183820000Y-123100000D03*
X186360000Y-123100000D03*
%TD*%
D16*
%TO.C,RN1*%
X87575000Y-105710000D03*
X87575000Y-106980000D03*
X87575000Y-108250000D03*
X87575000Y-109520000D03*
X87575000Y-110790000D03*
X87575000Y-112060000D03*
X87575000Y-113330000D03*
X87575000Y-114600000D03*
X94075000Y-114600000D03*
X94075000Y-113330000D03*
X94075000Y-112060000D03*
X94075000Y-110790000D03*
X94075000Y-109520000D03*
X94075000Y-108250000D03*
X94075000Y-106980000D03*
X94075000Y-105710000D03*
%TD*%
D11*
%TO.C,C3*%
X115500000Y-109762500D03*
X115500000Y-111837500D03*
%TD*%
M02*
