%TF.GenerationSoftware,KiCad,Pcbnew,9.0.7*%
%TF.CreationDate,2026-09-04T15:08:01-07:00*%
%TF.ProjectId,RC2014-512K-RAMROM-V2,52433230-3134-42d3-9531-324b2d52414d,rev?*%
%TF.SameCoordinates,Original*%
%TF.FileFunction,Legend,Bot*%
%TF.FilePolarity,Positive*%
%FSLAX46Y46*%
G04 Gerber Fmt 4.6, Leading zero omitted, Abs format (unit mm)*
G04 Created by KiCad (PCBNEW 9.0.7) date 2026-09-04 15:08:01*
%MOMM*%
%LPD*%
G01*
G04 APERTURE LIST*
%ADD10C,0.150000*%
%ADD11C,0.200000*%
%ADD12C,0.010000*%
G04 APERTURE END LIST*
D10*
X122929887Y-95136065D02*
X122787030Y-95183684D01*
X122787030Y-95183684D02*
X122739411Y-95231303D01*
X122739411Y-95231303D02*
X122691792Y-95326541D01*
X122691792Y-95326541D02*
X122691792Y-95469398D01*
X122691792Y-95469398D02*
X122739411Y-95564636D01*
X122739411Y-95564636D02*
X122787030Y-95612256D01*
X122787030Y-95612256D02*
X122882268Y-95659875D01*
X122882268Y-95659875D02*
X123263220Y-95659875D01*
X123263220Y-95659875D02*
X123263220Y-94659875D01*
X123263220Y-94659875D02*
X122929887Y-94659875D01*
X122929887Y-94659875D02*
X122834649Y-94707494D01*
X122834649Y-94707494D02*
X122787030Y-94755113D01*
X122787030Y-94755113D02*
X122739411Y-94850351D01*
X122739411Y-94850351D02*
X122739411Y-94945589D01*
X122739411Y-94945589D02*
X122787030Y-95040827D01*
X122787030Y-95040827D02*
X122834649Y-95088446D01*
X122834649Y-95088446D02*
X122929887Y-95136065D01*
X122929887Y-95136065D02*
X123263220Y-95136065D01*
X122310839Y-95374160D02*
X121834649Y-95374160D01*
X122406077Y-95659875D02*
X122072744Y-94659875D01*
X122072744Y-94659875D02*
X121739411Y-95659875D01*
X121453696Y-95612256D02*
X121310839Y-95659875D01*
X121310839Y-95659875D02*
X121072744Y-95659875D01*
X121072744Y-95659875D02*
X120977506Y-95612256D01*
X120977506Y-95612256D02*
X120929887Y-95564636D01*
X120929887Y-95564636D02*
X120882268Y-95469398D01*
X120882268Y-95469398D02*
X120882268Y-95374160D01*
X120882268Y-95374160D02*
X120929887Y-95278922D01*
X120929887Y-95278922D02*
X120977506Y-95231303D01*
X120977506Y-95231303D02*
X121072744Y-95183684D01*
X121072744Y-95183684D02*
X121263220Y-95136065D01*
X121263220Y-95136065D02*
X121358458Y-95088446D01*
X121358458Y-95088446D02*
X121406077Y-95040827D01*
X121406077Y-95040827D02*
X121453696Y-94945589D01*
X121453696Y-94945589D02*
X121453696Y-94850351D01*
X121453696Y-94850351D02*
X121406077Y-94755113D01*
X121406077Y-94755113D02*
X121358458Y-94707494D01*
X121358458Y-94707494D02*
X121263220Y-94659875D01*
X121263220Y-94659875D02*
X121025125Y-94659875D01*
X121025125Y-94659875D02*
X120882268Y-94707494D01*
X120453696Y-95136065D02*
X120120363Y-95136065D01*
X119977506Y-95659875D02*
X120453696Y-95659875D01*
X120453696Y-95659875D02*
X120453696Y-94659875D01*
X120453696Y-94659875D02*
X119977506Y-94659875D01*
X118834648Y-95374160D02*
X118358458Y-95374160D01*
X118929886Y-95659875D02*
X118596553Y-94659875D01*
X118596553Y-94659875D02*
X118263220Y-95659875D01*
X117929886Y-95659875D02*
X117929886Y-94659875D01*
X117929886Y-94659875D02*
X117691791Y-94659875D01*
X117691791Y-94659875D02*
X117548934Y-94707494D01*
X117548934Y-94707494D02*
X117453696Y-94802732D01*
X117453696Y-94802732D02*
X117406077Y-94897970D01*
X117406077Y-94897970D02*
X117358458Y-95088446D01*
X117358458Y-95088446D02*
X117358458Y-95231303D01*
X117358458Y-95231303D02*
X117406077Y-95421779D01*
X117406077Y-95421779D02*
X117453696Y-95517017D01*
X117453696Y-95517017D02*
X117548934Y-95612256D01*
X117548934Y-95612256D02*
X117691791Y-95659875D01*
X117691791Y-95659875D02*
X117929886Y-95659875D01*
X116929886Y-95659875D02*
X116929886Y-94659875D01*
X116929886Y-94659875D02*
X116691791Y-94659875D01*
X116691791Y-94659875D02*
X116548934Y-94707494D01*
X116548934Y-94707494D02*
X116453696Y-94802732D01*
X116453696Y-94802732D02*
X116406077Y-94897970D01*
X116406077Y-94897970D02*
X116358458Y-95088446D01*
X116358458Y-95088446D02*
X116358458Y-95231303D01*
X116358458Y-95231303D02*
X116406077Y-95421779D01*
X116406077Y-95421779D02*
X116453696Y-95517017D01*
X116453696Y-95517017D02*
X116548934Y-95612256D01*
X116548934Y-95612256D02*
X116691791Y-95659875D01*
X116691791Y-95659875D02*
X116929886Y-95659875D01*
X115358458Y-95659875D02*
X115691791Y-95183684D01*
X115929886Y-95659875D02*
X115929886Y-94659875D01*
X115929886Y-94659875D02*
X115548934Y-94659875D01*
X115548934Y-94659875D02*
X115453696Y-94707494D01*
X115453696Y-94707494D02*
X115406077Y-94755113D01*
X115406077Y-94755113D02*
X115358458Y-94850351D01*
X115358458Y-94850351D02*
X115358458Y-94993208D01*
X115358458Y-94993208D02*
X115406077Y-95088446D01*
X115406077Y-95088446D02*
X115453696Y-95136065D01*
X115453696Y-95136065D02*
X115548934Y-95183684D01*
X115548934Y-95183684D02*
X115929886Y-95183684D01*
X114929886Y-95136065D02*
X114596553Y-95136065D01*
X114453696Y-95659875D02*
X114929886Y-95659875D01*
X114929886Y-95659875D02*
X114929886Y-94659875D01*
X114929886Y-94659875D02*
X114453696Y-94659875D01*
X114072743Y-95612256D02*
X113929886Y-95659875D01*
X113929886Y-95659875D02*
X113691791Y-95659875D01*
X113691791Y-95659875D02*
X113596553Y-95612256D01*
X113596553Y-95612256D02*
X113548934Y-95564636D01*
X113548934Y-95564636D02*
X113501315Y-95469398D01*
X113501315Y-95469398D02*
X113501315Y-95374160D01*
X113501315Y-95374160D02*
X113548934Y-95278922D01*
X113548934Y-95278922D02*
X113596553Y-95231303D01*
X113596553Y-95231303D02*
X113691791Y-95183684D01*
X113691791Y-95183684D02*
X113882267Y-95136065D01*
X113882267Y-95136065D02*
X113977505Y-95088446D01*
X113977505Y-95088446D02*
X114025124Y-95040827D01*
X114025124Y-95040827D02*
X114072743Y-94945589D01*
X114072743Y-94945589D02*
X114072743Y-94850351D01*
X114072743Y-94850351D02*
X114025124Y-94755113D01*
X114025124Y-94755113D02*
X113977505Y-94707494D01*
X113977505Y-94707494D02*
X113882267Y-94659875D01*
X113882267Y-94659875D02*
X113644172Y-94659875D01*
X113644172Y-94659875D02*
X113501315Y-94707494D01*
X113120362Y-95612256D02*
X112977505Y-95659875D01*
X112977505Y-95659875D02*
X112739410Y-95659875D01*
X112739410Y-95659875D02*
X112644172Y-95612256D01*
X112644172Y-95612256D02*
X112596553Y-95564636D01*
X112596553Y-95564636D02*
X112548934Y-95469398D01*
X112548934Y-95469398D02*
X112548934Y-95374160D01*
X112548934Y-95374160D02*
X112596553Y-95278922D01*
X112596553Y-95278922D02*
X112644172Y-95231303D01*
X112644172Y-95231303D02*
X112739410Y-95183684D01*
X112739410Y-95183684D02*
X112929886Y-95136065D01*
X112929886Y-95136065D02*
X113025124Y-95088446D01*
X113025124Y-95088446D02*
X113072743Y-95040827D01*
X113072743Y-95040827D02*
X113120362Y-94945589D01*
X113120362Y-94945589D02*
X113120362Y-94850351D01*
X113120362Y-94850351D02*
X113072743Y-94755113D01*
X113072743Y-94755113D02*
X113025124Y-94707494D01*
X113025124Y-94707494D02*
X112929886Y-94659875D01*
X112929886Y-94659875D02*
X112691791Y-94659875D01*
X112691791Y-94659875D02*
X112548934Y-94707494D01*
X111358457Y-95136065D02*
X110596553Y-95136065D01*
X110596553Y-95421779D02*
X111358457Y-95421779D01*
X109167981Y-94659875D02*
X109072743Y-94659875D01*
X109072743Y-94659875D02*
X108977505Y-94707494D01*
X108977505Y-94707494D02*
X108929886Y-94755113D01*
X108929886Y-94755113D02*
X108882267Y-94850351D01*
X108882267Y-94850351D02*
X108834648Y-95040827D01*
X108834648Y-95040827D02*
X108834648Y-95278922D01*
X108834648Y-95278922D02*
X108882267Y-95469398D01*
X108882267Y-95469398D02*
X108929886Y-95564636D01*
X108929886Y-95564636D02*
X108977505Y-95612256D01*
X108977505Y-95612256D02*
X109072743Y-95659875D01*
X109072743Y-95659875D02*
X109167981Y-95659875D01*
X109167981Y-95659875D02*
X109263219Y-95612256D01*
X109263219Y-95612256D02*
X109310838Y-95564636D01*
X109310838Y-95564636D02*
X109358457Y-95469398D01*
X109358457Y-95469398D02*
X109406076Y-95278922D01*
X109406076Y-95278922D02*
X109406076Y-95040827D01*
X109406076Y-95040827D02*
X109358457Y-94850351D01*
X109358457Y-94850351D02*
X109310838Y-94755113D01*
X109310838Y-94755113D02*
X109263219Y-94707494D01*
X109263219Y-94707494D02*
X109167981Y-94659875D01*
X108501314Y-95659875D02*
X107977505Y-94993208D01*
X108501314Y-94993208D02*
X107977505Y-95659875D01*
X107691790Y-94659875D02*
X107025124Y-94659875D01*
X107025124Y-94659875D02*
X107453695Y-95659875D01*
X106453695Y-94659875D02*
X106358457Y-94659875D01*
X106358457Y-94659875D02*
X106263219Y-94707494D01*
X106263219Y-94707494D02*
X106215600Y-94755113D01*
X106215600Y-94755113D02*
X106167981Y-94850351D01*
X106167981Y-94850351D02*
X106120362Y-95040827D01*
X106120362Y-95040827D02*
X106120362Y-95278922D01*
X106120362Y-95278922D02*
X106167981Y-95469398D01*
X106167981Y-95469398D02*
X106215600Y-95564636D01*
X106215600Y-95564636D02*
X106263219Y-95612256D01*
X106263219Y-95612256D02*
X106358457Y-95659875D01*
X106358457Y-95659875D02*
X106453695Y-95659875D01*
X106453695Y-95659875D02*
X106548933Y-95612256D01*
X106548933Y-95612256D02*
X106596552Y-95564636D01*
X106596552Y-95564636D02*
X106644171Y-95469398D01*
X106644171Y-95469398D02*
X106691790Y-95278922D01*
X106691790Y-95278922D02*
X106691790Y-95040827D01*
X106691790Y-95040827D02*
X106644171Y-94850351D01*
X106644171Y-94850351D02*
X106596552Y-94755113D01*
X106596552Y-94755113D02*
X106548933Y-94707494D01*
X106548933Y-94707494D02*
X106453695Y-94659875D01*
X123310839Y-96984104D02*
X122834649Y-96984104D01*
X123406077Y-97269819D02*
X123072744Y-96269819D01*
X123072744Y-96269819D02*
X122739411Y-97269819D01*
X121929887Y-97269819D02*
X122406077Y-97269819D01*
X122406077Y-97269819D02*
X122406077Y-96269819D01*
X121596553Y-97269819D02*
X121596553Y-96269819D01*
X121167982Y-96984104D02*
X120691792Y-96984104D01*
X121263220Y-97269819D02*
X120929887Y-96269819D01*
X120929887Y-96269819D02*
X120596554Y-97269819D01*
X120310839Y-97222200D02*
X120167982Y-97269819D01*
X120167982Y-97269819D02*
X119929887Y-97269819D01*
X119929887Y-97269819D02*
X119834649Y-97222200D01*
X119834649Y-97222200D02*
X119787030Y-97174580D01*
X119787030Y-97174580D02*
X119739411Y-97079342D01*
X119739411Y-97079342D02*
X119739411Y-96984104D01*
X119739411Y-96984104D02*
X119787030Y-96888866D01*
X119787030Y-96888866D02*
X119834649Y-96841247D01*
X119834649Y-96841247D02*
X119929887Y-96793628D01*
X119929887Y-96793628D02*
X120120363Y-96746009D01*
X120120363Y-96746009D02*
X120215601Y-96698390D01*
X120215601Y-96698390D02*
X120263220Y-96650771D01*
X120263220Y-96650771D02*
X120310839Y-96555533D01*
X120310839Y-96555533D02*
X120310839Y-96460295D01*
X120310839Y-96460295D02*
X120263220Y-96365057D01*
X120263220Y-96365057D02*
X120215601Y-96317438D01*
X120215601Y-96317438D02*
X120120363Y-96269819D01*
X120120363Y-96269819D02*
X119882268Y-96269819D01*
X119882268Y-96269819D02*
X119739411Y-96317438D01*
X118596553Y-96984104D02*
X118120363Y-96984104D01*
X118691791Y-97269819D02*
X118358458Y-96269819D01*
X118358458Y-96269819D02*
X118025125Y-97269819D01*
X117691791Y-97269819D02*
X117691791Y-96269819D01*
X117691791Y-96269819D02*
X117453696Y-96269819D01*
X117453696Y-96269819D02*
X117310839Y-96317438D01*
X117310839Y-96317438D02*
X117215601Y-96412676D01*
X117215601Y-96412676D02*
X117167982Y-96507914D01*
X117167982Y-96507914D02*
X117120363Y-96698390D01*
X117120363Y-96698390D02*
X117120363Y-96841247D01*
X117120363Y-96841247D02*
X117167982Y-97031723D01*
X117167982Y-97031723D02*
X117215601Y-97126961D01*
X117215601Y-97126961D02*
X117310839Y-97222200D01*
X117310839Y-97222200D02*
X117453696Y-97269819D01*
X117453696Y-97269819D02*
X117691791Y-97269819D01*
X116691791Y-97269819D02*
X116691791Y-96269819D01*
X116691791Y-96269819D02*
X116453696Y-96269819D01*
X116453696Y-96269819D02*
X116310839Y-96317438D01*
X116310839Y-96317438D02*
X116215601Y-96412676D01*
X116215601Y-96412676D02*
X116167982Y-96507914D01*
X116167982Y-96507914D02*
X116120363Y-96698390D01*
X116120363Y-96698390D02*
X116120363Y-96841247D01*
X116120363Y-96841247D02*
X116167982Y-97031723D01*
X116167982Y-97031723D02*
X116215601Y-97126961D01*
X116215601Y-97126961D02*
X116310839Y-97222200D01*
X116310839Y-97222200D02*
X116453696Y-97269819D01*
X116453696Y-97269819D02*
X116691791Y-97269819D01*
X115120363Y-97269819D02*
X115453696Y-96793628D01*
X115691791Y-97269819D02*
X115691791Y-96269819D01*
X115691791Y-96269819D02*
X115310839Y-96269819D01*
X115310839Y-96269819D02*
X115215601Y-96317438D01*
X115215601Y-96317438D02*
X115167982Y-96365057D01*
X115167982Y-96365057D02*
X115120363Y-96460295D01*
X115120363Y-96460295D02*
X115120363Y-96603152D01*
X115120363Y-96603152D02*
X115167982Y-96698390D01*
X115167982Y-96698390D02*
X115215601Y-96746009D01*
X115215601Y-96746009D02*
X115310839Y-96793628D01*
X115310839Y-96793628D02*
X115691791Y-96793628D01*
X114691791Y-96746009D02*
X114358458Y-96746009D01*
X114215601Y-97269819D02*
X114691791Y-97269819D01*
X114691791Y-97269819D02*
X114691791Y-96269819D01*
X114691791Y-96269819D02*
X114215601Y-96269819D01*
X113834648Y-97222200D02*
X113691791Y-97269819D01*
X113691791Y-97269819D02*
X113453696Y-97269819D01*
X113453696Y-97269819D02*
X113358458Y-97222200D01*
X113358458Y-97222200D02*
X113310839Y-97174580D01*
X113310839Y-97174580D02*
X113263220Y-97079342D01*
X113263220Y-97079342D02*
X113263220Y-96984104D01*
X113263220Y-96984104D02*
X113310839Y-96888866D01*
X113310839Y-96888866D02*
X113358458Y-96841247D01*
X113358458Y-96841247D02*
X113453696Y-96793628D01*
X113453696Y-96793628D02*
X113644172Y-96746009D01*
X113644172Y-96746009D02*
X113739410Y-96698390D01*
X113739410Y-96698390D02*
X113787029Y-96650771D01*
X113787029Y-96650771D02*
X113834648Y-96555533D01*
X113834648Y-96555533D02*
X113834648Y-96460295D01*
X113834648Y-96460295D02*
X113787029Y-96365057D01*
X113787029Y-96365057D02*
X113739410Y-96317438D01*
X113739410Y-96317438D02*
X113644172Y-96269819D01*
X113644172Y-96269819D02*
X113406077Y-96269819D01*
X113406077Y-96269819D02*
X113263220Y-96317438D01*
X112882267Y-97222200D02*
X112739410Y-97269819D01*
X112739410Y-97269819D02*
X112501315Y-97269819D01*
X112501315Y-97269819D02*
X112406077Y-97222200D01*
X112406077Y-97222200D02*
X112358458Y-97174580D01*
X112358458Y-97174580D02*
X112310839Y-97079342D01*
X112310839Y-97079342D02*
X112310839Y-96984104D01*
X112310839Y-96984104D02*
X112358458Y-96888866D01*
X112358458Y-96888866D02*
X112406077Y-96841247D01*
X112406077Y-96841247D02*
X112501315Y-96793628D01*
X112501315Y-96793628D02*
X112691791Y-96746009D01*
X112691791Y-96746009D02*
X112787029Y-96698390D01*
X112787029Y-96698390D02*
X112834648Y-96650771D01*
X112834648Y-96650771D02*
X112882267Y-96555533D01*
X112882267Y-96555533D02*
X112882267Y-96460295D01*
X112882267Y-96460295D02*
X112834648Y-96365057D01*
X112834648Y-96365057D02*
X112787029Y-96317438D01*
X112787029Y-96317438D02*
X112691791Y-96269819D01*
X112691791Y-96269819D02*
X112453696Y-96269819D01*
X112453696Y-96269819D02*
X112310839Y-96317438D01*
X111120362Y-96746009D02*
X110358458Y-96746009D01*
X110358458Y-97031723D02*
X111120362Y-97031723D01*
X108929886Y-96269819D02*
X108834648Y-96269819D01*
X108834648Y-96269819D02*
X108739410Y-96317438D01*
X108739410Y-96317438D02*
X108691791Y-96365057D01*
X108691791Y-96365057D02*
X108644172Y-96460295D01*
X108644172Y-96460295D02*
X108596553Y-96650771D01*
X108596553Y-96650771D02*
X108596553Y-96888866D01*
X108596553Y-96888866D02*
X108644172Y-97079342D01*
X108644172Y-97079342D02*
X108691791Y-97174580D01*
X108691791Y-97174580D02*
X108739410Y-97222200D01*
X108739410Y-97222200D02*
X108834648Y-97269819D01*
X108834648Y-97269819D02*
X108929886Y-97269819D01*
X108929886Y-97269819D02*
X109025124Y-97222200D01*
X109025124Y-97222200D02*
X109072743Y-97174580D01*
X109072743Y-97174580D02*
X109120362Y-97079342D01*
X109120362Y-97079342D02*
X109167981Y-96888866D01*
X109167981Y-96888866D02*
X109167981Y-96650771D01*
X109167981Y-96650771D02*
X109120362Y-96460295D01*
X109120362Y-96460295D02*
X109072743Y-96365057D01*
X109072743Y-96365057D02*
X109025124Y-96317438D01*
X109025124Y-96317438D02*
X108929886Y-96269819D01*
X108263219Y-97269819D02*
X107739410Y-96603152D01*
X108263219Y-96603152D02*
X107739410Y-97269819D01*
X107453695Y-96269819D02*
X106787029Y-96269819D01*
X106787029Y-96269819D02*
X107215600Y-97269819D01*
X106263219Y-96698390D02*
X106358457Y-96650771D01*
X106358457Y-96650771D02*
X106406076Y-96603152D01*
X106406076Y-96603152D02*
X106453695Y-96507914D01*
X106453695Y-96507914D02*
X106453695Y-96460295D01*
X106453695Y-96460295D02*
X106406076Y-96365057D01*
X106406076Y-96365057D02*
X106358457Y-96317438D01*
X106358457Y-96317438D02*
X106263219Y-96269819D01*
X106263219Y-96269819D02*
X106072743Y-96269819D01*
X106072743Y-96269819D02*
X105977505Y-96317438D01*
X105977505Y-96317438D02*
X105929886Y-96365057D01*
X105929886Y-96365057D02*
X105882267Y-96460295D01*
X105882267Y-96460295D02*
X105882267Y-96507914D01*
X105882267Y-96507914D02*
X105929886Y-96603152D01*
X105929886Y-96603152D02*
X105977505Y-96650771D01*
X105977505Y-96650771D02*
X106072743Y-96698390D01*
X106072743Y-96698390D02*
X106263219Y-96698390D01*
X106263219Y-96698390D02*
X106358457Y-96746009D01*
X106358457Y-96746009D02*
X106406076Y-96793628D01*
X106406076Y-96793628D02*
X106453695Y-96888866D01*
X106453695Y-96888866D02*
X106453695Y-97079342D01*
X106453695Y-97079342D02*
X106406076Y-97174580D01*
X106406076Y-97174580D02*
X106358457Y-97222200D01*
X106358457Y-97222200D02*
X106263219Y-97269819D01*
X106263219Y-97269819D02*
X106072743Y-97269819D01*
X106072743Y-97269819D02*
X105977505Y-97222200D01*
X105977505Y-97222200D02*
X105929886Y-97174580D01*
X105929886Y-97174580D02*
X105882267Y-97079342D01*
X105882267Y-97079342D02*
X105882267Y-96888866D01*
X105882267Y-96888866D02*
X105929886Y-96793628D01*
X105929886Y-96793628D02*
X105977505Y-96746009D01*
X105977505Y-96746009D02*
X106072743Y-96698390D01*
D11*
X180046993Y-94693409D02*
X179904136Y-94741028D01*
X179904136Y-94741028D02*
X179856517Y-94788647D01*
X179856517Y-94788647D02*
X179808898Y-94883885D01*
X179808898Y-94883885D02*
X179808898Y-95026742D01*
X179808898Y-95026742D02*
X179856517Y-95121980D01*
X179856517Y-95121980D02*
X179904136Y-95169600D01*
X179904136Y-95169600D02*
X179999374Y-95217219D01*
X179999374Y-95217219D02*
X180380326Y-95217219D01*
X180380326Y-95217219D02*
X180380326Y-94217219D01*
X180380326Y-94217219D02*
X180046993Y-94217219D01*
X180046993Y-94217219D02*
X179951755Y-94264838D01*
X179951755Y-94264838D02*
X179904136Y-94312457D01*
X179904136Y-94312457D02*
X179856517Y-94407695D01*
X179856517Y-94407695D02*
X179856517Y-94502933D01*
X179856517Y-94502933D02*
X179904136Y-94598171D01*
X179904136Y-94598171D02*
X179951755Y-94645790D01*
X179951755Y-94645790D02*
X180046993Y-94693409D01*
X180046993Y-94693409D02*
X180380326Y-94693409D01*
X179475564Y-94550552D02*
X179237469Y-95217219D01*
X178999374Y-94550552D02*
X179237469Y-95217219D01*
X179237469Y-95217219D02*
X179332707Y-95455314D01*
X179332707Y-95455314D02*
X179380326Y-95502933D01*
X179380326Y-95502933D02*
X179475564Y-95550552D01*
X177856516Y-95217219D02*
X177856516Y-94217219D01*
X177856516Y-94217219D02*
X177618421Y-94217219D01*
X177618421Y-94217219D02*
X177475564Y-94264838D01*
X177475564Y-94264838D02*
X177380326Y-94360076D01*
X177380326Y-94360076D02*
X177332707Y-94455314D01*
X177332707Y-94455314D02*
X177285088Y-94645790D01*
X177285088Y-94645790D02*
X177285088Y-94788647D01*
X177285088Y-94788647D02*
X177332707Y-94979123D01*
X177332707Y-94979123D02*
X177380326Y-95074361D01*
X177380326Y-95074361D02*
X177475564Y-95169600D01*
X177475564Y-95169600D02*
X177618421Y-95217219D01*
X177618421Y-95217219D02*
X177856516Y-95217219D01*
X176475564Y-95169600D02*
X176570802Y-95217219D01*
X176570802Y-95217219D02*
X176761278Y-95217219D01*
X176761278Y-95217219D02*
X176856516Y-95169600D01*
X176856516Y-95169600D02*
X176904135Y-95074361D01*
X176904135Y-95074361D02*
X176904135Y-94693409D01*
X176904135Y-94693409D02*
X176856516Y-94598171D01*
X176856516Y-94598171D02*
X176761278Y-94550552D01*
X176761278Y-94550552D02*
X176570802Y-94550552D01*
X176570802Y-94550552D02*
X176475564Y-94598171D01*
X176475564Y-94598171D02*
X176427945Y-94693409D01*
X176427945Y-94693409D02*
X176427945Y-94788647D01*
X176427945Y-94788647D02*
X176904135Y-94883885D01*
X175999373Y-94550552D02*
X175999373Y-95217219D01*
X175999373Y-94645790D02*
X175951754Y-94598171D01*
X175951754Y-94598171D02*
X175856516Y-94550552D01*
X175856516Y-94550552D02*
X175713659Y-94550552D01*
X175713659Y-94550552D02*
X175618421Y-94598171D01*
X175618421Y-94598171D02*
X175570802Y-94693409D01*
X175570802Y-94693409D02*
X175570802Y-95217219D01*
X175094611Y-94550552D02*
X175094611Y-95217219D01*
X175094611Y-94645790D02*
X175046992Y-94598171D01*
X175046992Y-94598171D02*
X174951754Y-94550552D01*
X174951754Y-94550552D02*
X174808897Y-94550552D01*
X174808897Y-94550552D02*
X174713659Y-94598171D01*
X174713659Y-94598171D02*
X174666040Y-94693409D01*
X174666040Y-94693409D02*
X174666040Y-95217219D01*
X174189849Y-95217219D02*
X174189849Y-94550552D01*
X174189849Y-94217219D02*
X174237468Y-94264838D01*
X174237468Y-94264838D02*
X174189849Y-94312457D01*
X174189849Y-94312457D02*
X174142230Y-94264838D01*
X174142230Y-94264838D02*
X174189849Y-94217219D01*
X174189849Y-94217219D02*
X174189849Y-94312457D01*
X173761278Y-95169600D02*
X173666040Y-95217219D01*
X173666040Y-95217219D02*
X173475564Y-95217219D01*
X173475564Y-95217219D02*
X173380326Y-95169600D01*
X173380326Y-95169600D02*
X173332707Y-95074361D01*
X173332707Y-95074361D02*
X173332707Y-95026742D01*
X173332707Y-95026742D02*
X173380326Y-94931504D01*
X173380326Y-94931504D02*
X173475564Y-94883885D01*
X173475564Y-94883885D02*
X173618421Y-94883885D01*
X173618421Y-94883885D02*
X173713659Y-94836266D01*
X173713659Y-94836266D02*
X173761278Y-94741028D01*
X173761278Y-94741028D02*
X173761278Y-94693409D01*
X173761278Y-94693409D02*
X173713659Y-94598171D01*
X173713659Y-94598171D02*
X173618421Y-94550552D01*
X173618421Y-94550552D02*
X173475564Y-94550552D01*
X173475564Y-94550552D02*
X173380326Y-94598171D01*
D12*
%TO.C,REF\u002A\u002A*%
X174582829Y-92551097D02*
X174642753Y-92573355D01*
X174667673Y-92590080D01*
X174692910Y-92614043D01*
X174710912Y-92644526D01*
X174722858Y-92686023D01*
X174729930Y-92743032D01*
X174733308Y-92820047D01*
X174734171Y-92921565D01*
X174734002Y-92974027D01*
X174733153Y-93045715D01*
X174731711Y-93102925D01*
X174729814Y-93140809D01*
X174727597Y-93154514D01*
X174713172Y-93149981D01*
X174684054Y-93137670D01*
X174683181Y-93137272D01*
X174668060Y-93129356D01*
X174657891Y-93118495D01*
X174651691Y-93099471D01*
X174648478Y-93067069D01*
X174647270Y-93016071D01*
X174647086Y-92941261D01*
X174646714Y-92893804D01*
X174642750Y-92804615D01*
X174633673Y-92739287D01*
X174618524Y-92694393D01*
X174596345Y-92666507D01*
X174566175Y-92652203D01*
X174561990Y-92651206D01*
X174505480Y-92650427D01*
X174461410Y-92675744D01*
X174430972Y-92726502D01*
X174425544Y-92741175D01*
X174413171Y-92773649D01*
X174406905Y-92788572D01*
X174394036Y-92786516D01*
X174365933Y-92775357D01*
X174339721Y-92756927D01*
X174327771Y-92722098D01*
X174331336Y-92697151D01*
X174353235Y-92646547D01*
X174388644Y-92599128D01*
X174430052Y-92566334D01*
X174447400Y-92558752D01*
X174513089Y-92546076D01*
X174582829Y-92551097D01*
G36*
X174582829Y-92551097D02*
G01*
X174642753Y-92573355D01*
X174667673Y-92590080D01*
X174692910Y-92614043D01*
X174710912Y-92644526D01*
X174722858Y-92686023D01*
X174729930Y-92743032D01*
X174733308Y-92820047D01*
X174734171Y-92921565D01*
X174734002Y-92974027D01*
X174733153Y-93045715D01*
X174731711Y-93102925D01*
X174729814Y-93140809D01*
X174727597Y-93154514D01*
X174713172Y-93149981D01*
X174684054Y-93137670D01*
X174683181Y-93137272D01*
X174668060Y-93129356D01*
X174657891Y-93118495D01*
X174651691Y-93099471D01*
X174648478Y-93067069D01*
X174647270Y-93016071D01*
X174647086Y-92941261D01*
X174646714Y-92893804D01*
X174642750Y-92804615D01*
X174633673Y-92739287D01*
X174618524Y-92694393D01*
X174596345Y-92666507D01*
X174566175Y-92652203D01*
X174561990Y-92651206D01*
X174505480Y-92650427D01*
X174461410Y-92675744D01*
X174430972Y-92726502D01*
X174425544Y-92741175D01*
X174413171Y-92773649D01*
X174406905Y-92788572D01*
X174394036Y-92786516D01*
X174365933Y-92775357D01*
X174339721Y-92756927D01*
X174327771Y-92722098D01*
X174331336Y-92697151D01*
X174353235Y-92646547D01*
X174388644Y-92599128D01*
X174430052Y-92566334D01*
X174447400Y-92558752D01*
X174513089Y-92546076D01*
X174582829Y-92551097D01*
G37*
X178531020Y-92517822D02*
X178598810Y-92549680D01*
X178654366Y-92604770D01*
X178665881Y-92622016D01*
X178675432Y-92641562D01*
X178682206Y-92666198D01*
X178686819Y-92700711D01*
X178689888Y-92749889D01*
X178692029Y-92818519D01*
X178693859Y-92911389D01*
X178698404Y-93169007D01*
X178660225Y-93154491D01*
X178625268Y-93141156D01*
X178599097Y-93128323D01*
X178582013Y-93111780D01*
X178572086Y-93086465D01*
X178567386Y-93047316D01*
X178565982Y-92989268D01*
X178565943Y-92907261D01*
X178565744Y-92841895D01*
X178564559Y-92779173D01*
X178561729Y-92736334D01*
X178556609Y-92708220D01*
X178548553Y-92689675D01*
X178536914Y-92675543D01*
X178508303Y-92655600D01*
X178460239Y-92648083D01*
X178412688Y-92667079D01*
X178409550Y-92669511D01*
X178399769Y-92680748D01*
X178392553Y-92698770D01*
X178387299Y-92728026D01*
X178383402Y-92772962D01*
X178380256Y-92838028D01*
X178377257Y-92927670D01*
X178370000Y-93167697D01*
X178308314Y-93140044D01*
X178246629Y-93112391D01*
X178246629Y-92893246D01*
X178246884Y-92833711D01*
X178249086Y-92750892D01*
X178254661Y-92689227D01*
X178264941Y-92643748D01*
X178281258Y-92609484D01*
X178304943Y-92581466D01*
X178337328Y-92554723D01*
X178383907Y-92527780D01*
X178457287Y-92510191D01*
X178531020Y-92517822D01*
G36*
X178531020Y-92517822D02*
G01*
X178598810Y-92549680D01*
X178654366Y-92604770D01*
X178665881Y-92622016D01*
X178675432Y-92641562D01*
X178682206Y-92666198D01*
X178686819Y-92700711D01*
X178689888Y-92749889D01*
X178692029Y-92818519D01*
X178693859Y-92911389D01*
X178698404Y-93169007D01*
X178660225Y-93154491D01*
X178625268Y-93141156D01*
X178599097Y-93128323D01*
X178582013Y-93111780D01*
X178572086Y-93086465D01*
X178567386Y-93047316D01*
X178565982Y-92989268D01*
X178565943Y-92907261D01*
X178565744Y-92841895D01*
X178564559Y-92779173D01*
X178561729Y-92736334D01*
X178556609Y-92708220D01*
X178548553Y-92689675D01*
X178536914Y-92675543D01*
X178508303Y-92655600D01*
X178460239Y-92648083D01*
X178412688Y-92667079D01*
X178409550Y-92669511D01*
X178399769Y-92680748D01*
X178392553Y-92698770D01*
X178387299Y-92728026D01*
X178383402Y-92772962D01*
X178380256Y-92838028D01*
X178377257Y-92927670D01*
X178370000Y-93167697D01*
X178308314Y-93140044D01*
X178246629Y-93112391D01*
X178246629Y-92893246D01*
X178246884Y-92833711D01*
X178249086Y-92750892D01*
X178254661Y-92689227D01*
X178264941Y-92643748D01*
X178281258Y-92609484D01*
X178304943Y-92581466D01*
X178337328Y-92554723D01*
X178383907Y-92527780D01*
X178457287Y-92510191D01*
X178531020Y-92517822D01*
G37*
X176707691Y-92566467D02*
X176712273Y-92569003D01*
X176749704Y-92598057D01*
X176783170Y-92635410D01*
X176789007Y-92643852D01*
X176800165Y-92663553D01*
X176808136Y-92686935D01*
X176813618Y-92719067D01*
X176817307Y-92765019D01*
X176819899Y-92829859D01*
X176822092Y-92918657D01*
X176822402Y-92933669D01*
X176823400Y-93030999D01*
X176821994Y-93099934D01*
X176818164Y-93140948D01*
X176811889Y-93154514D01*
X176792898Y-93150452D01*
X176760638Y-93138144D01*
X176753041Y-93134545D01*
X176741176Y-93126398D01*
X176732994Y-93113004D01*
X176727643Y-93089608D01*
X176724269Y-93051455D01*
X176722019Y-92993790D01*
X176720040Y-92911857D01*
X176719498Y-92887907D01*
X176717403Y-92812266D01*
X176714683Y-92759328D01*
X176710515Y-92724075D01*
X176704079Y-92701487D01*
X176694550Y-92686544D01*
X176681106Y-92674227D01*
X176641305Y-92652634D01*
X176592341Y-92648476D01*
X176548529Y-92664999D01*
X176517008Y-92699210D01*
X176504914Y-92748114D01*
X176504578Y-92761407D01*
X176497972Y-92785472D01*
X176478470Y-92789144D01*
X176440283Y-92774813D01*
X176431438Y-92770217D01*
X176407534Y-92743186D01*
X176407061Y-92702994D01*
X176429836Y-92647409D01*
X176450727Y-92617117D01*
X176504142Y-92574084D01*
X176570074Y-92549755D01*
X176640574Y-92546443D01*
X176707691Y-92566467D01*
G36*
X176707691Y-92566467D02*
G01*
X176712273Y-92569003D01*
X176749704Y-92598057D01*
X176783170Y-92635410D01*
X176789007Y-92643852D01*
X176800165Y-92663553D01*
X176808136Y-92686935D01*
X176813618Y-92719067D01*
X176817307Y-92765019D01*
X176819899Y-92829859D01*
X176822092Y-92918657D01*
X176822402Y-92933669D01*
X176823400Y-93030999D01*
X176821994Y-93099934D01*
X176818164Y-93140948D01*
X176811889Y-93154514D01*
X176792898Y-93150452D01*
X176760638Y-93138144D01*
X176753041Y-93134545D01*
X176741176Y-93126398D01*
X176732994Y-93113004D01*
X176727643Y-93089608D01*
X176724269Y-93051455D01*
X176722019Y-92993790D01*
X176720040Y-92911857D01*
X176719498Y-92887907D01*
X176717403Y-92812266D01*
X176714683Y-92759328D01*
X176710515Y-92724075D01*
X176704079Y-92701487D01*
X176694550Y-92686544D01*
X176681106Y-92674227D01*
X176641305Y-92652634D01*
X176592341Y-92648476D01*
X176548529Y-92664999D01*
X176517008Y-92699210D01*
X176504914Y-92748114D01*
X176504578Y-92761407D01*
X176497972Y-92785472D01*
X176478470Y-92789144D01*
X176440283Y-92774813D01*
X176431438Y-92770217D01*
X176407534Y-92743186D01*
X176407061Y-92702994D01*
X176429836Y-92647409D01*
X176450727Y-92617117D01*
X176504142Y-92574084D01*
X176570074Y-92549755D01*
X176640574Y-92546443D01*
X176707691Y-92566467D01*
G37*
X175753941Y-92549282D02*
X175785774Y-92561758D01*
X175822743Y-92578602D01*
X175822743Y-93065196D01*
X175776812Y-93111127D01*
X175766320Y-93121427D01*
X175737255Y-93144320D01*
X175707943Y-93151735D01*
X175664326Y-93148321D01*
X175646568Y-93146114D01*
X175600767Y-93141445D01*
X175568743Y-93139585D01*
X175559244Y-93139869D01*
X175520274Y-93142948D01*
X175473160Y-93148321D01*
X175458085Y-93150168D01*
X175420110Y-93150893D01*
X175392325Y-93139429D01*
X175360674Y-93111127D01*
X175314743Y-93065196D01*
X175314743Y-92805055D01*
X175315101Y-92728180D01*
X175316216Y-92654886D01*
X175317952Y-92596850D01*
X175320167Y-92558663D01*
X175322721Y-92544914D01*
X175323256Y-92544951D01*
X175341808Y-92551793D01*
X175373153Y-92566868D01*
X175415608Y-92588822D01*
X175419604Y-92817240D01*
X175423600Y-93045657D01*
X175510686Y-93045657D01*
X175514657Y-92795286D01*
X175515916Y-92727227D01*
X175517718Y-92654482D01*
X175519671Y-92596730D01*
X175521612Y-92558648D01*
X175523377Y-92544914D01*
X175523885Y-92544962D01*
X175541482Y-92550015D01*
X175573834Y-92560849D01*
X175619543Y-92576783D01*
X175619765Y-92796706D01*
X175619988Y-92834909D01*
X175621531Y-92909146D01*
X175624292Y-92971145D01*
X175627977Y-93015308D01*
X175632292Y-93036041D01*
X175647732Y-93047131D01*
X175679241Y-93050556D01*
X175713886Y-93045657D01*
X175717857Y-92795286D01*
X175719278Y-92731663D01*
X175722225Y-92656356D01*
X175726079Y-92597286D01*
X175730542Y-92558718D01*
X175735317Y-92544914D01*
X175753941Y-92549282D01*
G36*
X175753941Y-92549282D02*
G01*
X175785774Y-92561758D01*
X175822743Y-92578602D01*
X175822743Y-93065196D01*
X175776812Y-93111127D01*
X175766320Y-93121427D01*
X175737255Y-93144320D01*
X175707943Y-93151735D01*
X175664326Y-93148321D01*
X175646568Y-93146114D01*
X175600767Y-93141445D01*
X175568743Y-93139585D01*
X175559244Y-93139869D01*
X175520274Y-93142948D01*
X175473160Y-93148321D01*
X175458085Y-93150168D01*
X175420110Y-93150893D01*
X175392325Y-93139429D01*
X175360674Y-93111127D01*
X175314743Y-93065196D01*
X175314743Y-92805055D01*
X175315101Y-92728180D01*
X175316216Y-92654886D01*
X175317952Y-92596850D01*
X175320167Y-92558663D01*
X175322721Y-92544914D01*
X175323256Y-92544951D01*
X175341808Y-92551793D01*
X175373153Y-92566868D01*
X175415608Y-92588822D01*
X175419604Y-92817240D01*
X175423600Y-93045657D01*
X175510686Y-93045657D01*
X175514657Y-92795286D01*
X175515916Y-92727227D01*
X175517718Y-92654482D01*
X175519671Y-92596730D01*
X175521612Y-92558648D01*
X175523377Y-92544914D01*
X175523885Y-92544962D01*
X175541482Y-92550015D01*
X175573834Y-92560849D01*
X175619543Y-92576783D01*
X175619765Y-92796706D01*
X175619988Y-92834909D01*
X175621531Y-92909146D01*
X175624292Y-92971145D01*
X175627977Y-93015308D01*
X175632292Y-93036041D01*
X175647732Y-93047131D01*
X175679241Y-93050556D01*
X175713886Y-93045657D01*
X175717857Y-92795286D01*
X175719278Y-92731663D01*
X175722225Y-92656356D01*
X175726079Y-92597286D01*
X175730542Y-92558718D01*
X175735317Y-92544914D01*
X175753941Y-92549282D01*
G37*
X177778543Y-92349444D02*
X177825714Y-92369342D01*
X177825714Y-92766509D01*
X177825519Y-92869498D01*
X177824998Y-92962141D01*
X177824199Y-93040700D01*
X177823172Y-93101439D01*
X177821963Y-93140623D01*
X177820623Y-93154514D01*
X177820099Y-93154468D01*
X177802287Y-93149420D01*
X177769823Y-93138580D01*
X177724114Y-93122646D01*
X177724114Y-92918173D01*
X177723824Y-92837832D01*
X177722474Y-92779562D01*
X177719369Y-92739909D01*
X177713812Y-92713618D01*
X177705107Y-92695436D01*
X177692556Y-92680107D01*
X177683999Y-92671955D01*
X177637728Y-92649375D01*
X177586728Y-92651375D01*
X177539993Y-92678073D01*
X177533189Y-92684698D01*
X177522293Y-92698456D01*
X177514836Y-92716642D01*
X177510169Y-92744177D01*
X177507642Y-92785981D01*
X177506602Y-92846973D01*
X177506400Y-92932073D01*
X177506303Y-92975234D01*
X177505674Y-93046224D01*
X177504556Y-93103076D01*
X177503063Y-93140828D01*
X177501309Y-93154514D01*
X177500785Y-93154468D01*
X177482973Y-93149420D01*
X177450509Y-93138580D01*
X177404800Y-93122646D01*
X177404823Y-92917237D01*
X177404857Y-92898951D01*
X177406778Y-92803626D01*
X177412678Y-92731543D01*
X177424001Y-92677813D01*
X177442187Y-92637549D01*
X177468679Y-92605861D01*
X177504918Y-92577861D01*
X177540263Y-92560333D01*
X177596773Y-92546785D01*
X177652356Y-92546015D01*
X177695086Y-92559195D01*
X177698298Y-92561015D01*
X177708205Y-92560820D01*
X177714975Y-92545572D01*
X177719861Y-92510613D01*
X177724114Y-92451289D01*
X177731371Y-92329547D01*
X177778543Y-92349444D01*
G36*
X177778543Y-92349444D02*
G01*
X177825714Y-92369342D01*
X177825714Y-92766509D01*
X177825519Y-92869498D01*
X177824998Y-92962141D01*
X177824199Y-93040700D01*
X177823172Y-93101439D01*
X177821963Y-93140623D01*
X177820623Y-93154514D01*
X177820099Y-93154468D01*
X177802287Y-93149420D01*
X177769823Y-93138580D01*
X177724114Y-93122646D01*
X177724114Y-92918173D01*
X177723824Y-92837832D01*
X177722474Y-92779562D01*
X177719369Y-92739909D01*
X177713812Y-92713618D01*
X177705107Y-92695436D01*
X177692556Y-92680107D01*
X177683999Y-92671955D01*
X177637728Y-92649375D01*
X177586728Y-92651375D01*
X177539993Y-92678073D01*
X177533189Y-92684698D01*
X177522293Y-92698456D01*
X177514836Y-92716642D01*
X177510169Y-92744177D01*
X177507642Y-92785981D01*
X177506602Y-92846973D01*
X177506400Y-92932073D01*
X177506303Y-92975234D01*
X177505674Y-93046224D01*
X177504556Y-93103076D01*
X177503063Y-93140828D01*
X177501309Y-93154514D01*
X177500785Y-93154468D01*
X177482973Y-93149420D01*
X177450509Y-93138580D01*
X177404800Y-93122646D01*
X177404823Y-92917237D01*
X177404857Y-92898951D01*
X177406778Y-92803626D01*
X177412678Y-92731543D01*
X177424001Y-92677813D01*
X177442187Y-92637549D01*
X177468679Y-92605861D01*
X177504918Y-92577861D01*
X177540263Y-92560333D01*
X177596773Y-92546785D01*
X177652356Y-92546015D01*
X177695086Y-92559195D01*
X177698298Y-92561015D01*
X177708205Y-92560820D01*
X177714975Y-92545572D01*
X177719861Y-92510613D01*
X177724114Y-92451289D01*
X177731371Y-92329547D01*
X177778543Y-92349444D01*
G37*
X180365714Y-92835200D02*
X180365701Y-92850935D01*
X180364914Y-92921119D01*
X180362210Y-92970022D01*
X180356606Y-93004178D01*
X180347119Y-93030124D01*
X180332768Y-93054397D01*
X180329237Y-93059433D01*
X180291878Y-93099143D01*
X180249311Y-93129092D01*
X180227452Y-93138810D01*
X180148908Y-93155020D01*
X180071231Y-93144535D01*
X179999645Y-93108707D01*
X179939374Y-93048887D01*
X179934286Y-93040873D01*
X179917730Y-92994342D01*
X179906573Y-92929552D01*
X179901160Y-92854727D01*
X179901768Y-92785513D01*
X180048248Y-92785513D01*
X180049402Y-92881399D01*
X180049866Y-92887569D01*
X180056629Y-92940478D01*
X180068671Y-92974029D01*
X180089005Y-92997016D01*
X180123097Y-93018548D01*
X180156814Y-93019680D01*
X180191543Y-92994857D01*
X180197584Y-92988325D01*
X180209417Y-92968779D01*
X180216404Y-92940386D01*
X180219727Y-92896430D01*
X180220571Y-92830192D01*
X180219125Y-92768150D01*
X180211907Y-92709042D01*
X180197006Y-92671686D01*
X180172636Y-92652152D01*
X180137008Y-92646514D01*
X180123440Y-92647635D01*
X180085430Y-92668194D01*
X180060312Y-92714299D01*
X180048248Y-92785513D01*
X179901768Y-92785513D01*
X179901833Y-92778096D01*
X179908937Y-92707882D01*
X179922815Y-92652312D01*
X179940649Y-92615301D01*
X179990855Y-92557733D01*
X180058885Y-92521962D01*
X180142158Y-92509665D01*
X180164398Y-92510331D01*
X180229891Y-92523947D01*
X180283687Y-92558249D01*
X180333057Y-92617338D01*
X180335995Y-92621722D01*
X180349287Y-92645299D01*
X180357932Y-92671949D01*
X180362904Y-92708159D01*
X180365174Y-92760413D01*
X180365678Y-92830192D01*
X180365714Y-92835200D01*
G36*
X180365714Y-92835200D02*
G01*
X180365701Y-92850935D01*
X180364914Y-92921119D01*
X180362210Y-92970022D01*
X180356606Y-93004178D01*
X180347119Y-93030124D01*
X180332768Y-93054397D01*
X180329237Y-93059433D01*
X180291878Y-93099143D01*
X180249311Y-93129092D01*
X180227452Y-93138810D01*
X180148908Y-93155020D01*
X180071231Y-93144535D01*
X179999645Y-93108707D01*
X179939374Y-93048887D01*
X179934286Y-93040873D01*
X179917730Y-92994342D01*
X179906573Y-92929552D01*
X179901160Y-92854727D01*
X179901768Y-92785513D01*
X180048248Y-92785513D01*
X180049402Y-92881399D01*
X180049866Y-92887569D01*
X180056629Y-92940478D01*
X180068671Y-92974029D01*
X180089005Y-92997016D01*
X180123097Y-93018548D01*
X180156814Y-93019680D01*
X180191543Y-92994857D01*
X180197584Y-92988325D01*
X180209417Y-92968779D01*
X180216404Y-92940386D01*
X180219727Y-92896430D01*
X180220571Y-92830192D01*
X180219125Y-92768150D01*
X180211907Y-92709042D01*
X180197006Y-92671686D01*
X180172636Y-92652152D01*
X180137008Y-92646514D01*
X180123440Y-92647635D01*
X180085430Y-92668194D01*
X180060312Y-92714299D01*
X180048248Y-92785513D01*
X179901768Y-92785513D01*
X179901833Y-92778096D01*
X179908937Y-92707882D01*
X179922815Y-92652312D01*
X179940649Y-92615301D01*
X179990855Y-92557733D01*
X180058885Y-92521962D01*
X180142158Y-92509665D01*
X180164398Y-92510331D01*
X180229891Y-92523947D01*
X180283687Y-92558249D01*
X180333057Y-92617338D01*
X180335995Y-92621722D01*
X180349287Y-92645299D01*
X180357932Y-92671949D01*
X180362904Y-92708159D01*
X180365174Y-92760413D01*
X180365678Y-92830192D01*
X180365714Y-92835200D01*
G37*
X174240590Y-92852622D02*
X174240307Y-92891305D01*
X174236762Y-92967521D01*
X174227483Y-93023294D01*
X174210375Y-93064613D01*
X174183344Y-93097467D01*
X174144292Y-93127846D01*
X174119445Y-93141660D01*
X174079615Y-93150965D01*
X174023665Y-93150230D01*
X173992385Y-93147283D01*
X173954653Y-93138283D01*
X173924494Y-93118720D01*
X173889408Y-93082267D01*
X173884720Y-93076943D01*
X173853177Y-93035969D01*
X173838128Y-93000283D01*
X173834286Y-92957966D01*
X173834286Y-92895779D01*
X173877742Y-92912182D01*
X173909424Y-92931356D01*
X173936962Y-92976347D01*
X173942711Y-92990752D01*
X173974855Y-93031546D01*
X174018611Y-93052081D01*
X174066254Y-93050235D01*
X174110057Y-93023886D01*
X174125111Y-93007455D01*
X174138763Y-92982667D01*
X174134493Y-92960144D01*
X174109916Y-92936964D01*
X174062651Y-92910202D01*
X173990314Y-92876934D01*
X173841543Y-92811816D01*
X173837595Y-92747308D01*
X173839079Y-92706220D01*
X173936010Y-92706220D01*
X173943368Y-92731657D01*
X173976848Y-92758814D01*
X174037614Y-92789714D01*
X174047669Y-92794190D01*
X174095751Y-92815017D01*
X174131726Y-92829665D01*
X174148444Y-92835200D01*
X174150977Y-92831126D01*
X174151993Y-92806247D01*
X174148369Y-92766257D01*
X174139242Y-92727152D01*
X174110773Y-92677884D01*
X174069678Y-92650122D01*
X174020590Y-92646364D01*
X173968144Y-92669109D01*
X173953609Y-92680481D01*
X173936010Y-92706220D01*
X173839079Y-92706220D01*
X173839338Y-92699064D01*
X173861281Y-92638096D01*
X173888979Y-92604497D01*
X173946405Y-92566966D01*
X174014527Y-92548006D01*
X174084947Y-92549507D01*
X174149267Y-92573355D01*
X174163426Y-92582513D01*
X174195904Y-92610849D01*
X174218116Y-92646695D01*
X174231804Y-92695384D01*
X174238715Y-92762249D01*
X174239628Y-92806247D01*
X174240590Y-92852622D01*
G36*
X174240590Y-92852622D02*
G01*
X174240307Y-92891305D01*
X174236762Y-92967521D01*
X174227483Y-93023294D01*
X174210375Y-93064613D01*
X174183344Y-93097467D01*
X174144292Y-93127846D01*
X174119445Y-93141660D01*
X174079615Y-93150965D01*
X174023665Y-93150230D01*
X173992385Y-93147283D01*
X173954653Y-93138283D01*
X173924494Y-93118720D01*
X173889408Y-93082267D01*
X173884720Y-93076943D01*
X173853177Y-93035969D01*
X173838128Y-93000283D01*
X173834286Y-92957966D01*
X173834286Y-92895779D01*
X173877742Y-92912182D01*
X173909424Y-92931356D01*
X173936962Y-92976347D01*
X173942711Y-92990752D01*
X173974855Y-93031546D01*
X174018611Y-93052081D01*
X174066254Y-93050235D01*
X174110057Y-93023886D01*
X174125111Y-93007455D01*
X174138763Y-92982667D01*
X174134493Y-92960144D01*
X174109916Y-92936964D01*
X174062651Y-92910202D01*
X173990314Y-92876934D01*
X173841543Y-92811816D01*
X173837595Y-92747308D01*
X173839079Y-92706220D01*
X173936010Y-92706220D01*
X173943368Y-92731657D01*
X173976848Y-92758814D01*
X174037614Y-92789714D01*
X174047669Y-92794190D01*
X174095751Y-92815017D01*
X174131726Y-92829665D01*
X174148444Y-92835200D01*
X174150977Y-92831126D01*
X174151993Y-92806247D01*
X174148369Y-92766257D01*
X174139242Y-92727152D01*
X174110773Y-92677884D01*
X174069678Y-92650122D01*
X174020590Y-92646364D01*
X173968144Y-92669109D01*
X173953609Y-92680481D01*
X173936010Y-92706220D01*
X173839079Y-92706220D01*
X173839338Y-92699064D01*
X173861281Y-92638096D01*
X173888979Y-92604497D01*
X173946405Y-92566966D01*
X174014527Y-92548006D01*
X174084947Y-92549507D01*
X174149267Y-92573355D01*
X174163426Y-92582513D01*
X174195904Y-92610849D01*
X174218116Y-92646695D01*
X174231804Y-92695384D01*
X174238715Y-92762249D01*
X174239628Y-92806247D01*
X174240590Y-92852622D01*
G37*
X176330698Y-92849714D02*
X176329537Y-92906313D01*
X176321345Y-92983462D01*
X176303519Y-93041276D01*
X176273975Y-93085422D01*
X176230625Y-93121568D01*
X176189332Y-93142463D01*
X176119987Y-93154090D01*
X176050736Y-93141377D01*
X175988145Y-93105945D01*
X175938779Y-93049418D01*
X175932818Y-93038995D01*
X175924945Y-93020733D01*
X175919106Y-92997429D01*
X175914999Y-92965085D01*
X175912325Y-92919704D01*
X175910781Y-92857287D01*
X175910734Y-92851748D01*
X176011429Y-92851748D01*
X176011772Y-92904577D01*
X176013942Y-92952362D01*
X176019307Y-92983209D01*
X176029217Y-93003935D01*
X176045021Y-93021356D01*
X176048724Y-93024705D01*
X176096299Y-93049419D01*
X176146635Y-93046890D01*
X176193517Y-93017288D01*
X176207477Y-93001953D01*
X176219160Y-92981622D01*
X176225686Y-92953514D01*
X176228524Y-92910550D01*
X176229143Y-92845647D01*
X176228837Y-92796122D01*
X176226722Y-92747782D01*
X176221390Y-92716587D01*
X176211460Y-92695647D01*
X176195550Y-92678073D01*
X176186204Y-92670159D01*
X176137776Y-92648843D01*
X176087040Y-92652198D01*
X176042987Y-92680107D01*
X176033504Y-92691173D01*
X176021939Y-92712009D01*
X176015252Y-92741106D01*
X176012173Y-92785381D01*
X176011429Y-92851748D01*
X175910734Y-92851748D01*
X175910067Y-92773837D01*
X175909883Y-92665358D01*
X175909829Y-92328601D01*
X175957000Y-92348362D01*
X175969472Y-92353770D01*
X175989324Y-92365985D01*
X176000687Y-92384482D01*
X176006933Y-92416829D01*
X176011429Y-92470593D01*
X176015535Y-92518866D01*
X176020963Y-92550557D01*
X176028739Y-92562383D01*
X176040457Y-92559212D01*
X176070318Y-92548067D01*
X176123684Y-92545304D01*
X176181093Y-92555625D01*
X176230625Y-92577861D01*
X176257876Y-92598443D01*
X176292865Y-92638600D01*
X176315274Y-92690086D01*
X176327190Y-92758568D01*
X176330542Y-92845647D01*
X176330698Y-92849714D01*
G36*
X176330698Y-92849714D02*
G01*
X176329537Y-92906313D01*
X176321345Y-92983462D01*
X176303519Y-93041276D01*
X176273975Y-93085422D01*
X176230625Y-93121568D01*
X176189332Y-93142463D01*
X176119987Y-93154090D01*
X176050736Y-93141377D01*
X175988145Y-93105945D01*
X175938779Y-93049418D01*
X175932818Y-93038995D01*
X175924945Y-93020733D01*
X175919106Y-92997429D01*
X175914999Y-92965085D01*
X175912325Y-92919704D01*
X175910781Y-92857287D01*
X175910734Y-92851748D01*
X176011429Y-92851748D01*
X176011772Y-92904577D01*
X176013942Y-92952362D01*
X176019307Y-92983209D01*
X176029217Y-93003935D01*
X176045021Y-93021356D01*
X176048724Y-93024705D01*
X176096299Y-93049419D01*
X176146635Y-93046890D01*
X176193517Y-93017288D01*
X176207477Y-93001953D01*
X176219160Y-92981622D01*
X176225686Y-92953514D01*
X176228524Y-92910550D01*
X176229143Y-92845647D01*
X176228837Y-92796122D01*
X176226722Y-92747782D01*
X176221390Y-92716587D01*
X176211460Y-92695647D01*
X176195550Y-92678073D01*
X176186204Y-92670159D01*
X176137776Y-92648843D01*
X176087040Y-92652198D01*
X176042987Y-92680107D01*
X176033504Y-92691173D01*
X176021939Y-92712009D01*
X176015252Y-92741106D01*
X176012173Y-92785381D01*
X176011429Y-92851748D01*
X175910734Y-92851748D01*
X175910067Y-92773837D01*
X175909883Y-92665358D01*
X175909829Y-92328601D01*
X175957000Y-92348362D01*
X175969472Y-92353770D01*
X175989324Y-92365985D01*
X176000687Y-92384482D01*
X176006933Y-92416829D01*
X176011429Y-92470593D01*
X176015535Y-92518866D01*
X176020963Y-92550557D01*
X176028739Y-92562383D01*
X176040457Y-92559212D01*
X176070318Y-92548067D01*
X176123684Y-92545304D01*
X176181093Y-92555625D01*
X176230625Y-92577861D01*
X176257876Y-92598443D01*
X176292865Y-92638600D01*
X176315274Y-92690086D01*
X176327190Y-92758568D01*
X176330542Y-92845647D01*
X176330698Y-92849714D01*
G37*
X179262299Y-92794055D02*
X179257684Y-92904078D01*
X179255078Y-92927387D01*
X179235660Y-93010352D01*
X179200573Y-93073448D01*
X179147212Y-93121808D01*
X179144196Y-93123804D01*
X179076362Y-93152185D01*
X179005535Y-93154711D01*
X178937289Y-93133097D01*
X178877196Y-93089062D01*
X178830829Y-93024322D01*
X178830050Y-93022761D01*
X178814643Y-92982558D01*
X178803357Y-92936866D01*
X178797370Y-92893972D01*
X178797861Y-92862160D01*
X178806007Y-92849714D01*
X178813244Y-92850471D01*
X178847851Y-92864235D01*
X178887078Y-92889546D01*
X178920448Y-92918845D01*
X178937483Y-92944572D01*
X178955192Y-92979471D01*
X178991485Y-93011212D01*
X179033630Y-93023886D01*
X179049077Y-93020221D01*
X179079569Y-93001774D01*
X179106128Y-92976166D01*
X179117486Y-92952934D01*
X179117482Y-92952848D01*
X179104596Y-92942179D01*
X179070241Y-92922933D01*
X179019593Y-92897813D01*
X178957829Y-92869524D01*
X178957489Y-92869374D01*
X178890388Y-92839498D01*
X178845411Y-92817973D01*
X178818145Y-92801437D01*
X178804178Y-92786531D01*
X178799097Y-92769893D01*
X178798490Y-92748162D01*
X178802712Y-92707013D01*
X178946000Y-92707013D01*
X178960791Y-92719949D01*
X178997644Y-92739333D01*
X178998725Y-92739881D01*
X179042205Y-92760587D01*
X179081102Y-92777105D01*
X179105778Y-92784093D01*
X179115676Y-92774753D01*
X179117486Y-92742748D01*
X179109966Y-92702915D01*
X179083897Y-92666717D01*
X179046154Y-92647950D01*
X179004077Y-92649845D01*
X178965005Y-92675632D01*
X178949647Y-92693451D01*
X178946000Y-92707013D01*
X178802712Y-92707013D01*
X178803833Y-92696086D01*
X178830251Y-92625335D01*
X178874473Y-92569735D01*
X178931697Y-92531239D01*
X178997120Y-92511797D01*
X179065937Y-92513359D01*
X179133347Y-92537878D01*
X179194544Y-92587302D01*
X179228450Y-92636212D01*
X179252806Y-92706027D01*
X179256767Y-92742748D01*
X179262299Y-92794055D01*
G36*
X179262299Y-92794055D02*
G01*
X179257684Y-92904078D01*
X179255078Y-92927387D01*
X179235660Y-93010352D01*
X179200573Y-93073448D01*
X179147212Y-93121808D01*
X179144196Y-93123804D01*
X179076362Y-93152185D01*
X179005535Y-93154711D01*
X178937289Y-93133097D01*
X178877196Y-93089062D01*
X178830829Y-93024322D01*
X178830050Y-93022761D01*
X178814643Y-92982558D01*
X178803357Y-92936866D01*
X178797370Y-92893972D01*
X178797861Y-92862160D01*
X178806007Y-92849714D01*
X178813244Y-92850471D01*
X178847851Y-92864235D01*
X178887078Y-92889546D01*
X178920448Y-92918845D01*
X178937483Y-92944572D01*
X178955192Y-92979471D01*
X178991485Y-93011212D01*
X179033630Y-93023886D01*
X179049077Y-93020221D01*
X179079569Y-93001774D01*
X179106128Y-92976166D01*
X179117486Y-92952934D01*
X179117482Y-92952848D01*
X179104596Y-92942179D01*
X179070241Y-92922933D01*
X179019593Y-92897813D01*
X178957829Y-92869524D01*
X178957489Y-92869374D01*
X178890388Y-92839498D01*
X178845411Y-92817973D01*
X178818145Y-92801437D01*
X178804178Y-92786531D01*
X178799097Y-92769893D01*
X178798490Y-92748162D01*
X178802712Y-92707013D01*
X178946000Y-92707013D01*
X178960791Y-92719949D01*
X178997644Y-92739333D01*
X178998725Y-92739881D01*
X179042205Y-92760587D01*
X179081102Y-92777105D01*
X179105778Y-92784093D01*
X179115676Y-92774753D01*
X179117486Y-92742748D01*
X179109966Y-92702915D01*
X179083897Y-92666717D01*
X179046154Y-92647950D01*
X179004077Y-92649845D01*
X178965005Y-92675632D01*
X178949647Y-92693451D01*
X178946000Y-92707013D01*
X178802712Y-92707013D01*
X178803833Y-92696086D01*
X178830251Y-92625335D01*
X178874473Y-92569735D01*
X178931697Y-92531239D01*
X178997120Y-92511797D01*
X179065937Y-92513359D01*
X179133347Y-92537878D01*
X179194544Y-92587302D01*
X179228450Y-92636212D01*
X179252806Y-92706027D01*
X179256767Y-92742748D01*
X179262299Y-92794055D01*
G37*
X177189483Y-92560569D02*
X177239376Y-92589661D01*
X177261325Y-92612327D01*
X177303504Y-92680082D01*
X177317714Y-92753950D01*
X177317714Y-92804770D01*
X177270999Y-92785128D01*
X177238692Y-92765308D01*
X177213231Y-92724160D01*
X177210616Y-92715675D01*
X177182478Y-92672451D01*
X177140067Y-92649103D01*
X177091370Y-92648100D01*
X177044373Y-92671914D01*
X177037357Y-92678056D01*
X177013893Y-92704745D01*
X177010019Y-92728014D01*
X177027768Y-92750862D01*
X177069179Y-92776287D01*
X177136286Y-92807288D01*
X177140824Y-92809252D01*
X177215322Y-92843990D01*
X177266203Y-92874763D01*
X177297525Y-92905488D01*
X177313343Y-92940082D01*
X177317714Y-92982462D01*
X177311986Y-93029446D01*
X177283062Y-93089585D01*
X177232178Y-93132788D01*
X177195374Y-93145759D01*
X177143434Y-93152856D01*
X177092999Y-93151340D01*
X177056983Y-93140632D01*
X177053158Y-93137966D01*
X177042998Y-93119337D01*
X177050048Y-93086505D01*
X177062297Y-93060735D01*
X177081939Y-93050006D01*
X177119191Y-93050539D01*
X177170908Y-93047462D01*
X177204701Y-93026212D01*
X177216114Y-92986877D01*
X177216104Y-92985747D01*
X177209187Y-92962913D01*
X177185659Y-92941963D01*
X177139914Y-92917815D01*
X177077704Y-92888741D01*
X177036499Y-92872925D01*
X177012712Y-92873944D01*
X177001597Y-92894837D01*
X176998408Y-92938641D01*
X176998400Y-93008393D01*
X176998044Y-93051452D01*
X176996413Y-93104626D01*
X176993761Y-93141022D01*
X176990422Y-93154514D01*
X176989530Y-93154423D01*
X176970237Y-93147110D01*
X176938284Y-93131678D01*
X176894124Y-93108842D01*
X176899371Y-92903078D01*
X176899736Y-92889432D01*
X176903904Y-92793651D01*
X176911268Y-92721462D01*
X176923330Y-92668058D01*
X176941593Y-92628633D01*
X176967560Y-92598380D01*
X177002733Y-92572493D01*
X177003384Y-92572087D01*
X177060256Y-92550968D01*
X177126033Y-92547400D01*
X177189483Y-92560569D01*
G36*
X177189483Y-92560569D02*
G01*
X177239376Y-92589661D01*
X177261325Y-92612327D01*
X177303504Y-92680082D01*
X177317714Y-92753950D01*
X177317714Y-92804770D01*
X177270999Y-92785128D01*
X177238692Y-92765308D01*
X177213231Y-92724160D01*
X177210616Y-92715675D01*
X177182478Y-92672451D01*
X177140067Y-92649103D01*
X177091370Y-92648100D01*
X177044373Y-92671914D01*
X177037357Y-92678056D01*
X177013893Y-92704745D01*
X177010019Y-92728014D01*
X177027768Y-92750862D01*
X177069179Y-92776287D01*
X177136286Y-92807288D01*
X177140824Y-92809252D01*
X177215322Y-92843990D01*
X177266203Y-92874763D01*
X177297525Y-92905488D01*
X177313343Y-92940082D01*
X177317714Y-92982462D01*
X177311986Y-93029446D01*
X177283062Y-93089585D01*
X177232178Y-93132788D01*
X177195374Y-93145759D01*
X177143434Y-93152856D01*
X177092999Y-93151340D01*
X177056983Y-93140632D01*
X177053158Y-93137966D01*
X177042998Y-93119337D01*
X177050048Y-93086505D01*
X177062297Y-93060735D01*
X177081939Y-93050006D01*
X177119191Y-93050539D01*
X177170908Y-93047462D01*
X177204701Y-93026212D01*
X177216114Y-92986877D01*
X177216104Y-92985747D01*
X177209187Y-92962913D01*
X177185659Y-92941963D01*
X177139914Y-92917815D01*
X177077704Y-92888741D01*
X177036499Y-92872925D01*
X177012712Y-92873944D01*
X177001597Y-92894837D01*
X176998408Y-92938641D01*
X176998400Y-93008393D01*
X176998044Y-93051452D01*
X176996413Y-93104626D01*
X176993761Y-93141022D01*
X176990422Y-93154514D01*
X176989530Y-93154423D01*
X176970237Y-93147110D01*
X176938284Y-93131678D01*
X176894124Y-93108842D01*
X176899371Y-92903078D01*
X176899736Y-92889432D01*
X176903904Y-92793651D01*
X176911268Y-92721462D01*
X176923330Y-92668058D01*
X176941593Y-92628633D01*
X176967560Y-92598380D01*
X177002733Y-92572493D01*
X177003384Y-92572087D01*
X177060256Y-92550968D01*
X177126033Y-92547400D01*
X177189483Y-92560569D01*
G37*
X175067495Y-92546220D02*
X175098599Y-92554121D01*
X175127559Y-92573817D01*
X175164831Y-92610484D01*
X175188801Y-92636378D01*
X175213770Y-92669997D01*
X175225031Y-92701506D01*
X175227657Y-92741485D01*
X175227657Y-92806917D01*
X175183035Y-92783842D01*
X175147673Y-92755724D01*
X175123451Y-92717848D01*
X175119291Y-92707551D01*
X175087594Y-92667637D01*
X175043554Y-92647624D01*
X174995531Y-92649572D01*
X174951886Y-92675543D01*
X174933420Y-92696635D01*
X174922663Y-92723619D01*
X174934178Y-92747634D01*
X174969981Y-92771791D01*
X175032090Y-92799199D01*
X175041515Y-92802985D01*
X175098058Y-92827759D01*
X175146580Y-92852189D01*
X175177451Y-92871486D01*
X175208371Y-92905953D01*
X175228927Y-92960957D01*
X175226744Y-93019983D01*
X175202424Y-93075845D01*
X175156568Y-93121355D01*
X175119438Y-93140727D01*
X175047711Y-93154292D01*
X175007852Y-93152462D01*
X174970953Y-93142568D01*
X174956797Y-93121806D01*
X174962091Y-93087613D01*
X174963631Y-93083092D01*
X174975842Y-93059116D01*
X174996174Y-93050042D01*
X175034908Y-93050649D01*
X175062257Y-93051474D01*
X175094257Y-93044392D01*
X175116182Y-93023219D01*
X175128670Y-92997152D01*
X175130062Y-92969845D01*
X175129998Y-92969685D01*
X175113807Y-92954930D01*
X175079155Y-92933457D01*
X175034321Y-92909458D01*
X174987582Y-92887125D01*
X174947217Y-92870652D01*
X174921504Y-92864229D01*
X174917679Y-92870518D01*
X174912864Y-92900115D01*
X174909566Y-92948447D01*
X174908343Y-93009372D01*
X174908058Y-93051542D01*
X174906718Y-93104653D01*
X174904528Y-93141025D01*
X174901769Y-93154514D01*
X174887344Y-93149981D01*
X174858226Y-93137670D01*
X174821257Y-93120826D01*
X174821257Y-92904721D01*
X174821493Y-92849327D01*
X174823729Y-92765207D01*
X174829423Y-92702800D01*
X174839903Y-92657358D01*
X174856497Y-92624133D01*
X174880531Y-92598378D01*
X174913333Y-92575344D01*
X174955124Y-92556335D01*
X175032287Y-92544914D01*
X175067495Y-92546220D01*
G36*
X175067495Y-92546220D02*
G01*
X175098599Y-92554121D01*
X175127559Y-92573817D01*
X175164831Y-92610484D01*
X175188801Y-92636378D01*
X175213770Y-92669997D01*
X175225031Y-92701506D01*
X175227657Y-92741485D01*
X175227657Y-92806917D01*
X175183035Y-92783842D01*
X175147673Y-92755724D01*
X175123451Y-92717848D01*
X175119291Y-92707551D01*
X175087594Y-92667637D01*
X175043554Y-92647624D01*
X174995531Y-92649572D01*
X174951886Y-92675543D01*
X174933420Y-92696635D01*
X174922663Y-92723619D01*
X174934178Y-92747634D01*
X174969981Y-92771791D01*
X175032090Y-92799199D01*
X175041515Y-92802985D01*
X175098058Y-92827759D01*
X175146580Y-92852189D01*
X175177451Y-92871486D01*
X175208371Y-92905953D01*
X175228927Y-92960957D01*
X175226744Y-93019983D01*
X175202424Y-93075845D01*
X175156568Y-93121355D01*
X175119438Y-93140727D01*
X175047711Y-93154292D01*
X175007852Y-93152462D01*
X174970953Y-93142568D01*
X174956797Y-93121806D01*
X174962091Y-93087613D01*
X174963631Y-93083092D01*
X174975842Y-93059116D01*
X174996174Y-93050042D01*
X175034908Y-93050649D01*
X175062257Y-93051474D01*
X175094257Y-93044392D01*
X175116182Y-93023219D01*
X175128670Y-92997152D01*
X175130062Y-92969845D01*
X175129998Y-92969685D01*
X175113807Y-92954930D01*
X175079155Y-92933457D01*
X175034321Y-92909458D01*
X174987582Y-92887125D01*
X174947217Y-92870652D01*
X174921504Y-92864229D01*
X174917679Y-92870518D01*
X174912864Y-92900115D01*
X174909566Y-92948447D01*
X174908343Y-93009372D01*
X174908058Y-93051542D01*
X174906718Y-93104653D01*
X174904528Y-93141025D01*
X174901769Y-93154514D01*
X174887344Y-93149981D01*
X174858226Y-93137670D01*
X174821257Y-93120826D01*
X174821257Y-92904721D01*
X174821493Y-92849327D01*
X174823729Y-92765207D01*
X174829423Y-92702800D01*
X174839903Y-92657358D01*
X174856497Y-92624133D01*
X174880531Y-92598378D01*
X174913333Y-92575344D01*
X174955124Y-92556335D01*
X175032287Y-92544914D01*
X175067495Y-92546220D01*
G37*
X179809815Y-92901524D02*
X179811252Y-93013000D01*
X179811651Y-93045339D01*
X179812929Y-93153455D01*
X179813185Y-93236186D01*
X179811634Y-93296426D01*
X179807490Y-93337073D01*
X179799964Y-93361023D01*
X179788271Y-93371171D01*
X179771624Y-93370414D01*
X179749236Y-93361648D01*
X179720321Y-93347769D01*
X179714142Y-93344808D01*
X179688413Y-93330311D01*
X179674976Y-93313065D01*
X179669834Y-93284308D01*
X179668990Y-93235283D01*
X179668952Y-93147257D01*
X179578276Y-93147257D01*
X179522498Y-93144815D01*
X179478640Y-93134908D01*
X179442218Y-93114886D01*
X179439503Y-93112929D01*
X179402546Y-93079869D01*
X179376826Y-93039931D01*
X179360606Y-92987657D01*
X179352148Y-92917588D01*
X179350083Y-92838430D01*
X179494857Y-92838430D01*
X179494882Y-92851697D01*
X179496261Y-92911584D01*
X179500687Y-92950732D01*
X179509461Y-92976153D01*
X179523886Y-92994857D01*
X179524784Y-92995750D01*
X179560237Y-93019952D01*
X179594596Y-93017567D01*
X179633403Y-92988260D01*
X179642895Y-92978244D01*
X179656876Y-92957708D01*
X179664760Y-92930997D01*
X179668245Y-92890499D01*
X179669029Y-92828603D01*
X179668350Y-92791130D01*
X179660983Y-92722980D01*
X179644168Y-92678330D01*
X179616234Y-92653926D01*
X179575509Y-92646514D01*
X179558350Y-92648094D01*
X179528660Y-92663766D01*
X179509031Y-92698691D01*
X179498188Y-92755901D01*
X179494857Y-92838430D01*
X179350083Y-92838430D01*
X179349714Y-92824267D01*
X179350253Y-92756169D01*
X179352707Y-92704587D01*
X179358158Y-92668816D01*
X179367686Y-92642015D01*
X179382371Y-92617338D01*
X179395852Y-92598480D01*
X179444799Y-92547568D01*
X179500256Y-92519918D01*
X179569928Y-92511165D01*
X179649664Y-92519890D01*
X179718595Y-92551185D01*
X179773113Y-92606381D01*
X179777223Y-92612224D01*
X179786808Y-92627753D01*
X179794151Y-92645498D01*
X179799612Y-92669290D01*
X179803550Y-92702958D01*
X179806323Y-92750333D01*
X179808292Y-92815245D01*
X179808528Y-92828603D01*
X179809815Y-92901524D01*
G36*
X179809815Y-92901524D02*
G01*
X179811252Y-93013000D01*
X179811651Y-93045339D01*
X179812929Y-93153455D01*
X179813185Y-93236186D01*
X179811634Y-93296426D01*
X179807490Y-93337073D01*
X179799964Y-93361023D01*
X179788271Y-93371171D01*
X179771624Y-93370414D01*
X179749236Y-93361648D01*
X179720321Y-93347769D01*
X179714142Y-93344808D01*
X179688413Y-93330311D01*
X179674976Y-93313065D01*
X179669834Y-93284308D01*
X179668990Y-93235283D01*
X179668952Y-93147257D01*
X179578276Y-93147257D01*
X179522498Y-93144815D01*
X179478640Y-93134908D01*
X179442218Y-93114886D01*
X179439503Y-93112929D01*
X179402546Y-93079869D01*
X179376826Y-93039931D01*
X179360606Y-92987657D01*
X179352148Y-92917588D01*
X179350083Y-92838430D01*
X179494857Y-92838430D01*
X179494882Y-92851697D01*
X179496261Y-92911584D01*
X179500687Y-92950732D01*
X179509461Y-92976153D01*
X179523886Y-92994857D01*
X179524784Y-92995750D01*
X179560237Y-93019952D01*
X179594596Y-93017567D01*
X179633403Y-92988260D01*
X179642895Y-92978244D01*
X179656876Y-92957708D01*
X179664760Y-92930997D01*
X179668245Y-92890499D01*
X179669029Y-92828603D01*
X179668350Y-92791130D01*
X179660983Y-92722980D01*
X179644168Y-92678330D01*
X179616234Y-92653926D01*
X179575509Y-92646514D01*
X179558350Y-92648094D01*
X179528660Y-92663766D01*
X179509031Y-92698691D01*
X179498188Y-92755901D01*
X179494857Y-92838430D01*
X179350083Y-92838430D01*
X179349714Y-92824267D01*
X179350253Y-92756169D01*
X179352707Y-92704587D01*
X179358158Y-92668816D01*
X179367686Y-92642015D01*
X179382371Y-92617338D01*
X179395852Y-92598480D01*
X179444799Y-92547568D01*
X179500256Y-92519918D01*
X179569928Y-92511165D01*
X179649664Y-92519890D01*
X179718595Y-92551185D01*
X179773113Y-92606381D01*
X179777223Y-92612224D01*
X179786808Y-92627753D01*
X179794151Y-92645498D01*
X179799612Y-92669290D01*
X179803550Y-92702958D01*
X179806323Y-92750333D01*
X179808292Y-92815245D01*
X179808528Y-92828603D01*
X179809815Y-92901524D01*
G37*
X177213933Y-87842371D02*
X177289856Y-87842865D01*
X177344491Y-87844135D01*
X177381500Y-87846547D01*
X177404547Y-87850467D01*
X177417296Y-87856262D01*
X177423411Y-87864299D01*
X177426556Y-87874943D01*
X177426646Y-87875325D01*
X177431814Y-87900347D01*
X177441209Y-87948681D01*
X177453867Y-88015260D01*
X177468825Y-88095014D01*
X177485119Y-88182875D01*
X177486448Y-88190064D01*
X177502691Y-88275340D01*
X177517805Y-88350242D01*
X177530808Y-88410219D01*
X177540715Y-88450717D01*
X177546544Y-88467184D01*
X177546575Y-88467210D01*
X177564943Y-88476320D01*
X177602640Y-88491457D01*
X177651543Y-88509358D01*
X177654297Y-88510330D01*
X177716817Y-88533959D01*
X177789543Y-88563595D01*
X177857294Y-88593062D01*
X177968703Y-88643626D01*
X178215399Y-88475160D01*
X178232775Y-88463311D01*
X178307202Y-88412947D01*
X178373614Y-88368612D01*
X178428039Y-88332916D01*
X178466506Y-88308471D01*
X178485042Y-88297889D01*
X178497743Y-88300315D01*
X178526579Y-88319110D01*
X178571143Y-88356330D01*
X178632670Y-88413020D01*
X178712398Y-88490227D01*
X178719532Y-88497255D01*
X178782796Y-88560222D01*
X178838990Y-88617268D01*
X178884677Y-88664817D01*
X178916414Y-88699297D01*
X178930764Y-88717131D01*
X178930810Y-88717217D01*
X178932633Y-88730795D01*
X178925910Y-88752820D01*
X178908946Y-88786304D01*
X178880044Y-88834261D01*
X178837508Y-88899704D01*
X178779644Y-88985645D01*
X178769783Y-89000151D01*
X178719913Y-89073635D01*
X178675905Y-89138687D01*
X178640380Y-89191417D01*
X178615959Y-89227936D01*
X178605264Y-89244356D01*
X178604458Y-89247834D01*
X178609518Y-89273785D01*
X178624677Y-89316159D01*
X178647463Y-89367728D01*
X178678429Y-89435170D01*
X178713004Y-89515195D01*
X178742366Y-89587629D01*
X178749645Y-89606377D01*
X178768710Y-89654246D01*
X178782715Y-89687596D01*
X178789041Y-89700114D01*
X178796025Y-89701050D01*
X178827413Y-89706461D01*
X178878787Y-89715806D01*
X178944802Y-89728069D01*
X179020113Y-89742232D01*
X179099375Y-89757280D01*
X179177243Y-89772195D01*
X179248370Y-89785961D01*
X179307412Y-89797562D01*
X179349022Y-89805980D01*
X179367857Y-89810199D01*
X179370980Y-89811389D01*
X179378591Y-89817805D01*
X179384254Y-89831465D01*
X179388251Y-89855999D01*
X179390866Y-89895038D01*
X179392384Y-89952213D01*
X179393086Y-90031154D01*
X179393257Y-90135492D01*
X179393257Y-90452799D01*
X179317057Y-90467839D01*
X179307840Y-90469642D01*
X179258891Y-90478980D01*
X179191205Y-90491669D01*
X179112478Y-90506273D01*
X179030400Y-90521355D01*
X178998078Y-90527422D01*
X178925855Y-90542181D01*
X178865666Y-90556137D01*
X178823040Y-90567952D01*
X178803510Y-90576287D01*
X178794660Y-90589905D01*
X178778548Y-90625938D01*
X178762065Y-90672572D01*
X178756263Y-90690034D01*
X178734906Y-90747358D01*
X178707359Y-90815201D01*
X178678107Y-90882355D01*
X178662463Y-90917430D01*
X178640174Y-90969822D01*
X178624857Y-91009058D01*
X178619162Y-91028563D01*
X178619478Y-91030036D01*
X178630281Y-91050729D01*
X178654638Y-91090665D01*
X178690081Y-91145972D01*
X178734136Y-91212781D01*
X178784332Y-91287220D01*
X178949501Y-91529623D01*
X178732503Y-91746983D01*
X178711516Y-91767899D01*
X178647342Y-91830505D01*
X178589990Y-91884495D01*
X178542820Y-91926826D01*
X178509192Y-91954457D01*
X178492467Y-91964343D01*
X178474303Y-91956821D01*
X178436265Y-91935227D01*
X178382726Y-91902151D01*
X178317884Y-91860191D01*
X178245940Y-91811943D01*
X178175275Y-91764291D01*
X178111526Y-91722328D01*
X178059513Y-91689165D01*
X178023279Y-91667378D01*
X178006867Y-91659543D01*
X178005905Y-91659614D01*
X177984103Y-91667338D01*
X177945440Y-91685323D01*
X177897612Y-91710013D01*
X177897110Y-91710284D01*
X177833587Y-91742099D01*
X177790060Y-91757642D01*
X177763052Y-91757685D01*
X177749090Y-91743000D01*
X177743180Y-91728544D01*
X177727229Y-91689831D01*
X177702660Y-91630316D01*
X177670779Y-91553165D01*
X177632893Y-91461541D01*
X177590310Y-91358607D01*
X177544337Y-91247526D01*
X177502667Y-91146472D01*
X177460268Y-91042780D01*
X177422756Y-90950119D01*
X177391388Y-90871642D01*
X177367425Y-90810500D01*
X177352123Y-90769843D01*
X177346743Y-90752825D01*
X177357018Y-90737219D01*
X177385563Y-90711162D01*
X177425971Y-90680887D01*
X177522979Y-90601684D01*
X177609793Y-90500475D01*
X177673322Y-90389116D01*
X177713177Y-90270893D01*
X177728965Y-90149095D01*
X177720296Y-90027010D01*
X177686778Y-89907925D01*
X177628021Y-89795129D01*
X177543632Y-89691911D01*
X177499631Y-89651713D01*
X177394211Y-89580638D01*
X177281410Y-89534301D01*
X177164525Y-89511599D01*
X177046853Y-89511428D01*
X176931690Y-89532687D01*
X176822335Y-89574270D01*
X176722083Y-89635076D01*
X176634233Y-89714001D01*
X176562080Y-89809941D01*
X176508922Y-89921795D01*
X176478057Y-90048457D01*
X176472392Y-90109507D01*
X176480185Y-90241776D01*
X176515284Y-90367266D01*
X176576649Y-90483759D01*
X176663243Y-90589039D01*
X176774029Y-90680887D01*
X176812931Y-90709930D01*
X176842104Y-90736272D01*
X176853257Y-90752800D01*
X176848810Y-90767209D01*
X176834378Y-90805815D01*
X176811173Y-90865201D01*
X176780452Y-90942215D01*
X176743474Y-91033703D01*
X176701496Y-91136516D01*
X176655778Y-91247502D01*
X176614178Y-91348072D01*
X176571222Y-91451947D01*
X176532829Y-91544819D01*
X176500305Y-91623525D01*
X176474958Y-91684899D01*
X176458095Y-91725779D01*
X176451025Y-91743000D01*
X176450943Y-91743204D01*
X176436798Y-91757745D01*
X176409659Y-91757579D01*
X176366023Y-91741927D01*
X176302388Y-91710013D01*
X176297379Y-91707326D01*
X176250125Y-91683150D01*
X176212811Y-91666037D01*
X176193133Y-91659543D01*
X176177005Y-91667218D01*
X176140959Y-91688871D01*
X176089092Y-91721928D01*
X176025445Y-91763810D01*
X175954060Y-91811943D01*
X175883724Y-91859131D01*
X175818670Y-91901267D01*
X175764820Y-91934578D01*
X175726374Y-91956469D01*
X175707534Y-91964343D01*
X175704325Y-91963343D01*
X175681954Y-91947584D01*
X175643733Y-91915033D01*
X175593021Y-91868733D01*
X175533181Y-91811726D01*
X175467571Y-91747058D01*
X175250648Y-91529772D01*
X175419601Y-91281253D01*
X175588553Y-91032733D01*
X175537183Y-90921595D01*
X175537031Y-90921266D01*
X175506183Y-90850418D01*
X175474661Y-90771523D01*
X175449266Y-90701600D01*
X175445423Y-90690322D01*
X175426047Y-90637967D01*
X175408574Y-90597283D01*
X175396388Y-90576287D01*
X175391426Y-90573322D01*
X175361634Y-90563375D01*
X175311047Y-90550505D01*
X175245194Y-90536053D01*
X175169600Y-90521355D01*
X175146957Y-90517210D01*
X175065038Y-90502116D01*
X174988600Y-90487899D01*
X174925337Y-90475995D01*
X174882943Y-90467839D01*
X174806743Y-90452799D01*
X174806743Y-90135492D01*
X174806760Y-90096476D01*
X174807082Y-90001292D01*
X174808033Y-89930255D01*
X174809896Y-89879734D01*
X174812955Y-89846098D01*
X174817494Y-89825718D01*
X174823795Y-89814962D01*
X174832143Y-89810199D01*
X174840224Y-89808270D01*
X174873172Y-89801445D01*
X174925736Y-89791022D01*
X174992569Y-89778018D01*
X175068328Y-89763449D01*
X175147665Y-89748333D01*
X175225237Y-89733685D01*
X175295698Y-89720523D01*
X175353702Y-89709863D01*
X175393904Y-89702721D01*
X175410959Y-89700114D01*
X175412112Y-89698541D01*
X175421385Y-89678119D01*
X175437432Y-89639045D01*
X175457635Y-89587629D01*
X175485672Y-89518353D01*
X175520186Y-89438290D01*
X175552538Y-89367728D01*
X175559952Y-89351889D01*
X175580755Y-89302293D01*
X175593219Y-89264038D01*
X175594863Y-89244356D01*
X175594015Y-89242962D01*
X175580548Y-89222420D01*
X175553850Y-89182516D01*
X175516539Y-89127140D01*
X175471234Y-89060177D01*
X175420552Y-88985517D01*
X175363445Y-88900692D01*
X175320607Y-88834800D01*
X175291460Y-88786478D01*
X175274317Y-88752733D01*
X175267495Y-88730572D01*
X175269306Y-88717002D01*
X175269915Y-88715984D01*
X175286297Y-88696210D01*
X175319695Y-88660175D01*
X175366671Y-88611451D01*
X175423786Y-88553612D01*
X175487603Y-88490227D01*
X175553802Y-88425905D01*
X175618648Y-88365447D01*
X175666299Y-88324655D01*
X175697990Y-88302484D01*
X175714958Y-88297889D01*
X175717175Y-88298921D01*
X175740524Y-88312837D01*
X175782912Y-88340030D01*
X175840369Y-88377889D01*
X175908923Y-88423803D01*
X175984601Y-88475160D01*
X176231298Y-88643626D01*
X176342706Y-88593062D01*
X176345943Y-88591597D01*
X176414343Y-88561965D01*
X176486907Y-88532493D01*
X176548457Y-88509358D01*
X176548729Y-88509262D01*
X176597595Y-88491367D01*
X176635212Y-88476253D01*
X176653457Y-88467184D01*
X176653752Y-88466855D01*
X176659946Y-88448282D01*
X176670139Y-88406045D01*
X176683348Y-88344696D01*
X176698590Y-88268789D01*
X176714881Y-88182875D01*
X176715449Y-88179796D01*
X176731713Y-88092128D01*
X176746608Y-88012741D01*
X176759171Y-87946701D01*
X176768438Y-87899079D01*
X176773444Y-87874943D01*
X176773764Y-87873605D01*
X176777060Y-87863273D01*
X176783738Y-87855506D01*
X176797462Y-87849940D01*
X176821895Y-87846207D01*
X176860702Y-87843942D01*
X176917546Y-87842778D01*
X176996090Y-87842348D01*
X177100000Y-87842286D01*
X177113056Y-87842286D01*
X177213933Y-87842371D01*
G36*
X177213933Y-87842371D02*
G01*
X177289856Y-87842865D01*
X177344491Y-87844135D01*
X177381500Y-87846547D01*
X177404547Y-87850467D01*
X177417296Y-87856262D01*
X177423411Y-87864299D01*
X177426556Y-87874943D01*
X177426646Y-87875325D01*
X177431814Y-87900347D01*
X177441209Y-87948681D01*
X177453867Y-88015260D01*
X177468825Y-88095014D01*
X177485119Y-88182875D01*
X177486448Y-88190064D01*
X177502691Y-88275340D01*
X177517805Y-88350242D01*
X177530808Y-88410219D01*
X177540715Y-88450717D01*
X177546544Y-88467184D01*
X177546575Y-88467210D01*
X177564943Y-88476320D01*
X177602640Y-88491457D01*
X177651543Y-88509358D01*
X177654297Y-88510330D01*
X177716817Y-88533959D01*
X177789543Y-88563595D01*
X177857294Y-88593062D01*
X177968703Y-88643626D01*
X178215399Y-88475160D01*
X178232775Y-88463311D01*
X178307202Y-88412947D01*
X178373614Y-88368612D01*
X178428039Y-88332916D01*
X178466506Y-88308471D01*
X178485042Y-88297889D01*
X178497743Y-88300315D01*
X178526579Y-88319110D01*
X178571143Y-88356330D01*
X178632670Y-88413020D01*
X178712398Y-88490227D01*
X178719532Y-88497255D01*
X178782796Y-88560222D01*
X178838990Y-88617268D01*
X178884677Y-88664817D01*
X178916414Y-88699297D01*
X178930764Y-88717131D01*
X178930810Y-88717217D01*
X178932633Y-88730795D01*
X178925910Y-88752820D01*
X178908946Y-88786304D01*
X178880044Y-88834261D01*
X178837508Y-88899704D01*
X178779644Y-88985645D01*
X178769783Y-89000151D01*
X178719913Y-89073635D01*
X178675905Y-89138687D01*
X178640380Y-89191417D01*
X178615959Y-89227936D01*
X178605264Y-89244356D01*
X178604458Y-89247834D01*
X178609518Y-89273785D01*
X178624677Y-89316159D01*
X178647463Y-89367728D01*
X178678429Y-89435170D01*
X178713004Y-89515195D01*
X178742366Y-89587629D01*
X178749645Y-89606377D01*
X178768710Y-89654246D01*
X178782715Y-89687596D01*
X178789041Y-89700114D01*
X178796025Y-89701050D01*
X178827413Y-89706461D01*
X178878787Y-89715806D01*
X178944802Y-89728069D01*
X179020113Y-89742232D01*
X179099375Y-89757280D01*
X179177243Y-89772195D01*
X179248370Y-89785961D01*
X179307412Y-89797562D01*
X179349022Y-89805980D01*
X179367857Y-89810199D01*
X179370980Y-89811389D01*
X179378591Y-89817805D01*
X179384254Y-89831465D01*
X179388251Y-89855999D01*
X179390866Y-89895038D01*
X179392384Y-89952213D01*
X179393086Y-90031154D01*
X179393257Y-90135492D01*
X179393257Y-90452799D01*
X179317057Y-90467839D01*
X179307840Y-90469642D01*
X179258891Y-90478980D01*
X179191205Y-90491669D01*
X179112478Y-90506273D01*
X179030400Y-90521355D01*
X178998078Y-90527422D01*
X178925855Y-90542181D01*
X178865666Y-90556137D01*
X178823040Y-90567952D01*
X178803510Y-90576287D01*
X178794660Y-90589905D01*
X178778548Y-90625938D01*
X178762065Y-90672572D01*
X178756263Y-90690034D01*
X178734906Y-90747358D01*
X178707359Y-90815201D01*
X178678107Y-90882355D01*
X178662463Y-90917430D01*
X178640174Y-90969822D01*
X178624857Y-91009058D01*
X178619162Y-91028563D01*
X178619478Y-91030036D01*
X178630281Y-91050729D01*
X178654638Y-91090665D01*
X178690081Y-91145972D01*
X178734136Y-91212781D01*
X178784332Y-91287220D01*
X178949501Y-91529623D01*
X178732503Y-91746983D01*
X178711516Y-91767899D01*
X178647342Y-91830505D01*
X178589990Y-91884495D01*
X178542820Y-91926826D01*
X178509192Y-91954457D01*
X178492467Y-91964343D01*
X178474303Y-91956821D01*
X178436265Y-91935227D01*
X178382726Y-91902151D01*
X178317884Y-91860191D01*
X178245940Y-91811943D01*
X178175275Y-91764291D01*
X178111526Y-91722328D01*
X178059513Y-91689165D01*
X178023279Y-91667378D01*
X178006867Y-91659543D01*
X178005905Y-91659614D01*
X177984103Y-91667338D01*
X177945440Y-91685323D01*
X177897612Y-91710013D01*
X177897110Y-91710284D01*
X177833587Y-91742099D01*
X177790060Y-91757642D01*
X177763052Y-91757685D01*
X177749090Y-91743000D01*
X177743180Y-91728544D01*
X177727229Y-91689831D01*
X177702660Y-91630316D01*
X177670779Y-91553165D01*
X177632893Y-91461541D01*
X177590310Y-91358607D01*
X177544337Y-91247526D01*
X177502667Y-91146472D01*
X177460268Y-91042780D01*
X177422756Y-90950119D01*
X177391388Y-90871642D01*
X177367425Y-90810500D01*
X177352123Y-90769843D01*
X177346743Y-90752825D01*
X177357018Y-90737219D01*
X177385563Y-90711162D01*
X177425971Y-90680887D01*
X177522979Y-90601684D01*
X177609793Y-90500475D01*
X177673322Y-90389116D01*
X177713177Y-90270893D01*
X177728965Y-90149095D01*
X177720296Y-90027010D01*
X177686778Y-89907925D01*
X177628021Y-89795129D01*
X177543632Y-89691911D01*
X177499631Y-89651713D01*
X177394211Y-89580638D01*
X177281410Y-89534301D01*
X177164525Y-89511599D01*
X177046853Y-89511428D01*
X176931690Y-89532687D01*
X176822335Y-89574270D01*
X176722083Y-89635076D01*
X176634233Y-89714001D01*
X176562080Y-89809941D01*
X176508922Y-89921795D01*
X176478057Y-90048457D01*
X176472392Y-90109507D01*
X176480185Y-90241776D01*
X176515284Y-90367266D01*
X176576649Y-90483759D01*
X176663243Y-90589039D01*
X176774029Y-90680887D01*
X176812931Y-90709930D01*
X176842104Y-90736272D01*
X176853257Y-90752800D01*
X176848810Y-90767209D01*
X176834378Y-90805815D01*
X176811173Y-90865201D01*
X176780452Y-90942215D01*
X176743474Y-91033703D01*
X176701496Y-91136516D01*
X176655778Y-91247502D01*
X176614178Y-91348072D01*
X176571222Y-91451947D01*
X176532829Y-91544819D01*
X176500305Y-91623525D01*
X176474958Y-91684899D01*
X176458095Y-91725779D01*
X176451025Y-91743000D01*
X176450943Y-91743204D01*
X176436798Y-91757745D01*
X176409659Y-91757579D01*
X176366023Y-91741927D01*
X176302388Y-91710013D01*
X176297379Y-91707326D01*
X176250125Y-91683150D01*
X176212811Y-91666037D01*
X176193133Y-91659543D01*
X176177005Y-91667218D01*
X176140959Y-91688871D01*
X176089092Y-91721928D01*
X176025445Y-91763810D01*
X175954060Y-91811943D01*
X175883724Y-91859131D01*
X175818670Y-91901267D01*
X175764820Y-91934578D01*
X175726374Y-91956469D01*
X175707534Y-91964343D01*
X175704325Y-91963343D01*
X175681954Y-91947584D01*
X175643733Y-91915033D01*
X175593021Y-91868733D01*
X175533181Y-91811726D01*
X175467571Y-91747058D01*
X175250648Y-91529772D01*
X175419601Y-91281253D01*
X175588553Y-91032733D01*
X175537183Y-90921595D01*
X175537031Y-90921266D01*
X175506183Y-90850418D01*
X175474661Y-90771523D01*
X175449266Y-90701600D01*
X175445423Y-90690322D01*
X175426047Y-90637967D01*
X175408574Y-90597283D01*
X175396388Y-90576287D01*
X175391426Y-90573322D01*
X175361634Y-90563375D01*
X175311047Y-90550505D01*
X175245194Y-90536053D01*
X175169600Y-90521355D01*
X175146957Y-90517210D01*
X175065038Y-90502116D01*
X174988600Y-90487899D01*
X174925337Y-90475995D01*
X174882943Y-90467839D01*
X174806743Y-90452799D01*
X174806743Y-90135492D01*
X174806760Y-90096476D01*
X174807082Y-90001292D01*
X174808033Y-89930255D01*
X174809896Y-89879734D01*
X174812955Y-89846098D01*
X174817494Y-89825718D01*
X174823795Y-89814962D01*
X174832143Y-89810199D01*
X174840224Y-89808270D01*
X174873172Y-89801445D01*
X174925736Y-89791022D01*
X174992569Y-89778018D01*
X175068328Y-89763449D01*
X175147665Y-89748333D01*
X175225237Y-89733685D01*
X175295698Y-89720523D01*
X175353702Y-89709863D01*
X175393904Y-89702721D01*
X175410959Y-89700114D01*
X175412112Y-89698541D01*
X175421385Y-89678119D01*
X175437432Y-89639045D01*
X175457635Y-89587629D01*
X175485672Y-89518353D01*
X175520186Y-89438290D01*
X175552538Y-89367728D01*
X175559952Y-89351889D01*
X175580755Y-89302293D01*
X175593219Y-89264038D01*
X175594863Y-89244356D01*
X175594015Y-89242962D01*
X175580548Y-89222420D01*
X175553850Y-89182516D01*
X175516539Y-89127140D01*
X175471234Y-89060177D01*
X175420552Y-88985517D01*
X175363445Y-88900692D01*
X175320607Y-88834800D01*
X175291460Y-88786478D01*
X175274317Y-88752733D01*
X175267495Y-88730572D01*
X175269306Y-88717002D01*
X175269915Y-88715984D01*
X175286297Y-88696210D01*
X175319695Y-88660175D01*
X175366671Y-88611451D01*
X175423786Y-88553612D01*
X175487603Y-88490227D01*
X175553802Y-88425905D01*
X175618648Y-88365447D01*
X175666299Y-88324655D01*
X175697990Y-88302484D01*
X175714958Y-88297889D01*
X175717175Y-88298921D01*
X175740524Y-88312837D01*
X175782912Y-88340030D01*
X175840369Y-88377889D01*
X175908923Y-88423803D01*
X175984601Y-88475160D01*
X176231298Y-88643626D01*
X176342706Y-88593062D01*
X176345943Y-88591597D01*
X176414343Y-88561965D01*
X176486907Y-88532493D01*
X176548457Y-88509358D01*
X176548729Y-88509262D01*
X176597595Y-88491367D01*
X176635212Y-88476253D01*
X176653457Y-88467184D01*
X176653752Y-88466855D01*
X176659946Y-88448282D01*
X176670139Y-88406045D01*
X176683348Y-88344696D01*
X176698590Y-88268789D01*
X176714881Y-88182875D01*
X176715449Y-88179796D01*
X176731713Y-88092128D01*
X176746608Y-88012741D01*
X176759171Y-87946701D01*
X176768438Y-87899079D01*
X176773444Y-87874943D01*
X176773764Y-87873605D01*
X176777060Y-87863273D01*
X176783738Y-87855506D01*
X176797462Y-87849940D01*
X176821895Y-87846207D01*
X176860702Y-87843942D01*
X176917546Y-87842778D01*
X176996090Y-87842348D01*
X177100000Y-87842286D01*
X177113056Y-87842286D01*
X177213933Y-87842371D01*
G37*
%TD*%
M02*
