M48
; DRILL file {KiCad 9.0.7} date 2026-09-04T15:07:53-0700
; FORMAT={-:-/ absolute / metric / decimal}
; #@! TF.CreationDate,2026-09-04T15:07:53-07:00
; #@! TF.GenerationSoftware,Kicad,Pcbnew,9.0.7
; #@! TF.FileFunction,Plated,1,2,PTH
FMAT,2
METRIC
; #@! TA.AperFunction,Plated,PTH,ViaDrill
T1C0.300
; #@! TA.AperFunction,Plated,PTH,ViaDrill
T2C0.400
; #@! TA.AperFunction,Plated,PTH,ComponentDrill
T3C1.000
%
G90
G05
T1
X88.593Y-103.843
X89.24Y-108.25
X89.7Y-111.3
X91.3Y-101.9
X91.465Y-113.446
X94.205Y-97.103
X94.247Y-100.215
X94.337Y-90.361
X95.659Y-119.261
X95.789Y-95.358
X96.354Y-90.554
X97.032Y-97.001
X97.436Y-93.512
X97.761Y-101.066
X98.123Y-90.598
X98.42Y-93.406
X98.595Y-101.561
X98.693Y-112.887
X99.301Y-104.927
X100.249Y-94.647
X101.427Y-115.023
X101.483Y-92.058
X101.986Y-101.423
X102.359Y-107.458
X102.839Y-100.025
X103.207Y-90.474
X103.242Y-104.696
X103.242Y-108.104
X103.77Y-99.399
X103.843Y-110.485
X104.042Y-96.926
X104.15Y-115.6
X104.63Y-93.589
X104.865Y-111.331
X105.148Y-107.522
X105.168Y-104.325
X106.922Y-110.734
X107.584Y-102.094
X107.821Y-89.634
X108.239Y-90.398
X109.391Y-120.635
X110.766Y-115.166
X111.25Y-110.85
X112.146Y-118.537
X112.412Y-102.692
X112.478Y-101.819
X112.562Y-121.711
X113.037Y-103.888
X113.182Y-115.75
X113.183Y-106.9
X113.617Y-101.743
X114.085Y-89.149
X115.267Y-89.122
X115.449Y-115.614
X115.465Y-108.293
X115.906Y-88.467
X116.63Y-101.89
X116.735Y-103.118
X117.078Y-88.52
X118.468Y-84.045
X118.633Y-89.523
X119.112Y-102.254
X119.766Y-82.667
X119.888Y-88.675
X120.91Y-90.028
X120.926Y-81.832
X121.037Y-102.574
X121.615Y-101.982
X121.687Y-95.283
X122.258Y-88.87
X123.094Y-82.352
X124.126Y-92.266
X124.682Y-84.914
X125.637Y-92.34
X125.732Y-113.719
X126.124Y-93.49
X126.95Y-86.312
X127.523Y-113.1
X128.1Y-109.85
X129.71Y-105.096
X131.909Y-114.385
X131.916Y-118.711
X132.316Y-92.037
X137.138Y-116.275
X141.907Y-108.444
X143.303Y-112.757
X143.441Y-108.235
X147.199Y-88.19
X148.115Y-106.852
X148.26Y-121.711
X148.91Y-108.442
X149.525Y-106.836
X151.4Y-118.7
X151.887Y-88.007
X159.509Y-102.358
X161.121Y-87.762
X161.552Y-88.569
X163.706Y-81.207
X163.796Y-107.454
X166.2Y-119.9
X166.773Y-115.712
X167.816Y-110.0
X167.816Y-112.4
X173.044Y-120.592
X173.758Y-113.55
X174.93Y-119.6
X175.705Y-93.112
X176.533Y-121.334
T2
X95.418Y-87.56
X95.715Y-104.893
X126.535Y-100.368
X126.535Y-111.639
X131.033Y-110.062
X177.803Y-116.652
T3
X87.3Y-123.1
X89.84Y-123.1
X92.38Y-123.1
X94.92Y-123.1
X97.46Y-123.1
X100.0Y-123.1
X102.54Y-123.1
X105.08Y-123.1
X107.62Y-123.1
X110.16Y-123.1
X112.7Y-123.1
X115.24Y-123.1
X117.78Y-123.1
X120.32Y-123.1
X122.86Y-123.1
X125.4Y-123.1
X127.94Y-123.1
X130.48Y-123.1
X133.02Y-123.1
X135.56Y-123.1
X138.1Y-123.1
X140.64Y-123.1
X143.14Y-84.96
X143.14Y-100.2
X143.18Y-123.1
X145.68Y-84.96
X145.68Y-100.2
X145.72Y-123.1
X148.22Y-84.96
X148.22Y-100.2
X148.26Y-123.1
X150.76Y-84.96
X150.76Y-100.2
X150.8Y-123.1
X153.3Y-84.96
X153.3Y-100.2
X153.34Y-123.1
X155.84Y-84.96
X155.84Y-100.2
X155.88Y-123.1
X158.38Y-84.96
X158.38Y-100.2
X158.42Y-123.1
X160.92Y-84.96
X160.92Y-100.2
X160.96Y-123.1
X163.46Y-84.96
X163.46Y-100.2
X163.5Y-123.1
X166.0Y-84.96
X166.0Y-100.2
X166.04Y-123.1
X168.54Y-84.96
X168.54Y-100.2
X168.58Y-123.1
X171.08Y-84.96
X171.08Y-100.2
X171.12Y-123.1
X173.62Y-84.96
X173.62Y-100.2
X173.66Y-123.1
X176.16Y-84.96
X176.16Y-100.2
X176.2Y-123.1
X178.7Y-84.96
X178.7Y-100.2
X178.74Y-123.1
X181.24Y-84.96
X181.24Y-100.2
X181.28Y-123.1
X183.82Y-123.1
X186.36Y-123.1
M30
