%TF.GenerationSoftware,KiCad,Pcbnew,9.0.7*%
%TF.CreationDate,2026-09-04T15:08:00-07:00*%
%TF.ProjectId,RC2014-512K-RAMROM-V2,52433230-3134-42d3-9531-324b2d52414d,rev?*%
%TF.SameCoordinates,Original*%
%TF.FileFunction,Copper,L2,Bot*%
%TF.FilePolarity,Positive*%
%FSLAX46Y46*%
G04 Gerber Fmt 4.6, Leading zero omitted, Abs format (unit mm)*
G04 Created by KiCad (PCBNEW 9.0.7) date 2026-09-04 15:08:00*
%MOMM*%
%LPD*%
G01*
G04 APERTURE LIST*
%TA.AperFunction,ComponentPad*%
%ADD10R,1.700000X1.700000*%
%TD*%
%TA.AperFunction,ComponentPad*%
%ADD11C,1.700000*%
%TD*%
%TA.AperFunction,ViaPad*%
%ADD12C,0.600000*%
%TD*%
%TA.AperFunction,ViaPad*%
%ADD13C,0.800000*%
%TD*%
%TA.AperFunction,Conductor*%
%ADD14C,0.200000*%
%TD*%
%TA.AperFunction,Conductor*%
%ADD15C,0.500000*%
%TD*%
G04 APERTURE END LIST*
D10*
%TO.P,U2,1,A18*%
%TO.N,/MA18*%
X143140000Y-100200000D03*
D11*
%TO.P,U2,2,A16*%
%TO.N,/MA16*%
X145680000Y-100200000D03*
%TO.P,U2,3,A15*%
%TO.N,/MA15*%
X148220000Y-100200000D03*
%TO.P,U2,4,A12*%
%TO.N,/A12*%
X150760000Y-100200000D03*
%TO.P,U2,5,A7*%
%TO.N,/A7*%
X153300000Y-100200000D03*
%TO.P,U2,6,A6*%
%TO.N,/A6*%
X155840000Y-100200000D03*
%TO.P,U2,7,A5*%
%TO.N,/A5*%
X158380000Y-100200000D03*
%TO.P,U2,8,A4*%
%TO.N,/A4*%
X160920000Y-100200000D03*
%TO.P,U2,9,A3*%
%TO.N,/A3*%
X163460000Y-100200000D03*
%TO.P,U2,10,A2*%
%TO.N,/A2*%
X166000000Y-100200000D03*
%TO.P,U2,11,A1*%
%TO.N,/A1*%
X168540000Y-100200000D03*
%TO.P,U2,12,A0*%
%TO.N,/A0*%
X171080000Y-100200000D03*
%TO.P,U2,13,D0*%
%TO.N,/D0*%
X173620000Y-100200000D03*
%TO.P,U2,14,D1*%
%TO.N,/D1*%
X176160000Y-100200000D03*
%TO.P,U2,15,D2*%
%TO.N,/D2*%
X178700000Y-100200000D03*
%TO.P,U2,16,GND*%
%TO.N,GND*%
X181240000Y-100200000D03*
%TO.P,U2,17,D3*%
%TO.N,/D3*%
X181240000Y-84960000D03*
%TO.P,U2,18,D4*%
%TO.N,/D4*%
X178700000Y-84960000D03*
%TO.P,U2,19,D5*%
%TO.N,/D5*%
X176160000Y-84960000D03*
%TO.P,U2,20,D6*%
%TO.N,/D6*%
X173620000Y-84960000D03*
%TO.P,U2,21,D7*%
%TO.N,/D7*%
X171080000Y-84960000D03*
%TO.P,U2,22,CE*%
%TO.N,/~{ROM_CS}*%
X168540000Y-84960000D03*
%TO.P,U2,23,A10*%
%TO.N,/A10*%
X166000000Y-84960000D03*
%TO.P,U2,24,OE*%
%TO.N,/~{RD}*%
X163460000Y-84960000D03*
%TO.P,U2,25,A11*%
%TO.N,/A11*%
X160920000Y-84960000D03*
%TO.P,U2,26,A9*%
%TO.N,/A9*%
X158380000Y-84960000D03*
%TO.P,U2,27,A8*%
%TO.N,/A8*%
X155840000Y-84960000D03*
%TO.P,U2,28,A13*%
%TO.N,/A13*%
X153300000Y-84960000D03*
%TO.P,U2,29,A14*%
%TO.N,/MA14*%
X150760000Y-84960000D03*
%TO.P,U2,30,A17*%
%TO.N,/MA17*%
X148220000Y-84960000D03*
%TO.P,U2,31,PGM*%
%TO.N,/~{WR}*%
X145680000Y-84960000D03*
%TO.P,U2,32,VCC*%
%TO.N,+5V*%
X143140000Y-84960000D03*
%TD*%
D10*
%TO.P,J1,1,Pin_1*%
%TO.N,/A15*%
X87300000Y-123100000D03*
D11*
%TO.P,J1,2,Pin_2*%
%TO.N,/A14*%
X89840000Y-123100000D03*
%TO.P,J1,3,Pin_3*%
%TO.N,/A13*%
X92380000Y-123100000D03*
%TO.P,J1,4,Pin_4*%
%TO.N,/A12*%
X94920000Y-123100000D03*
%TO.P,J1,5,Pin_5*%
%TO.N,/A11*%
X97460000Y-123100000D03*
%TO.P,J1,6,Pin_6*%
%TO.N,/A10*%
X100000000Y-123100000D03*
%TO.P,J1,7,Pin_7*%
%TO.N,/A9*%
X102540000Y-123100000D03*
%TO.P,J1,8,Pin_8*%
%TO.N,/A8*%
X105080000Y-123100000D03*
%TO.P,J1,9,Pin_9*%
%TO.N,/A7*%
X107620000Y-123100000D03*
%TO.P,J1,10,Pin_10*%
%TO.N,/A6*%
X110160000Y-123100000D03*
%TO.P,J1,11,Pin_11*%
%TO.N,/A5*%
X112700000Y-123100000D03*
%TO.P,J1,12,Pin_12*%
%TO.N,/A4*%
X115240000Y-123100000D03*
%TO.P,J1,13,Pin_13*%
%TO.N,/A3*%
X117780000Y-123100000D03*
%TO.P,J1,14,Pin_14*%
%TO.N,/A2*%
X120320000Y-123100000D03*
%TO.P,J1,15,Pin_15*%
%TO.N,/A1*%
X122860000Y-123100000D03*
%TO.P,J1,16,Pin_16*%
%TO.N,/A0*%
X125400000Y-123100000D03*
%TO.P,J1,17,Pin_17*%
%TO.N,GND*%
X127940000Y-123100000D03*
%TO.P,J1,18,Pin_18*%
%TO.N,+5V*%
X130480000Y-123100000D03*
%TO.P,J1,19,Pin_19*%
%TO.N,/~{M1}*%
X133020000Y-123100000D03*
%TO.P,J1,20,Pin_20*%
%TO.N,/~{RESET}*%
X135560000Y-123100000D03*
%TO.P,J1,21,Pin_21*%
%TO.N,unconnected-(J1-Pin_21-Pad21)*%
X138100000Y-123100000D03*
%TO.P,J1,22,Pin_22*%
%TO.N,/~{INT}*%
X140640000Y-123100000D03*
%TO.P,J1,23,Pin_23*%
%TO.N,/~{MREQ}*%
X143180000Y-123100000D03*
%TO.P,J1,24,Pin_24*%
%TO.N,/~{WR}*%
X145720000Y-123100000D03*
%TO.P,J1,25,Pin_25*%
%TO.N,/~{RD}*%
X148260000Y-123100000D03*
%TO.P,J1,26,Pin_26*%
%TO.N,/~{IORQ}*%
X150800000Y-123100000D03*
%TO.P,J1,27,Pin_27*%
%TO.N,/D0*%
X153340000Y-123100000D03*
%TO.P,J1,28,Pin_28*%
%TO.N,/D1*%
X155880000Y-123100000D03*
%TO.P,J1,29,Pin_29*%
%TO.N,/D2*%
X158420000Y-123100000D03*
%TO.P,J1,30,Pin_30*%
%TO.N,/D3*%
X160960000Y-123100000D03*
%TO.P,J1,31,Pin_31*%
%TO.N,/D4*%
X163500000Y-123100000D03*
%TO.P,J1,32,Pin_32*%
%TO.N,/D5*%
X166040000Y-123100000D03*
%TO.P,J1,33,Pin_33*%
%TO.N,/D6*%
X168580000Y-123100000D03*
%TO.P,J1,34,Pin_34*%
%TO.N,/D7*%
X171120000Y-123100000D03*
%TO.P,J1,35,Pin_35*%
%TO.N,/TX*%
X173660000Y-123100000D03*
%TO.P,J1,36,Pin_36*%
%TO.N,/RX*%
X176200000Y-123100000D03*
%TO.P,J1,37,Pin_37*%
%TO.N,unconnected-(J1-Pin_37-Pad37)*%
X178740000Y-123100000D03*
%TO.P,J1,38,Pin_38*%
%TO.N,unconnected-(J1-Pin_38-Pad38)*%
X181280000Y-123100000D03*
%TO.P,J1,39,Pin_39*%
%TO.N,unconnected-(J1-Pin_39-Pad39)*%
X183820000Y-123100000D03*
%TO.P,J1,40,Pin_40*%
%TO.N,unconnected-(J1-Pin_40-Pad40)*%
X186360000Y-123100000D03*
%TD*%
D12*
%TO.N,/D4*%
X161120800Y-87762100D03*
%TO.N,/~{M1}*%
X131915900Y-118711100D03*
%TO.N,/D6*%
X121687200Y-95283300D03*
X120910100Y-90027700D03*
D13*
%TO.N,GND*%
X126535400Y-100367800D03*
X126535400Y-111638900D03*
X177802800Y-116651700D03*
D12*
%TO.N,/~{WR}*%
X148115500Y-106852000D03*
X119766000Y-82666700D03*
X124682000Y-84913900D03*
%TO.N,/~{RESET}*%
X143441200Y-108234900D03*
%TO.N,/D1*%
X159509300Y-102358100D03*
X97760700Y-101065700D03*
X98693000Y-112887500D03*
D13*
%TO.N,+5V*%
X95714700Y-104892700D03*
X131032600Y-110062500D03*
X95417600Y-87559900D03*
D12*
%TO.N,/D0*%
X173043700Y-120592000D03*
X98595000Y-101561100D03*
X173758000Y-113550000D03*
X99300800Y-104926900D03*
%TO.N,/D3*%
X126950000Y-86312500D03*
X110765585Y-115165585D03*
X128100000Y-109850000D03*
X104150000Y-115600000D03*
X161552500Y-88569300D03*
X111250000Y-110850000D03*
X101427400Y-115023200D03*
%TO.N,/D2*%
X176533000Y-121334100D03*
X104042200Y-96926000D03*
X103843300Y-110485000D03*
%TO.N,/~{RD}*%
X163706000Y-81207500D03*
%TO.N,/D5*%
X102839200Y-100025000D03*
X104629900Y-93589000D03*
X166200000Y-119900000D03*
X126124100Y-93489700D03*
X175704600Y-93112500D03*
X174930000Y-119600000D03*
X122258100Y-88870500D03*
X124126500Y-92266300D03*
%TO.N,/D7*%
X97032400Y-97001400D03*
X107821000Y-89634000D03*
X103206600Y-90473700D03*
X98122600Y-90597800D03*
%TO.N,/A7*%
X112145900Y-118537500D03*
X112412200Y-102692200D03*
X151400000Y-118700000D03*
%TO.N,/A4*%
X116735000Y-103118500D03*
X115448600Y-115613600D03*
%TO.N,/A2*%
X163795800Y-107453800D03*
X119111600Y-102254400D03*
%TO.N,/A13*%
X118633300Y-89523400D03*
X125637100Y-92340000D03*
X109391300Y-120635500D03*
X151887000Y-88006600D03*
%TO.N,/A8*%
X114085300Y-89149200D03*
X118467900Y-84045300D03*
%TO.N,/A12*%
X113037100Y-103887600D03*
X112561700Y-121711300D03*
X148260300Y-121711300D03*
%TO.N,/A1*%
X97436300Y-93512400D03*
X115465500Y-108292900D03*
X121036800Y-102574300D03*
X103241500Y-108104100D03*
%TO.N,/A10*%
X117078200Y-88519900D03*
%TO.N,/A0*%
X121615300Y-101981900D03*
X103241500Y-104696200D03*
X103770000Y-99399100D03*
X94336700Y-90361200D03*
%TO.N,/A5*%
X113181800Y-115749700D03*
X113183400Y-106900400D03*
X113616600Y-101743400D03*
%TO.N,/A3*%
X116630500Y-101890400D03*
%TO.N,/A15*%
X94204900Y-97103400D03*
%TO.N,/A14*%
X94247100Y-100215000D03*
%TO.N,/A11*%
X123093600Y-82352400D03*
X115906500Y-88467200D03*
%TO.N,/A9*%
X115266800Y-89121700D03*
%TO.N,/A6*%
X112477600Y-101819300D03*
%TO.N,/~{MREQ}*%
X137138100Y-116274700D03*
%TO.N,/MA19*%
X101482600Y-92058300D03*
X104865500Y-111330600D03*
%TO.N,/MA20*%
X95658900Y-119261200D03*
X91464500Y-113446000D03*
X95789000Y-95358000D03*
%TO.N,/MA18*%
X89700000Y-111300000D03*
X100249000Y-94647300D03*
X101986000Y-101422700D03*
X91300000Y-101900000D03*
%TO.N,/MA16*%
X89240000Y-108250000D03*
X107584400Y-102094200D03*
X106921900Y-110734200D03*
X143303000Y-112757000D03*
X88593235Y-103843235D03*
%TO.N,/MA14*%
X132316400Y-92037500D03*
X147198600Y-88189900D03*
X129709900Y-105096500D03*
%TO.N,/MA15*%
X105167900Y-104325200D03*
X108238600Y-90397700D03*
%TO.N,/MA17*%
X120926300Y-81831800D03*
X127522600Y-113100400D03*
%TO.N,/~{RAM_CS}*%
X125732100Y-113719100D03*
X119888100Y-88675300D03*
%TO.N,/~{ROM_CS}*%
X166773000Y-115712500D03*
%TO.N,/~{CFG_CS}*%
X141907100Y-108443500D03*
X131908900Y-114385300D03*
%TO.N,/PGEN_WR*%
X167815800Y-109999700D03*
X167815800Y-112400000D03*
%TO.N,/PAGE_WR*%
X149525200Y-106835800D03*
X105148500Y-107522300D03*
X148909800Y-108441900D03*
X96353800Y-90554300D03*
%TO.N,Net-(U5-~{Q})*%
X98420000Y-93406400D03*
X102359000Y-107458200D03*
%TD*%
D14*
%TO.N,/D4*%
X161596200Y-87762100D02*
X161120800Y-87762100D01*
X162154200Y-88320100D02*
X161596200Y-87762100D01*
X163500000Y-123100000D02*
X162154200Y-121754200D01*
X162154200Y-121754200D02*
X162154200Y-88320100D01*
%TO.N,/~{M1}*%
X131915900Y-118711100D02*
X133020000Y-119815200D01*
X133020000Y-119815200D02*
X133020000Y-123100000D01*
%TO.N,/D6*%
X168580000Y-123100000D02*
X172450000Y-119230000D01*
X172450000Y-119230000D02*
X172450000Y-86130000D01*
X172450000Y-86130000D02*
X173620000Y-84960000D01*
X120910100Y-90027700D02*
X120910100Y-94506200D01*
X120910100Y-94506200D02*
X121687200Y-95283300D01*
D15*
%TO.N,GND*%
X181240000Y-113214500D02*
X177802800Y-116651700D01*
X126535400Y-111638900D02*
X126535400Y-100367800D01*
X181240000Y-100200000D02*
X181240000Y-113214500D01*
X126535400Y-121695400D02*
X127940000Y-123100000D01*
X126535400Y-111638900D02*
X126535400Y-121695400D01*
D14*
%TO.N,/~{WR}*%
X123311800Y-81710300D02*
X124443500Y-82842000D01*
X121011300Y-82666700D02*
X121967700Y-81710300D01*
X119766000Y-82666700D02*
X121011300Y-82666700D01*
X146873100Y-88716600D02*
X146873100Y-106852000D01*
X146873100Y-106852000D02*
X148115500Y-106852000D01*
X146873100Y-106852000D02*
X146873100Y-121946900D01*
X121967700Y-81710300D02*
X123311800Y-81710300D01*
X145680000Y-87523500D02*
X146873100Y-88716600D01*
X124443500Y-82842000D02*
X124443500Y-84675400D01*
X124443500Y-84675400D02*
X124682000Y-84913900D01*
X145680000Y-84960000D02*
X145680000Y-87523500D01*
X146873100Y-121946900D02*
X145720000Y-123100000D01*
%TO.N,/~{RESET}*%
X135560000Y-123100000D02*
X135560000Y-116116100D01*
X135560000Y-116116100D02*
X143441200Y-108234900D01*
%TO.N,/D1*%
X158927900Y-124254700D02*
X157034700Y-124254700D01*
X157034700Y-124254700D02*
X155880000Y-123100000D01*
X97760700Y-101065700D02*
X97760700Y-111955200D01*
X159509300Y-102358100D02*
X159586200Y-102435000D01*
X97760700Y-111955200D02*
X98693000Y-112887500D01*
X159586200Y-102435000D02*
X159586200Y-123596400D01*
X159586200Y-123596400D02*
X158927900Y-124254700D01*
D15*
%TO.N,+5V*%
X130480000Y-123100000D02*
X131032600Y-122547400D01*
X95158300Y-94925700D02*
X95036700Y-95047300D01*
X95036700Y-95047300D02*
X95036700Y-104214700D01*
X95417600Y-87559900D02*
X95158300Y-87819200D01*
X131032600Y-122547400D02*
X131032600Y-110062500D01*
X131032600Y-97067400D02*
X143140000Y-84960000D01*
X131032600Y-110062500D02*
X131032600Y-97067400D01*
X95036700Y-104214700D02*
X95714700Y-104892700D01*
X95158300Y-87819200D02*
X95158300Y-94925700D01*
D14*
%TO.N,/D0*%
X173758000Y-113550000D02*
X173620000Y-113412000D01*
X173620000Y-113412000D02*
X173620000Y-100200000D01*
X173043700Y-120592000D02*
X173758000Y-119877700D01*
X99300800Y-104926900D02*
X99300800Y-102266900D01*
X99300800Y-102266900D02*
X98595000Y-101561100D01*
X173758000Y-119877700D02*
X173758000Y-113550000D01*
%TO.N,/D3*%
X126950000Y-86312500D02*
X126950000Y-98950000D01*
X104150000Y-115600000D02*
X103573200Y-115023200D01*
X111250000Y-110850000D02*
X111250000Y-114681170D01*
X160960000Y-119300000D02*
X160960000Y-102957900D01*
X127600000Y-109350000D02*
X128100000Y-109850000D01*
X103573200Y-115023200D02*
X101427400Y-115023200D01*
X160960000Y-123100000D02*
X160960000Y-119300000D01*
X111250000Y-114681170D02*
X110765585Y-115165585D01*
X159717000Y-90404800D02*
X161552500Y-88569300D01*
X160960000Y-102957900D02*
X159717000Y-101714900D01*
X126950000Y-98950000D02*
X127600000Y-99600000D01*
X127600000Y-99600000D02*
X127600000Y-109350000D01*
X159717000Y-101714900D02*
X159717000Y-90404800D01*
%TO.N,/D2*%
X104416100Y-101409600D02*
X104416100Y-99049000D01*
X176533000Y-102367000D02*
X178700000Y-100200000D01*
X104042200Y-98675100D02*
X104042200Y-96926000D01*
X176533000Y-121334100D02*
X176533000Y-102367000D01*
X103843300Y-110485000D02*
X103843300Y-101982400D01*
X103843300Y-101982400D02*
X104416100Y-101409600D01*
X104416100Y-99049000D02*
X104042200Y-98675100D01*
%TO.N,/~{RD}*%
X148260000Y-123100000D02*
X157110000Y-114250000D01*
X163016900Y-84960000D02*
X163460000Y-84960000D01*
X157110000Y-90866900D02*
X163016900Y-84960000D01*
X163460000Y-84960000D02*
X163460000Y-81453500D01*
X157110000Y-114250000D02*
X157110000Y-90866900D01*
X163460000Y-81453500D02*
X163706000Y-81207500D01*
%TO.N,/D5*%
X102696600Y-99882400D02*
X102696600Y-95522300D01*
X124272600Y-90885000D02*
X122258100Y-88870500D01*
X102696600Y-95522300D02*
X104629900Y-93589000D01*
X126124100Y-93489700D02*
X125642100Y-93489700D01*
X124272600Y-92120200D02*
X124126500Y-92266300D01*
X174930000Y-93887100D02*
X174930000Y-119600000D01*
X175704600Y-93112500D02*
X174930000Y-93887100D01*
X166200000Y-119900000D02*
X166040000Y-120060000D01*
X102696600Y-99882400D02*
X102839200Y-100025000D01*
X175704600Y-85415400D02*
X175704600Y-93112500D01*
X125642100Y-93489700D02*
X124272600Y-92120200D01*
X166040000Y-120060000D02*
X166040000Y-123100000D01*
X176160000Y-84960000D02*
X175704600Y-85415400D01*
X124272600Y-92120200D02*
X124272600Y-90885000D01*
%TO.N,/D7*%
X104046300Y-89634000D02*
X103206600Y-90473700D01*
X96834500Y-91885900D02*
X98122600Y-90597800D01*
X167401400Y-123584000D02*
X167401400Y-120678200D01*
X97032400Y-97001400D02*
X96834500Y-96803500D01*
X169810000Y-118269600D02*
X169810000Y-86230000D01*
X169810000Y-86230000D02*
X171080000Y-84960000D01*
X107821000Y-89634000D02*
X104046300Y-89634000D01*
X169965200Y-124254800D02*
X168072200Y-124254800D01*
X167401400Y-120678200D02*
X169810000Y-118269600D01*
X171120000Y-123100000D02*
X169965200Y-124254800D01*
X168072200Y-124254800D02*
X167401400Y-123584000D01*
X96834500Y-96803500D02*
X96834500Y-91885900D01*
%TO.N,/A7*%
X112145900Y-102958500D02*
X112145900Y-118537500D01*
X153300000Y-116800000D02*
X151400000Y-118700000D01*
X153300000Y-100200000D02*
X153300000Y-116800000D01*
X112412200Y-102692200D02*
X112145900Y-102958500D01*
%TO.N,/A4*%
X116735000Y-103118500D02*
X116735000Y-114327200D01*
X115240000Y-123100000D02*
X115240000Y-115822200D01*
X115240000Y-115822200D02*
X115448600Y-115613600D01*
X116735000Y-114327200D02*
X115448600Y-115613600D01*
%TO.N,/A2*%
X119111600Y-102254400D02*
X119111600Y-121891600D01*
X119111600Y-121891600D02*
X120320000Y-123100000D01*
X163795800Y-107453800D02*
X166000000Y-105249600D01*
X166000000Y-105249600D02*
X166000000Y-100200000D01*
%TO.N,/A13*%
X118633300Y-89079300D02*
X118633300Y-89523400D01*
X119639000Y-88073600D02*
X118633300Y-89079300D01*
X153300000Y-86593600D02*
X151887000Y-88006600D01*
X125637100Y-91393300D02*
X122317400Y-88073600D01*
X109391300Y-98765400D02*
X109391300Y-120635500D01*
X122317400Y-88073600D02*
X119639000Y-88073600D01*
X125637100Y-92340000D02*
X125637100Y-91393300D01*
X153300000Y-84960000D02*
X153300000Y-86593600D01*
X118633300Y-89523400D02*
X109391300Y-98765400D01*
%TO.N,/A8*%
X108186200Y-95048300D02*
X108186200Y-119993800D01*
X151786900Y-80906900D02*
X120675000Y-80906900D01*
X114085300Y-89149200D02*
X108186200Y-95048300D01*
X108186200Y-119993800D02*
X105080000Y-123100000D01*
X155840000Y-84960000D02*
X151786900Y-80906900D01*
X120675000Y-80906900D02*
X118467900Y-83114000D01*
X118467900Y-83114000D02*
X118467900Y-84045300D01*
%TO.N,/A12*%
X112564600Y-117243800D02*
X112747600Y-117426800D01*
X150760000Y-119211600D02*
X150760000Y-100200000D01*
X112747600Y-121525400D02*
X112561700Y-121711300D01*
X148260300Y-121711300D02*
X150760000Y-119211600D01*
X112564600Y-104360100D02*
X112564600Y-117243800D01*
X112747600Y-117426800D02*
X112747600Y-121525400D01*
X113037100Y-103887600D02*
X112564600Y-104360100D01*
%TO.N,/A1*%
X98236900Y-94313000D02*
X97436300Y-93512400D01*
X103027300Y-108104100D02*
X103241500Y-108104100D01*
X102136800Y-108104100D02*
X100600700Y-106568000D01*
X122860000Y-123100000D02*
X122860000Y-104397500D01*
X115465500Y-102147600D02*
X116332700Y-101280400D01*
X116332700Y-101280400D02*
X119742900Y-101280400D01*
X103241500Y-108104100D02*
X103027300Y-108104100D01*
X115465500Y-108292900D02*
X115465500Y-102147600D01*
X98236900Y-99732000D02*
X98236900Y-94313000D01*
X100600700Y-102095800D02*
X98236900Y-99732000D01*
X122860000Y-104397500D02*
X121036800Y-102574300D01*
X119742900Y-101280400D02*
X121036800Y-102574300D01*
X100600700Y-106568000D02*
X100600700Y-102095800D01*
X103241500Y-108104100D02*
X102136800Y-108104100D01*
%TO.N,/A10*%
X105870500Y-117229500D02*
X105870500Y-102961400D01*
X106469300Y-95207100D02*
X113850300Y-87826100D01*
X113850300Y-87826100D02*
X116384400Y-87826100D01*
X106469300Y-102030000D02*
X106469300Y-95207100D01*
X106282200Y-102549700D02*
X106115900Y-102383400D01*
X116384400Y-87826100D02*
X117078200Y-88519900D01*
X105870500Y-102961400D02*
X106282200Y-102549700D01*
X106115900Y-102383400D02*
X106469300Y-102030000D01*
X106282200Y-102549700D02*
X106115900Y-102383400D01*
X100000000Y-123100000D02*
X105870500Y-117229500D01*
%TO.N,/A0*%
X125400000Y-123100000D02*
X125078700Y-122778700D01*
X103770000Y-100132800D02*
X103770000Y-99399100D01*
X125078700Y-122778700D02*
X125078700Y-105445300D01*
X103241500Y-100661300D02*
X103770000Y-100132800D01*
X125078700Y-105445300D02*
X121615300Y-101981900D01*
X103150000Y-104787700D02*
X103241500Y-104696200D01*
X94336700Y-87612000D02*
X94336700Y-90361200D01*
X100880900Y-98970100D02*
X100880900Y-91968300D01*
X103241500Y-100661300D02*
X102572100Y-100661300D01*
X95133500Y-86815200D02*
X94336700Y-87612000D01*
X103770000Y-99399100D02*
X103799900Y-99369200D01*
X100880900Y-91968300D02*
X95727800Y-86815200D01*
X95727800Y-86815200D02*
X95133500Y-86815200D01*
X103241500Y-104696200D02*
X103150000Y-104787700D01*
X102572100Y-100661300D02*
X100880900Y-98970100D01*
X103241500Y-100661300D02*
X103241500Y-104696200D01*
X103799900Y-99369200D02*
X103770000Y-99399100D01*
%TO.N,/A5*%
X113181800Y-122618200D02*
X112700000Y-123100000D01*
X113638800Y-106445000D02*
X113638800Y-101765600D01*
X113183400Y-106900400D02*
X113638800Y-106445000D01*
X113181800Y-115749700D02*
X113181800Y-106902000D01*
X113181800Y-115749700D02*
X113181800Y-122618200D01*
X113181800Y-106902000D02*
X113183400Y-106900400D01*
X113638800Y-101765600D02*
X113616600Y-101743400D01*
%TO.N,/A3*%
X116630500Y-101890400D02*
X117780000Y-103039900D01*
X117780000Y-103039900D02*
X117780000Y-123100000D01*
%TO.N,/A15*%
X87300000Y-104008300D02*
X87300000Y-123100000D01*
X94204900Y-97103400D02*
X87300000Y-104008300D01*
%TO.N,/A14*%
X92300000Y-101450000D02*
X92300000Y-111150000D01*
X94247100Y-100215000D02*
X93012100Y-101450000D01*
X94325300Y-100136800D02*
X94247100Y-100215000D01*
X92300000Y-111150000D02*
X89840000Y-113610000D01*
X89840000Y-113610000D02*
X89840000Y-123100000D01*
X93012100Y-101450000D02*
X92300000Y-101450000D01*
%TO.N,/A11*%
X116308200Y-89139100D02*
X116308200Y-88868900D01*
X123093600Y-83477200D02*
X117431700Y-89139100D01*
X123093600Y-82352400D02*
X123093600Y-83477200D01*
X98643500Y-124283500D02*
X97460000Y-123100000D01*
X116308200Y-89139100D02*
X108789600Y-96657700D01*
X116308200Y-88868900D02*
X115906500Y-88467200D01*
X108789600Y-96657700D02*
X108789600Y-123620300D01*
X108126400Y-124283500D02*
X98643500Y-124283500D01*
X108789600Y-123620300D02*
X108126400Y-124283500D01*
X117431700Y-89139100D02*
X116308200Y-89139100D01*
%TO.N,/A9*%
X102540000Y-123100000D02*
X106272200Y-119367800D01*
X106982700Y-106877200D02*
X106982700Y-95313700D01*
X106982700Y-95313700D02*
X113759200Y-88537200D01*
X114682300Y-88537200D02*
X115266800Y-89121700D01*
X106272200Y-119367800D02*
X106272200Y-107587700D01*
X113759200Y-88537200D02*
X114682300Y-88537200D01*
X106272200Y-107587700D02*
X106982700Y-106877200D01*
%TO.N,/A6*%
X110160000Y-123100000D02*
X110160000Y-104093200D01*
X112433900Y-101819300D02*
X112477600Y-101819300D01*
X110160000Y-104093200D02*
X112433900Y-101819300D01*
%TO.N,/~{MREQ}*%
X143180000Y-122316600D02*
X143180000Y-123100000D01*
X137138100Y-116274700D02*
X143180000Y-122316600D01*
%TO.N,/MA19*%
X105253500Y-93358700D02*
X103953100Y-92058300D01*
X104732500Y-98597200D02*
X104566200Y-98430900D01*
X104643900Y-98353200D02*
X104643900Y-94793100D01*
X104546600Y-102047000D02*
X104546600Y-111011700D01*
X104732500Y-98597200D02*
X104566200Y-98430900D01*
X104865500Y-111332200D02*
X104865500Y-111330600D01*
X104850200Y-101743400D02*
X104546600Y-102047000D01*
X104865500Y-111330600D02*
X104865500Y-111332200D01*
X104850200Y-98714900D02*
X104850200Y-101743400D01*
X104566200Y-98430900D02*
X104643900Y-98353200D01*
X105253500Y-94183500D02*
X105253500Y-93358700D01*
X104643900Y-94793100D02*
X105253500Y-94183500D01*
X104732500Y-98597200D02*
X104850200Y-98714900D01*
X104546600Y-111011700D02*
X104865500Y-111330600D01*
X103953100Y-92058300D02*
X101482600Y-92058300D01*
%TO.N,/MA20*%
X97333700Y-113689400D02*
X97500000Y-113855700D01*
X97500000Y-113855700D02*
X97500000Y-117420100D01*
X95743800Y-97224700D02*
X95908600Y-97389500D01*
X95908600Y-102166400D02*
X95743800Y-102331200D01*
X95658900Y-119261200D02*
X91464500Y-115066800D01*
X97333700Y-113689400D02*
X97500000Y-113855700D01*
X97500000Y-117420100D02*
X95658900Y-119261200D01*
X97332200Y-104687800D02*
X97332200Y-113687900D01*
X95908600Y-97389500D02*
X95908600Y-102166400D01*
X97167400Y-103754800D02*
X97167400Y-104523000D01*
X95743800Y-102331200D02*
X95837500Y-102424900D01*
X97332200Y-113687900D02*
X97333700Y-113689400D01*
X95743800Y-97224700D02*
X95908600Y-97389500D01*
X97167400Y-104523000D02*
X97332200Y-104687800D01*
X97167400Y-104523000D02*
X97332200Y-104687800D01*
X95743800Y-102331200D02*
X95837500Y-102424900D01*
X95789000Y-95358000D02*
X95789000Y-97179500D01*
X91464500Y-115066800D02*
X91464500Y-113446000D01*
X95837500Y-102424900D02*
X97167400Y-103754800D01*
X95789000Y-97179500D02*
X95743800Y-97224700D01*
%TO.N,/MA18*%
X100249000Y-94647300D02*
X100249000Y-99685700D01*
X89700000Y-111300000D02*
X91200000Y-109800000D01*
X91300000Y-109800000D02*
X91300000Y-101900000D01*
X91200000Y-109800000D02*
X91300000Y-109800000D01*
X100249000Y-99685700D02*
X101986000Y-101422700D01*
%TO.N,/MA16*%
X106921900Y-110734200D02*
X106921900Y-110734100D01*
X145680000Y-110380000D02*
X145680000Y-100200000D01*
X106921900Y-110734200D02*
X107584400Y-110071700D01*
X143303000Y-112757000D02*
X145680000Y-110380000D01*
X88593235Y-103843235D02*
X89240000Y-104490000D01*
X89240000Y-104490000D02*
X89240000Y-108250000D01*
X107584400Y-110071700D02*
X107584400Y-102094200D01*
X106921900Y-110734100D02*
X106921900Y-110734200D01*
%TO.N,/MA14*%
X132316400Y-92037500D02*
X129709900Y-94644000D01*
X147530100Y-88189900D02*
X147198600Y-88189900D01*
X129709900Y-94644000D02*
X129709900Y-105096500D01*
X150760000Y-84960000D02*
X147530100Y-88189900D01*
%TO.N,/MA15*%
X105369600Y-104123500D02*
X105369600Y-97915600D01*
X105167900Y-104325200D02*
X105369600Y-104123500D01*
X106067600Y-92568700D02*
X108238600Y-90397700D01*
X106067600Y-97217600D02*
X106067600Y-92568700D01*
X105369600Y-97915600D02*
X106067600Y-97217600D01*
%TO.N,/MA17*%
X132123300Y-89953700D02*
X129268000Y-92809000D01*
X121561000Y-81308600D02*
X121037800Y-81831800D01*
X129268000Y-92809000D02*
X129268000Y-104687600D01*
X129108200Y-104847400D02*
X129108200Y-111514800D01*
X129268000Y-104687600D02*
X129108200Y-104847400D01*
X132123300Y-89953700D02*
X123478100Y-81308600D01*
X138308500Y-83768500D02*
X147028500Y-83768500D01*
X123478100Y-81308600D02*
X121561000Y-81308600D01*
X147028500Y-83768500D02*
X148220000Y-84960000D01*
X129108200Y-111514800D02*
X127522600Y-113100400D01*
X121037800Y-81831800D02*
X120926300Y-81831800D01*
X132123300Y-89953700D02*
X138308500Y-83768500D01*
%TO.N,/~{RAM_CS}*%
X125732100Y-113719100D02*
X125732100Y-99652600D01*
X125732100Y-99652600D02*
X123518700Y-97439200D01*
X123518700Y-91785400D02*
X120408600Y-88675300D01*
X120408600Y-88675300D02*
X119888100Y-88675300D01*
X123518700Y-97439200D02*
X123518700Y-91785400D01*
%TO.N,/~{ROM_CS}*%
X167214100Y-86285900D02*
X167214100Y-115271400D01*
X167214100Y-115271400D02*
X166773000Y-115712500D01*
X168540000Y-84960000D02*
X167214100Y-86285900D01*
%TO.N,/~{CFG_CS}*%
X136367100Y-113983500D02*
X131908900Y-113983500D01*
X141907100Y-108443500D02*
X136367100Y-113983500D01*
X131908900Y-113983500D02*
X131908900Y-114385300D01*
%TO.N,/PGEN_WR*%
X167815800Y-109999700D02*
X167815800Y-112400000D01*
%TO.N,/PAGE_WR*%
X148909800Y-107451200D02*
X149525200Y-106835800D01*
X105268600Y-107522300D02*
X105148500Y-107522300D01*
X104425500Y-111938200D02*
X100199000Y-107711700D01*
X105468800Y-107842600D02*
X105468800Y-111580500D01*
X96371500Y-98434600D02*
X96371500Y-95639900D01*
X105111100Y-111938200D02*
X104425500Y-111938200D01*
X105148500Y-107522300D02*
X105268600Y-107522300D01*
X105148500Y-107522300D02*
X105468800Y-107842600D01*
X100199000Y-102262100D02*
X96371500Y-98434600D01*
X96371500Y-95639900D02*
X96432800Y-95578600D01*
X100199000Y-107711700D02*
X100199000Y-102262100D01*
X96432800Y-95578600D02*
X96432800Y-90633300D01*
X105468800Y-111580500D02*
X105111100Y-111938200D01*
X96432800Y-90633300D02*
X96353800Y-90554300D01*
X148909800Y-108441900D02*
X148909800Y-107451200D01*
%TO.N,Net-(U5-~{Q})*%
X98638600Y-93625000D02*
X98420000Y-93406400D01*
X98638600Y-99565700D02*
X98638600Y-93625000D01*
X102359000Y-107458200D02*
X102359000Y-103286100D01*
X102359000Y-103286100D02*
X98638600Y-99565700D01*
%TD*%
%TA.AperFunction,Conductor*%
%TO.N,GND*%
G36*
X127474075Y-123292993D02*
G01*
X127539901Y-123407007D01*
X127632993Y-123500099D01*
X127747007Y-123565925D01*
X127810590Y-123582962D01*
X127178282Y-124215269D01*
X127178282Y-124215270D01*
X127232452Y-124254626D01*
X127232451Y-124254626D01*
X127252841Y-124265015D01*
X127303638Y-124312989D01*
X127320433Y-124380810D01*
X127297896Y-124446945D01*
X127243181Y-124490397D01*
X127196547Y-124499500D01*
X126144555Y-124499500D01*
X126077516Y-124479815D01*
X126031761Y-124427011D01*
X126021817Y-124357853D01*
X126050842Y-124294297D01*
X126088261Y-124265015D01*
X126094796Y-124261684D01*
X126107816Y-124255051D01*
X126194138Y-124192335D01*
X126279786Y-124130109D01*
X126279788Y-124130106D01*
X126279792Y-124130104D01*
X126430104Y-123979792D01*
X126430106Y-123979788D01*
X126430109Y-123979786D01*
X126515890Y-123861717D01*
X126555051Y-123807816D01*
X126559793Y-123798508D01*
X126607763Y-123747711D01*
X126675583Y-123730911D01*
X126741719Y-123753445D01*
X126780763Y-123798500D01*
X126785373Y-123807547D01*
X126824728Y-123861716D01*
X127457037Y-123229408D01*
X127474075Y-123292993D01*
G37*
%TD.AperFunction*%
%TA.AperFunction,Conductor*%
G36*
X129055270Y-123861717D02*
G01*
X129055270Y-123861716D01*
X129094622Y-123807555D01*
X129099232Y-123798507D01*
X129147205Y-123747709D01*
X129215025Y-123730912D01*
X129281161Y-123753447D01*
X129320204Y-123798504D01*
X129324949Y-123807817D01*
X129449890Y-123979786D01*
X129600213Y-124130109D01*
X129772182Y-124255050D01*
X129791739Y-124265015D01*
X129842536Y-124312989D01*
X129859331Y-124380810D01*
X129836794Y-124446945D01*
X129782079Y-124490397D01*
X129735445Y-124499500D01*
X128683453Y-124499500D01*
X128616414Y-124479815D01*
X128570659Y-124427011D01*
X128560715Y-124357853D01*
X128589740Y-124294297D01*
X128627159Y-124265015D01*
X128647552Y-124254624D01*
X128701716Y-124215270D01*
X128701717Y-124215270D01*
X128069408Y-123582962D01*
X128132993Y-123565925D01*
X128247007Y-123500099D01*
X128340099Y-123407007D01*
X128405925Y-123292993D01*
X128422962Y-123229409D01*
X129055270Y-123861717D01*
G37*
%TD.AperFunction*%
%TA.AperFunction,Conductor*%
G36*
X187942539Y-80520185D02*
G01*
X187988294Y-80572989D01*
X187999500Y-80624500D01*
X187999500Y-124375500D01*
X187979815Y-124442539D01*
X187927011Y-124488294D01*
X187875500Y-124499500D01*
X187104555Y-124499500D01*
X187037516Y-124479815D01*
X186991761Y-124427011D01*
X186981817Y-124357853D01*
X187010842Y-124294297D01*
X187048261Y-124265015D01*
X187054796Y-124261684D01*
X187067816Y-124255051D01*
X187154138Y-124192335D01*
X187239786Y-124130109D01*
X187239788Y-124130106D01*
X187239792Y-124130104D01*
X187390104Y-123979792D01*
X187390106Y-123979788D01*
X187390109Y-123979786D01*
X187515048Y-123807820D01*
X187515047Y-123807820D01*
X187515051Y-123807816D01*
X187611557Y-123618412D01*
X187677246Y-123416243D01*
X187710500Y-123206287D01*
X187710500Y-122993713D01*
X187677246Y-122783757D01*
X187611557Y-122581588D01*
X187515051Y-122392184D01*
X187515049Y-122392181D01*
X187515048Y-122392179D01*
X187390109Y-122220213D01*
X187239786Y-122069890D01*
X187067820Y-121944951D01*
X186878414Y-121848444D01*
X186878413Y-121848443D01*
X186878412Y-121848443D01*
X186676243Y-121782754D01*
X186676241Y-121782753D01*
X186676240Y-121782753D01*
X186514957Y-121757208D01*
X186466287Y-121749500D01*
X186253713Y-121749500D01*
X186205042Y-121757208D01*
X186043760Y-121782753D01*
X185841585Y-121848444D01*
X185652179Y-121944951D01*
X185480213Y-122069890D01*
X185329890Y-122220213D01*
X185204949Y-122392182D01*
X185200484Y-122400946D01*
X185152509Y-122451742D01*
X185084688Y-122468536D01*
X185018553Y-122445998D01*
X184979516Y-122400946D01*
X184975050Y-122392182D01*
X184850109Y-122220213D01*
X184699786Y-122069890D01*
X184527820Y-121944951D01*
X184338414Y-121848444D01*
X184338413Y-121848443D01*
X184338412Y-121848443D01*
X184136243Y-121782754D01*
X184136241Y-121782753D01*
X184136240Y-121782753D01*
X183974957Y-121757208D01*
X183926287Y-121749500D01*
X183713713Y-121749500D01*
X183665042Y-121757208D01*
X183503760Y-121782753D01*
X183301585Y-121848444D01*
X183112179Y-121944951D01*
X182940213Y-122069890D01*
X182789890Y-122220213D01*
X182664949Y-122392182D01*
X182660484Y-122400946D01*
X182612509Y-122451742D01*
X182544688Y-122468536D01*
X182478553Y-122445998D01*
X182439516Y-122400946D01*
X182435050Y-122392182D01*
X182310109Y-122220213D01*
X182159786Y-122069890D01*
X181987820Y-121944951D01*
X181798414Y-121848444D01*
X181798413Y-121848443D01*
X181798412Y-121848443D01*
X181596243Y-121782754D01*
X181596241Y-121782753D01*
X181596240Y-121782753D01*
X181434957Y-121757208D01*
X181386287Y-121749500D01*
X181173713Y-121749500D01*
X181125042Y-121757208D01*
X180963760Y-121782753D01*
X180761585Y-121848444D01*
X180572179Y-121944951D01*
X180400213Y-122069890D01*
X180249890Y-122220213D01*
X180124949Y-122392182D01*
X180120484Y-122400946D01*
X180072509Y-122451742D01*
X180004688Y-122468536D01*
X179938553Y-122445998D01*
X179899516Y-122400946D01*
X179895050Y-122392182D01*
X179770109Y-122220213D01*
X179619786Y-122069890D01*
X179447820Y-121944951D01*
X179258414Y-121848444D01*
X179258413Y-121848443D01*
X179258412Y-121848443D01*
X179056243Y-121782754D01*
X179056241Y-121782753D01*
X179056240Y-121782753D01*
X178894957Y-121757208D01*
X178846287Y-121749500D01*
X178633713Y-121749500D01*
X178585042Y-121757208D01*
X178423760Y-121782753D01*
X178221585Y-121848444D01*
X178032179Y-121944951D01*
X177860213Y-122069890D01*
X177709890Y-122220213D01*
X177584949Y-122392182D01*
X177580484Y-122400946D01*
X177532509Y-122451742D01*
X177464688Y-122468536D01*
X177398553Y-122445998D01*
X177359516Y-122400946D01*
X177355050Y-122392182D01*
X177230109Y-122220213D01*
X177092218Y-122082322D01*
X177058733Y-122020999D01*
X177063717Y-121951307D01*
X177092216Y-121906961D01*
X177154789Y-121844389D01*
X177242394Y-121713279D01*
X177302737Y-121567597D01*
X177333500Y-121412942D01*
X177333500Y-121255258D01*
X177333500Y-121255255D01*
X177333499Y-121255253D01*
X177325251Y-121213786D01*
X177302737Y-121100603D01*
X177302735Y-121100598D01*
X177242397Y-120954927D01*
X177242390Y-120954914D01*
X177154398Y-120823225D01*
X177133520Y-120756547D01*
X177133500Y-120754334D01*
X177133500Y-102667096D01*
X177153185Y-102600057D01*
X177169814Y-102579419D01*
X178215478Y-101533755D01*
X178276799Y-101500272D01*
X178341473Y-101503506D01*
X178383757Y-101517246D01*
X178593713Y-101550500D01*
X178593714Y-101550500D01*
X178806286Y-101550500D01*
X178806287Y-101550500D01*
X179016243Y-101517246D01*
X179218412Y-101451557D01*
X179407816Y-101355051D01*
X179462572Y-101315269D01*
X179579786Y-101230109D01*
X179579788Y-101230106D01*
X179579792Y-101230104D01*
X179730104Y-101079792D01*
X179730106Y-101079788D01*
X179730109Y-101079786D01*
X179815890Y-100961717D01*
X179855051Y-100907816D01*
X179859793Y-100898508D01*
X179907763Y-100847711D01*
X179975583Y-100830911D01*
X180041719Y-100853445D01*
X180080763Y-100898500D01*
X180085373Y-100907547D01*
X180124728Y-100961716D01*
X180757037Y-100329408D01*
X180774075Y-100392993D01*
X180839901Y-100507007D01*
X180932993Y-100600099D01*
X181047007Y-100665925D01*
X181110590Y-100682962D01*
X180478282Y-101315269D01*
X180478282Y-101315270D01*
X180532449Y-101354624D01*
X180721782Y-101451095D01*
X180923870Y-101516757D01*
X181133754Y-101550000D01*
X181346246Y-101550000D01*
X181556127Y-101516757D01*
X181556130Y-101516757D01*
X181758217Y-101451095D01*
X181947554Y-101354622D01*
X182001716Y-101315270D01*
X182001717Y-101315270D01*
X181369408Y-100682962D01*
X181432993Y-100665925D01*
X181547007Y-100600099D01*
X181640099Y-100507007D01*
X181705925Y-100392993D01*
X181722962Y-100329408D01*
X182355270Y-100961717D01*
X182355270Y-100961716D01*
X182394622Y-100907554D01*
X182491095Y-100718217D01*
X182556757Y-100516130D01*
X182556757Y-100516127D01*
X182590000Y-100306246D01*
X182590000Y-100093753D01*
X182556757Y-99883872D01*
X182556757Y-99883869D01*
X182491095Y-99681782D01*
X182394624Y-99492449D01*
X182355270Y-99438282D01*
X182355269Y-99438282D01*
X181722962Y-100070590D01*
X181705925Y-100007007D01*
X181640099Y-99892993D01*
X181547007Y-99799901D01*
X181432993Y-99734075D01*
X181369409Y-99717037D01*
X182001716Y-99084728D01*
X181947550Y-99045375D01*
X181758217Y-98948904D01*
X181556129Y-98883242D01*
X181346246Y-98850000D01*
X181133754Y-98850000D01*
X180923872Y-98883242D01*
X180923869Y-98883242D01*
X180721782Y-98948904D01*
X180532439Y-99045380D01*
X180478282Y-99084727D01*
X180478282Y-99084728D01*
X181110591Y-99717037D01*
X181047007Y-99734075D01*
X180932993Y-99799901D01*
X180839901Y-99892993D01*
X180774075Y-100007007D01*
X180757037Y-100070591D01*
X180124728Y-99438282D01*
X180124727Y-99438282D01*
X180085380Y-99492440D01*
X180085376Y-99492446D01*
X180080760Y-99501505D01*
X180032781Y-99552297D01*
X179964959Y-99569087D01*
X179898826Y-99546543D01*
X179859794Y-99501493D01*
X179855051Y-99492184D01*
X179855049Y-99492181D01*
X179855048Y-99492179D01*
X179730109Y-99320213D01*
X179579786Y-99169890D01*
X179407820Y-99044951D01*
X179218414Y-98948444D01*
X179218413Y-98948443D01*
X179218412Y-98948443D01*
X179016243Y-98882754D01*
X179016241Y-98882753D01*
X179016240Y-98882753D01*
X178854957Y-98857208D01*
X178806287Y-98849500D01*
X178593713Y-98849500D01*
X178545042Y-98857208D01*
X178383760Y-98882753D01*
X178298376Y-98910496D01*
X178186679Y-98946789D01*
X178181585Y-98948444D01*
X177992179Y-99044951D01*
X177820213Y-99169890D01*
X177669890Y-99320213D01*
X177544949Y-99492182D01*
X177540484Y-99500946D01*
X177492509Y-99551742D01*
X177424688Y-99568536D01*
X177358553Y-99545998D01*
X177319516Y-99500946D01*
X177315050Y-99492182D01*
X177190109Y-99320213D01*
X177039786Y-99169890D01*
X176867820Y-99044951D01*
X176678414Y-98948444D01*
X176678413Y-98948443D01*
X176678412Y-98948443D01*
X176476243Y-98882754D01*
X176476241Y-98882753D01*
X176476240Y-98882753D01*
X176314957Y-98857208D01*
X176266287Y-98849500D01*
X176053713Y-98849500D01*
X176014202Y-98855757D01*
X175843759Y-98882753D01*
X175692818Y-98931797D01*
X175622977Y-98933792D01*
X175563144Y-98897711D01*
X175532316Y-98835010D01*
X175530500Y-98813866D01*
X175530500Y-94187197D01*
X175539144Y-94157756D01*
X175545668Y-94127770D01*
X175549422Y-94122754D01*
X175550185Y-94120158D01*
X175566813Y-94099521D01*
X175719263Y-93947071D01*
X175780583Y-93913589D01*
X175782750Y-93913138D01*
X175840685Y-93901613D01*
X175938097Y-93882237D01*
X176083779Y-93821894D01*
X176214889Y-93734289D01*
X176326389Y-93622789D01*
X176413994Y-93491679D01*
X176474337Y-93345997D01*
X176505100Y-93191342D01*
X176505100Y-93033658D01*
X176505100Y-93033655D01*
X176505099Y-93033653D01*
X176498094Y-92998439D01*
X176474337Y-92879003D01*
X176457353Y-92838000D01*
X176413997Y-92733327D01*
X176413990Y-92733314D01*
X176325998Y-92601625D01*
X176305120Y-92534947D01*
X176305100Y-92532734D01*
X176305100Y-86410257D01*
X176324785Y-86343218D01*
X176377589Y-86297463D01*
X176409692Y-86287786D01*
X176476243Y-86277246D01*
X176678412Y-86211557D01*
X176867816Y-86115051D01*
X176917439Y-86078998D01*
X177039786Y-85990109D01*
X177039788Y-85990106D01*
X177039792Y-85990104D01*
X177190104Y-85839792D01*
X177190106Y-85839788D01*
X177190109Y-85839786D01*
X177315048Y-85667820D01*
X177315047Y-85667820D01*
X177315051Y-85667816D01*
X177319514Y-85659054D01*
X177367488Y-85608259D01*
X177435308Y-85591463D01*
X177501444Y-85613999D01*
X177540486Y-85659056D01*
X177544951Y-85667820D01*
X177669890Y-85839786D01*
X177820213Y-85990109D01*
X177992179Y-86115048D01*
X177992181Y-86115049D01*
X177992184Y-86115051D01*
X178181588Y-86211557D01*
X178383757Y-86277246D01*
X178593713Y-86310500D01*
X178593714Y-86310500D01*
X178806286Y-86310500D01*
X178806287Y-86310500D01*
X179016243Y-86277246D01*
X179218412Y-86211557D01*
X179407816Y-86115051D01*
X179457439Y-86078998D01*
X179579786Y-85990109D01*
X179579788Y-85990106D01*
X179579792Y-85990104D01*
X179730104Y-85839792D01*
X179730106Y-85839788D01*
X179730109Y-85839786D01*
X179855048Y-85667820D01*
X179855047Y-85667820D01*
X179855051Y-85667816D01*
X179859514Y-85659054D01*
X179907488Y-85608259D01*
X179975308Y-85591463D01*
X180041444Y-85613999D01*
X180080486Y-85659056D01*
X180084951Y-85667820D01*
X180209890Y-85839786D01*
X180360213Y-85990109D01*
X180532179Y-86115048D01*
X180532181Y-86115049D01*
X180532184Y-86115051D01*
X180721588Y-86211557D01*
X180923757Y-86277246D01*
X181133713Y-86310500D01*
X181133714Y-86310500D01*
X181346286Y-86310500D01*
X181346287Y-86310500D01*
X181556243Y-86277246D01*
X181758412Y-86211557D01*
X181947816Y-86115051D01*
X181997439Y-86078998D01*
X182119786Y-85990109D01*
X182119788Y-85990106D01*
X182119792Y-85990104D01*
X182270104Y-85839792D01*
X182270106Y-85839788D01*
X182270109Y-85839786D01*
X182395048Y-85667820D01*
X182395047Y-85667820D01*
X182395051Y-85667816D01*
X182491557Y-85478412D01*
X182557246Y-85276243D01*
X182590500Y-85066287D01*
X182590500Y-84853713D01*
X182557246Y-84643757D01*
X182491557Y-84441588D01*
X182395051Y-84252184D01*
X182395049Y-84252181D01*
X182395048Y-84252179D01*
X182270109Y-84080213D01*
X182119786Y-83929890D01*
X181947820Y-83804951D01*
X181758414Y-83708444D01*
X181758413Y-83708443D01*
X181758412Y-83708443D01*
X181556243Y-83642754D01*
X181556241Y-83642753D01*
X181556240Y-83642753D01*
X181394957Y-83617208D01*
X181346287Y-83609500D01*
X181133713Y-83609500D01*
X181085042Y-83617208D01*
X180923760Y-83642753D01*
X180721585Y-83708444D01*
X180532179Y-83804951D01*
X180360213Y-83929890D01*
X180209890Y-84080213D01*
X180084949Y-84252182D01*
X180080484Y-84260946D01*
X180032509Y-84311742D01*
X179964688Y-84328536D01*
X179898553Y-84305998D01*
X179859516Y-84260946D01*
X179855050Y-84252182D01*
X179730109Y-84080213D01*
X179579786Y-83929890D01*
X179407820Y-83804951D01*
X179218414Y-83708444D01*
X179218413Y-83708443D01*
X179218412Y-83708443D01*
X179016243Y-83642754D01*
X179016241Y-83642753D01*
X179016240Y-83642753D01*
X178854957Y-83617208D01*
X178806287Y-83609500D01*
X178593713Y-83609500D01*
X178545042Y-83617208D01*
X178383760Y-83642753D01*
X178181585Y-83708444D01*
X177992179Y-83804951D01*
X177820213Y-83929890D01*
X177669890Y-84080213D01*
X177544949Y-84252182D01*
X177540484Y-84260946D01*
X177492509Y-84311742D01*
X177424688Y-84328536D01*
X177358553Y-84305998D01*
X177319516Y-84260946D01*
X177315050Y-84252182D01*
X177190109Y-84080213D01*
X177039786Y-83929890D01*
X176867820Y-83804951D01*
X176678414Y-83708444D01*
X176678413Y-83708443D01*
X176678412Y-83708443D01*
X176476243Y-83642754D01*
X176476241Y-83642753D01*
X176476240Y-83642753D01*
X176314957Y-83617208D01*
X176266287Y-83609500D01*
X176053713Y-83609500D01*
X176005042Y-83617208D01*
X175843760Y-83642753D01*
X175641585Y-83708444D01*
X175452179Y-83804951D01*
X175280213Y-83929890D01*
X175129890Y-84080213D01*
X175004949Y-84252182D01*
X175000484Y-84260946D01*
X174952509Y-84311742D01*
X174884688Y-84328536D01*
X174818553Y-84305998D01*
X174779516Y-84260946D01*
X174775050Y-84252182D01*
X174650109Y-84080213D01*
X174499786Y-83929890D01*
X174327820Y-83804951D01*
X174138414Y-83708444D01*
X174138413Y-83708443D01*
X174138412Y-83708443D01*
X173936243Y-83642754D01*
X173936241Y-83642753D01*
X173936240Y-83642753D01*
X173774957Y-83617208D01*
X173726287Y-83609500D01*
X173513713Y-83609500D01*
X173465042Y-83617208D01*
X173303760Y-83642753D01*
X173101585Y-83708444D01*
X172912179Y-83804951D01*
X172740213Y-83929890D01*
X172589890Y-84080213D01*
X172464949Y-84252182D01*
X172460484Y-84260946D01*
X172412509Y-84311742D01*
X172344688Y-84328536D01*
X172278553Y-84305998D01*
X172239516Y-84260946D01*
X172235050Y-84252182D01*
X172110109Y-84080213D01*
X171959786Y-83929890D01*
X171787820Y-83804951D01*
X171598414Y-83708444D01*
X171598413Y-83708443D01*
X171598412Y-83708443D01*
X171396243Y-83642754D01*
X171396241Y-83642753D01*
X171396240Y-83642753D01*
X171234957Y-83617208D01*
X171186287Y-83609500D01*
X170973713Y-83609500D01*
X170925042Y-83617208D01*
X170763760Y-83642753D01*
X170561585Y-83708444D01*
X170372179Y-83804951D01*
X170200213Y-83929890D01*
X170049890Y-84080213D01*
X169924949Y-84252182D01*
X169920484Y-84260946D01*
X169872509Y-84311742D01*
X169804688Y-84328536D01*
X169738553Y-84305998D01*
X169699516Y-84260946D01*
X169695050Y-84252182D01*
X169570109Y-84080213D01*
X169419786Y-83929890D01*
X169247820Y-83804951D01*
X169058414Y-83708444D01*
X169058413Y-83708443D01*
X169058412Y-83708443D01*
X168856243Y-83642754D01*
X168856241Y-83642753D01*
X168856240Y-83642753D01*
X168694957Y-83617208D01*
X168646287Y-83609500D01*
X168433713Y-83609500D01*
X168385042Y-83617208D01*
X168223760Y-83642753D01*
X168021585Y-83708444D01*
X167832179Y-83804951D01*
X167660213Y-83929890D01*
X167509890Y-84080213D01*
X167384949Y-84252182D01*
X167380484Y-84260946D01*
X167332509Y-84311742D01*
X167264688Y-84328536D01*
X167198553Y-84305998D01*
X167159516Y-84260946D01*
X167155050Y-84252182D01*
X167030109Y-84080213D01*
X166879786Y-83929890D01*
X166707820Y-83804951D01*
X166518414Y-83708444D01*
X166518413Y-83708443D01*
X166518412Y-83708443D01*
X166316243Y-83642754D01*
X166316241Y-83642753D01*
X166316240Y-83642753D01*
X166154957Y-83617208D01*
X166106287Y-83609500D01*
X165893713Y-83609500D01*
X165845042Y-83617208D01*
X165683760Y-83642753D01*
X165481585Y-83708444D01*
X165292179Y-83804951D01*
X165120213Y-83929890D01*
X164969890Y-84080213D01*
X164844949Y-84252182D01*
X164840484Y-84260946D01*
X164792509Y-84311742D01*
X164724688Y-84328536D01*
X164658553Y-84305998D01*
X164619516Y-84260946D01*
X164615050Y-84252182D01*
X164490109Y-84080213D01*
X164339786Y-83929890D01*
X164167815Y-83804948D01*
X164167814Y-83804947D01*
X164128205Y-83784765D01*
X164077409Y-83736791D01*
X164060500Y-83674281D01*
X164060500Y-81999663D01*
X164080185Y-81932624D01*
X164115610Y-81896561D01*
X164167807Y-81861683D01*
X164216289Y-81829289D01*
X164327789Y-81717789D01*
X164415394Y-81586679D01*
X164475737Y-81440997D01*
X164506500Y-81286342D01*
X164506500Y-81128658D01*
X164506500Y-81128655D01*
X164506499Y-81128653D01*
X164475738Y-80974010D01*
X164475737Y-80974003D01*
X164475735Y-80973998D01*
X164415397Y-80828327D01*
X164415390Y-80828314D01*
X164325237Y-80693391D01*
X164304359Y-80626713D01*
X164322843Y-80559333D01*
X164374822Y-80512643D01*
X164428339Y-80500500D01*
X187875500Y-80500500D01*
X187942539Y-80520185D01*
G37*
%TD.AperFunction*%
%TA.AperFunction,Conductor*%
G36*
X126482955Y-99341836D02*
G01*
X126516456Y-99365692D01*
X126588349Y-99437585D01*
X126588355Y-99437590D01*
X126963181Y-99812416D01*
X126996666Y-99873739D01*
X126999500Y-99900097D01*
X126999500Y-109263330D01*
X126999499Y-109263348D01*
X126999499Y-109429054D01*
X126999498Y-109429054D01*
X126999499Y-109429057D01*
X127040423Y-109581785D01*
X127068828Y-109630984D01*
X127109029Y-109700615D01*
X127119481Y-109718717D01*
X127231284Y-109830520D01*
X127265425Y-109864660D01*
X127298911Y-109925983D01*
X127299362Y-109928151D01*
X127330261Y-110083491D01*
X127330264Y-110083501D01*
X127390602Y-110229172D01*
X127390609Y-110229185D01*
X127478210Y-110360288D01*
X127478213Y-110360292D01*
X127589707Y-110471786D01*
X127589711Y-110471789D01*
X127720814Y-110559390D01*
X127720827Y-110559397D01*
X127862932Y-110618258D01*
X127866503Y-110619737D01*
X127980422Y-110642397D01*
X128021153Y-110650499D01*
X128021156Y-110650500D01*
X128021158Y-110650500D01*
X128178844Y-110650500D01*
X128178845Y-110650499D01*
X128333497Y-110619737D01*
X128336243Y-110618599D01*
X128337796Y-110618432D01*
X128339324Y-110617969D01*
X128339411Y-110618258D01*
X128405708Y-110611127D01*
X128468189Y-110642397D01*
X128503846Y-110702483D01*
X128507700Y-110733158D01*
X128507700Y-111214703D01*
X128488015Y-111281742D01*
X128471381Y-111302384D01*
X127507939Y-112265825D01*
X127446616Y-112299310D01*
X127444450Y-112299761D01*
X127289108Y-112330661D01*
X127289098Y-112330664D01*
X127143427Y-112391002D01*
X127143414Y-112391009D01*
X127012311Y-112478610D01*
X127012307Y-112478613D01*
X126900813Y-112590107D01*
X126900810Y-112590111D01*
X126813209Y-112721214D01*
X126813202Y-112721227D01*
X126752864Y-112866898D01*
X126752861Y-112866910D01*
X126722100Y-113021553D01*
X126722100Y-113179246D01*
X126752861Y-113333889D01*
X126752864Y-113333901D01*
X126813202Y-113479572D01*
X126813209Y-113479585D01*
X126900810Y-113610688D01*
X126900813Y-113610692D01*
X127012307Y-113722186D01*
X127012311Y-113722189D01*
X127143414Y-113809790D01*
X127143427Y-113809797D01*
X127261576Y-113858735D01*
X127289103Y-113870137D01*
X127443753Y-113900899D01*
X127443756Y-113900900D01*
X127443758Y-113900900D01*
X127601444Y-113900900D01*
X127601445Y-113900899D01*
X127756097Y-113870137D01*
X127901779Y-113809794D01*
X128032889Y-113722189D01*
X128144389Y-113610689D01*
X128231994Y-113479579D01*
X128292337Y-113333897D01*
X128317899Y-113205391D01*
X128323238Y-113178550D01*
X128355623Y-113116639D01*
X128357120Y-113115114D01*
X129466706Y-112005527D01*
X129466711Y-112005524D01*
X129476914Y-111995320D01*
X129476916Y-111995320D01*
X129588720Y-111883516D01*
X129592705Y-111876613D01*
X129648185Y-111780520D01*
X129648186Y-111780517D01*
X129667777Y-111746585D01*
X129708701Y-111593857D01*
X129708701Y-111435743D01*
X129708701Y-111428148D01*
X129708700Y-111428130D01*
X129708700Y-106014685D01*
X129728385Y-105947646D01*
X129781189Y-105901891D01*
X129808509Y-105893068D01*
X129943397Y-105866237D01*
X130089079Y-105805894D01*
X130089199Y-105805813D01*
X130089271Y-105805791D01*
X130094454Y-105803021D01*
X130094978Y-105804003D01*
X130155873Y-105784929D01*
X130223255Y-105803407D01*
X130269951Y-105855380D01*
X130282100Y-105908909D01*
X130282100Y-109527229D01*
X130262415Y-109594268D01*
X130261202Y-109596120D01*
X130234588Y-109635949D01*
X130234587Y-109635952D01*
X130166706Y-109799832D01*
X130166703Y-109799841D01*
X130132100Y-109973804D01*
X130132100Y-110151195D01*
X130166703Y-110325158D01*
X130166706Y-110325167D01*
X130234584Y-110489042D01*
X130234585Y-110489043D01*
X130234587Y-110489047D01*
X130250209Y-110512426D01*
X130261202Y-110528878D01*
X130282080Y-110595555D01*
X130282100Y-110597769D01*
X130282100Y-121658104D01*
X130262415Y-121725143D01*
X130209611Y-121770898D01*
X130177501Y-121780577D01*
X130163757Y-121782754D01*
X129961585Y-121848444D01*
X129772179Y-121944951D01*
X129600213Y-122069890D01*
X129449890Y-122220213D01*
X129324949Y-122392182D01*
X129320202Y-122401499D01*
X129272227Y-122452293D01*
X129204405Y-122469087D01*
X129138271Y-122446548D01*
X129099234Y-122401495D01*
X129094626Y-122392452D01*
X129055270Y-122338282D01*
X129055269Y-122338282D01*
X128422962Y-122970590D01*
X128405925Y-122907007D01*
X128340099Y-122792993D01*
X128247007Y-122699901D01*
X128132993Y-122634075D01*
X128069409Y-122617037D01*
X128701716Y-121984728D01*
X128647550Y-121945375D01*
X128458217Y-121848904D01*
X128256129Y-121783242D01*
X128046246Y-121750000D01*
X127833754Y-121750000D01*
X127623872Y-121783242D01*
X127623869Y-121783242D01*
X127421782Y-121848904D01*
X127232439Y-121945380D01*
X127178282Y-121984727D01*
X127178282Y-121984728D01*
X127810591Y-122617037D01*
X127747007Y-122634075D01*
X127632993Y-122699901D01*
X127539901Y-122792993D01*
X127474075Y-122907007D01*
X127457037Y-122970591D01*
X126824728Y-122338282D01*
X126824727Y-122338282D01*
X126785380Y-122392440D01*
X126785376Y-122392446D01*
X126780760Y-122401505D01*
X126732781Y-122452297D01*
X126664959Y-122469087D01*
X126598826Y-122446543D01*
X126559794Y-122401493D01*
X126555051Y-122392184D01*
X126555049Y-122392181D01*
X126555048Y-122392179D01*
X126430109Y-122220213D01*
X126279786Y-122069890D01*
X126107820Y-121944951D01*
X125918414Y-121848444D01*
X125918413Y-121848443D01*
X125918412Y-121848443D01*
X125764881Y-121798557D01*
X125707206Y-121759120D01*
X125680008Y-121694762D01*
X125679200Y-121680627D01*
X125679200Y-114643600D01*
X125698885Y-114576561D01*
X125751689Y-114530806D01*
X125803200Y-114519600D01*
X125810944Y-114519600D01*
X125810945Y-114519599D01*
X125965597Y-114488837D01*
X126111279Y-114428494D01*
X126242389Y-114340889D01*
X126353889Y-114229389D01*
X126441494Y-114098279D01*
X126501837Y-113952597D01*
X126532600Y-113797942D01*
X126532600Y-113640258D01*
X126532600Y-113640255D01*
X126532599Y-113640253D01*
X126529349Y-113623916D01*
X126501837Y-113485603D01*
X126493882Y-113466397D01*
X126441497Y-113339927D01*
X126441490Y-113339914D01*
X126353498Y-113208225D01*
X126332620Y-113141547D01*
X126332600Y-113139334D01*
X126332600Y-99573541D01*
X126332478Y-99573082D01*
X126332478Y-99573081D01*
X126309001Y-99485468D01*
X126310663Y-99415618D01*
X126349824Y-99357755D01*
X126414053Y-99330250D01*
X126482955Y-99341836D01*
G37*
%TD.AperFunction*%
%TD*%
M02*
