%TF.GenerationSoftware,KiCad,Pcbnew,9.0.7*%
%TF.CreationDate,2026-09-04T15:08:01-07:00*%
%TF.ProjectId,RC2014-512K-RAMROM-V2,52433230-3134-42d3-9531-324b2d52414d,rev?*%
%TF.SameCoordinates,Original*%
%TF.FileFunction,Soldermask,Bot*%
%TF.FilePolarity,Negative*%
%FSLAX46Y46*%
G04 Gerber Fmt 4.6, Leading zero omitted, Abs format (unit mm)*
G04 Created by KiCad (PCBNEW 9.0.7) date 2026-09-04 15:08:01*
%MOMM*%
%LPD*%
G01*
G04 APERTURE LIST*
%ADD10R,1.700000X1.700000*%
%ADD11C,1.700000*%
G04 APERTURE END LIST*
D10*
%TO.C,U2*%
X143140000Y-100200000D03*
D11*
X145680000Y-100200000D03*
X148220000Y-100200000D03*
X150760000Y-100200000D03*
X153300000Y-100200000D03*
X155840000Y-100200000D03*
X158380000Y-100200000D03*
X160920000Y-100200000D03*
X163460000Y-100200000D03*
X166000000Y-100200000D03*
X168540000Y-100200000D03*
X171080000Y-100200000D03*
X173620000Y-100200000D03*
X176160000Y-100200000D03*
X178700000Y-100200000D03*
X181240000Y-100200000D03*
X181240000Y-84960000D03*
X178700000Y-84960000D03*
X176160000Y-84960000D03*
X173620000Y-84960000D03*
X171080000Y-84960000D03*
X168540000Y-84960000D03*
X166000000Y-84960000D03*
X163460000Y-84960000D03*
X160920000Y-84960000D03*
X158380000Y-84960000D03*
X155840000Y-84960000D03*
X153300000Y-84960000D03*
X150760000Y-84960000D03*
X148220000Y-84960000D03*
X145680000Y-84960000D03*
X143140000Y-84960000D03*
%TD*%
D10*
%TO.C,J1*%
X87300000Y-123100000D03*
D11*
X89840000Y-123100000D03*
X92380000Y-123100000D03*
X94920000Y-123100000D03*
X97460000Y-123100000D03*
X100000000Y-123100000D03*
X102540000Y-123100000D03*
X105080000Y-123100000D03*
X107620000Y-123100000D03*
X110160000Y-123100000D03*
X112700000Y-123100000D03*
X115240000Y-123100000D03*
X117780000Y-123100000D03*
X120320000Y-123100000D03*
X122860000Y-123100000D03*
X125400000Y-123100000D03*
X127940000Y-123100000D03*
X130480000Y-123100000D03*
X133020000Y-123100000D03*
X135560000Y-123100000D03*
X138100000Y-123100000D03*
X140640000Y-123100000D03*
X143180000Y-123100000D03*
X145720000Y-123100000D03*
X148260000Y-123100000D03*
X150800000Y-123100000D03*
X153340000Y-123100000D03*
X155880000Y-123100000D03*
X158420000Y-123100000D03*
X160960000Y-123100000D03*
X163500000Y-123100000D03*
X166040000Y-123100000D03*
X168580000Y-123100000D03*
X171120000Y-123100000D03*
X173660000Y-123100000D03*
X176200000Y-123100000D03*
X178740000Y-123100000D03*
X181280000Y-123100000D03*
X183820000Y-123100000D03*
X186360000Y-123100000D03*
%TD*%
M02*
