%TF.GenerationSoftware,KiCad,Pcbnew,9.0.7*%
%TF.CreationDate,2026-09-04T15:08:00-07:00*%
%TF.ProjectId,RC2014-512K-RAMROM-V2,52433230-3134-42d3-9531-324b2d52414d,rev?*%
%TF.SameCoordinates,Original*%
%TF.FileFunction,Copper,L1,Top*%
%TF.FilePolarity,Positive*%
%FSLAX46Y46*%
G04 Gerber Fmt 4.6, Leading zero omitted, Abs format (unit mm)*
G04 Created by KiCad (PCBNEW 9.0.7) date 2026-09-04 15:08:00*
%MOMM*%
%LPD*%
G01*
G04 APERTURE LIST*
G04 Aperture macros list*
%AMRoundRect*
0 Rectangle with rounded corners*
0 $1 Rounding radius*
0 $2 $3 $4 $5 $6 $7 $8 $9 X,Y pos of 4 corners*
0 Add a 4 corners polygon primitive as box body*
4,1,4,$2,$3,$4,$5,$6,$7,$8,$9,$2,$3,0*
0 Add four circle primitives for the rounded corners*
1,1,$1+$1,$2,$3*
1,1,$1+$1,$4,$5*
1,1,$1+$1,$6,$7*
1,1,$1+$1,$8,$9*
0 Add four rect primitives between the rounded corners*
20,1,$1+$1,$2,$3,$4,$5,0*
20,1,$1+$1,$4,$5,$6,$7,0*
20,1,$1+$1,$6,$7,$8,$9,0*
20,1,$1+$1,$8,$9,$2,$3,0*%
G04 Aperture macros list end*
%TA.AperFunction,SMDPad,CuDef*%
%ADD10RoundRect,0.137500X0.137500X-0.662500X0.137500X0.662500X-0.137500X0.662500X-0.137500X-0.662500X0*%
%TD*%
%TA.AperFunction,SMDPad,CuDef*%
%ADD11RoundRect,0.250000X-0.475000X0.337500X-0.475000X-0.337500X0.475000X-0.337500X0.475000X0.337500X0*%
%TD*%
%TA.AperFunction,SMDPad,CuDef*%
%ADD12R,0.300000X1.600000*%
%TD*%
%TA.AperFunction,SMDPad,CuDef*%
%ADD13RoundRect,0.150000X0.150000X-0.875000X0.150000X0.875000X-0.150000X0.875000X-0.150000X-0.875000X0*%
%TD*%
%TA.AperFunction,ComponentPad*%
%ADD14R,1.700000X1.700000*%
%TD*%
%TA.AperFunction,ComponentPad*%
%ADD15C,1.700000*%
%TD*%
%TA.AperFunction,SMDPad,CuDef*%
%ADD16RoundRect,0.150000X-1.050000X-0.150000X1.050000X-0.150000X1.050000X0.150000X-1.050000X0.150000X0*%
%TD*%
%TA.AperFunction,ViaPad*%
%ADD17C,0.600000*%
%TD*%
%TA.AperFunction,ViaPad*%
%ADD18C,0.800000*%
%TD*%
%TA.AperFunction,Conductor*%
%ADD19C,0.200000*%
%TD*%
%TA.AperFunction,Conductor*%
%ADD20C,0.500000*%
%TD*%
G04 APERTURE END LIST*
D10*
%TO.P,U3,1,A0*%
%TO.N,/A4*%
X117755000Y-116250000D03*
%TO.P,U3,2,A1*%
%TO.N,/A5*%
X119025000Y-116250000D03*
%TO.P,U3,3,A2*%
%TO.N,/A6*%
X120295000Y-116250000D03*
%TO.P,U3,4,~{E0}*%
%TO.N,/~{IORQ}*%
X121565000Y-116250000D03*
%TO.P,U3,5,~{E1}*%
%TO.N,/A7*%
X122835000Y-116250000D03*
%TO.P,U3,6,E2*%
%TO.N,/~{M1}*%
X124105000Y-116250000D03*
%TO.P,U3,7,~{Y7}*%
%TO.N,/~{CFG_CS}*%
X125375000Y-116250000D03*
%TO.P,U3,8,GND*%
%TO.N,unconnected-(U3-GND-Pad8)*%
X126645000Y-116250000D03*
%TO.P,U3,9,~{Y6}*%
%TO.N,unconnected-(U3-~{Y6}-Pad9)*%
X126645000Y-109750000D03*
%TO.P,U3,10,~{Y5}*%
%TO.N,unconnected-(U3-~{Y5}-Pad10)*%
X125375000Y-109750000D03*
%TO.P,U3,11,~{Y4}*%
%TO.N,unconnected-(U3-~{Y4}-Pad11)*%
X124105000Y-109750000D03*
%TO.P,U3,12,~{Y3}*%
%TO.N,unconnected-(U3-~{Y3}-Pad12)*%
X122835000Y-109750000D03*
%TO.P,U3,13,~{Y2}*%
%TO.N,unconnected-(U3-~{Y2}-Pad13)*%
X121565000Y-109750000D03*
%TO.P,U3,14,~{Y1}*%
%TO.N,unconnected-(U3-~{Y1}-Pad14)*%
X120295000Y-109750000D03*
%TO.P,U3,15,~{Y0}*%
%TO.N,unconnected-(U3-~{Y0}-Pad15)*%
X119025000Y-109750000D03*
%TO.P,U3,16,VCC*%
%TO.N,unconnected-(U3-VCC-Pad16)*%
X117755000Y-109750000D03*
%TD*%
%TO.P,U7,1,D2*%
%TO.N,/D5*%
X91510000Y-98700000D03*
%TO.P,U7,2,D3*%
%TO.N,/D6*%
X92780000Y-98700000D03*
%TO.P,U7,3,D4*%
%TO.N,/D7*%
X94050000Y-98700000D03*
%TO.P,U7,4,Rb*%
%TO.N,/A15*%
X95320000Y-98700000D03*
%TO.P,U7,5,Ra*%
%TO.N,/A14*%
X96590000Y-98700000D03*
%TO.P,U7,6,Q4*%
%TO.N,unconnected-(U7-Q4-Pad6)*%
X97860000Y-98700000D03*
%TO.P,U7,7,Q3*%
%TO.N,/MA20*%
X99130000Y-98700000D03*
%TO.P,U7,8,GND*%
%TO.N,GND*%
X100400000Y-98700000D03*
%TO.P,U7,9,Q2*%
%TO.N,/MA19*%
X100400000Y-92200000D03*
%TO.P,U7,10,Q1*%
%TO.N,/MA18*%
X99130000Y-92200000D03*
%TO.P,U7,11,~{Er}*%
%TO.N,Net-(U5-~{Q})*%
X97860000Y-92200000D03*
%TO.P,U7,12,~{Ew}*%
%TO.N,/PAGE_WR*%
X96590000Y-92200000D03*
%TO.P,U7,13,Wb*%
%TO.N,/A1*%
X95320000Y-92200000D03*
%TO.P,U7,14,Wa*%
%TO.N,/A0*%
X94050000Y-92200000D03*
%TO.P,U7,15,D1*%
%TO.N,/D4*%
X92780000Y-92200000D03*
%TO.P,U7,16,VCC*%
%TO.N,+5V*%
X91510000Y-92200000D03*
%TD*%
D11*
%TO.P,C1,1*%
%TO.N,+5V*%
X135500000Y-109762500D03*
%TO.P,C1,2*%
%TO.N,GND*%
X135500000Y-111837500D03*
%TD*%
D10*
%TO.P,U6,1,D2*%
%TO.N,/D1*%
X100610000Y-112600000D03*
%TO.P,U6,2,D3*%
%TO.N,/D2*%
X101880000Y-112600000D03*
%TO.P,U6,3,D4*%
%TO.N,/D3*%
X103150000Y-112600000D03*
%TO.P,U6,4,Rb*%
%TO.N,/A15*%
X104420000Y-112600000D03*
%TO.P,U6,5,Ra*%
%TO.N,/A14*%
X105690000Y-112600000D03*
%TO.P,U6,6,Q4*%
%TO.N,/MA17*%
X106960000Y-112600000D03*
%TO.P,U6,7,Q3*%
%TO.N,/MA16*%
X108230000Y-112600000D03*
%TO.P,U6,8,GND*%
%TO.N,GND*%
X109500000Y-112600000D03*
%TO.P,U6,9,Q2*%
%TO.N,/MA15*%
X109500000Y-106100000D03*
%TO.P,U6,10,Q1*%
%TO.N,/MA14*%
X108230000Y-106100000D03*
%TO.P,U6,11,~{Er}*%
%TO.N,Net-(U5-~{Q})*%
X106960000Y-106100000D03*
%TO.P,U6,12,~{Ew}*%
%TO.N,/PAGE_WR*%
X105690000Y-106100000D03*
%TO.P,U6,13,Wb*%
%TO.N,/A1*%
X104420000Y-106100000D03*
%TO.P,U6,14,Wa*%
%TO.N,/A0*%
X103150000Y-106100000D03*
%TO.P,U6,15,D1*%
%TO.N,/D0*%
X101880000Y-106100000D03*
%TO.P,U6,16,VCC*%
%TO.N,+5V*%
X100610000Y-106100000D03*
%TD*%
%TO.P,U1,1,E*%
%TO.N,/~{MREQ}*%
X137980000Y-116250000D03*
%TO.P,U1,2,A0*%
%TO.N,/MA19*%
X139250000Y-116250000D03*
%TO.P,U1,3,A1*%
%TO.N,/MA20*%
X140520000Y-116250000D03*
%TO.P,U1,4,O0*%
%TO.N,/~{ROM_CS}*%
X141790000Y-116250000D03*
%TO.P,U1,5,O1*%
%TO.N,/~{RAM_CS}*%
X143060000Y-116250000D03*
%TO.P,U1,6,O2*%
%TO.N,unconnected-(U1A-O2-Pad6)*%
X144330000Y-116250000D03*
%TO.P,U1,7,O3*%
%TO.N,unconnected-(U1A-O3-Pad7)*%
X145600000Y-116250000D03*
%TO.P,U1,8,GND*%
%TO.N,GND*%
X146870000Y-116250000D03*
%TO.P,U1,9,O3*%
%TO.N,unconnected-(U1B-O3-Pad9)*%
X146870000Y-109750000D03*
%TO.P,U1,10,O2*%
%TO.N,unconnected-(U1B-O2-Pad10)*%
X145600000Y-109750000D03*
%TO.P,U1,11,O1*%
%TO.N,/PGEN_WR*%
X144330000Y-109750000D03*
%TO.P,U1,12,O0*%
%TO.N,/PAGE_WR*%
X143060000Y-109750000D03*
%TO.P,U1,13,A1*%
%TO.N,/~{CFG_CS}*%
X141790000Y-109750000D03*
%TO.P,U1,14,A0*%
%TO.N,/A2*%
X140520000Y-109750000D03*
%TO.P,U1,15,E*%
%TO.N,/~{WR}*%
X139250000Y-109750000D03*
%TO.P,U1,16,VCC*%
%TO.N,+5V*%
X137980000Y-109750000D03*
%TD*%
D11*
%TO.P,C5,1*%
%TO.N,+5V*%
X170900000Y-111362500D03*
%TO.P,C5,2*%
%TO.N,GND*%
X170900000Y-113437500D03*
%TD*%
D12*
%TO.P,U5,1,CLK*%
%TO.N,/PGEN_WR*%
X173450000Y-115400000D03*
%TO.P,U5,2,D*%
%TO.N,/D0*%
X174100000Y-115400000D03*
%TO.P,U5,3,~{Q}*%
%TO.N,Net-(U5-~{Q})*%
X174750000Y-115400000D03*
%TO.P,U5,4,GND*%
%TO.N,GND*%
X175400000Y-115400000D03*
%TO.P,U5,5,Q*%
%TO.N,unconnected-(U5-Q-Pad5)*%
X175400000Y-112000000D03*
%TO.P,U5,6,~{CLR}*%
%TO.N,/~{RESET}*%
X174750000Y-112000000D03*
%TO.P,U5,7,~{PRE}*%
%TO.N,+5V*%
X174100000Y-112000000D03*
%TO.P,U5,8,VCC*%
X173450000Y-112000000D03*
%TD*%
D13*
%TO.P,U4,1,A18*%
%TO.N,/MA18*%
X106350000Y-100200000D03*
%TO.P,U4,2,A16*%
%TO.N,/MA16*%
X107620000Y-100200000D03*
%TO.P,U4,3,A14*%
%TO.N,/MA14*%
X108890000Y-100200000D03*
%TO.P,U4,4,A12*%
%TO.N,/A12*%
X110160000Y-100200000D03*
%TO.P,U4,5,A7*%
%TO.N,/A7*%
X111430000Y-100200000D03*
%TO.P,U4,6,A6*%
%TO.N,/A6*%
X112700000Y-100200000D03*
%TO.P,U4,7,A5*%
%TO.N,/A5*%
X113970000Y-100200000D03*
%TO.P,U4,8,A4*%
%TO.N,/A4*%
X115240000Y-100200000D03*
%TO.P,U4,9,A3*%
%TO.N,/A3*%
X116510000Y-100200000D03*
%TO.P,U4,10,A2*%
%TO.N,/A2*%
X117780000Y-100200000D03*
%TO.P,U4,11,A1*%
%TO.N,/A1*%
X119050000Y-100200000D03*
%TO.P,U4,12,A0*%
%TO.N,/A0*%
X120320000Y-100200000D03*
%TO.P,U4,13,DQ0*%
%TO.N,/D0*%
X121590000Y-100200000D03*
%TO.P,U4,14,DQ1*%
%TO.N,/D1*%
X122860000Y-100200000D03*
%TO.P,U4,15,DQ2*%
%TO.N,/D2*%
X124130000Y-100200000D03*
%TO.P,U4,16,VSS*%
%TO.N,GND*%
X125400000Y-100200000D03*
%TO.P,U4,17,DQ3*%
%TO.N,/D3*%
X125400000Y-87100000D03*
%TO.P,U4,18,DQ4*%
%TO.N,/D4*%
X124130000Y-87100000D03*
%TO.P,U4,19,DQ5*%
%TO.N,/D5*%
X122860000Y-87100000D03*
%TO.P,U4,20,DQ6*%
%TO.N,/D6*%
X121590000Y-87100000D03*
%TO.P,U4,21,DQ7*%
%TO.N,/D7*%
X120320000Y-87100000D03*
%TO.P,U4,22,CE#*%
%TO.N,/~{RAM_CS}*%
X119050000Y-87100000D03*
%TO.P,U4,23,A10*%
%TO.N,/A10*%
X117780000Y-87100000D03*
%TO.P,U4,24,OE#*%
%TO.N,/~{RD}*%
X116510000Y-87100000D03*
%TO.P,U4,25,A11*%
%TO.N,/A11*%
X115240000Y-87100000D03*
%TO.P,U4,26,A9*%
%TO.N,/A9*%
X113970000Y-87100000D03*
%TO.P,U4,27,A8*%
%TO.N,/A8*%
X112700000Y-87100000D03*
%TO.P,U4,28,A13*%
%TO.N,/A13*%
X111430000Y-87100000D03*
%TO.P,U4,29,WE#*%
%TO.N,/~{WR}*%
X110160000Y-87100000D03*
%TO.P,U4,30,A17*%
%TO.N,/MA17*%
X108890000Y-87100000D03*
%TO.P,U4,31,A15*%
%TO.N,/MA15*%
X107620000Y-87100000D03*
%TO.P,U4,32,VCC*%
%TO.N,+5V*%
X106350000Y-87100000D03*
%TD*%
D11*
%TO.P,C6,1*%
%TO.N,+5V*%
X98200000Y-106137500D03*
%TO.P,C6,2*%
%TO.N,GND*%
X98200000Y-108212500D03*
%TD*%
D14*
%TO.P,U2,1,A18*%
%TO.N,/MA18*%
X143140000Y-100200000D03*
D15*
%TO.P,U2,2,A16*%
%TO.N,/MA16*%
X145680000Y-100200000D03*
%TO.P,U2,3,A15*%
%TO.N,/MA15*%
X148220000Y-100200000D03*
%TO.P,U2,4,A12*%
%TO.N,/A12*%
X150760000Y-100200000D03*
%TO.P,U2,5,A7*%
%TO.N,/A7*%
X153300000Y-100200000D03*
%TO.P,U2,6,A6*%
%TO.N,/A6*%
X155840000Y-100200000D03*
%TO.P,U2,7,A5*%
%TO.N,/A5*%
X158380000Y-100200000D03*
%TO.P,U2,8,A4*%
%TO.N,/A4*%
X160920000Y-100200000D03*
%TO.P,U2,9,A3*%
%TO.N,/A3*%
X163460000Y-100200000D03*
%TO.P,U2,10,A2*%
%TO.N,/A2*%
X166000000Y-100200000D03*
%TO.P,U2,11,A1*%
%TO.N,/A1*%
X168540000Y-100200000D03*
%TO.P,U2,12,A0*%
%TO.N,/A0*%
X171080000Y-100200000D03*
%TO.P,U2,13,D0*%
%TO.N,/D0*%
X173620000Y-100200000D03*
%TO.P,U2,14,D1*%
%TO.N,/D1*%
X176160000Y-100200000D03*
%TO.P,U2,15,D2*%
%TO.N,/D2*%
X178700000Y-100200000D03*
%TO.P,U2,16,GND*%
%TO.N,GND*%
X181240000Y-100200000D03*
%TO.P,U2,17,D3*%
%TO.N,/D3*%
X181240000Y-84960000D03*
%TO.P,U2,18,D4*%
%TO.N,/D4*%
X178700000Y-84960000D03*
%TO.P,U2,19,D5*%
%TO.N,/D5*%
X176160000Y-84960000D03*
%TO.P,U2,20,D6*%
%TO.N,/D6*%
X173620000Y-84960000D03*
%TO.P,U2,21,D7*%
%TO.N,/D7*%
X171080000Y-84960000D03*
%TO.P,U2,22,CE*%
%TO.N,/~{ROM_CS}*%
X168540000Y-84960000D03*
%TO.P,U2,23,A10*%
%TO.N,/A10*%
X166000000Y-84960000D03*
%TO.P,U2,24,OE*%
%TO.N,/~{RD}*%
X163460000Y-84960000D03*
%TO.P,U2,25,A11*%
%TO.N,/A11*%
X160920000Y-84960000D03*
%TO.P,U2,26,A9*%
%TO.N,/A9*%
X158380000Y-84960000D03*
%TO.P,U2,27,A8*%
%TO.N,/A8*%
X155840000Y-84960000D03*
%TO.P,U2,28,A13*%
%TO.N,/A13*%
X153300000Y-84960000D03*
%TO.P,U2,29,A14*%
%TO.N,/MA14*%
X150760000Y-84960000D03*
%TO.P,U2,30,A17*%
%TO.N,/MA17*%
X148220000Y-84960000D03*
%TO.P,U2,31,PGM*%
%TO.N,/~{WR}*%
X145680000Y-84960000D03*
%TO.P,U2,32,VCC*%
%TO.N,+5V*%
X143140000Y-84960000D03*
%TD*%
D11*
%TO.P,C4,1*%
%TO.N,+5V*%
X103900000Y-87062500D03*
%TO.P,C4,2*%
%TO.N,GND*%
X103900000Y-89137500D03*
%TD*%
%TO.P,C2,1*%
%TO.N,+5V*%
X130200000Y-85162500D03*
%TO.P,C2,2*%
%TO.N,GND*%
X130200000Y-87237500D03*
%TD*%
%TO.P,C7,1*%
%TO.N,+5V*%
X89000000Y-92137500D03*
%TO.P,C7,2*%
%TO.N,GND*%
X89000000Y-94212500D03*
%TD*%
D14*
%TO.P,J1,1,Pin_1*%
%TO.N,/A15*%
X87300000Y-123100000D03*
D15*
%TO.P,J1,2,Pin_2*%
%TO.N,/A14*%
X89840000Y-123100000D03*
%TO.P,J1,3,Pin_3*%
%TO.N,/A13*%
X92380000Y-123100000D03*
%TO.P,J1,4,Pin_4*%
%TO.N,/A12*%
X94920000Y-123100000D03*
%TO.P,J1,5,Pin_5*%
%TO.N,/A11*%
X97460000Y-123100000D03*
%TO.P,J1,6,Pin_6*%
%TO.N,/A10*%
X100000000Y-123100000D03*
%TO.P,J1,7,Pin_7*%
%TO.N,/A9*%
X102540000Y-123100000D03*
%TO.P,J1,8,Pin_8*%
%TO.N,/A8*%
X105080000Y-123100000D03*
%TO.P,J1,9,Pin_9*%
%TO.N,/A7*%
X107620000Y-123100000D03*
%TO.P,J1,10,Pin_10*%
%TO.N,/A6*%
X110160000Y-123100000D03*
%TO.P,J1,11,Pin_11*%
%TO.N,/A5*%
X112700000Y-123100000D03*
%TO.P,J1,12,Pin_12*%
%TO.N,/A4*%
X115240000Y-123100000D03*
%TO.P,J1,13,Pin_13*%
%TO.N,/A3*%
X117780000Y-123100000D03*
%TO.P,J1,14,Pin_14*%
%TO.N,/A2*%
X120320000Y-123100000D03*
%TO.P,J1,15,Pin_15*%
%TO.N,/A1*%
X122860000Y-123100000D03*
%TO.P,J1,16,Pin_16*%
%TO.N,/A0*%
X125400000Y-123100000D03*
%TO.P,J1,17,Pin_17*%
%TO.N,GND*%
X127940000Y-123100000D03*
%TO.P,J1,18,Pin_18*%
%TO.N,+5V*%
X130480000Y-123100000D03*
%TO.P,J1,19,Pin_19*%
%TO.N,/~{M1}*%
X133020000Y-123100000D03*
%TO.P,J1,20,Pin_20*%
%TO.N,/~{RESET}*%
X135560000Y-123100000D03*
%TO.P,J1,21,Pin_21*%
%TO.N,unconnected-(J1-Pin_21-Pad21)*%
X138100000Y-123100000D03*
%TO.P,J1,22,Pin_22*%
%TO.N,/~{INT}*%
X140640000Y-123100000D03*
%TO.P,J1,23,Pin_23*%
%TO.N,/~{MREQ}*%
X143180000Y-123100000D03*
%TO.P,J1,24,Pin_24*%
%TO.N,/~{WR}*%
X145720000Y-123100000D03*
%TO.P,J1,25,Pin_25*%
%TO.N,/~{RD}*%
X148260000Y-123100000D03*
%TO.P,J1,26,Pin_26*%
%TO.N,/~{IORQ}*%
X150800000Y-123100000D03*
%TO.P,J1,27,Pin_27*%
%TO.N,/D0*%
X153340000Y-123100000D03*
%TO.P,J1,28,Pin_28*%
%TO.N,/D1*%
X155880000Y-123100000D03*
%TO.P,J1,29,Pin_29*%
%TO.N,/D2*%
X158420000Y-123100000D03*
%TO.P,J1,30,Pin_30*%
%TO.N,/D3*%
X160960000Y-123100000D03*
%TO.P,J1,31,Pin_31*%
%TO.N,/D4*%
X163500000Y-123100000D03*
%TO.P,J1,32,Pin_32*%
%TO.N,/D5*%
X166040000Y-123100000D03*
%TO.P,J1,33,Pin_33*%
%TO.N,/D6*%
X168580000Y-123100000D03*
%TO.P,J1,34,Pin_34*%
%TO.N,/D7*%
X171120000Y-123100000D03*
%TO.P,J1,35,Pin_35*%
%TO.N,/TX*%
X173660000Y-123100000D03*
%TO.P,J1,36,Pin_36*%
%TO.N,/RX*%
X176200000Y-123100000D03*
%TO.P,J1,37,Pin_37*%
%TO.N,unconnected-(J1-Pin_37-Pad37)*%
X178740000Y-123100000D03*
%TO.P,J1,38,Pin_38*%
%TO.N,unconnected-(J1-Pin_38-Pad38)*%
X181280000Y-123100000D03*
%TO.P,J1,39,Pin_39*%
%TO.N,unconnected-(J1-Pin_39-Pad39)*%
X183820000Y-123100000D03*
%TO.P,J1,40,Pin_40*%
%TO.N,unconnected-(J1-Pin_40-Pad40)*%
X186360000Y-123100000D03*
%TD*%
D16*
%TO.P,RN1,1,1A*%
%TO.N,/MA14*%
X87575000Y-105710000D03*
%TO.P,RN1,2,2A*%
%TO.N,/MA15*%
X87575000Y-106980000D03*
%TO.P,RN1,3,3A*%
%TO.N,/MA16*%
X87575000Y-108250000D03*
%TO.P,RN1,4,4A*%
%TO.N,/MA17*%
X87575000Y-109520000D03*
%TO.P,RN1,5,5A*%
%TO.N,/MA18*%
X87575000Y-110790000D03*
%TO.P,RN1,6,6A*%
%TO.N,/MA19*%
X87575000Y-112060000D03*
%TO.P,RN1,7,7A*%
%TO.N,/MA20*%
X87575000Y-113330000D03*
%TO.P,RN1,8,8A*%
%TO.N,/MA21*%
X87575000Y-114600000D03*
%TO.P,RN1,9,8B*%
%TO.N,GND*%
X94075000Y-114600000D03*
%TO.P,RN1,10,7B*%
X94075000Y-113330000D03*
%TO.P,RN1,11,6B*%
X94075000Y-112060000D03*
%TO.P,RN1,12,5B*%
X94075000Y-110790000D03*
%TO.P,RN1,13,4A*%
X94075000Y-109520000D03*
%TO.P,RN1,14,3B*%
X94075000Y-108250000D03*
%TO.P,RN1,15,2B*%
X94075000Y-106980000D03*
%TO.P,RN1,16,1B*%
X94075000Y-105710000D03*
%TD*%
D11*
%TO.P,C3,1*%
%TO.N,+5V*%
X115500000Y-109762500D03*
%TO.P,C3,2*%
%TO.N,GND*%
X115500000Y-111837500D03*
%TD*%
D17*
%TO.N,/D4*%
X161120800Y-87762100D03*
%TO.N,/~{M1}*%
X131915900Y-118711100D03*
%TO.N,/D6*%
X121687200Y-95283300D03*
X120910100Y-90027700D03*
D18*
%TO.N,GND*%
X126535400Y-100367800D03*
X126535400Y-111638900D03*
X177802800Y-116651700D03*
D17*
%TO.N,/~{WR}*%
X148115500Y-106852000D03*
X119766000Y-82666700D03*
X124682000Y-84913900D03*
%TO.N,/~{RESET}*%
X143441200Y-108234900D03*
%TO.N,/D1*%
X159509300Y-102358100D03*
X97760700Y-101065700D03*
X98693000Y-112887500D03*
D18*
%TO.N,+5V*%
X95714700Y-104892700D03*
X131032600Y-110062500D03*
X95417600Y-87559900D03*
D17*
%TO.N,/D0*%
X173043700Y-120592000D03*
X98595000Y-101561100D03*
X173758000Y-113550000D03*
X99300800Y-104926900D03*
%TO.N,/D3*%
X126950000Y-86312500D03*
X110765585Y-115165585D03*
X128100000Y-109850000D03*
X104150000Y-115600000D03*
X161552500Y-88569300D03*
X111250000Y-110850000D03*
X101427400Y-115023200D03*
%TO.N,/D2*%
X176533000Y-121334100D03*
X104042200Y-96926000D03*
X103843300Y-110485000D03*
%TO.N,/~{RD}*%
X163706000Y-81207500D03*
%TO.N,/D5*%
X102839200Y-100025000D03*
X104629900Y-93589000D03*
X166200000Y-119900000D03*
X126124100Y-93489700D03*
X175704600Y-93112500D03*
X174930000Y-119600000D03*
X122258100Y-88870500D03*
X124126500Y-92266300D03*
%TO.N,/D7*%
X97032400Y-97001400D03*
X107821000Y-89634000D03*
X103206600Y-90473700D03*
X98122600Y-90597800D03*
%TO.N,/A7*%
X112145900Y-118537500D03*
X112412200Y-102692200D03*
X151400000Y-118700000D03*
%TO.N,/A4*%
X116735000Y-103118500D03*
X115448600Y-115613600D03*
%TO.N,/A2*%
X163795800Y-107453800D03*
X119111600Y-102254400D03*
%TO.N,/A13*%
X118633300Y-89523400D03*
X125637100Y-92340000D03*
X109391300Y-120635500D03*
X151887000Y-88006600D03*
%TO.N,/A8*%
X114085300Y-89149200D03*
X118467900Y-84045300D03*
%TO.N,/A12*%
X113037100Y-103887600D03*
X112561700Y-121711300D03*
X148260300Y-121711300D03*
%TO.N,/A1*%
X97436300Y-93512400D03*
X115465500Y-108292900D03*
X121036800Y-102574300D03*
X103241500Y-108104100D03*
%TO.N,/A10*%
X117078200Y-88519900D03*
%TO.N,/A0*%
X121615300Y-101981900D03*
X103241500Y-104696200D03*
X103770000Y-99399100D03*
X94336700Y-90361200D03*
%TO.N,/A5*%
X113181800Y-115749700D03*
X113183400Y-106900400D03*
X113616600Y-101743400D03*
%TO.N,/A3*%
X116630500Y-101890400D03*
%TO.N,/A15*%
X94204900Y-97103400D03*
%TO.N,/A14*%
X94247100Y-100215000D03*
%TO.N,/A11*%
X123093600Y-82352400D03*
X115906500Y-88467200D03*
%TO.N,/A9*%
X115266800Y-89121700D03*
%TO.N,/A6*%
X112477600Y-101819300D03*
%TO.N,/~{MREQ}*%
X137138100Y-116274700D03*
%TO.N,/MA19*%
X101482600Y-92058300D03*
X104865500Y-111330600D03*
%TO.N,/MA20*%
X95658900Y-119261200D03*
X91464500Y-113446000D03*
X95789000Y-95358000D03*
%TO.N,/MA18*%
X89700000Y-111300000D03*
X100249000Y-94647300D03*
X101986000Y-101422700D03*
X91300000Y-101900000D03*
%TO.N,/MA16*%
X89240000Y-108250000D03*
X107584400Y-102094200D03*
X106921900Y-110734200D03*
X143303000Y-112757000D03*
X88593235Y-103843235D03*
%TO.N,/MA14*%
X132316400Y-92037500D03*
X147198600Y-88189900D03*
X129709900Y-105096500D03*
%TO.N,/MA15*%
X105167900Y-104325200D03*
X108238600Y-90397700D03*
%TO.N,/MA17*%
X120926300Y-81831800D03*
X127522600Y-113100400D03*
%TO.N,/~{RAM_CS}*%
X125732100Y-113719100D03*
X119888100Y-88675300D03*
%TO.N,/~{ROM_CS}*%
X166773000Y-115712500D03*
%TO.N,/~{CFG_CS}*%
X141907100Y-108443500D03*
X131908900Y-114385300D03*
%TO.N,/PGEN_WR*%
X167815800Y-109999700D03*
X167815800Y-112400000D03*
%TO.N,/PAGE_WR*%
X149525200Y-106835800D03*
X105148500Y-107522300D03*
X148909800Y-108441900D03*
X96353800Y-90554300D03*
%TO.N,Net-(U5-~{Q})*%
X98420000Y-93406400D03*
X102359000Y-107458200D03*
%TD*%
D19*
%TO.N,/D4*%
X94683600Y-91373700D02*
X97837400Y-88219900D01*
X119570800Y-90494600D02*
X120060600Y-90494600D01*
X119406000Y-90659400D02*
X119570800Y-90494600D01*
X119406000Y-90659400D02*
X119570800Y-90494600D01*
X92780000Y-92200000D02*
X92780000Y-92429500D01*
X176327400Y-87332600D02*
X178700000Y-84960000D01*
X161120800Y-87332600D02*
X176327400Y-87332600D01*
X120060600Y-90494600D02*
X120062100Y-90493100D01*
X108487800Y-90999400D02*
X108827800Y-90659400D01*
X121241900Y-90629400D02*
X121459900Y-90411400D01*
X92780000Y-92429500D02*
X93674300Y-93323800D01*
X120143800Y-90411400D02*
X120361800Y-90629400D01*
X124130000Y-87100000D02*
X124130000Y-87849500D01*
X160760400Y-86972200D02*
X161120800Y-87332600D01*
X124130000Y-87100000D02*
X124130000Y-86687800D01*
X161120800Y-87332600D02*
X161120800Y-87762100D01*
X121694300Y-90285200D02*
X121586100Y-90285200D01*
X124130000Y-86687800D02*
X127009800Y-83808000D01*
X120062100Y-90493100D02*
X120143800Y-90411400D01*
X146059400Y-86972200D02*
X160760400Y-86972200D01*
X107416400Y-90999400D02*
X108487800Y-90999400D01*
X120361800Y-90629400D02*
X121241900Y-90629400D01*
X143651800Y-83808000D02*
X144410100Y-84566300D01*
X124130000Y-87849500D02*
X121694300Y-90285200D01*
X93674300Y-93323800D02*
X94365500Y-93323800D01*
X121586100Y-90285200D02*
X121459900Y-90411400D01*
X144410100Y-84566300D02*
X144410100Y-85322900D01*
X127009800Y-83808000D02*
X143651800Y-83808000D01*
X121586100Y-90285200D02*
X121459900Y-90411400D01*
X108827800Y-90659400D02*
X119406000Y-90659400D01*
X97837400Y-88219900D02*
X104636900Y-88219900D01*
X120062100Y-90493100D02*
X120143800Y-90411400D01*
X94683600Y-93005700D02*
X94683600Y-91373700D01*
X104636900Y-88219900D02*
X107416400Y-90999400D01*
X144410100Y-85322900D02*
X146059400Y-86972200D01*
X94365500Y-93323800D02*
X94683600Y-93005700D01*
%TO.N,/~{IORQ}*%
X126110300Y-121026600D02*
X144456300Y-121026600D01*
X144489500Y-120993400D02*
X148693400Y-120993400D01*
X121565000Y-116481300D02*
X126110300Y-121026600D01*
X121565000Y-116250000D02*
X121565000Y-116481300D01*
X144456300Y-121026600D02*
X144489500Y-120993400D01*
X144456300Y-121026600D02*
X144489500Y-120993400D01*
X148693400Y-120993400D02*
X150800000Y-123100000D01*
%TO.N,/~{M1}*%
X131915900Y-118711100D02*
X125750500Y-118711100D01*
X124105000Y-117065600D02*
X124105000Y-116250000D01*
X125750500Y-118711100D02*
X124105000Y-117065600D01*
%TO.N,/D6*%
X96430600Y-96399700D02*
X96104400Y-96073500D01*
X173620000Y-84960000D02*
X172050800Y-86529200D01*
X146950000Y-84570300D02*
X145356500Y-82976800D01*
X103440500Y-97103600D02*
X100723000Y-99821100D01*
X172050800Y-86529200D02*
X148138900Y-86529200D01*
X104834100Y-95283300D02*
X103440500Y-96676900D01*
X98802800Y-99821100D02*
X98485000Y-99503300D01*
X121590000Y-86690800D02*
X121590000Y-87100000D01*
X98485000Y-99503300D02*
X98485000Y-97895600D01*
X98485000Y-97895600D02*
X97634100Y-97044700D01*
X121687200Y-95283300D02*
X104834100Y-95283300D01*
X93816000Y-96073500D02*
X92780000Y-97109500D01*
X103440500Y-96676900D02*
X103440500Y-97103600D01*
X97634100Y-96752200D02*
X97281600Y-96399700D01*
X92780000Y-97109500D02*
X92780000Y-98700000D01*
X97634100Y-97044700D02*
X97634100Y-96752200D01*
X96104400Y-96073500D02*
X93816000Y-96073500D01*
X125304000Y-82976800D02*
X121590000Y-86690800D01*
X100723000Y-99821100D02*
X98802800Y-99821100D01*
X146950000Y-85340300D02*
X146950000Y-84570300D01*
X145356500Y-82976800D02*
X125304000Y-82976800D01*
X97281600Y-96399700D02*
X96430600Y-96399700D01*
X121590000Y-87100000D02*
X121590000Y-89347800D01*
X148138900Y-86529200D02*
X146950000Y-85340300D01*
X121590000Y-89347800D02*
X120910100Y-90027700D01*
D20*
%TO.N,GND*%
X94075000Y-108212500D02*
X94075000Y-106980000D01*
X125567800Y-100367800D02*
X126535400Y-100367800D01*
X125400000Y-100200000D02*
X125567800Y-100367800D01*
X175400000Y-116651700D02*
X177802800Y-116651700D01*
X100400000Y-98700000D02*
X100400000Y-95399000D01*
X108716300Y-91551100D02*
X108795900Y-91471500D01*
X104124900Y-89362400D02*
X103900000Y-89137500D01*
X146870000Y-113575000D02*
X146870000Y-116250000D01*
X135500000Y-111837500D02*
X126535400Y-111837500D01*
X99937700Y-95399000D02*
X100400000Y-95399000D01*
X104402100Y-109980700D02*
X105266300Y-109980700D01*
X94075000Y-112060000D02*
X94075000Y-113330000D01*
X105268000Y-109982400D02*
X108535800Y-109982400D01*
X170900000Y-113437500D02*
X170900000Y-114463000D01*
X173088700Y-116651700D02*
X175400000Y-116651700D01*
X126535400Y-111837500D02*
X126535400Y-111638900D01*
X124454500Y-91471500D02*
X124884200Y-91901200D01*
X135500000Y-111837500D02*
X145132500Y-111837500D01*
X89000000Y-94212500D02*
X89051600Y-94264100D01*
X89051600Y-94264100D02*
X98802800Y-94264100D01*
X100400000Y-95399000D02*
X100560400Y-95399000D01*
X100560400Y-95399000D02*
X104124900Y-91834500D01*
X130200000Y-87237600D02*
X130200000Y-87237500D01*
X94075000Y-112060000D02*
X94075000Y-110790000D01*
X98200000Y-108212500D02*
X94075000Y-108212500D01*
X98802800Y-94264100D02*
X99937700Y-95399000D01*
X175400000Y-115400000D02*
X175400000Y-116651700D01*
X146870000Y-113575000D02*
X170762500Y-113575000D01*
X94075000Y-108250000D02*
X94075000Y-109520000D01*
X105266300Y-109980700D02*
X105268000Y-109982400D01*
X94075000Y-106980000D02*
X94075000Y-105710000D01*
X99720800Y-109733300D02*
X104154700Y-109733300D01*
X104124900Y-91471500D02*
X104124900Y-89362400D01*
X108795900Y-91471500D02*
X124454500Y-91471500D01*
X94075000Y-114600000D02*
X94075000Y-113330000D01*
X124884200Y-99684200D02*
X124884200Y-91901200D01*
X94075000Y-109520000D02*
X94075000Y-110790000D01*
X170762500Y-113575000D02*
X170900000Y-113437500D01*
X104204500Y-91551100D02*
X108716300Y-91551100D01*
X94075000Y-108212500D02*
X94075000Y-108250000D01*
X129547800Y-87237600D02*
X130200000Y-87237600D01*
X110262500Y-111709100D02*
X110262500Y-111837500D01*
X115500000Y-111837500D02*
X110262500Y-111837500D01*
X108535800Y-109982400D02*
X110262500Y-111709100D01*
X104124900Y-91834500D02*
X104124900Y-91471500D01*
X124884200Y-91901200D02*
X129547800Y-87237600D01*
X104124900Y-91471500D02*
X104204500Y-91551100D01*
X125400000Y-100200000D02*
X124884200Y-99684200D01*
X98200000Y-108212500D02*
X99720800Y-109733300D01*
X110262500Y-111837500D02*
X109500000Y-112600000D01*
X126535400Y-111837500D02*
X115500000Y-111837500D01*
X104154700Y-109733300D02*
X104402100Y-109980700D01*
X145132500Y-111837500D02*
X146870000Y-113575000D01*
X170900000Y-114463000D02*
X173088700Y-116651700D01*
D19*
%TO.N,/~{WR}*%
X145680000Y-84960000D02*
X144098500Y-83378500D01*
X139250000Y-109532800D02*
X139250000Y-109750000D01*
X148115500Y-106852000D02*
X141930800Y-106852000D01*
X126217400Y-83378500D02*
X124682000Y-84913900D01*
X110160000Y-86622200D02*
X114115500Y-82666700D01*
X144098500Y-83378500D02*
X126217400Y-83378500D01*
X110160000Y-87100000D02*
X110160000Y-86622200D01*
X141930800Y-106852000D02*
X139250000Y-109532800D01*
X114115500Y-82666700D02*
X119766000Y-82666700D01*
%TO.N,/~{RESET}*%
X148552000Y-107834400D02*
X149105000Y-107834400D01*
X147698500Y-107855400D02*
X148531000Y-107855400D01*
X147677500Y-107834400D02*
X147698500Y-107855400D01*
X149109800Y-107839200D02*
X149393400Y-107839200D01*
X143841700Y-107834400D02*
X147677500Y-107834400D01*
X143441200Y-108234900D02*
X143841700Y-107834400D01*
X149790300Y-108236100D02*
X172427600Y-108236100D01*
X148531000Y-107855400D02*
X148552000Y-107834400D01*
X174750000Y-110558500D02*
X174750000Y-112000000D01*
X149105000Y-107834400D02*
X149109800Y-107839200D01*
X172427600Y-108236100D02*
X174750000Y-110558500D01*
X149393400Y-107839200D02*
X149790300Y-108236100D01*
%TO.N,/D1*%
X120723200Y-97648900D02*
X122860000Y-99785700D01*
X122860000Y-100619700D02*
X122860000Y-100200000D01*
X122860000Y-99785700D02*
X122860000Y-100200000D01*
X97760700Y-101065700D02*
X98100200Y-100726200D01*
X126531800Y-101939600D02*
X124179900Y-101939600D01*
X100322500Y-112887500D02*
X100610000Y-112600000D01*
X124179900Y-101939600D02*
X122860000Y-100619700D01*
X100436100Y-100726200D02*
X103513400Y-97648900D01*
X172127500Y-96167500D02*
X132303900Y-96167500D01*
X174001900Y-102358100D02*
X159509300Y-102358100D01*
X176160000Y-100200000D02*
X174001900Y-102358100D01*
X98693000Y-112887500D02*
X100322500Y-112887500D01*
X176160000Y-100200000D02*
X172127500Y-96167500D01*
X103513400Y-97648900D02*
X120723200Y-97648900D01*
X98100200Y-100726200D02*
X100436100Y-100726200D01*
X132303900Y-96167500D02*
X126531800Y-101939600D01*
D20*
%TO.N,+5V*%
X170900000Y-111362500D02*
X170606500Y-111069000D01*
X95877500Y-87100000D02*
X95417600Y-87559900D01*
X131032600Y-110062500D02*
X135200000Y-110062500D01*
X173450000Y-110748300D02*
X174100000Y-110748300D01*
X100572500Y-106137500D02*
X98200000Y-106137500D01*
X138895300Y-111069000D02*
X137980000Y-110153700D01*
X135500000Y-109762500D02*
X137967500Y-109762500D01*
X105558500Y-109280500D02*
X107461200Y-109280500D01*
X104692800Y-109279000D02*
X105557000Y-109279000D01*
X173450000Y-111374100D02*
X170911600Y-111374100D01*
X91510000Y-92137500D02*
X89000000Y-92137500D01*
X104445400Y-109031600D02*
X104692800Y-109279000D01*
X107461200Y-109280500D02*
X107461400Y-109280700D01*
X100572500Y-106734700D02*
X102869400Y-109031600D01*
X100572500Y-106137500D02*
X100572500Y-106734700D01*
X173450000Y-112000000D02*
X173450000Y-111374100D01*
X170911600Y-111374100D02*
X170900000Y-111362500D01*
X173450000Y-111374100D02*
X173450000Y-110748300D01*
X129464200Y-108494100D02*
X131032600Y-110062500D01*
X107461400Y-109280700D02*
X115018200Y-109280700D01*
X115500000Y-109762500D02*
X116768400Y-108494100D01*
X116768400Y-108494100D02*
X129464200Y-108494100D01*
X104283200Y-87100000D02*
X95877500Y-87100000D01*
X91510000Y-92137500D02*
X91510000Y-92200000D01*
X137980000Y-110153700D02*
X137980000Y-109750000D01*
X102869400Y-109031600D02*
X104445400Y-109031600D01*
X115018200Y-109280700D02*
X115500000Y-109762500D01*
X95714700Y-104892700D02*
X96959500Y-106137500D01*
X103937500Y-87100000D02*
X103900000Y-87062500D01*
X142937500Y-85162500D02*
X143140000Y-84960000D01*
X100572500Y-106137500D02*
X100610000Y-106100000D01*
X170606500Y-111069000D02*
X138895300Y-111069000D01*
X104283200Y-87100000D02*
X103937500Y-87100000D01*
X137967500Y-109762500D02*
X137980000Y-109750000D01*
X135200000Y-110062500D02*
X135500000Y-109762500D01*
X96959500Y-106137500D02*
X98200000Y-106137500D01*
X95417600Y-87559900D02*
X91510000Y-91467500D01*
X91510000Y-91467500D02*
X91510000Y-92137500D01*
X174100000Y-112000000D02*
X174100000Y-110748300D01*
X106350000Y-87100000D02*
X104283200Y-87100000D01*
X130200000Y-85162500D02*
X142937500Y-85162500D01*
X105557000Y-109279000D02*
X105558500Y-109280500D01*
D19*
%TO.N,/D0*%
X173620000Y-100200000D02*
X169989200Y-96569200D01*
X101880000Y-105824800D02*
X100982100Y-104926900D01*
X174100000Y-113892000D02*
X174100000Y-115400000D01*
X121590000Y-99694700D02*
X119945900Y-98050600D01*
X103868200Y-98050600D02*
X100357700Y-101561100D01*
X132735500Y-96569200D02*
X126962000Y-102342700D01*
X121590000Y-100200000D02*
X121590000Y-99694700D01*
X100982100Y-104926900D02*
X99300800Y-104926900D01*
X169989200Y-96569200D02*
X132735500Y-96569200D01*
X173758000Y-113550000D02*
X174100000Y-113892000D01*
X155848000Y-120592000D02*
X173043700Y-120592000D01*
X153340000Y-123100000D02*
X155848000Y-120592000D01*
X121590000Y-100663100D02*
X121590000Y-100200000D01*
X101880000Y-106100000D02*
X101880000Y-105824800D01*
X119945900Y-98050600D02*
X103868200Y-98050600D01*
X100357700Y-101561100D02*
X98595000Y-101561100D01*
X126962000Y-102342700D02*
X123269600Y-102342700D01*
X123269600Y-102342700D02*
X121590000Y-100663100D01*
%TO.N,/D3*%
X101529700Y-115023200D02*
X101427400Y-115023200D01*
X161552500Y-88365700D02*
X159206600Y-88365700D01*
X128100000Y-109850000D02*
X128100000Y-110550000D01*
X158245800Y-87404900D02*
X143958400Y-87404900D01*
X127500000Y-110850000D02*
X111250000Y-110850000D01*
X126187500Y-86312500D02*
X125400000Y-87100000D01*
X177834300Y-88365700D02*
X161552500Y-88365700D01*
X103150000Y-113402900D02*
X101529700Y-115023200D01*
X127650000Y-111000000D02*
X127500000Y-110850000D01*
X159206600Y-88365700D02*
X158245800Y-87404900D01*
X126950000Y-86312500D02*
X126187500Y-86312500D01*
X143958400Y-87404900D02*
X142866000Y-86312500D01*
X110765585Y-115165585D02*
X104584415Y-115165585D01*
X181240000Y-84960000D02*
X177834300Y-88365700D01*
X142866000Y-86312500D02*
X126950000Y-86312500D01*
X103150000Y-112600000D02*
X103150000Y-113402900D01*
X104584415Y-115165585D02*
X104150000Y-115600000D01*
X161552500Y-88569300D02*
X161552500Y-88365700D01*
X128100000Y-110550000D02*
X127650000Y-111000000D01*
%TO.N,/D2*%
X124130000Y-99679500D02*
X124130000Y-100200000D01*
X178700000Y-100200000D02*
X174265800Y-95765800D01*
X104042200Y-96926000D02*
X121376500Y-96926000D01*
X160185900Y-121334100D02*
X158420000Y-123100000D01*
X176533000Y-121334100D02*
X160185900Y-121334100D01*
X124130000Y-100686700D02*
X124130000Y-100200000D01*
X174265800Y-95765800D02*
X132129700Y-95765800D01*
X101880000Y-111879600D02*
X103274600Y-110485000D01*
X103274600Y-110485000D02*
X103843300Y-110485000D01*
X101880000Y-112600000D02*
X101880000Y-111879600D01*
X132129700Y-95765800D02*
X126357600Y-101537900D01*
X124981200Y-101537900D02*
X124130000Y-100686700D01*
X126357600Y-101537900D02*
X124981200Y-101537900D01*
X121376500Y-96926000D02*
X124130000Y-99679500D01*
%TO.N,/~{RD}*%
X118551700Y-84647000D02*
X118717100Y-84647000D01*
X116510000Y-87100000D02*
X116510000Y-86688700D01*
X116510000Y-86688700D02*
X118551700Y-84647000D01*
X163451500Y-80953000D02*
X163706000Y-81207500D01*
X121529600Y-82081000D02*
X121529600Y-82077700D01*
X118717100Y-84647000D02*
X120930600Y-82433500D01*
X120930600Y-82433500D02*
X121177100Y-82433500D01*
X122654300Y-80953000D02*
X163451500Y-80953000D01*
X121529600Y-82077700D02*
X122654300Y-80953000D01*
X121177100Y-82433500D02*
X121529600Y-82081000D01*
%TO.N,/D5*%
X122860000Y-87100000D02*
X122860000Y-88268600D01*
X94745700Y-102172500D02*
X91510000Y-98936800D01*
X124126500Y-92266300D02*
X122803800Y-93589000D01*
X102532900Y-100025000D02*
X100385400Y-102172500D01*
X100385400Y-102172500D02*
X94745700Y-102172500D01*
X166500000Y-119600000D02*
X166200000Y-119900000D01*
X174930000Y-119600000D02*
X166500000Y-119600000D01*
X126124100Y-93489700D02*
X175327400Y-93489700D01*
X122803800Y-93589000D02*
X104629900Y-93589000D01*
X175327400Y-93489700D02*
X175704600Y-93112500D01*
X122860000Y-88268600D02*
X122258100Y-88870500D01*
X91510000Y-98936800D02*
X91510000Y-98700000D01*
X102839200Y-100025000D02*
X102532900Y-100025000D01*
%TO.N,/D7*%
X120503400Y-87283400D02*
X120503400Y-89025700D01*
X93603200Y-98253200D02*
X94050000Y-98700000D01*
X147468400Y-82575100D02*
X124450100Y-82575100D01*
X171080000Y-84960000D02*
X169912500Y-86127500D01*
X95780200Y-96501700D02*
X93955800Y-96501700D01*
X103206600Y-90473700D02*
X98246700Y-90473700D01*
X119104300Y-90192900D02*
X108884700Y-90192900D01*
X97032400Y-97001400D02*
X96279900Y-97001400D01*
X120503400Y-89025700D02*
X120247100Y-89282000D01*
X149490000Y-84596700D02*
X147468400Y-82575100D01*
X93603200Y-96854300D02*
X93603200Y-98253200D01*
X120247100Y-89282000D02*
X120015200Y-89282000D01*
X124450100Y-82575100D02*
X120320000Y-86705200D01*
X120320000Y-87100000D02*
X120503400Y-87283400D01*
X93955800Y-96501700D02*
X93603200Y-96854300D01*
X96279900Y-97001400D02*
X95780200Y-96501700D01*
X150297100Y-86127500D02*
X149490000Y-85320400D01*
X169912500Y-86127500D02*
X150297100Y-86127500D01*
X98246700Y-90473700D02*
X98122600Y-90597800D01*
X108325800Y-89634000D02*
X107821000Y-89634000D01*
X120320000Y-86705200D02*
X120320000Y-87100000D01*
X108884700Y-90192900D02*
X108325800Y-89634000D01*
X120015200Y-89282000D02*
X119104300Y-90192900D01*
X149490000Y-85320400D02*
X149490000Y-84596700D01*
%TO.N,/A7*%
X125760700Y-119376400D02*
X150723600Y-119376400D01*
X119173600Y-117531700D02*
X119717800Y-116987500D01*
X122835000Y-115974800D02*
X122835000Y-116250000D01*
X112145800Y-118537500D02*
X112145900Y-118537500D01*
X113151700Y-117531700D02*
X119173600Y-117531700D01*
X150723600Y-119376400D02*
X151400000Y-118700000D01*
X121997800Y-115137600D02*
X122835000Y-115974800D01*
X111430000Y-101710000D02*
X111430000Y-100200000D01*
X119717800Y-115384500D02*
X119964700Y-115137600D01*
X119717800Y-116987500D02*
X119717800Y-115384500D01*
X122835000Y-116450700D02*
X125760700Y-119376400D01*
X119964700Y-115137600D02*
X121997800Y-115137600D01*
X112145800Y-118731900D02*
X112145800Y-118537500D01*
X122835000Y-116250000D02*
X122835000Y-116450700D01*
X107777700Y-123100000D02*
X112145800Y-118731900D01*
X112412200Y-102692200D02*
X111430000Y-101710000D01*
X112145900Y-118537500D02*
X113151700Y-117531700D01*
X107620000Y-123100000D02*
X107777700Y-123100000D01*
%TO.N,/A4*%
X129796300Y-103397700D02*
X132044200Y-103397700D01*
X159338900Y-98618900D02*
X160920000Y-100200000D01*
X129502600Y-103691400D02*
X129128200Y-103691400D01*
X119056100Y-104326900D02*
X119001000Y-104382000D01*
X119291500Y-104091500D02*
X121330000Y-104091500D01*
X115448600Y-115613600D02*
X117118600Y-115613600D01*
X132279600Y-103162300D02*
X132445900Y-102996000D01*
X128875300Y-103936300D02*
X128881700Y-103929900D01*
X128875300Y-103936300D02*
X128881700Y-103929900D01*
X117998500Y-104382000D02*
X116735000Y-103118500D01*
X115240000Y-100200000D02*
X115240000Y-101623500D01*
X132044200Y-103397700D02*
X132279600Y-103162300D01*
X119056100Y-104326900D02*
X119001000Y-104382000D01*
X121330000Y-104091500D02*
X121645600Y-104407100D01*
X141729300Y-98618900D02*
X159338900Y-98618900D01*
X129128200Y-103691400D02*
X128892800Y-103926800D01*
X119056100Y-104326900D02*
X119291500Y-104091500D01*
X141571500Y-98776700D02*
X141729300Y-98618900D01*
X121645600Y-104407100D02*
X128404500Y-104407100D01*
X117118600Y-115613600D02*
X117755000Y-116250000D01*
X128892800Y-103926800D02*
X128889700Y-103929900D01*
X129502600Y-103691400D02*
X129564400Y-103629600D01*
X128404500Y-104407100D02*
X128875300Y-103936300D01*
X115240000Y-101623500D02*
X116735000Y-103118500D01*
X141571500Y-98776700D02*
X141729300Y-98618900D01*
X128881700Y-103929900D02*
X128889700Y-103929900D01*
X132445900Y-102996000D02*
X137352200Y-102996000D01*
X137352200Y-102996000D02*
X141571500Y-98776700D01*
X132279600Y-103162300D02*
X132445900Y-102996000D01*
X129564400Y-103629600D02*
X129796300Y-103397700D01*
X128892800Y-103926800D02*
X128889700Y-103929900D01*
X129502600Y-103691400D02*
X129564400Y-103629600D01*
X119001000Y-104382000D02*
X117998500Y-104382000D01*
%TO.N,/A2*%
X149276100Y-107437500D02*
X163779500Y-107437500D01*
X127898000Y-103368300D02*
X128042800Y-103223500D01*
X122794000Y-103603700D02*
X127662600Y-103603700D01*
X148385700Y-107432700D02*
X149271300Y-107432700D01*
X133457800Y-97808500D02*
X163608500Y-97808500D01*
X127662600Y-103603700D02*
X127898000Y-103368300D01*
X163779500Y-107437500D02*
X163795800Y-107453800D01*
X128042800Y-103223500D02*
X133457800Y-97808500D01*
X127898000Y-103368300D02*
X128042800Y-103223500D01*
X119111600Y-102254400D02*
X120080700Y-103223500D01*
X140520000Y-109750000D02*
X140520000Y-108979800D01*
X142067100Y-107432700D02*
X147843800Y-107432700D01*
X147864800Y-107453700D02*
X148364700Y-107453700D01*
X140520000Y-108979800D02*
X142067100Y-107432700D01*
X117780000Y-100922800D02*
X119111600Y-102254400D01*
X148364700Y-107453700D02*
X148385700Y-107432700D01*
X122413800Y-103223500D02*
X122794000Y-103603700D01*
X117780000Y-100200000D02*
X117780000Y-100922800D01*
X147843800Y-107432700D02*
X147864800Y-107453700D01*
X120080700Y-103223500D02*
X122413800Y-103223500D01*
X163608500Y-97808500D02*
X166000000Y-100200000D01*
X149271300Y-107432700D02*
X149276100Y-107437500D01*
%TO.N,/A13*%
X94844500Y-120635500D02*
X92380000Y-123100000D01*
X111430000Y-87496300D02*
X113684600Y-89750900D01*
X147254400Y-92639200D02*
X151887000Y-88006600D01*
X111430000Y-87100000D02*
X111430000Y-87496300D01*
X125936300Y-92639200D02*
X147254400Y-92639200D01*
X118405800Y-89750900D02*
X118633300Y-89523400D01*
X109391300Y-120635500D02*
X94844500Y-120635500D01*
X125637100Y-92340000D02*
X125936300Y-92639200D01*
X113684600Y-89750900D02*
X118405800Y-89750900D01*
%TO.N,/A8*%
X115332300Y-84045300D02*
X112700000Y-86677600D01*
X118467900Y-84045300D02*
X115332300Y-84045300D01*
X112700000Y-87100000D02*
X112700000Y-87763900D01*
X112700000Y-87763900D02*
X114085300Y-89149200D01*
X112700000Y-86677600D02*
X112700000Y-87100000D01*
%TO.N,/A12*%
X148260300Y-121711300D02*
X112561700Y-121711300D01*
X111548300Y-122570200D02*
X111548300Y-123401600D01*
X110160000Y-101312000D02*
X110160000Y-100200000D01*
X111548300Y-123401600D02*
X110666400Y-124283500D01*
X110666400Y-124283500D02*
X96103500Y-124283500D01*
X112735600Y-103887600D02*
X110160000Y-101312000D01*
X112561700Y-121711300D02*
X112407200Y-121711300D01*
X96103500Y-124283500D02*
X94920000Y-123100000D01*
X113037100Y-103887600D02*
X112735600Y-103887600D01*
X112407200Y-121711300D02*
X111548300Y-122570200D01*
%TO.N,/A1*%
X127339600Y-103202000D02*
X133165000Y-97376600D01*
X115343900Y-108414500D02*
X115465500Y-108292900D01*
X104420000Y-108104100D02*
X105043200Y-108727300D01*
X122558600Y-102800300D02*
X122960300Y-103202000D01*
X109951100Y-108727300D02*
X110186500Y-108491900D01*
X110186500Y-108491900D02*
X110263900Y-108414500D01*
X103363200Y-108104100D02*
X103241500Y-108104100D01*
X104420000Y-108104100D02*
X103363200Y-108104100D01*
X95320000Y-92200000D02*
X95320000Y-92382200D01*
X110186500Y-108491900D02*
X110263900Y-108414500D01*
X96450200Y-93512400D02*
X97436300Y-93512400D01*
X110263900Y-108414500D02*
X115343900Y-108414500D01*
X121036800Y-102574300D02*
X120983700Y-102574300D01*
X121036800Y-102574300D02*
X121262800Y-102800300D01*
X95320000Y-92382200D02*
X96450200Y-93512400D01*
X120983700Y-102574300D02*
X119050000Y-100640600D01*
X119050000Y-100640600D02*
X119050000Y-100200000D01*
X103027300Y-108104100D02*
X103241500Y-108104100D01*
X133165000Y-97376600D02*
X165716600Y-97376600D01*
X105043200Y-108727300D02*
X109951100Y-108727300D01*
X121262800Y-102800300D02*
X122558600Y-102800300D01*
X122960300Y-103202000D02*
X127339600Y-103202000D01*
X165716600Y-97376600D02*
X168540000Y-100200000D01*
X103241500Y-108104100D02*
X103027300Y-108104100D01*
X104420000Y-106100000D02*
X104420000Y-108104100D01*
%TO.N,/A10*%
X122823800Y-81354800D02*
X162394800Y-81354800D01*
X117780000Y-87100000D02*
X117780000Y-87818100D01*
X117780000Y-87100000D02*
X117780000Y-86065300D01*
X117780000Y-87818100D02*
X117078200Y-88519900D01*
X118796600Y-85048700D02*
X119129900Y-85048700D01*
X117780000Y-86065300D02*
X118796600Y-85048700D01*
X162394800Y-81354800D02*
X166000000Y-84960000D01*
X119129900Y-85048700D02*
X122823800Y-81354800D01*
%TO.N,/A0*%
X122321800Y-101962900D02*
X121634300Y-101962900D01*
X127072500Y-102800300D02*
X123126600Y-102800300D01*
X120320000Y-100686600D02*
X120320000Y-100200000D01*
X171080000Y-100200000D02*
X167850900Y-96970900D01*
X120320000Y-99785700D02*
X120320000Y-100200000D01*
X94050000Y-90647900D02*
X94050000Y-92200000D01*
X104716800Y-98452300D02*
X118986600Y-98452300D01*
X103241500Y-104696200D02*
X103150000Y-104787700D01*
X123126600Y-102800300D02*
X122926600Y-102600300D01*
X103770000Y-99399100D02*
X103799900Y-99369200D01*
X103770000Y-99399100D02*
X104716800Y-98452300D01*
X122926600Y-102567700D02*
X122321800Y-101962900D01*
X132901900Y-96970900D02*
X127072500Y-102800300D01*
X118986600Y-98452300D02*
X120320000Y-99785700D01*
X122926600Y-102600300D02*
X122926600Y-102567700D01*
X103150000Y-106100000D02*
X103150000Y-104787700D01*
X94336700Y-90361200D02*
X94050000Y-90647900D01*
X121634300Y-101962900D02*
X121615300Y-101981900D01*
X103150000Y-104787700D02*
X103241500Y-104696200D01*
X121615300Y-101981900D02*
X120320000Y-100686600D01*
X167850900Y-96970900D02*
X132901900Y-96970900D01*
X103150000Y-104787700D02*
X103241500Y-104696200D01*
X103799900Y-99369200D02*
X103770000Y-99399100D01*
%TO.N,/A5*%
X113181800Y-115749700D02*
X113921200Y-115010300D01*
X119025000Y-116076400D02*
X119025000Y-116250000D01*
X140592100Y-105356700D02*
X139128500Y-106820300D01*
X113921200Y-115010300D02*
X117958900Y-115010300D01*
X113616600Y-100553400D02*
X113616600Y-101743400D01*
X117958900Y-115010300D02*
X119025000Y-116076400D01*
X113970000Y-100200000D02*
X113616600Y-100553400D01*
X139128500Y-106820300D02*
X113263500Y-106820300D01*
X158380000Y-100200000D02*
X153223300Y-105356700D01*
X113263500Y-106820300D02*
X113183400Y-106900400D01*
X153223300Y-105356700D02*
X140592100Y-105356700D01*
%TO.N,/A3*%
X118889800Y-103925200D02*
X119125200Y-103689800D01*
X161470200Y-98210200D02*
X163460000Y-100200000D01*
X118889800Y-103925200D02*
X118834700Y-103980300D01*
X121811900Y-104005400D02*
X128238200Y-104005400D01*
X118889800Y-103925200D02*
X118834700Y-103980300D01*
X134437200Y-98210200D02*
X161470200Y-98210200D01*
X129686100Y-102961300D02*
X129651400Y-102996000D01*
X119125200Y-103689800D02*
X121496300Y-103689800D01*
X116630500Y-100320500D02*
X116630500Y-101890400D01*
X118834700Y-103980300D02*
X118720400Y-103980300D01*
X121496300Y-103689800D02*
X121811900Y-104005400D01*
X129686100Y-102961300D02*
X129651400Y-102996000D01*
X129686100Y-102961300D02*
X134437200Y-98210200D01*
X118720400Y-103980300D02*
X116630500Y-101890400D01*
X129247600Y-102996000D02*
X129651400Y-102996000D01*
X116510000Y-100200000D02*
X116630500Y-100320500D01*
X128238200Y-104005400D02*
X129247600Y-102996000D01*
%TO.N,/A15*%
X94525300Y-97103400D02*
X94204900Y-97103400D01*
X101696300Y-116234200D02*
X104420000Y-113510500D01*
X95320000Y-97898100D02*
X95320000Y-98700000D01*
X88451700Y-122812100D02*
X95029600Y-116234200D01*
X104420000Y-113510500D02*
X104420000Y-112600000D01*
X95029600Y-116234200D02*
X101696300Y-116234200D01*
X94525300Y-97103400D02*
X95320000Y-97898100D01*
X87300000Y-123100000D02*
X88451700Y-123100000D01*
X88451700Y-123100000D02*
X88451700Y-122812100D01*
%TO.N,/A14*%
X105690000Y-112818300D02*
X105690000Y-112600000D01*
X94654700Y-99807400D02*
X94325300Y-100136800D01*
X94654700Y-99807400D02*
X95639700Y-99807400D01*
X95639700Y-99807400D02*
X96590000Y-98857100D01*
X89840000Y-123100000D02*
X94632400Y-118307600D01*
X94632400Y-118307600D02*
X100200700Y-118307600D01*
X94325300Y-100136800D02*
X94247100Y-100215000D01*
X100200700Y-118307600D02*
X105690000Y-112818300D01*
X96590000Y-98857100D02*
X96590000Y-98700000D01*
%TO.N,/A11*%
X115906500Y-87766500D02*
X115240000Y-87100000D01*
X157731700Y-81771700D02*
X123674300Y-81771700D01*
X160920000Y-84960000D02*
X157731700Y-81771700D01*
X123674300Y-81771700D02*
X123093600Y-82352400D01*
X115906500Y-88467200D02*
X115906500Y-87766500D01*
%TO.N,/A9*%
X118447700Y-86010000D02*
X119007300Y-85450400D01*
X113970000Y-87824900D02*
X113970000Y-87100000D01*
X124123500Y-82173400D02*
X155593400Y-82173400D01*
X120846500Y-85450400D02*
X124123500Y-82173400D01*
X119007300Y-85450400D02*
X120846500Y-85450400D01*
X155593400Y-82173400D02*
X158380000Y-84960000D01*
X117428300Y-89121700D02*
X118447700Y-88102300D01*
X115266800Y-89121700D02*
X117428300Y-89121700D01*
X118447700Y-88102300D02*
X118447700Y-86010000D01*
X115266800Y-89121700D02*
X113970000Y-87824900D01*
%TO.N,/A6*%
X112700000Y-100200000D02*
X112477600Y-100422400D01*
X116416800Y-120856500D02*
X112403500Y-120856500D01*
X154674800Y-99034800D02*
X155840000Y-100200000D01*
X119167300Y-104783700D02*
X115442000Y-104783700D01*
X121163700Y-104493200D02*
X121479300Y-104808800D01*
X137258800Y-103799400D02*
X142023400Y-99034800D01*
X128570800Y-104808800D02*
X129041600Y-104338000D01*
X129678600Y-104083400D02*
X130469700Y-104083400D01*
X112477600Y-100422400D02*
X112477600Y-101819300D01*
X120295000Y-116250000D02*
X120295000Y-116978300D01*
X129041600Y-104338000D02*
X129048000Y-104331600D01*
X129048000Y-104331600D02*
X129056000Y-104331600D01*
X119457800Y-104493200D02*
X121163700Y-104493200D01*
X130469700Y-104083400D02*
X130587400Y-103965700D01*
X119222400Y-104728600D02*
X119167300Y-104783700D01*
X130587400Y-103965700D02*
X130753700Y-103799400D01*
X121479300Y-104808800D02*
X128570800Y-104808800D01*
X120295000Y-116978300D02*
X116416800Y-120856500D01*
X130587400Y-103965700D02*
X130753700Y-103799400D01*
X112403500Y-120856500D02*
X110160000Y-123100000D01*
X129668900Y-104093100D02*
X129678600Y-104083400D01*
X119222400Y-104728600D02*
X119457800Y-104493200D01*
X142023400Y-99034800D02*
X154674800Y-99034800D01*
X129056000Y-104331600D02*
X129294500Y-104093100D01*
X119222400Y-104728600D02*
X119167300Y-104783700D01*
X129294500Y-104093100D02*
X129668900Y-104093100D01*
X130753700Y-103799400D02*
X137258800Y-103799400D01*
X115442000Y-104783700D02*
X112477600Y-101819300D01*
X129041600Y-104338000D02*
X129048000Y-104331600D01*
X129668900Y-104093100D02*
X129678600Y-104083400D01*
%TO.N,/~{MREQ}*%
X137980000Y-116250000D02*
X137162800Y-116250000D01*
X137162800Y-116250000D02*
X137138100Y-116274700D01*
%TO.N,/MA19*%
X104865500Y-111330600D02*
X104865500Y-111332200D01*
X87575000Y-112060000D02*
X90929600Y-112060000D01*
X104866600Y-111488400D02*
X104867100Y-111487900D01*
X100541700Y-92058300D02*
X100400000Y-92200000D01*
X111070000Y-114505600D02*
X107409300Y-114505600D01*
X104867100Y-111487900D02*
X104867100Y-111332200D01*
X92111700Y-113242100D02*
X92111700Y-115074800D01*
X128089100Y-114339300D02*
X125501500Y-114339300D01*
X104865500Y-111332200D02*
X104865500Y-111330600D01*
X103785000Y-113558400D02*
X103785000Y-111811800D01*
X104867100Y-111332200D02*
X104865500Y-111330600D01*
X107409300Y-114505600D02*
X106326200Y-113422500D01*
X105999800Y-111487900D02*
X104867100Y-111487900D01*
X101482600Y-92058300D02*
X100541700Y-92058300D01*
X104108400Y-111488400D02*
X104866600Y-111488400D01*
X111638000Y-113937600D02*
X111070000Y-114505600D01*
X92661800Y-115624900D02*
X101718500Y-115624900D01*
X103785000Y-111811800D02*
X104108400Y-111488400D01*
X128644900Y-113783500D02*
X128089100Y-114339300D01*
X125099800Y-113937600D02*
X111638000Y-113937600D01*
X106326200Y-111814300D02*
X105999800Y-111487900D01*
X136952700Y-113783500D02*
X128644900Y-113783500D01*
X90929600Y-112060000D02*
X92111700Y-113242100D01*
X125501500Y-114339300D02*
X125099800Y-113937600D01*
X92111700Y-115074800D02*
X92661800Y-115624900D01*
X101718500Y-115624900D02*
X103785000Y-113558400D01*
X139250000Y-116250000D02*
X139250000Y-116080800D01*
X106326200Y-113422500D02*
X106326200Y-111814300D01*
X139250000Y-116080800D02*
X136952700Y-113783500D01*
%TO.N,/MA20*%
X112222600Y-114557100D02*
X123851400Y-114557100D01*
X123851400Y-114557100D02*
X124740000Y-115445700D01*
X139632000Y-117364700D02*
X140520000Y-116476700D01*
X125057100Y-117364700D02*
X139632000Y-117364700D01*
X124740000Y-117047600D02*
X125057100Y-117364700D01*
X99130000Y-97680100D02*
X96807900Y-95358000D01*
X87575000Y-113330000D02*
X91348500Y-113330000D01*
X96807900Y-95358000D02*
X95789000Y-95358000D01*
X124740000Y-115445700D02*
X124740000Y-117047600D01*
X99130000Y-98700000D02*
X99130000Y-97680100D01*
X107518500Y-119261200D02*
X112222600Y-114557100D01*
X95658900Y-119261200D02*
X107518500Y-119261200D01*
X91348500Y-113330000D02*
X91464500Y-113446000D01*
X140520000Y-116476700D02*
X140520000Y-116250000D01*
%TO.N,/MA18*%
X99130000Y-92200000D02*
X99130000Y-93300700D01*
X105127300Y-101422700D02*
X101986000Y-101422700D01*
X101986000Y-101422700D02*
X101971400Y-101422700D01*
X100249000Y-94419700D02*
X100249000Y-94647300D01*
X129460800Y-104494800D02*
X137693500Y-104494800D01*
X119624100Y-104894900D02*
X120997400Y-104894900D01*
X109253800Y-98872700D02*
X109557700Y-99176600D01*
X109557700Y-99176600D02*
X109557700Y-101298300D01*
X89190000Y-110790000D02*
X89700000Y-111300000D01*
X106350000Y-100200000D02*
X106350000Y-99805300D01*
X129222300Y-104733300D02*
X129460800Y-104494800D01*
X91974200Y-102574200D02*
X91300000Y-101900000D01*
X106350000Y-99805300D02*
X107282600Y-98872700D01*
X87575000Y-110790000D02*
X89190000Y-110790000D01*
X121313000Y-105210500D02*
X128737100Y-105210500D01*
X128737100Y-105210500D02*
X129214300Y-104733300D01*
X143140000Y-100200000D02*
X141988300Y-100200000D01*
X119333600Y-105185400D02*
X119624100Y-104894900D01*
X113444800Y-105185400D02*
X119333600Y-105185400D01*
X100819900Y-102574200D02*
X91974200Y-102574200D01*
X137693500Y-104494800D02*
X141988300Y-100200000D01*
X99130000Y-93300700D02*
X100249000Y-94419700D01*
X109557700Y-101298300D02*
X113444800Y-105185400D01*
X101971400Y-101422700D02*
X100819900Y-102574200D01*
X129214300Y-104733300D02*
X129222300Y-104733300D01*
X107282600Y-98872700D02*
X109253800Y-98872700D01*
X106350000Y-100200000D02*
X105127300Y-101422700D01*
X87000500Y-110790000D02*
X87575000Y-110790000D01*
X120997400Y-104894900D02*
X121313000Y-105210500D01*
%TO.N,/MA16*%
X123759000Y-112757000D02*
X111048500Y-112757000D01*
X130890300Y-112498700D02*
X124017300Y-112498700D01*
X108230000Y-112751900D02*
X108230000Y-112600000D01*
X104530800Y-101961800D02*
X106254900Y-101961800D01*
X104530600Y-101962000D02*
X104530800Y-101961800D01*
X131148600Y-112757000D02*
X130890300Y-112498700D01*
X101856400Y-102705300D02*
X101900600Y-102661100D01*
X103066600Y-102259400D02*
X104231800Y-102259400D01*
X89240000Y-108250000D02*
X87575000Y-108250000D01*
X110103300Y-113702200D02*
X109180300Y-113702200D01*
X107620000Y-100596700D02*
X106853500Y-101363200D01*
X101257600Y-102705300D02*
X101856400Y-102705300D01*
X104231800Y-102259400D02*
X104529200Y-101962000D01*
X100987000Y-102975900D02*
X101257600Y-102705300D01*
X108230000Y-112600000D02*
X108230000Y-112042300D01*
X87575000Y-108250000D02*
X87002600Y-108250000D01*
X89460570Y-102975900D02*
X88593235Y-103843235D01*
X107584400Y-102094200D02*
X106853500Y-101363200D01*
X92674100Y-102975900D02*
X89460570Y-102975900D01*
X143303000Y-112757000D02*
X131148600Y-112757000D01*
X107620000Y-100200000D02*
X107620000Y-100596700D01*
X106254900Y-101961800D02*
X106853500Y-101363200D01*
X124017300Y-112498700D02*
X123759000Y-112757000D01*
X104529200Y-101962000D02*
X104530600Y-101962000D01*
X101900600Y-102661100D02*
X102664900Y-102661100D01*
X102664900Y-102661100D02*
X103066600Y-102259400D01*
X108230000Y-112042300D02*
X106921900Y-110734200D01*
X109180300Y-113702200D02*
X108230000Y-112751900D01*
X111048500Y-112757000D02*
X110103300Y-113702200D01*
X92674100Y-102975900D02*
X100987000Y-102975900D01*
%TO.N,/MA14*%
X147198600Y-88189900D02*
X136164000Y-88189900D01*
X110002500Y-104946900D02*
X108230000Y-104946900D01*
X136164000Y-88189900D02*
X132316400Y-92037500D01*
X119499900Y-105587100D02*
X110642700Y-105587100D01*
X108230000Y-100860000D02*
X108890000Y-100200000D01*
X129709900Y-105096500D02*
X129194200Y-105612200D01*
X129194200Y-105612200D02*
X121146700Y-105612200D01*
X121146700Y-105612200D02*
X120831100Y-105296600D01*
X108230000Y-104946900D02*
X108230000Y-103692800D01*
X108230000Y-103692800D02*
X89592200Y-103692800D01*
X110642700Y-105587100D02*
X110002500Y-104946900D01*
X120831100Y-105296600D02*
X119790400Y-105296600D01*
X108230000Y-103692800D02*
X108230000Y-100860000D01*
X89592200Y-103692800D02*
X87575000Y-105710000D01*
X119790400Y-105296600D02*
X119499900Y-105587100D01*
X108230000Y-104946900D02*
X108230000Y-106100000D01*
%TO.N,/MA15*%
X90942500Y-106980000D02*
X87575000Y-106980000D01*
X105167900Y-104325200D02*
X104937200Y-104094500D01*
X107703700Y-90397700D02*
X108238600Y-90397700D01*
X106685500Y-104325200D02*
X107595000Y-105234700D01*
X105167900Y-104325200D02*
X106685500Y-104325200D01*
X107620000Y-87100000D02*
X107219200Y-87500800D01*
X107595000Y-106932500D02*
X108184700Y-107522200D01*
X137294500Y-106100000D02*
X109500000Y-106100000D01*
X107219200Y-87500800D02*
X107219200Y-89913200D01*
X148220000Y-100200000D02*
X144938400Y-103481600D01*
X104937200Y-104094500D02*
X93828000Y-104094500D01*
X109500000Y-106333600D02*
X109500000Y-106100000D01*
X108184700Y-107522200D02*
X108311400Y-107522200D01*
X93828000Y-104094500D02*
X90942500Y-106980000D01*
X144938400Y-103481600D02*
X139912900Y-103481600D01*
X108311400Y-107522200D02*
X109500000Y-106333600D01*
X139912900Y-103481600D02*
X137294500Y-106100000D01*
X107595000Y-105234700D02*
X107595000Y-106932500D01*
X107219200Y-89913200D02*
X107703700Y-90397700D01*
%TO.N,/MA17*%
X105847700Y-110728900D02*
X104616400Y-110728900D01*
X125099800Y-113500700D02*
X110872800Y-113500700D01*
X108890000Y-86685700D02*
X113743900Y-81831800D01*
X113743900Y-81831800D02*
X120926300Y-81831800D01*
X89006400Y-109520000D02*
X87575000Y-109520000D01*
X101178300Y-114421500D02*
X100392300Y-115207500D01*
X100392300Y-115207500D02*
X92812400Y-115207500D01*
X106960000Y-112804700D02*
X106960000Y-112600000D01*
X103241400Y-111086200D02*
X102515000Y-111812600D01*
X92812400Y-115207500D02*
X92513400Y-114908500D01*
X110269600Y-114103900D02*
X108259200Y-114103900D01*
X106960000Y-111841200D02*
X105847700Y-110728900D01*
X104616400Y-110728900D02*
X104258600Y-111086700D01*
X127522600Y-113100400D02*
X125500000Y-113100400D01*
X125099800Y-113500600D02*
X125099800Y-113500700D01*
X110872800Y-113500700D02*
X110269600Y-114103900D01*
X103352600Y-111086200D02*
X103241400Y-111086200D01*
X92513400Y-114908500D02*
X92513400Y-113027000D01*
X108890000Y-87100000D02*
X108890000Y-86685700D01*
X106960000Y-112600000D02*
X106960000Y-111841200D01*
X104258600Y-111086700D02*
X103353100Y-111086700D01*
X125500000Y-113100400D02*
X125099800Y-113500600D01*
X102515000Y-111812600D02*
X102515000Y-113400800D01*
X101494300Y-114421500D02*
X101178300Y-114421500D01*
X108259200Y-114103900D02*
X106960000Y-112804700D01*
X92513400Y-113027000D02*
X89006400Y-109520000D01*
X103353100Y-111086700D02*
X103352600Y-111086200D01*
X102515000Y-113400800D02*
X101494300Y-114421500D01*
%TO.N,/~{RAM_CS}*%
X128278400Y-113381800D02*
X140384800Y-113381800D01*
X143060000Y-116057000D02*
X143060000Y-116250000D01*
X140384800Y-113381800D02*
X143060000Y-116057000D01*
X125732100Y-113719100D02*
X127941100Y-113719100D01*
X119888100Y-88675300D02*
X119050000Y-87837200D01*
X119050000Y-87837200D02*
X119050000Y-87100000D01*
X127941100Y-113719100D02*
X128278400Y-113381800D01*
%TO.N,/~{ROM_CS}*%
X141790000Y-116448700D02*
X141790000Y-116250000D01*
X166773000Y-115712500D02*
X165111300Y-117374200D01*
X142715500Y-117374200D02*
X141790000Y-116448700D01*
X165111300Y-117374200D02*
X142715500Y-117374200D01*
%TO.N,/~{CFG_CS}*%
X141907100Y-108443500D02*
X141907100Y-109632900D01*
X125375000Y-116250000D02*
X125375000Y-116011500D01*
X131553200Y-114741000D02*
X131908900Y-114385300D01*
X141907100Y-109632900D02*
X141790000Y-109750000D01*
X126645500Y-114741000D02*
X131553200Y-114741000D01*
X125375000Y-116011500D02*
X126645500Y-114741000D01*
%TO.N,/PGEN_WR*%
X167815800Y-112400000D02*
X171551700Y-112400000D01*
X171551700Y-112400000D02*
X173450000Y-114298300D01*
X144330000Y-109750000D02*
X144330000Y-109543800D01*
X144330000Y-109543800D02*
X145226000Y-108647800D01*
X148706800Y-109999700D02*
X167815800Y-109999700D01*
X173450000Y-115400000D02*
X173450000Y-114298300D01*
X147354900Y-108647800D02*
X148706800Y-109999700D01*
X145226000Y-108647800D02*
X147354900Y-108647800D01*
%TO.N,/PAGE_WR*%
X109784800Y-108325600D02*
X106493300Y-108325600D01*
X105690000Y-107522300D02*
X105148500Y-107522300D01*
X149525200Y-106835800D02*
X148928300Y-106238900D01*
X105268600Y-107522300D02*
X105148500Y-107522300D01*
X148725000Y-108257100D02*
X148909800Y-108441900D01*
X147532200Y-108257100D02*
X148725000Y-108257100D01*
X141895100Y-106238900D02*
X140442800Y-107691200D01*
X110130800Y-107979600D02*
X109784800Y-108325600D01*
X106493300Y-108325600D02*
X105690000Y-107522300D01*
X115216400Y-107691200D02*
X115071800Y-107835800D01*
X144289200Y-108238100D02*
X147513200Y-108238100D01*
X113727800Y-107835800D02*
X113584000Y-107979600D01*
X143060000Y-109750000D02*
X143060000Y-109467300D01*
X105148500Y-107522300D02*
X105268600Y-107522300D01*
X115071800Y-107835800D02*
X113727800Y-107835800D01*
X105690000Y-106100000D02*
X105690000Y-107522300D01*
X96353800Y-91963800D02*
X96353800Y-90554300D01*
X143060000Y-109467300D02*
X144289200Y-108238100D01*
X140442800Y-107691200D02*
X115216400Y-107691200D01*
X113584000Y-107979600D02*
X110130800Y-107979600D01*
X148928300Y-106238900D02*
X141895100Y-106238900D01*
X147513200Y-108238100D02*
X147532200Y-108257100D01*
X96590000Y-92200000D02*
X96353800Y-91963800D01*
%TO.N,Net-(U5-~{Q})*%
X106960000Y-106100000D02*
X106960000Y-106865500D01*
X103785000Y-106933900D02*
X103260700Y-107458200D01*
X170635000Y-105837200D02*
X175856500Y-111058700D01*
X113473400Y-107522200D02*
X113773600Y-107222000D01*
X106024200Y-104957700D02*
X104086100Y-104957700D01*
X103260700Y-107458200D02*
X102359000Y-107458200D01*
X110020100Y-107522200D02*
X113473400Y-107522200D01*
X141728800Y-105837200D02*
X170635000Y-105837200D01*
X140344000Y-107222000D02*
X141728800Y-105837200D01*
X97860000Y-92846400D02*
X97860000Y-92200000D01*
X113773600Y-107222000D02*
X140344000Y-107222000D01*
X98420000Y-93406400D02*
X97860000Y-92846400D01*
X103785000Y-105258800D02*
X103785000Y-106933900D01*
X106960000Y-106865500D02*
X108018400Y-107923900D01*
X108018400Y-107923900D02*
X109618400Y-107923900D01*
X174750000Y-115400000D02*
X174750000Y-114298300D01*
X106960000Y-106100000D02*
X106960000Y-105893500D01*
X104086100Y-104957700D02*
X103785000Y-105258800D01*
X175856500Y-111058700D02*
X175856500Y-113191800D01*
X106960000Y-105893500D02*
X106024200Y-104957700D01*
X109618400Y-107923900D02*
X110020100Y-107522200D01*
X175856500Y-113191800D02*
X174750000Y-114298300D01*
%TD*%
%TA.AperFunction,Conductor*%
%TO.N,GND*%
G36*
X127474075Y-123292993D02*
G01*
X127539901Y-123407007D01*
X127632993Y-123500099D01*
X127747007Y-123565925D01*
X127810590Y-123582962D01*
X127178282Y-124215269D01*
X127178282Y-124215270D01*
X127232452Y-124254626D01*
X127232451Y-124254626D01*
X127252841Y-124265015D01*
X127303638Y-124312989D01*
X127320433Y-124380810D01*
X127297896Y-124446945D01*
X127243181Y-124490397D01*
X127196547Y-124499500D01*
X126144555Y-124499500D01*
X126077516Y-124479815D01*
X126031761Y-124427011D01*
X126021817Y-124357853D01*
X126050842Y-124294297D01*
X126088261Y-124265015D01*
X126094796Y-124261684D01*
X126107816Y-124255051D01*
X126194138Y-124192335D01*
X126279786Y-124130109D01*
X126279788Y-124130106D01*
X126279792Y-124130104D01*
X126430104Y-123979792D01*
X126430106Y-123979788D01*
X126430109Y-123979786D01*
X126515890Y-123861717D01*
X126555051Y-123807816D01*
X126559793Y-123798508D01*
X126607763Y-123747711D01*
X126675583Y-123730911D01*
X126741719Y-123753445D01*
X126780763Y-123798500D01*
X126785373Y-123807547D01*
X126824728Y-123861716D01*
X127457036Y-123229407D01*
X127474075Y-123292993D01*
G37*
%TD.AperFunction*%
%TA.AperFunction,Conductor*%
G36*
X129055270Y-123861717D02*
G01*
X129055270Y-123861716D01*
X129094622Y-123807555D01*
X129099232Y-123798507D01*
X129147205Y-123747709D01*
X129215025Y-123730912D01*
X129281161Y-123753447D01*
X129320204Y-123798504D01*
X129324949Y-123807817D01*
X129449890Y-123979786D01*
X129600213Y-124130109D01*
X129772182Y-124255050D01*
X129791739Y-124265015D01*
X129842536Y-124312989D01*
X129859331Y-124380810D01*
X129836794Y-124446945D01*
X129782079Y-124490397D01*
X129735445Y-124499500D01*
X128683453Y-124499500D01*
X128616414Y-124479815D01*
X128570659Y-124427011D01*
X128560715Y-124357853D01*
X128589740Y-124294297D01*
X128627159Y-124265015D01*
X128647552Y-124254624D01*
X128701716Y-124215270D01*
X128701717Y-124215270D01*
X128069408Y-123582962D01*
X128132993Y-123565925D01*
X128247007Y-123500099D01*
X128340099Y-123407007D01*
X128405925Y-123292993D01*
X128422962Y-123229409D01*
X129055270Y-123861717D01*
G37*
%TD.AperFunction*%
%TA.AperFunction,Conductor*%
G36*
X122025241Y-80520185D02*
G01*
X122070996Y-80572989D01*
X122080940Y-80642147D01*
X122051915Y-80705703D01*
X122045883Y-80712181D01*
X121575365Y-81182698D01*
X121514042Y-81216183D01*
X121444350Y-81211199D01*
X121418793Y-81198119D01*
X121305485Y-81122409D01*
X121305472Y-81122402D01*
X121159801Y-81062064D01*
X121159789Y-81062061D01*
X121005145Y-81031300D01*
X121005142Y-81031300D01*
X120847458Y-81031300D01*
X120847455Y-81031300D01*
X120692810Y-81062061D01*
X120692798Y-81062064D01*
X120547127Y-81122402D01*
X120547114Y-81122409D01*
X120415425Y-81210402D01*
X120348747Y-81231280D01*
X120346534Y-81231300D01*
X113664842Y-81231300D01*
X113512113Y-81272223D01*
X113479281Y-81291180D01*
X113479280Y-81291180D01*
X113375187Y-81351277D01*
X113375182Y-81351281D01*
X109188283Y-85538181D01*
X109126960Y-85571666D01*
X109100602Y-85574500D01*
X108674298Y-85574500D01*
X108637432Y-85577401D01*
X108637426Y-85577402D01*
X108479606Y-85623254D01*
X108479603Y-85623255D01*
X108338137Y-85706917D01*
X108331969Y-85711702D01*
X108330072Y-85709256D01*
X108281358Y-85735857D01*
X108211666Y-85730873D01*
X108179296Y-85710069D01*
X108178031Y-85711702D01*
X108171862Y-85706917D01*
X108080349Y-85652797D01*
X108030398Y-85623256D01*
X108030397Y-85623255D01*
X108030396Y-85623255D01*
X108030393Y-85623254D01*
X107872573Y-85577402D01*
X107872567Y-85577401D01*
X107835701Y-85574500D01*
X107835694Y-85574500D01*
X107404306Y-85574500D01*
X107404298Y-85574500D01*
X107367432Y-85577401D01*
X107367426Y-85577402D01*
X107209606Y-85623254D01*
X107209603Y-85623255D01*
X107068137Y-85706917D01*
X107061969Y-85711702D01*
X107060072Y-85709256D01*
X107011358Y-85735857D01*
X106941666Y-85730873D01*
X106909296Y-85710069D01*
X106908031Y-85711702D01*
X106901862Y-85706917D01*
X106810349Y-85652797D01*
X106760398Y-85623256D01*
X106760397Y-85623255D01*
X106760396Y-85623255D01*
X106760393Y-85623254D01*
X106602573Y-85577402D01*
X106602567Y-85577401D01*
X106565701Y-85574500D01*
X106565694Y-85574500D01*
X106134306Y-85574500D01*
X106134298Y-85574500D01*
X106097432Y-85577401D01*
X106097426Y-85577402D01*
X105939606Y-85623254D01*
X105939603Y-85623255D01*
X105798137Y-85706917D01*
X105798129Y-85706923D01*
X105681923Y-85823129D01*
X105681917Y-85823137D01*
X105598255Y-85964603D01*
X105598254Y-85964606D01*
X105552402Y-86122426D01*
X105552401Y-86122432D01*
X105549500Y-86159298D01*
X105549500Y-86225500D01*
X105529815Y-86292539D01*
X105477011Y-86338294D01*
X105425500Y-86349500D01*
X105094378Y-86349500D01*
X105027339Y-86329815D01*
X104988839Y-86290597D01*
X104967712Y-86256344D01*
X104843656Y-86132288D01*
X104694334Y-86040186D01*
X104527797Y-85985001D01*
X104527795Y-85985000D01*
X104425010Y-85974500D01*
X103374998Y-85974500D01*
X103374980Y-85974501D01*
X103272203Y-85985000D01*
X103272200Y-85985001D01*
X103105668Y-86040185D01*
X103105663Y-86040187D01*
X102956342Y-86132289D01*
X102832289Y-86256342D01*
X102832288Y-86256344D01*
X102813711Y-86286463D01*
X102811161Y-86290597D01*
X102759213Y-86337321D01*
X102705622Y-86349500D01*
X95803580Y-86349500D01*
X95658592Y-86378340D01*
X95658582Y-86378343D01*
X95522008Y-86434914D01*
X95522005Y-86434915D01*
X95522005Y-86434916D01*
X95490428Y-86456015D01*
X95490427Y-86456014D01*
X95399089Y-86517044D01*
X95399080Y-86517051D01*
X95265405Y-86650724D01*
X95204082Y-86684208D01*
X95201918Y-86684659D01*
X95154938Y-86694004D01*
X95154931Y-86694006D01*
X94991059Y-86761883D01*
X94991046Y-86761890D01*
X94843565Y-86860435D01*
X94843561Y-86860438D01*
X94718138Y-86985861D01*
X94718135Y-86985865D01*
X94619590Y-87133346D01*
X94619583Y-87133359D01*
X94551706Y-87297231D01*
X94551704Y-87297237D01*
X94542359Y-87344219D01*
X94509973Y-87406130D01*
X94508423Y-87407707D01*
X90927049Y-90989081D01*
X90883554Y-91054176D01*
X90883555Y-91054177D01*
X90844914Y-91112008D01*
X90788342Y-91248584D01*
X90788339Y-91248593D01*
X90781320Y-91283885D01*
X90778784Y-91294273D01*
X90777824Y-91297579D01*
X90740226Y-91356470D01*
X90676757Y-91385685D01*
X90658743Y-91387000D01*
X90171248Y-91387000D01*
X90104209Y-91367315D01*
X90073468Y-91336002D01*
X90072193Y-91337011D01*
X90067711Y-91331343D01*
X89943657Y-91207289D01*
X89943656Y-91207288D01*
X89840007Y-91143357D01*
X89794336Y-91115187D01*
X89794331Y-91115185D01*
X89743167Y-91098231D01*
X89627797Y-91060001D01*
X89627795Y-91060000D01*
X89525010Y-91049500D01*
X88474998Y-91049500D01*
X88474980Y-91049501D01*
X88372203Y-91060000D01*
X88372200Y-91060001D01*
X88205668Y-91115185D01*
X88205663Y-91115187D01*
X88056342Y-91207289D01*
X87932289Y-91331342D01*
X87840187Y-91480663D01*
X87840185Y-91480668D01*
X87814238Y-91558973D01*
X87785001Y-91647203D01*
X87785001Y-91647204D01*
X87785000Y-91647204D01*
X87774500Y-91749983D01*
X87774500Y-92525001D01*
X87774501Y-92525019D01*
X87785000Y-92627796D01*
X87785001Y-92627799D01*
X87840185Y-92794331D01*
X87840187Y-92794336D01*
X87853988Y-92816711D01*
X87932288Y-92943656D01*
X88056344Y-93067712D01*
X88059628Y-93069737D01*
X88059653Y-93069753D01*
X88061445Y-93071746D01*
X88062011Y-93072193D01*
X88061934Y-93072289D01*
X88106379Y-93121699D01*
X88117603Y-93190661D01*
X88089761Y-93254744D01*
X88059665Y-93280826D01*
X88056660Y-93282679D01*
X88056655Y-93282683D01*
X87932684Y-93406654D01*
X87840643Y-93555875D01*
X87840641Y-93555880D01*
X87785494Y-93722302D01*
X87785493Y-93722309D01*
X87775000Y-93825013D01*
X87775000Y-93962500D01*
X90224999Y-93962500D01*
X90224999Y-93825028D01*
X90224998Y-93825013D01*
X90214505Y-93722302D01*
X90159358Y-93555880D01*
X90159356Y-93555875D01*
X90067315Y-93406654D01*
X89943344Y-93282683D01*
X89943341Y-93282681D01*
X89940339Y-93280829D01*
X89938713Y-93279021D01*
X89937677Y-93278202D01*
X89937817Y-93278024D01*
X89893617Y-93228880D01*
X89882397Y-93159917D01*
X89910243Y-93095836D01*
X89918431Y-93086944D01*
X89928411Y-93077114D01*
X89943656Y-93067712D01*
X90067712Y-92943656D01*
X90073570Y-92934157D01*
X90084239Y-92923651D01*
X90102370Y-92913929D01*
X90117665Y-92900175D01*
X90135645Y-92896089D01*
X90145817Y-92890636D01*
X90156071Y-92891448D01*
X90171248Y-92888000D01*
X90622426Y-92888000D01*
X90689465Y-92907685D01*
X90735220Y-92960489D01*
X90741502Y-92977405D01*
X90782316Y-93117889D01*
X90782320Y-93117896D01*
X90864369Y-93256636D01*
X90864378Y-93256648D01*
X90978351Y-93370621D01*
X90978355Y-93370624D01*
X90978357Y-93370626D01*
X90978360Y-93370627D01*
X90978363Y-93370630D01*
X91046378Y-93410853D01*
X91117106Y-93452681D01*
X91157928Y-93464541D01*
X91271897Y-93497653D01*
X91271900Y-93497653D01*
X91271902Y-93497654D01*
X91308065Y-93500500D01*
X91711934Y-93500499D01*
X91748098Y-93497654D01*
X91902894Y-93452681D01*
X92041643Y-93370626D01*
X92057317Y-93354952D01*
X92118639Y-93321465D01*
X92188331Y-93326448D01*
X92232683Y-93354952D01*
X92248357Y-93370626D01*
X92248361Y-93370628D01*
X92248363Y-93370630D01*
X92316378Y-93410853D01*
X92387106Y-93452681D01*
X92427928Y-93464541D01*
X92541897Y-93497653D01*
X92541900Y-93497653D01*
X92541902Y-93497654D01*
X92578065Y-93500500D01*
X92950402Y-93500499D01*
X92979848Y-93509145D01*
X93009829Y-93515667D01*
X93014842Y-93519419D01*
X93017441Y-93520183D01*
X93038083Y-93536818D01*
X93189439Y-93688174D01*
X93189449Y-93688185D01*
X93193779Y-93692515D01*
X93193780Y-93692516D01*
X93305584Y-93804320D01*
X93379162Y-93846800D01*
X93442515Y-93883377D01*
X93595242Y-93924300D01*
X93595243Y-93924300D01*
X94278831Y-93924300D01*
X94278847Y-93924301D01*
X94286443Y-93924301D01*
X94444554Y-93924301D01*
X94444557Y-93924301D01*
X94597285Y-93883377D01*
X94660638Y-93846800D01*
X94734216Y-93804320D01*
X94846020Y-93692516D01*
X94846020Y-93692514D01*
X94856223Y-93682312D01*
X94856227Y-93682306D01*
X95003452Y-93535081D01*
X95064773Y-93501598D01*
X95100859Y-93499146D01*
X95102525Y-93499277D01*
X95118065Y-93500500D01*
X95521934Y-93500499D01*
X95527180Y-93500086D01*
X95595556Y-93514451D01*
X95624588Y-93536023D01*
X95965339Y-93876774D01*
X95965349Y-93876785D01*
X95969679Y-93881115D01*
X95969680Y-93881116D01*
X96081484Y-93992920D01*
X96081486Y-93992921D01*
X96081490Y-93992924D01*
X96148997Y-94031899D01*
X96149001Y-94031900D01*
X96149002Y-94031901D01*
X96179098Y-94049277D01*
X96218412Y-94071976D01*
X96218414Y-94071976D01*
X96218415Y-94071977D01*
X96371143Y-94112900D01*
X96529257Y-94112900D01*
X96856534Y-94112900D01*
X96923573Y-94132585D01*
X96925425Y-94133798D01*
X97057114Y-94221790D01*
X97057127Y-94221797D01*
X97202798Y-94282135D01*
X97202803Y-94282137D01*
X97357453Y-94312899D01*
X97357456Y-94312900D01*
X97357458Y-94312900D01*
X97515144Y-94312900D01*
X97515145Y-94312899D01*
X97669797Y-94282137D01*
X97815479Y-94221794D01*
X97944536Y-94135560D01*
X98011212Y-94114683D01*
X98060878Y-94124102D01*
X98186498Y-94176135D01*
X98186503Y-94176137D01*
X98301895Y-94199090D01*
X98341153Y-94206899D01*
X98341156Y-94206900D01*
X98341158Y-94206900D01*
X98498844Y-94206900D01*
X98498845Y-94206899D01*
X98653497Y-94176137D01*
X98799179Y-94115794D01*
X98823876Y-94099292D01*
X98892412Y-94053498D01*
X98959089Y-94032620D01*
X99026470Y-94051104D01*
X99048984Y-94068919D01*
X99418227Y-94438162D01*
X99451712Y-94499485D01*
X99452165Y-94550027D01*
X99448500Y-94568457D01*
X99448500Y-94726146D01*
X99479261Y-94880789D01*
X99479264Y-94880801D01*
X99539602Y-95026472D01*
X99539609Y-95026485D01*
X99627210Y-95157588D01*
X99627213Y-95157592D01*
X99738707Y-95269086D01*
X99738711Y-95269089D01*
X99869814Y-95356690D01*
X99869827Y-95356697D01*
X100015498Y-95417035D01*
X100015503Y-95417037D01*
X100170153Y-95447799D01*
X100170156Y-95447800D01*
X100170158Y-95447800D01*
X100327844Y-95447800D01*
X100327845Y-95447799D01*
X100482497Y-95417037D01*
X100615017Y-95362146D01*
X100628172Y-95356697D01*
X100628172Y-95356696D01*
X100628179Y-95356694D01*
X100759289Y-95269089D01*
X100870789Y-95157589D01*
X100958394Y-95026479D01*
X101018737Y-94880797D01*
X101049500Y-94726142D01*
X101049500Y-94568458D01*
X101049500Y-94568457D01*
X101049500Y-94568455D01*
X101049499Y-94568453D01*
X101038581Y-94513564D01*
X101018737Y-94413803D01*
X101018735Y-94413798D01*
X100958397Y-94268127D01*
X100958390Y-94268114D01*
X100870789Y-94137011D01*
X100870786Y-94137007D01*
X100759292Y-94025513D01*
X100759288Y-94025510D01*
X100628185Y-93937909D01*
X100622809Y-93935036D01*
X100623366Y-93933992D01*
X100590699Y-93912164D01*
X100390715Y-93712180D01*
X100357230Y-93650857D01*
X100362214Y-93581165D01*
X100404086Y-93525232D01*
X100469550Y-93500815D01*
X100478387Y-93500499D01*
X100601934Y-93500499D01*
X100638098Y-93497654D01*
X100792894Y-93452681D01*
X100931643Y-93370626D01*
X101045626Y-93256643D01*
X101127681Y-93117894D01*
X101168994Y-92975697D01*
X101172653Y-92963102D01*
X101172653Y-92963101D01*
X101172654Y-92963098D01*
X101173349Y-92954264D01*
X101198229Y-92888975D01*
X101254458Y-92847501D01*
X101321159Y-92842370D01*
X101403755Y-92858800D01*
X101403758Y-92858800D01*
X101561444Y-92858800D01*
X101561445Y-92858799D01*
X101716097Y-92828037D01*
X101861779Y-92767694D01*
X101992889Y-92680089D01*
X102104389Y-92568589D01*
X102191994Y-92437479D01*
X102252337Y-92291797D01*
X102283100Y-92137142D01*
X102283100Y-91979458D01*
X102283100Y-91979455D01*
X102283099Y-91979453D01*
X102275031Y-91938892D01*
X102252337Y-91824803D01*
X102252335Y-91824798D01*
X102191997Y-91679127D01*
X102191990Y-91679114D01*
X102104389Y-91548011D01*
X102104386Y-91548007D01*
X101992892Y-91436513D01*
X101992888Y-91436510D01*
X101861785Y-91348909D01*
X101861772Y-91348902D01*
X101774518Y-91312761D01*
X101720114Y-91268920D01*
X101698049Y-91202626D01*
X101715328Y-91134927D01*
X101766465Y-91087316D01*
X101821970Y-91074200D01*
X102626834Y-91074200D01*
X102693873Y-91093885D01*
X102695725Y-91095098D01*
X102827414Y-91183090D01*
X102827427Y-91183097D01*
X102973098Y-91243435D01*
X102973103Y-91243437D01*
X103101214Y-91268920D01*
X103127753Y-91274199D01*
X103127756Y-91274200D01*
X103127758Y-91274200D01*
X103285444Y-91274200D01*
X103285445Y-91274199D01*
X103440097Y-91243437D01*
X103571576Y-91188977D01*
X103585772Y-91183097D01*
X103585772Y-91183096D01*
X103585779Y-91183094D01*
X103716889Y-91095489D01*
X103828389Y-90983989D01*
X103915994Y-90852879D01*
X103924934Y-90831297D01*
X103976335Y-90707201D01*
X103976337Y-90707197D01*
X104007100Y-90552542D01*
X104007100Y-90394858D01*
X104002790Y-90373189D01*
X104009019Y-90303597D01*
X104051882Y-90248420D01*
X104117772Y-90225177D01*
X104124408Y-90224999D01*
X104424972Y-90224999D01*
X104424986Y-90224998D01*
X104527697Y-90214505D01*
X104694119Y-90159358D01*
X104694124Y-90159356D01*
X104843345Y-90067315D01*
X104967315Y-89943345D01*
X105059356Y-89794124D01*
X105059359Y-89794117D01*
X105071420Y-89757720D01*
X105111192Y-89700275D01*
X105175708Y-89673451D01*
X105244484Y-89685766D01*
X105276805Y-89709041D01*
X107047684Y-91479920D01*
X107047686Y-91479921D01*
X107047690Y-91479924D01*
X107184609Y-91558973D01*
X107184612Y-91558975D01*
X107184616Y-91558977D01*
X107337343Y-91599901D01*
X107337345Y-91599901D01*
X107503054Y-91599901D01*
X107503070Y-91599900D01*
X108401131Y-91599900D01*
X108401147Y-91599901D01*
X108408743Y-91599901D01*
X108566854Y-91599901D01*
X108566857Y-91599901D01*
X108719585Y-91558977D01*
X108774605Y-91527211D01*
X108856516Y-91479920D01*
X108968320Y-91368116D01*
X108968321Y-91368114D01*
X109040218Y-91296216D01*
X109101540Y-91262734D01*
X109127897Y-91259900D01*
X119319331Y-91259900D01*
X119319347Y-91259901D01*
X119326943Y-91259901D01*
X119485054Y-91259901D01*
X119485057Y-91259901D01*
X119637785Y-91218977D01*
X119705639Y-91179801D01*
X119774716Y-91139920D01*
X119792125Y-91122510D01*
X119802638Y-91115579D01*
X119824485Y-91108884D01*
X119844540Y-91097934D01*
X119868700Y-91095336D01*
X119869442Y-91095109D01*
X119869821Y-91095215D01*
X119870898Y-91095100D01*
X119934189Y-91095100D01*
X119996188Y-91111713D01*
X120117325Y-91181650D01*
X120130016Y-91188977D01*
X120282743Y-91229901D01*
X120282745Y-91229901D01*
X120448454Y-91229901D01*
X120448470Y-91229900D01*
X121155231Y-91229900D01*
X121155247Y-91229901D01*
X121162843Y-91229901D01*
X121320954Y-91229901D01*
X121320957Y-91229901D01*
X121473685Y-91188977D01*
X121528417Y-91157377D01*
X121610616Y-91109920D01*
X121722420Y-90998116D01*
X121722420Y-90998115D01*
X121739848Y-90980687D01*
X121739853Y-90980680D01*
X121833844Y-90886689D01*
X121889429Y-90854598D01*
X121926085Y-90844777D01*
X121999456Y-90802416D01*
X122063016Y-90765720D01*
X122174820Y-90653916D01*
X122174820Y-90653914D01*
X122185024Y-90643711D01*
X122185027Y-90643706D01*
X124166916Y-88661819D01*
X124228239Y-88628334D01*
X124254597Y-88625500D01*
X124345686Y-88625500D01*
X124345694Y-88625500D01*
X124382569Y-88622598D01*
X124382571Y-88622597D01*
X124382573Y-88622597D01*
X124450297Y-88602921D01*
X124540398Y-88576744D01*
X124681865Y-88493081D01*
X124681870Y-88493075D01*
X124688031Y-88488298D01*
X124689933Y-88490750D01*
X124738579Y-88464155D01*
X124808274Y-88469104D01*
X124840695Y-88489940D01*
X124841969Y-88488298D01*
X124848132Y-88493078D01*
X124848135Y-88493081D01*
X124989602Y-88576744D01*
X125031224Y-88588836D01*
X125147426Y-88622597D01*
X125147429Y-88622597D01*
X125147431Y-88622598D01*
X125184306Y-88625500D01*
X125184314Y-88625500D01*
X125615686Y-88625500D01*
X125615694Y-88625500D01*
X125652569Y-88622598D01*
X125652571Y-88622597D01*
X125652573Y-88622597D01*
X125720297Y-88602921D01*
X125810398Y-88576744D01*
X125951865Y-88493081D01*
X126068081Y-88376865D01*
X126151744Y-88235398D01*
X126197598Y-88077569D01*
X126200500Y-88040694D01*
X126200500Y-87624986D01*
X128975001Y-87624986D01*
X128985494Y-87727697D01*
X129040641Y-87894119D01*
X129040643Y-87894124D01*
X129132684Y-88043345D01*
X129256654Y-88167315D01*
X129405875Y-88259356D01*
X129405880Y-88259358D01*
X129572302Y-88314505D01*
X129572309Y-88314506D01*
X129675019Y-88324999D01*
X129949999Y-88324999D01*
X130450000Y-88324999D01*
X130724972Y-88324999D01*
X130724986Y-88324998D01*
X130827697Y-88314505D01*
X130994119Y-88259358D01*
X130994124Y-88259356D01*
X131143345Y-88167315D01*
X131267315Y-88043345D01*
X131359356Y-87894124D01*
X131359358Y-87894119D01*
X131414505Y-87727697D01*
X131414506Y-87727690D01*
X131424999Y-87624986D01*
X131425000Y-87624973D01*
X131425000Y-87487500D01*
X130450000Y-87487500D01*
X130450000Y-88324999D01*
X129949999Y-88324999D01*
X129950000Y-88324998D01*
X129950000Y-87487500D01*
X128975001Y-87487500D01*
X128975001Y-87624986D01*
X126200500Y-87624986D01*
X126200500Y-87200096D01*
X126220185Y-87133057D01*
X126236810Y-87112424D01*
X126352910Y-86996324D01*
X126414228Y-86962842D01*
X126483920Y-86967826D01*
X126509478Y-86980906D01*
X126570821Y-87021894D01*
X126570823Y-87021895D01*
X126570827Y-87021897D01*
X126716498Y-87082235D01*
X126716503Y-87082237D01*
X126868217Y-87112415D01*
X126871153Y-87112999D01*
X126871156Y-87113000D01*
X126871158Y-87113000D01*
X127028844Y-87113000D01*
X127028845Y-87112999D01*
X127183497Y-87082237D01*
X127329179Y-87021894D01*
X127367443Y-86996327D01*
X127460875Y-86933898D01*
X127527553Y-86913020D01*
X127529766Y-86913000D01*
X128851000Y-86913000D01*
X128918039Y-86932685D01*
X128936208Y-86953653D01*
X128938681Y-86951181D01*
X128975000Y-86987500D01*
X131424999Y-86987500D01*
X131461318Y-86951181D01*
X131463657Y-86953520D01*
X131497488Y-86924206D01*
X131548999Y-86913000D01*
X142565903Y-86913000D01*
X142632942Y-86932685D01*
X142653584Y-86949319D01*
X143081984Y-87377719D01*
X143115469Y-87439042D01*
X143110485Y-87508734D01*
X143068613Y-87564667D01*
X143003149Y-87589084D01*
X142994303Y-87589400D01*
X136084943Y-87589400D01*
X135932213Y-87630323D01*
X135894469Y-87652116D01*
X135894468Y-87652116D01*
X135795287Y-87709377D01*
X135795282Y-87709381D01*
X132301739Y-91202925D01*
X132240416Y-91236410D01*
X132238250Y-91236861D01*
X132082908Y-91267761D01*
X132082898Y-91267764D01*
X131937227Y-91328102D01*
X131937214Y-91328109D01*
X131806111Y-91415710D01*
X131806107Y-91415713D01*
X131694613Y-91527207D01*
X131694611Y-91527210D01*
X131607009Y-91658314D01*
X131607002Y-91658327D01*
X131546664Y-91803998D01*
X131546661Y-91804008D01*
X131519831Y-91938892D01*
X131487446Y-92000803D01*
X131426730Y-92035377D01*
X131398214Y-92038700D01*
X126461606Y-92038700D01*
X126394567Y-92019015D01*
X126348812Y-91966211D01*
X126347058Y-91962184D01*
X126346494Y-91960821D01*
X126331841Y-91938892D01*
X126258889Y-91829711D01*
X126258886Y-91829707D01*
X126147392Y-91718213D01*
X126147388Y-91718210D01*
X126016285Y-91630609D01*
X126016272Y-91630602D01*
X125870601Y-91570264D01*
X125870589Y-91570261D01*
X125715945Y-91539500D01*
X125715942Y-91539500D01*
X125558258Y-91539500D01*
X125558255Y-91539500D01*
X125403610Y-91570261D01*
X125403598Y-91570264D01*
X125257927Y-91630602D01*
X125257914Y-91630609D01*
X125126811Y-91718210D01*
X125126807Y-91718213D01*
X125015313Y-91829707D01*
X125015307Y-91829715D01*
X125009521Y-91838374D01*
X124955907Y-91883177D01*
X124886581Y-91891881D01*
X124823555Y-91861724D01*
X124803320Y-91838370D01*
X124748289Y-91756011D01*
X124748286Y-91756007D01*
X124636792Y-91644513D01*
X124636788Y-91644510D01*
X124505685Y-91556909D01*
X124505672Y-91556902D01*
X124360001Y-91496564D01*
X124359989Y-91496561D01*
X124205345Y-91465800D01*
X124205342Y-91465800D01*
X124047658Y-91465800D01*
X124047655Y-91465800D01*
X123893010Y-91496561D01*
X123892998Y-91496564D01*
X123747327Y-91556902D01*
X123747314Y-91556909D01*
X123616211Y-91644510D01*
X123616207Y-91644513D01*
X123504713Y-91756007D01*
X123504710Y-91756011D01*
X123417109Y-91887114D01*
X123417102Y-91887127D01*
X123356764Y-92032798D01*
X123356761Y-92032808D01*
X123325861Y-92188150D01*
X123293476Y-92250061D01*
X123291925Y-92251639D01*
X122591384Y-92952181D01*
X122530061Y-92985666D01*
X122503703Y-92988500D01*
X105209666Y-92988500D01*
X105142627Y-92968815D01*
X105140775Y-92967602D01*
X105009085Y-92879609D01*
X105009072Y-92879602D01*
X104863401Y-92819264D01*
X104863389Y-92819261D01*
X104708745Y-92788500D01*
X104708742Y-92788500D01*
X104551058Y-92788500D01*
X104551055Y-92788500D01*
X104396410Y-92819261D01*
X104396398Y-92819264D01*
X104250727Y-92879602D01*
X104250714Y-92879609D01*
X104119611Y-92967210D01*
X104119607Y-92967213D01*
X104008113Y-93078707D01*
X104008110Y-93078711D01*
X103920509Y-93209814D01*
X103920502Y-93209827D01*
X103860164Y-93355498D01*
X103860161Y-93355510D01*
X103829400Y-93510153D01*
X103829400Y-93667846D01*
X103860161Y-93822489D01*
X103860164Y-93822501D01*
X103920502Y-93968172D01*
X103920509Y-93968185D01*
X104008110Y-94099288D01*
X104008113Y-94099292D01*
X104119607Y-94210786D01*
X104119611Y-94210789D01*
X104250714Y-94298390D01*
X104250727Y-94298397D01*
X104396398Y-94358735D01*
X104396403Y-94358737D01*
X104551053Y-94389499D01*
X104551056Y-94389500D01*
X104551058Y-94389500D01*
X104708744Y-94389500D01*
X104708745Y-94389499D01*
X104863397Y-94358737D01*
X105009079Y-94298394D01*
X105067381Y-94259438D01*
X105140775Y-94210398D01*
X105207453Y-94189520D01*
X105209666Y-94189500D01*
X122717131Y-94189500D01*
X122717147Y-94189501D01*
X122724743Y-94189501D01*
X122882854Y-94189501D01*
X122882857Y-94189501D01*
X123035585Y-94148577D01*
X123099823Y-94111489D01*
X123172516Y-94069520D01*
X123284320Y-93957716D01*
X123284320Y-93957714D01*
X123294524Y-93947511D01*
X123294527Y-93947506D01*
X124141162Y-93100872D01*
X124202483Y-93067389D01*
X124204650Y-93066938D01*
X124262585Y-93055413D01*
X124359997Y-93036037D01*
X124505679Y-92975694D01*
X124636789Y-92888089D01*
X124748289Y-92776589D01*
X124754073Y-92767931D01*
X124807683Y-92723126D01*
X124877007Y-92714416D01*
X124940036Y-92744568D01*
X124960279Y-92767929D01*
X125015310Y-92850288D01*
X125015313Y-92850292D01*
X125126807Y-92961786D01*
X125126811Y-92961789D01*
X125257914Y-93049390D01*
X125257927Y-93049397D01*
X125298795Y-93066325D01*
X125353199Y-93110166D01*
X125375264Y-93176460D01*
X125365905Y-93228335D01*
X125354968Y-93254744D01*
X125354362Y-93256206D01*
X125354360Y-93256211D01*
X125323600Y-93410853D01*
X125323600Y-93568546D01*
X125354361Y-93723189D01*
X125354364Y-93723201D01*
X125414702Y-93868872D01*
X125414709Y-93868885D01*
X125502310Y-93999988D01*
X125502313Y-93999992D01*
X125613807Y-94111486D01*
X125613811Y-94111489D01*
X125744914Y-94199090D01*
X125744927Y-94199097D01*
X125890598Y-94259435D01*
X125890603Y-94259437D01*
X126004713Y-94282135D01*
X126045253Y-94290199D01*
X126045256Y-94290200D01*
X126045258Y-94290200D01*
X126202944Y-94290200D01*
X126202945Y-94290199D01*
X126357597Y-94259437D01*
X126503279Y-94199094D01*
X126503285Y-94199090D01*
X126634975Y-94111098D01*
X126701653Y-94090220D01*
X126703866Y-94090200D01*
X175240731Y-94090200D01*
X175240747Y-94090201D01*
X175248343Y-94090201D01*
X175406454Y-94090201D01*
X175406457Y-94090201D01*
X175559185Y-94049277D01*
X175638180Y-94003669D01*
X175696116Y-93970220D01*
X175726513Y-93939822D01*
X175734844Y-93933869D01*
X175758550Y-93925619D01*
X175780583Y-93913588D01*
X175782752Y-93913137D01*
X175783441Y-93913000D01*
X175783442Y-93913000D01*
X175938097Y-93882237D01*
X176083779Y-93821894D01*
X176214889Y-93734289D01*
X176326389Y-93622789D01*
X176413994Y-93491679D01*
X176414142Y-93491323D01*
X176449212Y-93406654D01*
X176474337Y-93345997D01*
X176505100Y-93191342D01*
X176505100Y-93033658D01*
X176505100Y-93033655D01*
X176505099Y-93033653D01*
X176495554Y-92985666D01*
X176474337Y-92879003D01*
X176470407Y-92869515D01*
X176413997Y-92733327D01*
X176413990Y-92733314D01*
X176326389Y-92602211D01*
X176326386Y-92602207D01*
X176214892Y-92490713D01*
X176214888Y-92490710D01*
X176083785Y-92403109D01*
X176083772Y-92403102D01*
X175938101Y-92342764D01*
X175938089Y-92342761D01*
X175783445Y-92312000D01*
X175783442Y-92312000D01*
X175625758Y-92312000D01*
X175625755Y-92312000D01*
X175471110Y-92342761D01*
X175471098Y-92342764D01*
X175325427Y-92403102D01*
X175325414Y-92403109D01*
X175194311Y-92490710D01*
X175194307Y-92490713D01*
X175082813Y-92602207D01*
X175082810Y-92602211D01*
X174995209Y-92733314D01*
X174995202Y-92733327D01*
X174962346Y-92812652D01*
X174918506Y-92867056D01*
X174852212Y-92889121D01*
X174847785Y-92889200D01*
X148152997Y-92889200D01*
X148085958Y-92869515D01*
X148040203Y-92816711D01*
X148030259Y-92747553D01*
X148059284Y-92683997D01*
X148065316Y-92677519D01*
X149889963Y-90852872D01*
X151901664Y-88841171D01*
X151962985Y-88807688D01*
X151965152Y-88807237D01*
X151965841Y-88807100D01*
X151965842Y-88807100D01*
X152120497Y-88776337D01*
X152266179Y-88715994D01*
X152397289Y-88628389D01*
X152508789Y-88516889D01*
X152596394Y-88385779D01*
X152656737Y-88240097D01*
X152662604Y-88210603D01*
X152683569Y-88105208D01*
X152715954Y-88043297D01*
X152776670Y-88008723D01*
X152805186Y-88005400D01*
X157945703Y-88005400D01*
X158012742Y-88025085D01*
X158033384Y-88041719D01*
X158721739Y-88730074D01*
X158721749Y-88730085D01*
X158726079Y-88734415D01*
X158726080Y-88734416D01*
X158837884Y-88846220D01*
X158837886Y-88846221D01*
X158837890Y-88846224D01*
X158929817Y-88899297D01*
X158974816Y-88925277D01*
X159086619Y-88955234D01*
X159127542Y-88966200D01*
X159127543Y-88966200D01*
X160788667Y-88966200D01*
X160855706Y-88985885D01*
X160891769Y-89021309D01*
X160930710Y-89079588D01*
X160930713Y-89079592D01*
X161042207Y-89191086D01*
X161042211Y-89191089D01*
X161173314Y-89278690D01*
X161173327Y-89278697D01*
X161298487Y-89330539D01*
X161319003Y-89339037D01*
X161473653Y-89369799D01*
X161473656Y-89369800D01*
X161473658Y-89369800D01*
X161631344Y-89369800D01*
X161631345Y-89369799D01*
X161785997Y-89339037D01*
X161931679Y-89278694D01*
X162062789Y-89191089D01*
X162174289Y-89079589D01*
X162194737Y-89048985D01*
X162213231Y-89021309D01*
X162266843Y-88976504D01*
X162316333Y-88966200D01*
X177747631Y-88966200D01*
X177747647Y-88966201D01*
X177755243Y-88966201D01*
X177913354Y-88966201D01*
X177913357Y-88966201D01*
X178066085Y-88925277D01*
X178116204Y-88896339D01*
X178203016Y-88846220D01*
X178314820Y-88734416D01*
X178314820Y-88734414D01*
X178325028Y-88724207D01*
X178325030Y-88724204D01*
X180755478Y-86293755D01*
X180816799Y-86260272D01*
X180881473Y-86263506D01*
X180923757Y-86277246D01*
X181133713Y-86310500D01*
X181133714Y-86310500D01*
X181346286Y-86310500D01*
X181346287Y-86310500D01*
X181556243Y-86277246D01*
X181758412Y-86211557D01*
X181947816Y-86115051D01*
X181969789Y-86099086D01*
X182119786Y-85990109D01*
X182119788Y-85990106D01*
X182119792Y-85990104D01*
X182270104Y-85839792D01*
X182270106Y-85839788D01*
X182270109Y-85839786D01*
X182395048Y-85667820D01*
X182395047Y-85667820D01*
X182395051Y-85667816D01*
X182491557Y-85478412D01*
X182557246Y-85276243D01*
X182590500Y-85066287D01*
X182590500Y-84853713D01*
X182557246Y-84643757D01*
X182491557Y-84441588D01*
X182395051Y-84252184D01*
X182395049Y-84252181D01*
X182395048Y-84252179D01*
X182270109Y-84080213D01*
X182119786Y-83929890D01*
X181947820Y-83804951D01*
X181758414Y-83708444D01*
X181758413Y-83708443D01*
X181758412Y-83708443D01*
X181556243Y-83642754D01*
X181556241Y-83642753D01*
X181556240Y-83642753D01*
X181394957Y-83617208D01*
X181346287Y-83609500D01*
X181133713Y-83609500D01*
X181085042Y-83617208D01*
X180923760Y-83642753D01*
X180923757Y-83642754D01*
X180742689Y-83701587D01*
X180721585Y-83708444D01*
X180532179Y-83804951D01*
X180360213Y-83929890D01*
X180209890Y-84080213D01*
X180084949Y-84252182D01*
X180080484Y-84260946D01*
X180032509Y-84311742D01*
X179964688Y-84328536D01*
X179898553Y-84305998D01*
X179859516Y-84260946D01*
X179855050Y-84252182D01*
X179730109Y-84080213D01*
X179579786Y-83929890D01*
X179407820Y-83804951D01*
X179218414Y-83708444D01*
X179218413Y-83708443D01*
X179218412Y-83708443D01*
X179016243Y-83642754D01*
X179016241Y-83642753D01*
X179016240Y-83642753D01*
X178854957Y-83617208D01*
X178806287Y-83609500D01*
X178593713Y-83609500D01*
X178545042Y-83617208D01*
X178383760Y-83642753D01*
X178383757Y-83642754D01*
X178202689Y-83701587D01*
X178181585Y-83708444D01*
X177992179Y-83804951D01*
X177820213Y-83929890D01*
X177669890Y-84080213D01*
X177544949Y-84252182D01*
X177540484Y-84260946D01*
X177492509Y-84311742D01*
X177424688Y-84328536D01*
X177358553Y-84305998D01*
X177319516Y-84260946D01*
X177315050Y-84252182D01*
X177190109Y-84080213D01*
X177039786Y-83929890D01*
X176867820Y-83804951D01*
X176678414Y-83708444D01*
X176678413Y-83708443D01*
X176678412Y-83708443D01*
X176476243Y-83642754D01*
X176476241Y-83642753D01*
X176476240Y-83642753D01*
X176314957Y-83617208D01*
X176266287Y-83609500D01*
X176053713Y-83609500D01*
X176005042Y-83617208D01*
X175843760Y-83642753D01*
X175843757Y-83642754D01*
X175662689Y-83701587D01*
X175641585Y-83708444D01*
X175452179Y-83804951D01*
X175280213Y-83929890D01*
X175129890Y-84080213D01*
X175004949Y-84252182D01*
X175000484Y-84260946D01*
X174952509Y-84311742D01*
X174884688Y-84328536D01*
X174818553Y-84305998D01*
X174779516Y-84260946D01*
X174775050Y-84252182D01*
X174650109Y-84080213D01*
X174499786Y-83929890D01*
X174327820Y-83804951D01*
X174138414Y-83708444D01*
X174138413Y-83708443D01*
X174138412Y-83708443D01*
X173936243Y-83642754D01*
X173936241Y-83642753D01*
X173936240Y-83642753D01*
X173774957Y-83617208D01*
X173726287Y-83609500D01*
X173513713Y-83609500D01*
X173465042Y-83617208D01*
X173303760Y-83642753D01*
X173303757Y-83642754D01*
X173122689Y-83701587D01*
X173101585Y-83708444D01*
X172912179Y-83804951D01*
X172740213Y-83929890D01*
X172589890Y-84080213D01*
X172464949Y-84252182D01*
X172460484Y-84260946D01*
X172412509Y-84311742D01*
X172344688Y-84328536D01*
X172278553Y-84305998D01*
X172239516Y-84260946D01*
X172235050Y-84252182D01*
X172110109Y-84080213D01*
X171959786Y-83929890D01*
X171787820Y-83804951D01*
X171598414Y-83708444D01*
X171598413Y-83708443D01*
X171598412Y-83708443D01*
X171396243Y-83642754D01*
X171396241Y-83642753D01*
X171396240Y-83642753D01*
X171234957Y-83617208D01*
X171186287Y-83609500D01*
X170973713Y-83609500D01*
X170925042Y-83617208D01*
X170763760Y-83642753D01*
X170763757Y-83642754D01*
X170582689Y-83701587D01*
X170561585Y-83708444D01*
X170372179Y-83804951D01*
X170200213Y-83929890D01*
X170049890Y-84080213D01*
X169924949Y-84252182D01*
X169920484Y-84260946D01*
X169872509Y-84311742D01*
X169804688Y-84328536D01*
X169738553Y-84305998D01*
X169699516Y-84260946D01*
X169695050Y-84252182D01*
X169570109Y-84080213D01*
X169419786Y-83929890D01*
X169247820Y-83804951D01*
X169058414Y-83708444D01*
X169058413Y-83708443D01*
X169058412Y-83708443D01*
X168856243Y-83642754D01*
X168856241Y-83642753D01*
X168856240Y-83642753D01*
X168694957Y-83617208D01*
X168646287Y-83609500D01*
X168433713Y-83609500D01*
X168385042Y-83617208D01*
X168223760Y-83642753D01*
X168223757Y-83642754D01*
X168042689Y-83701587D01*
X168021585Y-83708444D01*
X167832179Y-83804951D01*
X167660213Y-83929890D01*
X167509890Y-84080213D01*
X167384949Y-84252182D01*
X167380484Y-84260946D01*
X167332509Y-84311742D01*
X167264688Y-84328536D01*
X167198553Y-84305998D01*
X167159516Y-84260946D01*
X167155050Y-84252182D01*
X167030109Y-84080213D01*
X166879786Y-83929890D01*
X166707820Y-83804951D01*
X166518414Y-83708444D01*
X166518413Y-83708443D01*
X166518412Y-83708443D01*
X166316243Y-83642754D01*
X166316241Y-83642753D01*
X166316240Y-83642753D01*
X166154957Y-83617208D01*
X166106287Y-83609500D01*
X165893713Y-83609500D01*
X165865006Y-83614046D01*
X165683757Y-83642753D01*
X165641473Y-83656492D01*
X165571632Y-83658486D01*
X165515476Y-83626241D01*
X164019084Y-82129849D01*
X163985599Y-82068526D01*
X163990583Y-81998834D01*
X164032455Y-81942901D01*
X164059308Y-81927609D01*
X164085179Y-81916894D01*
X164216289Y-81829289D01*
X164327789Y-81717789D01*
X164415394Y-81586679D01*
X164475737Y-81440997D01*
X164506500Y-81286342D01*
X164506500Y-81128658D01*
X164506500Y-81128655D01*
X164506499Y-81128653D01*
X164505256Y-81122402D01*
X164475737Y-80974003D01*
X164475735Y-80973998D01*
X164415397Y-80828327D01*
X164415390Y-80828314D01*
X164325237Y-80693391D01*
X164304359Y-80626713D01*
X164322843Y-80559333D01*
X164374822Y-80512643D01*
X164428339Y-80500500D01*
X187875500Y-80500500D01*
X187942539Y-80520185D01*
X187988294Y-80572989D01*
X187999500Y-80624500D01*
X187999500Y-124375500D01*
X187979815Y-124442539D01*
X187927011Y-124488294D01*
X187875500Y-124499500D01*
X187104555Y-124499500D01*
X187037516Y-124479815D01*
X186991761Y-124427011D01*
X186981817Y-124357853D01*
X187010842Y-124294297D01*
X187048261Y-124265015D01*
X187054796Y-124261684D01*
X187067816Y-124255051D01*
X187154138Y-124192335D01*
X187239786Y-124130109D01*
X187239788Y-124130106D01*
X187239792Y-124130104D01*
X187390104Y-123979792D01*
X187390106Y-123979788D01*
X187390109Y-123979786D01*
X187515048Y-123807820D01*
X187515047Y-123807820D01*
X187515051Y-123807816D01*
X187611557Y-123618412D01*
X187677246Y-123416243D01*
X187710500Y-123206287D01*
X187710500Y-122993713D01*
X187677246Y-122783757D01*
X187611557Y-122581588D01*
X187515051Y-122392184D01*
X187515049Y-122392181D01*
X187515048Y-122392179D01*
X187390109Y-122220213D01*
X187239786Y-122069890D01*
X187067820Y-121944951D01*
X186878414Y-121848444D01*
X186878413Y-121848443D01*
X186878412Y-121848443D01*
X186676243Y-121782754D01*
X186676241Y-121782753D01*
X186676240Y-121782753D01*
X186514957Y-121757208D01*
X186466287Y-121749500D01*
X186253713Y-121749500D01*
X186205042Y-121757208D01*
X186043760Y-121782753D01*
X185841585Y-121848444D01*
X185652179Y-121944951D01*
X185480213Y-122069890D01*
X185329890Y-122220213D01*
X185204949Y-122392182D01*
X185200484Y-122400946D01*
X185152509Y-122451742D01*
X185084688Y-122468536D01*
X185018553Y-122445998D01*
X184979516Y-122400946D01*
X184975050Y-122392182D01*
X184850109Y-122220213D01*
X184699786Y-122069890D01*
X184527820Y-121944951D01*
X184338414Y-121848444D01*
X184338413Y-121848443D01*
X184338412Y-121848443D01*
X184136243Y-121782754D01*
X184136241Y-121782753D01*
X184136240Y-121782753D01*
X183974957Y-121757208D01*
X183926287Y-121749500D01*
X183713713Y-121749500D01*
X183665042Y-121757208D01*
X183503760Y-121782753D01*
X183301585Y-121848444D01*
X183112179Y-121944951D01*
X182940213Y-122069890D01*
X182789890Y-122220213D01*
X182664949Y-122392182D01*
X182660484Y-122400946D01*
X182612509Y-122451742D01*
X182544688Y-122468536D01*
X182478553Y-122445998D01*
X182439516Y-122400946D01*
X182435050Y-122392182D01*
X182310109Y-122220213D01*
X182159786Y-122069890D01*
X181987820Y-121944951D01*
X181798414Y-121848444D01*
X181798413Y-121848443D01*
X181798412Y-121848443D01*
X181596243Y-121782754D01*
X181596241Y-121782753D01*
X181596240Y-121782753D01*
X181434957Y-121757208D01*
X181386287Y-121749500D01*
X181173713Y-121749500D01*
X181125042Y-121757208D01*
X180963760Y-121782753D01*
X180761585Y-121848444D01*
X180572179Y-121944951D01*
X180400213Y-122069890D01*
X180249890Y-122220213D01*
X180124949Y-122392182D01*
X180120484Y-122400946D01*
X180072509Y-122451742D01*
X180004688Y-122468536D01*
X179938553Y-122445998D01*
X179899516Y-122400946D01*
X179895050Y-122392182D01*
X179770109Y-122220213D01*
X179619786Y-122069890D01*
X179447820Y-121944951D01*
X179258414Y-121848444D01*
X179258413Y-121848443D01*
X179258412Y-121848443D01*
X179056243Y-121782754D01*
X179056241Y-121782753D01*
X179056240Y-121782753D01*
X178894957Y-121757208D01*
X178846287Y-121749500D01*
X178633713Y-121749500D01*
X178585042Y-121757208D01*
X178423760Y-121782753D01*
X178221585Y-121848444D01*
X178032179Y-121944951D01*
X177860213Y-122069890D01*
X177709890Y-122220213D01*
X177584949Y-122392182D01*
X177580484Y-122400946D01*
X177532509Y-122451742D01*
X177464688Y-122468536D01*
X177398553Y-122445998D01*
X177359516Y-122400946D01*
X177355050Y-122392182D01*
X177230109Y-122220213D01*
X177092218Y-122082322D01*
X177058733Y-122020999D01*
X177063717Y-121951307D01*
X177092216Y-121906961D01*
X177154789Y-121844389D01*
X177242394Y-121713279D01*
X177302737Y-121567597D01*
X177333500Y-121412942D01*
X177333500Y-121255258D01*
X177333500Y-121255255D01*
X177333499Y-121255253D01*
X177321580Y-121195334D01*
X177302737Y-121100603D01*
X177273548Y-121030134D01*
X177242397Y-120954927D01*
X177242390Y-120954914D01*
X177154789Y-120823811D01*
X177154786Y-120823807D01*
X177043292Y-120712313D01*
X177043288Y-120712310D01*
X176912185Y-120624709D01*
X176912172Y-120624702D01*
X176766501Y-120564364D01*
X176766489Y-120564361D01*
X176611845Y-120533600D01*
X176611842Y-120533600D01*
X176454158Y-120533600D01*
X176454155Y-120533600D01*
X176299510Y-120564361D01*
X176299498Y-120564364D01*
X176153827Y-120624702D01*
X176153814Y-120624709D01*
X176022125Y-120712702D01*
X175955447Y-120733580D01*
X175953234Y-120733600D01*
X173968200Y-120733600D01*
X173901161Y-120713915D01*
X173855406Y-120661111D01*
X173844200Y-120609600D01*
X173844200Y-120513155D01*
X173844199Y-120513153D01*
X173812249Y-120352528D01*
X173813967Y-120352186D01*
X173813417Y-120290630D01*
X173850665Y-120231517D01*
X173913959Y-120201925D01*
X173932702Y-120200500D01*
X174350234Y-120200500D01*
X174417273Y-120220185D01*
X174419125Y-120221398D01*
X174550814Y-120309390D01*
X174550827Y-120309397D01*
X174696498Y-120369735D01*
X174696503Y-120369737D01*
X174851153Y-120400499D01*
X174851156Y-120400500D01*
X174851158Y-120400500D01*
X175008844Y-120400500D01*
X175008845Y-120400499D01*
X175163497Y-120369737D01*
X175309179Y-120309394D01*
X175440289Y-120221789D01*
X175551789Y-120110289D01*
X175639394Y-119979179D01*
X175699737Y-119833497D01*
X175730500Y-119678842D01*
X175730500Y-119521158D01*
X175730500Y-119521155D01*
X175730499Y-119521153D01*
X175725237Y-119494701D01*
X175699737Y-119366503D01*
X175663385Y-119278740D01*
X175639397Y-119220827D01*
X175639390Y-119220814D01*
X175551789Y-119089711D01*
X175551786Y-119089707D01*
X175440292Y-118978213D01*
X175440288Y-118978210D01*
X175309185Y-118890609D01*
X175309172Y-118890602D01*
X175163501Y-118830264D01*
X175163489Y-118830261D01*
X175008845Y-118799500D01*
X175008842Y-118799500D01*
X174851158Y-118799500D01*
X174851155Y-118799500D01*
X174696510Y-118830261D01*
X174696498Y-118830264D01*
X174550827Y-118890602D01*
X174550814Y-118890609D01*
X174419125Y-118978602D01*
X174352447Y-118999480D01*
X174350234Y-118999500D01*
X166420943Y-118999500D01*
X166268213Y-119040423D01*
X166219211Y-119068716D01*
X166219210Y-119068715D01*
X166194668Y-119082886D01*
X166132666Y-119099500D01*
X166121155Y-119099500D01*
X165966510Y-119130261D01*
X165966498Y-119130264D01*
X165820827Y-119190602D01*
X165820814Y-119190609D01*
X165689711Y-119278210D01*
X165689707Y-119278213D01*
X165578213Y-119389707D01*
X165578210Y-119389711D01*
X165490609Y-119520814D01*
X165490602Y-119520827D01*
X165430264Y-119666498D01*
X165430261Y-119666510D01*
X165399500Y-119821153D01*
X165399500Y-119867500D01*
X165379815Y-119934539D01*
X165327011Y-119980294D01*
X165275500Y-119991500D01*
X155934670Y-119991500D01*
X155934654Y-119991499D01*
X155927058Y-119991499D01*
X155768943Y-119991499D01*
X155692579Y-120011961D01*
X155616214Y-120032423D01*
X155616209Y-120032426D01*
X155479290Y-120111475D01*
X155479282Y-120111481D01*
X153824522Y-121766241D01*
X153763199Y-121799726D01*
X153698523Y-121796491D01*
X153656245Y-121782754D01*
X153516272Y-121760584D01*
X153446287Y-121749500D01*
X153233713Y-121749500D01*
X153185042Y-121757208D01*
X153023760Y-121782753D01*
X152821585Y-121848444D01*
X152632179Y-121944951D01*
X152460213Y-122069890D01*
X152309890Y-122220213D01*
X152184949Y-122392182D01*
X152180484Y-122400946D01*
X152132509Y-122451742D01*
X152064688Y-122468536D01*
X151998553Y-122445998D01*
X151959516Y-122400946D01*
X151955050Y-122392182D01*
X151830109Y-122220213D01*
X151679786Y-122069890D01*
X151507820Y-121944951D01*
X151318414Y-121848444D01*
X151318413Y-121848443D01*
X151318412Y-121848443D01*
X151116243Y-121782754D01*
X151116241Y-121782753D01*
X151116240Y-121782753D01*
X150954957Y-121757208D01*
X150906287Y-121749500D01*
X150693713Y-121749500D01*
X150665006Y-121754046D01*
X150483757Y-121782753D01*
X150441473Y-121796492D01*
X150371632Y-121798486D01*
X150315476Y-121766241D01*
X149180990Y-120631755D01*
X149180988Y-120631752D01*
X149062117Y-120512881D01*
X149062109Y-120512875D01*
X148945854Y-120445756D01*
X148945854Y-120445755D01*
X148945849Y-120445754D01*
X148938638Y-120441590D01*
X148925186Y-120433823D01*
X148880595Y-120421875D01*
X148772457Y-120392899D01*
X148614343Y-120392899D01*
X148606747Y-120392899D01*
X148606731Y-120392900D01*
X144576169Y-120392900D01*
X144576153Y-120392899D01*
X144568557Y-120392899D01*
X144410443Y-120392899D01*
X144302304Y-120421875D01*
X144270211Y-120426100D01*
X126410397Y-120426100D01*
X126343358Y-120406415D01*
X126322716Y-120389781D01*
X126121516Y-120188581D01*
X126088031Y-120127258D01*
X126093015Y-120057566D01*
X126134887Y-120001633D01*
X126200351Y-119977216D01*
X126209197Y-119976900D01*
X150636931Y-119976900D01*
X150636947Y-119976901D01*
X150644543Y-119976901D01*
X150802654Y-119976901D01*
X150802657Y-119976901D01*
X150955385Y-119935977D01*
X151040733Y-119886701D01*
X151044300Y-119884642D01*
X151092309Y-119856924D01*
X151092308Y-119856924D01*
X151092316Y-119856920D01*
X151204120Y-119745116D01*
X151204120Y-119745114D01*
X151214324Y-119734911D01*
X151214327Y-119734906D01*
X151414661Y-119534572D01*
X151475983Y-119501089D01*
X151478150Y-119500638D01*
X151536085Y-119489113D01*
X151633497Y-119469737D01*
X151779179Y-119409394D01*
X151910289Y-119321789D01*
X152021789Y-119210289D01*
X152109394Y-119079179D01*
X152169737Y-118933497D01*
X152200500Y-118778842D01*
X152200500Y-118621158D01*
X152200500Y-118621155D01*
X152200499Y-118621153D01*
X152169738Y-118466510D01*
X152169738Y-118466508D01*
X152169737Y-118466503D01*
X152166488Y-118458658D01*
X152109397Y-118320827D01*
X152109390Y-118320814D01*
X152021789Y-118189711D01*
X152021786Y-118189707D01*
X152018460Y-118186381D01*
X151984975Y-118125058D01*
X151989959Y-118055366D01*
X152031831Y-117999433D01*
X152097295Y-117975016D01*
X152106141Y-117974700D01*
X165024631Y-117974700D01*
X165024647Y-117974701D01*
X165032243Y-117974701D01*
X165190354Y-117974701D01*
X165190357Y-117974701D01*
X165343085Y-117933777D01*
X165402454Y-117899500D01*
X165480016Y-117854720D01*
X165591820Y-117742916D01*
X165591820Y-117742914D01*
X165602024Y-117732711D01*
X165602027Y-117732706D01*
X166787664Y-116547071D01*
X166848985Y-116513588D01*
X166851152Y-116513137D01*
X166851841Y-116513000D01*
X166851842Y-116513000D01*
X167006497Y-116482237D01*
X167119166Y-116435567D01*
X167152172Y-116421897D01*
X167152172Y-116421896D01*
X167152179Y-116421894D01*
X167283289Y-116334289D01*
X167394789Y-116222789D01*
X167482394Y-116091679D01*
X167542737Y-115945997D01*
X167573500Y-115791342D01*
X167573500Y-115633658D01*
X167573500Y-115633655D01*
X167573499Y-115633653D01*
X167559323Y-115562385D01*
X167542737Y-115479003D01*
X167528106Y-115443680D01*
X167482397Y-115333327D01*
X167482390Y-115333314D01*
X167394789Y-115202211D01*
X167394786Y-115202207D01*
X167283292Y-115090713D01*
X167283288Y-115090710D01*
X167152185Y-115003109D01*
X167152172Y-115003102D01*
X167006501Y-114942764D01*
X167006489Y-114942761D01*
X166851845Y-114912000D01*
X166851842Y-114912000D01*
X166694158Y-114912000D01*
X166694155Y-114912000D01*
X166539510Y-114942761D01*
X166539498Y-114942764D01*
X166393827Y-115003102D01*
X166393814Y-115003109D01*
X166262711Y-115090710D01*
X166262707Y-115090713D01*
X166151213Y-115202207D01*
X166151210Y-115202211D01*
X166063609Y-115333314D01*
X166063602Y-115333327D01*
X166003264Y-115478998D01*
X166003261Y-115479008D01*
X165972362Y-115634348D01*
X165939977Y-115696259D01*
X165938426Y-115697837D01*
X164898884Y-116737381D01*
X164837561Y-116770866D01*
X164811203Y-116773700D01*
X147769000Y-116773700D01*
X147701961Y-116754015D01*
X147656206Y-116701211D01*
X147645000Y-116649700D01*
X147645000Y-116500000D01*
X146994000Y-116500000D01*
X146926961Y-116480315D01*
X146881206Y-116427511D01*
X146870000Y-116376000D01*
X146870000Y-116250000D01*
X146744000Y-116250000D01*
X146676961Y-116230315D01*
X146631206Y-116177511D01*
X146620000Y-116126000D01*
X146620000Y-114956324D01*
X147120000Y-114956324D01*
X147120000Y-116000000D01*
X147644999Y-116000000D01*
X147644999Y-115523128D01*
X147644998Y-115523106D01*
X147642155Y-115486978D01*
X147597220Y-115332310D01*
X147597219Y-115332307D01*
X147515229Y-115193668D01*
X147515223Y-115193660D01*
X147401339Y-115079776D01*
X147401331Y-115079770D01*
X147262692Y-114997780D01*
X147262689Y-114997778D01*
X147120001Y-114956323D01*
X147120000Y-114956324D01*
X146620000Y-114956324D01*
X146619998Y-114956323D01*
X146477310Y-114997778D01*
X146477307Y-114997780D01*
X146338671Y-115079768D01*
X146338659Y-115079777D01*
X146323030Y-115095406D01*
X146261705Y-115128888D01*
X146192014Y-115123901D01*
X146147672Y-115095402D01*
X146131648Y-115079378D01*
X146131636Y-115079369D01*
X145992896Y-114997320D01*
X145992889Y-114997317D01*
X145838102Y-114952346D01*
X145838096Y-114952345D01*
X145801935Y-114949500D01*
X145398077Y-114949500D01*
X145398052Y-114949501D01*
X145361901Y-114952346D01*
X145207110Y-114997317D01*
X145207103Y-114997320D01*
X145068363Y-115079369D01*
X145068351Y-115079378D01*
X145052681Y-115095049D01*
X144991358Y-115128534D01*
X144921666Y-115123550D01*
X144877319Y-115095049D01*
X144861648Y-115079378D01*
X144861636Y-115079369D01*
X144722896Y-114997320D01*
X144722889Y-114997317D01*
X144568102Y-114952346D01*
X144568096Y-114952345D01*
X144531935Y-114949500D01*
X144128077Y-114949500D01*
X144128052Y-114949501D01*
X144091901Y-114952346D01*
X143937110Y-114997317D01*
X143937103Y-114997320D01*
X143798363Y-115079369D01*
X143798351Y-115079378D01*
X143782681Y-115095049D01*
X143721358Y-115128534D01*
X143651666Y-115123550D01*
X143607319Y-115095049D01*
X143591648Y-115079378D01*
X143591636Y-115079369D01*
X143452896Y-114997320D01*
X143452889Y-114997317D01*
X143298102Y-114952346D01*
X143298096Y-114952345D01*
X143261935Y-114949500D01*
X142858044Y-114949500D01*
X142858019Y-114949502D01*
X142858015Y-114949500D01*
X142855632Y-114949501D01*
X142855632Y-114948900D01*
X142790264Y-114932442D01*
X142765512Y-114913277D01*
X141677221Y-113824986D01*
X169675001Y-113824986D01*
X169685494Y-113927697D01*
X169740641Y-114094119D01*
X169740643Y-114094124D01*
X169832684Y-114243345D01*
X169956654Y-114367315D01*
X170105875Y-114459356D01*
X170105880Y-114459358D01*
X170272302Y-114514505D01*
X170272309Y-114514506D01*
X170375019Y-114524999D01*
X170649999Y-114524999D01*
X170650000Y-114524998D01*
X170650000Y-113687500D01*
X169675001Y-113687500D01*
X169675001Y-113824986D01*
X141677221Y-113824986D01*
X141421416Y-113569181D01*
X141387931Y-113507858D01*
X141392915Y-113438166D01*
X141434787Y-113382233D01*
X141500251Y-113357816D01*
X141509097Y-113357500D01*
X142723234Y-113357500D01*
X142790273Y-113377185D01*
X142792125Y-113378398D01*
X142923814Y-113466390D01*
X142923827Y-113466397D01*
X143069498Y-113526735D01*
X143069503Y-113526737D01*
X143180818Y-113548879D01*
X143224153Y-113557499D01*
X143224156Y-113557500D01*
X143224158Y-113557500D01*
X143381844Y-113557500D01*
X143381845Y-113557499D01*
X143536497Y-113526737D01*
X143544833Y-113523284D01*
X143548955Y-113521577D01*
X143682172Y-113466397D01*
X143682172Y-113466396D01*
X143682179Y-113466394D01*
X143813289Y-113378789D01*
X143924789Y-113267289D01*
X144012394Y-113136179D01*
X144072737Y-112990497D01*
X144103500Y-112835842D01*
X144103500Y-112678158D01*
X144103500Y-112678155D01*
X144103499Y-112678153D01*
X144098694Y-112653998D01*
X144072737Y-112523503D01*
X144066451Y-112508327D01*
X144012397Y-112377827D01*
X144012390Y-112377814D01*
X143924789Y-112246711D01*
X143924786Y-112246707D01*
X143813292Y-112135213D01*
X143813288Y-112135210D01*
X143680677Y-112046602D01*
X143635872Y-111992990D01*
X143627165Y-111923665D01*
X143657319Y-111860637D01*
X143716762Y-111823918D01*
X143749568Y-111819500D01*
X167008936Y-111819500D01*
X167075975Y-111839185D01*
X167121730Y-111891989D01*
X167131674Y-111961147D01*
X167112038Y-112012390D01*
X167106412Y-112020809D01*
X167106402Y-112020827D01*
X167046064Y-112166498D01*
X167046061Y-112166510D01*
X167015300Y-112321153D01*
X167015300Y-112478846D01*
X167046061Y-112633489D01*
X167046064Y-112633501D01*
X167106402Y-112779172D01*
X167106409Y-112779185D01*
X167194010Y-112910288D01*
X167194013Y-112910292D01*
X167305507Y-113021786D01*
X167305511Y-113021789D01*
X167436614Y-113109390D01*
X167436627Y-113109397D01*
X167582298Y-113169735D01*
X167582303Y-113169737D01*
X167736953Y-113200499D01*
X167736956Y-113200500D01*
X167736958Y-113200500D01*
X167894644Y-113200500D01*
X167894645Y-113200499D01*
X168049297Y-113169737D01*
X168194979Y-113109394D01*
X168238973Y-113079998D01*
X168326675Y-113021398D01*
X168393353Y-113000520D01*
X168395566Y-113000500D01*
X169551000Y-113000500D01*
X169618039Y-113020185D01*
X169663794Y-113072989D01*
X169675000Y-113124500D01*
X169675000Y-113187500D01*
X170776000Y-113187500D01*
X170843039Y-113207185D01*
X170888794Y-113259989D01*
X170900000Y-113311500D01*
X170900000Y-113437500D01*
X171026000Y-113437500D01*
X171093039Y-113457185D01*
X171138794Y-113509989D01*
X171150000Y-113561500D01*
X171150000Y-114524999D01*
X171424972Y-114524999D01*
X171424986Y-114524998D01*
X171527697Y-114514505D01*
X171694119Y-114459358D01*
X171694124Y-114459356D01*
X171843345Y-114367315D01*
X171967315Y-114243345D01*
X172059356Y-114094124D01*
X172059359Y-114094117D01*
X172080056Y-114031657D01*
X172119828Y-113974212D01*
X172184343Y-113947388D01*
X172253119Y-113959702D01*
X172285443Y-113982979D01*
X172763201Y-114460737D01*
X172796686Y-114522060D01*
X172798867Y-114548806D01*
X172799500Y-114548806D01*
X172799500Y-116247870D01*
X172799501Y-116247876D01*
X172805908Y-116307483D01*
X172856202Y-116442328D01*
X172856206Y-116442335D01*
X172942452Y-116557544D01*
X172942455Y-116557547D01*
X173057664Y-116643793D01*
X173057671Y-116643797D01*
X173073498Y-116649700D01*
X173192517Y-116694091D01*
X173252127Y-116700500D01*
X173647872Y-116700499D01*
X173707483Y-116694091D01*
X173731663Y-116685071D01*
X173801353Y-116680085D01*
X173818329Y-116685069D01*
X173842517Y-116694091D01*
X173902127Y-116700500D01*
X174297872Y-116700499D01*
X174357483Y-116694091D01*
X174381663Y-116685071D01*
X174451353Y-116680085D01*
X174468329Y-116685069D01*
X174492517Y-116694091D01*
X174552127Y-116700500D01*
X174947872Y-116700499D01*
X175007483Y-116694091D01*
X175032380Y-116684804D01*
X175102070Y-116679819D01*
X175119049Y-116684805D01*
X175142619Y-116693596D01*
X175142627Y-116693598D01*
X175202155Y-116699999D01*
X175202172Y-116700000D01*
X175250000Y-116700000D01*
X175250000Y-116608897D01*
X175256238Y-116587650D01*
X175257819Y-116565562D01*
X175268431Y-116546127D01*
X175269685Y-116541858D01*
X175274726Y-116534596D01*
X175326734Y-116465123D01*
X175382668Y-116423253D01*
X175452360Y-116418269D01*
X175513682Y-116451755D01*
X175547167Y-116513078D01*
X175550000Y-116539435D01*
X175550000Y-116700000D01*
X175597828Y-116700000D01*
X175597844Y-116699999D01*
X175657372Y-116693598D01*
X175657379Y-116693596D01*
X175792086Y-116643354D01*
X175792093Y-116643350D01*
X175907187Y-116557190D01*
X175907190Y-116557187D01*
X175993350Y-116442093D01*
X175993354Y-116442086D01*
X176043596Y-116307379D01*
X176043598Y-116307372D01*
X176049999Y-116247844D01*
X176050000Y-116247827D01*
X176050000Y-115550000D01*
X175524499Y-115550000D01*
X175515813Y-115547449D01*
X175506852Y-115548738D01*
X175482811Y-115537759D01*
X175457460Y-115530315D01*
X175451532Y-115523474D01*
X175443296Y-115519713D01*
X175429006Y-115497478D01*
X175411705Y-115477511D01*
X175409417Y-115466996D01*
X175405522Y-115460935D01*
X175400499Y-115426003D01*
X175400499Y-115373998D01*
X175420184Y-115306961D01*
X175472988Y-115261206D01*
X175524499Y-115250000D01*
X176050000Y-115250000D01*
X176050000Y-114552172D01*
X176049999Y-114552155D01*
X176043598Y-114492627D01*
X176043596Y-114492620D01*
X175993354Y-114357913D01*
X175993350Y-114357906D01*
X175907190Y-114242812D01*
X175877364Y-114220484D01*
X175835494Y-114164550D01*
X175830510Y-114094858D01*
X175863992Y-114033541D01*
X176215006Y-113682528D01*
X176215011Y-113682524D01*
X176225214Y-113672320D01*
X176225216Y-113672320D01*
X176337020Y-113560516D01*
X176343739Y-113548879D01*
X176396729Y-113457097D01*
X176396732Y-113457088D01*
X176396738Y-113457080D01*
X176416077Y-113423585D01*
X176457000Y-113270858D01*
X176457000Y-113112743D01*
X176457000Y-110979643D01*
X176452541Y-110963000D01*
X176416077Y-110826915D01*
X176374057Y-110754135D01*
X176337020Y-110689984D01*
X176225216Y-110578180D01*
X176225215Y-110578179D01*
X176220885Y-110573849D01*
X176220874Y-110573839D01*
X171122590Y-105475555D01*
X171122588Y-105475552D01*
X171003717Y-105356681D01*
X171003716Y-105356680D01*
X170893206Y-105292877D01*
X170893204Y-105292876D01*
X170866785Y-105277623D01*
X170866784Y-105277622D01*
X170866783Y-105277622D01*
X170810881Y-105262643D01*
X170714057Y-105236699D01*
X170555943Y-105236699D01*
X170548347Y-105236699D01*
X170548331Y-105236700D01*
X154491897Y-105236700D01*
X154424858Y-105217015D01*
X154379103Y-105164211D01*
X154369159Y-105095053D01*
X154398184Y-105031497D01*
X154404216Y-105025019D01*
X155270768Y-104158467D01*
X157895478Y-101533755D01*
X157956799Y-101500272D01*
X158021473Y-101503506D01*
X158063757Y-101517246D01*
X158273713Y-101550500D01*
X158273714Y-101550500D01*
X158486286Y-101550500D01*
X158486287Y-101550500D01*
X158696243Y-101517246D01*
X158898412Y-101451557D01*
X159087816Y-101355051D01*
X159142572Y-101315269D01*
X159259786Y-101230109D01*
X159259788Y-101230106D01*
X159259792Y-101230104D01*
X159410104Y-101079792D01*
X159410106Y-101079788D01*
X159410109Y-101079786D01*
X159535048Y-100907820D01*
X159535047Y-100907820D01*
X159535051Y-100907816D01*
X159539514Y-100899054D01*
X159587488Y-100848259D01*
X159655308Y-100831463D01*
X159721444Y-100853999D01*
X159760486Y-100899056D01*
X159764951Y-100907820D01*
X159889890Y-101079786D01*
X160040213Y-101230109D01*
X160212179Y-101355048D01*
X160212181Y-101355049D01*
X160212184Y-101355051D01*
X160401588Y-101451557D01*
X160598906Y-101515669D01*
X160656581Y-101555107D01*
X160683779Y-101619465D01*
X160671864Y-101688311D01*
X160624620Y-101739787D01*
X160560587Y-101757600D01*
X160089066Y-101757600D01*
X160022027Y-101737915D01*
X160020175Y-101736702D01*
X159888485Y-101648709D01*
X159888472Y-101648702D01*
X159742801Y-101588364D01*
X159742789Y-101588361D01*
X159588145Y-101557600D01*
X159588142Y-101557600D01*
X159430458Y-101557600D01*
X159430455Y-101557600D01*
X159275810Y-101588361D01*
X159275798Y-101588364D01*
X159130127Y-101648702D01*
X159130114Y-101648709D01*
X158999011Y-101736310D01*
X158999007Y-101736313D01*
X158887513Y-101847807D01*
X158887510Y-101847811D01*
X158799909Y-101978914D01*
X158799902Y-101978927D01*
X158739564Y-102124598D01*
X158739561Y-102124610D01*
X158708800Y-102279253D01*
X158708800Y-102436946D01*
X158739561Y-102591589D01*
X158739564Y-102591601D01*
X158799902Y-102737272D01*
X158799909Y-102737285D01*
X158887510Y-102868388D01*
X158887513Y-102868392D01*
X158999007Y-102979886D01*
X158999011Y-102979889D01*
X159130114Y-103067490D01*
X159130127Y-103067497D01*
X159190008Y-103092300D01*
X159275803Y-103127837D01*
X159430453Y-103158599D01*
X159430456Y-103158600D01*
X159430458Y-103158600D01*
X159588144Y-103158600D01*
X159588145Y-103158599D01*
X159742797Y-103127837D01*
X159888479Y-103067494D01*
X159907327Y-103054900D01*
X160020175Y-102979498D01*
X160086853Y-102958620D01*
X160089066Y-102958600D01*
X173915231Y-102958600D01*
X173915247Y-102958601D01*
X173922843Y-102958601D01*
X174080954Y-102958601D01*
X174080957Y-102958601D01*
X174233685Y-102917677D01*
X174233687Y-102917675D01*
X174233689Y-102917675D01*
X174233690Y-102917674D01*
X174287455Y-102886633D01*
X174287456Y-102886632D01*
X174370616Y-102838620D01*
X174482420Y-102726816D01*
X174482420Y-102726814D01*
X174492624Y-102716611D01*
X174492628Y-102716606D01*
X175675478Y-101533755D01*
X175736799Y-101500272D01*
X175801473Y-101503506D01*
X175843757Y-101517246D01*
X176053713Y-101550500D01*
X176053714Y-101550500D01*
X176266286Y-101550500D01*
X176266287Y-101550500D01*
X176476243Y-101517246D01*
X176678412Y-101451557D01*
X176867816Y-101355051D01*
X176922572Y-101315269D01*
X177039786Y-101230109D01*
X177039788Y-101230106D01*
X177039792Y-101230104D01*
X177190104Y-101079792D01*
X177190106Y-101079788D01*
X177190109Y-101079786D01*
X177315048Y-100907820D01*
X177315047Y-100907820D01*
X177315051Y-100907816D01*
X177319514Y-100899054D01*
X177367488Y-100848259D01*
X177435308Y-100831463D01*
X177501444Y-100853999D01*
X177540486Y-100899056D01*
X177544951Y-100907820D01*
X177669890Y-101079786D01*
X177820213Y-101230109D01*
X177992179Y-101355048D01*
X177992181Y-101355049D01*
X177992184Y-101355051D01*
X178181588Y-101451557D01*
X178383757Y-101517246D01*
X178593713Y-101550500D01*
X178593714Y-101550500D01*
X178806286Y-101550500D01*
X178806287Y-101550500D01*
X179016243Y-101517246D01*
X179218412Y-101451557D01*
X179407816Y-101355051D01*
X179462572Y-101315269D01*
X179579786Y-101230109D01*
X179579788Y-101230106D01*
X179579792Y-101230104D01*
X179730104Y-101079792D01*
X179730106Y-101079788D01*
X179730109Y-101079786D01*
X179815890Y-100961717D01*
X179855051Y-100907816D01*
X179859793Y-100898508D01*
X179907763Y-100847711D01*
X179975583Y-100830911D01*
X180041719Y-100853445D01*
X180080763Y-100898500D01*
X180085373Y-100907547D01*
X180124728Y-100961716D01*
X180757037Y-100329408D01*
X180774075Y-100392993D01*
X180839901Y-100507007D01*
X180932993Y-100600099D01*
X181047007Y-100665925D01*
X181110590Y-100682962D01*
X180478282Y-101315269D01*
X180478282Y-101315270D01*
X180532449Y-101354624D01*
X180721782Y-101451095D01*
X180923870Y-101516757D01*
X181133754Y-101550000D01*
X181346246Y-101550000D01*
X181556127Y-101516757D01*
X181556130Y-101516757D01*
X181758217Y-101451095D01*
X181947554Y-101354622D01*
X182001716Y-101315270D01*
X182001717Y-101315270D01*
X181369408Y-100682962D01*
X181432993Y-100665925D01*
X181547007Y-100600099D01*
X181640099Y-100507007D01*
X181705925Y-100392993D01*
X181722962Y-100329408D01*
X182355270Y-100961717D01*
X182355270Y-100961716D01*
X182394622Y-100907554D01*
X182491095Y-100718217D01*
X182556757Y-100516130D01*
X182556757Y-100516127D01*
X182590000Y-100306246D01*
X182590000Y-100093753D01*
X182556757Y-99883872D01*
X182556757Y-99883869D01*
X182491095Y-99681782D01*
X182394624Y-99492449D01*
X182355270Y-99438282D01*
X182355269Y-99438282D01*
X181722962Y-100070590D01*
X181705925Y-100007007D01*
X181640099Y-99892993D01*
X181547007Y-99799901D01*
X181432993Y-99734075D01*
X181369409Y-99717037D01*
X182001716Y-99084728D01*
X181947550Y-99045375D01*
X181758217Y-98948904D01*
X181556129Y-98883242D01*
X181346246Y-98850000D01*
X181133754Y-98850000D01*
X180923872Y-98883242D01*
X180923869Y-98883242D01*
X180721782Y-98948904D01*
X180532439Y-99045380D01*
X180478282Y-99084727D01*
X180478282Y-99084728D01*
X181110591Y-99717037D01*
X181047007Y-99734075D01*
X180932993Y-99799901D01*
X180839901Y-99892993D01*
X180774075Y-100007007D01*
X180757037Y-100070591D01*
X180124728Y-99438282D01*
X180124727Y-99438282D01*
X180085380Y-99492440D01*
X180085376Y-99492446D01*
X180080760Y-99501505D01*
X180032781Y-99552297D01*
X179964959Y-99569087D01*
X179898826Y-99546543D01*
X179859794Y-99501493D01*
X179855051Y-99492184D01*
X179855049Y-99492181D01*
X179855048Y-99492179D01*
X179730109Y-99320213D01*
X179579786Y-99169890D01*
X179407820Y-99044951D01*
X179218414Y-98948444D01*
X179218413Y-98948443D01*
X179218412Y-98948443D01*
X179016243Y-98882754D01*
X179016241Y-98882753D01*
X179016240Y-98882753D01*
X178854957Y-98857208D01*
X178806287Y-98849500D01*
X178593713Y-98849500D01*
X178565006Y-98854046D01*
X178383757Y-98882753D01*
X178341473Y-98896492D01*
X178271632Y-98898486D01*
X178215476Y-98866241D01*
X174753390Y-95404155D01*
X174753388Y-95404152D01*
X174634517Y-95285281D01*
X174634509Y-95285275D01*
X174520116Y-95219231D01*
X174520115Y-95219230D01*
X174504278Y-95210087D01*
X174497585Y-95206223D01*
X174344857Y-95165299D01*
X174186743Y-95165299D01*
X174179147Y-95165299D01*
X174179131Y-95165300D01*
X132050643Y-95165300D01*
X131897914Y-95206223D01*
X131897913Y-95206223D01*
X131875383Y-95219230D01*
X131875384Y-95219231D01*
X131760987Y-95285277D01*
X131760982Y-95285281D01*
X126411681Y-100634583D01*
X126350358Y-100668068D01*
X126280666Y-100663084D01*
X126224733Y-100621212D01*
X126200316Y-100555748D01*
X126200000Y-100546902D01*
X126200000Y-100450000D01*
X125524000Y-100450000D01*
X125456961Y-100430315D01*
X125411206Y-100377511D01*
X125400000Y-100326000D01*
X125400000Y-100200000D01*
X125274000Y-100200000D01*
X125206961Y-100180315D01*
X125161206Y-100127511D01*
X125150000Y-100076000D01*
X125150000Y-99950000D01*
X125650000Y-99950000D01*
X126200000Y-99950000D01*
X126200000Y-99259365D01*
X126199999Y-99259350D01*
X126197100Y-99222510D01*
X126197099Y-99222504D01*
X126151283Y-99064806D01*
X126151282Y-99064803D01*
X126067685Y-98923447D01*
X126067678Y-98923438D01*
X125951561Y-98807321D01*
X125951552Y-98807314D01*
X125810196Y-98723717D01*
X125810193Y-98723716D01*
X125652494Y-98677900D01*
X125652497Y-98677900D01*
X125650000Y-98677703D01*
X125650000Y-99950000D01*
X125150000Y-99950000D01*
X125150000Y-98677703D01*
X125147503Y-98677900D01*
X124989806Y-98723716D01*
X124989803Y-98723717D01*
X124848449Y-98807313D01*
X124842283Y-98812097D01*
X124840389Y-98809655D01*
X124791580Y-98836239D01*
X124721894Y-98831179D01*
X124689227Y-98810159D01*
X124688031Y-98811702D01*
X124681862Y-98806917D01*
X124603681Y-98760681D01*
X124540398Y-98723256D01*
X124540397Y-98723255D01*
X124540396Y-98723255D01*
X124540393Y-98723254D01*
X124382573Y-98677402D01*
X124382567Y-98677401D01*
X124345701Y-98674500D01*
X124345694Y-98674500D01*
X124025597Y-98674500D01*
X123958558Y-98654815D01*
X123937916Y-98638181D01*
X121864090Y-96564355D01*
X121864088Y-96564352D01*
X121745217Y-96445481D01*
X121745209Y-96445475D01*
X121637837Y-96383484D01*
X121637837Y-96383485D01*
X121608283Y-96366422D01*
X121552381Y-96351443D01*
X121455557Y-96325499D01*
X121297443Y-96325499D01*
X121289847Y-96325499D01*
X121289831Y-96325500D01*
X104940497Y-96325500D01*
X104873458Y-96305815D01*
X104827703Y-96253011D01*
X104817759Y-96183853D01*
X104846784Y-96120297D01*
X104852816Y-96113819D01*
X105046516Y-95920119D01*
X105107839Y-95886634D01*
X105134197Y-95883800D01*
X121107434Y-95883800D01*
X121174473Y-95903485D01*
X121176325Y-95904698D01*
X121308014Y-95992690D01*
X121308027Y-95992697D01*
X121453698Y-96053035D01*
X121453703Y-96053037D01*
X121608353Y-96083799D01*
X121608356Y-96083800D01*
X121608358Y-96083800D01*
X121766044Y-96083800D01*
X121766045Y-96083799D01*
X121920697Y-96053037D01*
X122066379Y-95992694D01*
X122197489Y-95905089D01*
X122308989Y-95793589D01*
X122396594Y-95662479D01*
X122456937Y-95516797D01*
X122487700Y-95362142D01*
X122487700Y-95204458D01*
X122487700Y-95204455D01*
X122487699Y-95204453D01*
X122456938Y-95049810D01*
X122456937Y-95049803D01*
X122456935Y-95049798D01*
X122396597Y-94904127D01*
X122396590Y-94904114D01*
X122308989Y-94773011D01*
X122308986Y-94773007D01*
X122197492Y-94661513D01*
X122197488Y-94661510D01*
X122066385Y-94573909D01*
X122066372Y-94573902D01*
X121920701Y-94513564D01*
X121920689Y-94513561D01*
X121766045Y-94482800D01*
X121766042Y-94482800D01*
X121608358Y-94482800D01*
X121608355Y-94482800D01*
X121453710Y-94513561D01*
X121453698Y-94513564D01*
X121308027Y-94573902D01*
X121308014Y-94573909D01*
X121176325Y-94661902D01*
X121109647Y-94682780D01*
X121107434Y-94682800D01*
X104920769Y-94682800D01*
X104920753Y-94682799D01*
X104913157Y-94682799D01*
X104755043Y-94682799D01*
X104647687Y-94711565D01*
X104602310Y-94723724D01*
X104602309Y-94723725D01*
X104552196Y-94752659D01*
X104552195Y-94752660D01*
X104543814Y-94757499D01*
X104465385Y-94802779D01*
X104465382Y-94802781D01*
X102959981Y-96308182D01*
X102959979Y-96308185D01*
X102940432Y-96342041D01*
X102920885Y-96375899D01*
X102880923Y-96445115D01*
X102839999Y-96597843D01*
X102839999Y-96597845D01*
X102839999Y-96765946D01*
X102840000Y-96765959D01*
X102840000Y-96803502D01*
X102820315Y-96870541D01*
X102803681Y-96891183D01*
X101386680Y-98308184D01*
X101325357Y-98341669D01*
X101255665Y-98336685D01*
X101199732Y-98294813D01*
X101175315Y-98229349D01*
X101174999Y-98220503D01*
X101174999Y-97973128D01*
X101174998Y-97973106D01*
X101172155Y-97936978D01*
X101127220Y-97782310D01*
X101127219Y-97782307D01*
X101045229Y-97643668D01*
X101045223Y-97643660D01*
X100931339Y-97529776D01*
X100931331Y-97529770D01*
X100792692Y-97447780D01*
X100792689Y-97447778D01*
X100650001Y-97406323D01*
X100650000Y-97406324D01*
X100650000Y-98576000D01*
X100630315Y-98643039D01*
X100577511Y-98688794D01*
X100526000Y-98700000D01*
X100274000Y-98700000D01*
X100206961Y-98680315D01*
X100161206Y-98627511D01*
X100150000Y-98576000D01*
X100150000Y-97406324D01*
X100149998Y-97406323D01*
X100007310Y-97447778D01*
X100007309Y-97447779D01*
X99873527Y-97526896D01*
X99805803Y-97544077D01*
X99739540Y-97521917D01*
X99700271Y-97477137D01*
X99694107Y-97465221D01*
X99689577Y-97448315D01*
X99650469Y-97380579D01*
X99649042Y-97378107D01*
X99649031Y-97378086D01*
X99610524Y-97311390D01*
X99610521Y-97311386D01*
X99610520Y-97311384D01*
X99498716Y-97199580D01*
X99498715Y-97199579D01*
X99494385Y-97195249D01*
X99494374Y-97195239D01*
X97295490Y-94996355D01*
X97295488Y-94996352D01*
X97176617Y-94877481D01*
X97176616Y-94877480D01*
X97089804Y-94827360D01*
X97089804Y-94827359D01*
X97089800Y-94827358D01*
X97039685Y-94798423D01*
X96886957Y-94757499D01*
X96728843Y-94757499D01*
X96721247Y-94757499D01*
X96721231Y-94757500D01*
X96368766Y-94757500D01*
X96301727Y-94737815D01*
X96299875Y-94736602D01*
X96168185Y-94648609D01*
X96168172Y-94648602D01*
X96022501Y-94588264D01*
X96022489Y-94588261D01*
X95867845Y-94557500D01*
X95867842Y-94557500D01*
X95710158Y-94557500D01*
X95710155Y-94557500D01*
X95555510Y-94588261D01*
X95555498Y-94588264D01*
X95409827Y-94648602D01*
X95409814Y-94648609D01*
X95278711Y-94736210D01*
X95278707Y-94736213D01*
X95167213Y-94847707D01*
X95167210Y-94847711D01*
X95079609Y-94978814D01*
X95079602Y-94978827D01*
X95019264Y-95124498D01*
X95019261Y-95124510D01*
X94988500Y-95279153D01*
X94988500Y-95349000D01*
X94968815Y-95416039D01*
X94916011Y-95461794D01*
X94864500Y-95473000D01*
X93895057Y-95473000D01*
X93736942Y-95473000D01*
X93584215Y-95513923D01*
X93584214Y-95513923D01*
X93584212Y-95513924D01*
X93584209Y-95513925D01*
X93534096Y-95542859D01*
X93534095Y-95542860D01*
X93490689Y-95567920D01*
X93447285Y-95592979D01*
X93447282Y-95592981D01*
X92299481Y-96740782D01*
X92299479Y-96740785D01*
X92257837Y-96812913D01*
X92257836Y-96812914D01*
X92224565Y-96870541D01*
X92220423Y-96877715D01*
X92179499Y-97030443D01*
X92179499Y-97030445D01*
X92179499Y-97198546D01*
X92179500Y-97198559D01*
X92179500Y-97393507D01*
X92159815Y-97460546D01*
X92107011Y-97506301D01*
X92037853Y-97516245D01*
X91992380Y-97500240D01*
X91925260Y-97460546D01*
X91902894Y-97447319D01*
X91902892Y-97447318D01*
X91902890Y-97447317D01*
X91748102Y-97402346D01*
X91748096Y-97402345D01*
X91711935Y-97399500D01*
X91308077Y-97399500D01*
X91308052Y-97399501D01*
X91271901Y-97402346D01*
X91117110Y-97447317D01*
X91117103Y-97447320D01*
X90978363Y-97529369D01*
X90978351Y-97529378D01*
X90864378Y-97643351D01*
X90864369Y-97643363D01*
X90782320Y-97782103D01*
X90782317Y-97782110D01*
X90737346Y-97936897D01*
X90737345Y-97936903D01*
X90734500Y-97973057D01*
X90734500Y-99426922D01*
X90734501Y-99426947D01*
X90737346Y-99463098D01*
X90782317Y-99617889D01*
X90782320Y-99617896D01*
X90864369Y-99756636D01*
X90864378Y-99756648D01*
X90978351Y-99870621D01*
X90978355Y-99870624D01*
X90978357Y-99870626D01*
X90978360Y-99870627D01*
X90978363Y-99870630D01*
X91043902Y-99909389D01*
X91117106Y-99952681D01*
X91157928Y-99964541D01*
X91271897Y-99997653D01*
X91271900Y-99997653D01*
X91271902Y-99997654D01*
X91308065Y-100000500D01*
X91673102Y-100000499D01*
X91740141Y-100020183D01*
X91760783Y-100036818D01*
X93485984Y-101762019D01*
X93519469Y-101823342D01*
X93514485Y-101893034D01*
X93472613Y-101948967D01*
X93407149Y-101973384D01*
X93398303Y-101973700D01*
X92274298Y-101973700D01*
X92244857Y-101965055D01*
X92214871Y-101958532D01*
X92209855Y-101954777D01*
X92207259Y-101954015D01*
X92186617Y-101937381D01*
X92134573Y-101885337D01*
X92101088Y-101824014D01*
X92100637Y-101821847D01*
X92100499Y-101821153D01*
X92069737Y-101666503D01*
X92051713Y-101622989D01*
X92009397Y-101520827D01*
X92009390Y-101520814D01*
X91921789Y-101389711D01*
X91921786Y-101389707D01*
X91810292Y-101278213D01*
X91810288Y-101278210D01*
X91679185Y-101190609D01*
X91679172Y-101190602D01*
X91533501Y-101130264D01*
X91533489Y-101130261D01*
X91378845Y-101099500D01*
X91378842Y-101099500D01*
X91221158Y-101099500D01*
X91221155Y-101099500D01*
X91066510Y-101130261D01*
X91066498Y-101130264D01*
X90920827Y-101190602D01*
X90920814Y-101190609D01*
X90789711Y-101278210D01*
X90789707Y-101278213D01*
X90678213Y-101389707D01*
X90678210Y-101389711D01*
X90590609Y-101520814D01*
X90590602Y-101520827D01*
X90530264Y-101666498D01*
X90530261Y-101666510D01*
X90499500Y-101821153D01*
X90499500Y-101978846D01*
X90530261Y-102133489D01*
X90530264Y-102133501D01*
X90559444Y-102203948D01*
X90566913Y-102273417D01*
X90535637Y-102335896D01*
X90475548Y-102371548D01*
X90444883Y-102375400D01*
X89547239Y-102375400D01*
X89547223Y-102375399D01*
X89539627Y-102375399D01*
X89381513Y-102375399D01*
X89278357Y-102403040D01*
X89228780Y-102416324D01*
X89228779Y-102416325D01*
X89183760Y-102442318D01*
X89183759Y-102442319D01*
X89137806Y-102468849D01*
X89091855Y-102495379D01*
X89091852Y-102495381D01*
X88578574Y-103008660D01*
X88517251Y-103042145D01*
X88515085Y-103042596D01*
X88359743Y-103073496D01*
X88359733Y-103073499D01*
X88214062Y-103133837D01*
X88214049Y-103133844D01*
X88082946Y-103221445D01*
X88082942Y-103221448D01*
X87971448Y-103332942D01*
X87971445Y-103332946D01*
X87883844Y-103464049D01*
X87883837Y-103464062D01*
X87823499Y-103609733D01*
X87823496Y-103609745D01*
X87792735Y-103764388D01*
X87792735Y-103922081D01*
X87823496Y-104076724D01*
X87823499Y-104076736D01*
X87883837Y-104222407D01*
X87883844Y-104222420D01*
X87959286Y-104335326D01*
X87980164Y-104402004D01*
X87961680Y-104469384D01*
X87943865Y-104491898D01*
X87562584Y-104873181D01*
X87501261Y-104906666D01*
X87474903Y-104909500D01*
X86459298Y-104909500D01*
X86422432Y-104912401D01*
X86422426Y-104912402D01*
X86264606Y-104958254D01*
X86264599Y-104958257D01*
X86187620Y-105003782D01*
X86119896Y-105020965D01*
X86053634Y-104998805D01*
X86009871Y-104944338D01*
X86000500Y-104897050D01*
X86000500Y-94599986D01*
X87775001Y-94599986D01*
X87785494Y-94702697D01*
X87840641Y-94869119D01*
X87840643Y-94869124D01*
X87932684Y-95018345D01*
X88056654Y-95142315D01*
X88205875Y-95234356D01*
X88205880Y-95234358D01*
X88372302Y-95289505D01*
X88372309Y-95289506D01*
X88475019Y-95299999D01*
X88749999Y-95299999D01*
X89250000Y-95299999D01*
X89524972Y-95299999D01*
X89524986Y-95299998D01*
X89627697Y-95289505D01*
X89794119Y-95234358D01*
X89794124Y-95234356D01*
X89943345Y-95142315D01*
X90067315Y-95018345D01*
X90159356Y-94869124D01*
X90159358Y-94869119D01*
X90214505Y-94702697D01*
X90214506Y-94702690D01*
X90224999Y-94599986D01*
X90225000Y-94599973D01*
X90225000Y-94462500D01*
X89250000Y-94462500D01*
X89250000Y-95299999D01*
X88749999Y-95299999D01*
X88750000Y-95299998D01*
X88750000Y-94462500D01*
X87775001Y-94462500D01*
X87775001Y-94599986D01*
X86000500Y-94599986D01*
X86000500Y-80624500D01*
X86020185Y-80557461D01*
X86072989Y-80511706D01*
X86124500Y-80500500D01*
X121958202Y-80500500D01*
X122025241Y-80520185D01*
G37*
%TD.AperFunction*%
%TA.AperFunction,Conductor*%
G36*
X94268039Y-105729685D02*
G01*
X94313794Y-105782489D01*
X94325000Y-105834000D01*
X94325000Y-106730000D01*
X95772295Y-106730000D01*
X95772295Y-106729998D01*
X95772100Y-106727513D01*
X95726281Y-106569801D01*
X95642685Y-106428447D01*
X95637900Y-106422278D01*
X95640252Y-106420453D01*
X95613445Y-106371405D01*
X95618402Y-106301712D01*
X95628952Y-106280083D01*
X95703423Y-106158885D01*
X95728612Y-106136150D01*
X95753409Y-106112998D01*
X95754481Y-106112802D01*
X95755291Y-106112072D01*
X95788803Y-106106559D01*
X95822150Y-106100494D01*
X95823156Y-106100909D01*
X95824234Y-106100732D01*
X95855388Y-106114205D01*
X95886740Y-106127139D01*
X95888086Y-106128347D01*
X95888364Y-106128467D01*
X95888581Y-106128790D01*
X95896753Y-106136121D01*
X96481086Y-106720454D01*
X96495371Y-106729998D01*
X96546718Y-106764306D01*
X96604005Y-106802584D01*
X96604007Y-106802585D01*
X96604011Y-106802587D01*
X96740582Y-106859156D01*
X96740587Y-106859158D01*
X96740591Y-106859158D01*
X96740592Y-106859159D01*
X96885579Y-106888000D01*
X96885582Y-106888000D01*
X96885583Y-106888000D01*
X97028752Y-106888000D01*
X97095791Y-106907685D01*
X97115761Y-106923652D01*
X97126430Y-106934160D01*
X97132288Y-106943656D01*
X97256344Y-107067712D01*
X97271583Y-107077111D01*
X97281568Y-107086945D01*
X97292008Y-107105723D01*
X97306379Y-107121699D01*
X97308650Y-107135654D01*
X97315520Y-107148010D01*
X97314151Y-107169451D01*
X97317603Y-107190661D01*
X97311968Y-107203628D01*
X97311068Y-107217738D01*
X97298322Y-107235038D01*
X97289761Y-107254744D01*
X97273286Y-107269021D01*
X97269626Y-107273990D01*
X97265921Y-107275404D01*
X97259665Y-107280826D01*
X97256660Y-107282679D01*
X97256655Y-107282683D01*
X97132684Y-107406654D01*
X97040643Y-107555875D01*
X97040641Y-107555880D01*
X96985494Y-107722302D01*
X96985493Y-107722309D01*
X96975000Y-107825013D01*
X96975000Y-107962500D01*
X99424999Y-107962500D01*
X99424999Y-107825028D01*
X99424998Y-107825013D01*
X99414505Y-107722302D01*
X99359358Y-107555880D01*
X99359356Y-107555875D01*
X99267315Y-107406654D01*
X99143344Y-107282683D01*
X99143341Y-107282681D01*
X99140339Y-107280829D01*
X99138713Y-107279021D01*
X99137677Y-107278202D01*
X99137817Y-107278024D01*
X99093617Y-107228880D01*
X99082397Y-107159917D01*
X99110243Y-107095836D01*
X99118431Y-107086944D01*
X99128411Y-107077114D01*
X99143656Y-107067712D01*
X99267712Y-106943656D01*
X99273570Y-106934157D01*
X99284239Y-106923651D01*
X99302370Y-106913929D01*
X99317665Y-106900175D01*
X99335645Y-106896089D01*
X99345817Y-106890636D01*
X99356071Y-106891448D01*
X99371248Y-106888000D01*
X99740810Y-106888000D01*
X99807849Y-106907685D01*
X99853604Y-106960489D01*
X99855371Y-106964547D01*
X99900967Y-107074627D01*
X99907416Y-107090195D01*
X99917791Y-107105723D01*
X99935096Y-107131622D01*
X99989549Y-107213118D01*
X99989552Y-107213121D01*
X102286449Y-109510016D01*
X102345851Y-109569418D01*
X102390985Y-109614552D01*
X102513898Y-109696680D01*
X102513911Y-109696687D01*
X102650482Y-109753256D01*
X102650487Y-109753258D01*
X102650491Y-109753258D01*
X102650492Y-109753259D01*
X102795479Y-109782100D01*
X102795482Y-109782100D01*
X102830403Y-109782100D01*
X102852000Y-109788441D01*
X102874443Y-109790184D01*
X102884879Y-109798096D01*
X102897442Y-109801785D01*
X102912179Y-109818793D01*
X102930121Y-109832395D01*
X102934623Y-109844694D01*
X102943197Y-109854589D01*
X102946400Y-109876866D01*
X102954139Y-109898007D01*
X102951277Y-109910785D01*
X102953141Y-109923747D01*
X102943789Y-109944224D01*
X102938871Y-109966188D01*
X102927989Y-109978820D01*
X102924116Y-109987303D01*
X102917549Y-109994313D01*
X102909188Y-110002572D01*
X102905884Y-110004480D01*
X102794080Y-110116284D01*
X102794078Y-110116286D01*
X102793872Y-110116491D01*
X102793790Y-110116573D01*
X101616655Y-111293708D01*
X101563570Y-111325103D01*
X101487108Y-111347317D01*
X101487103Y-111347320D01*
X101348363Y-111429369D01*
X101348351Y-111429378D01*
X101332681Y-111445049D01*
X101271358Y-111478534D01*
X101201666Y-111473550D01*
X101157319Y-111445049D01*
X101141648Y-111429378D01*
X101141636Y-111429369D01*
X101002896Y-111347320D01*
X101002889Y-111347317D01*
X100848102Y-111302346D01*
X100848096Y-111302345D01*
X100811935Y-111299500D01*
X100408077Y-111299500D01*
X100408052Y-111299501D01*
X100371901Y-111302346D01*
X100217110Y-111347317D01*
X100217103Y-111347320D01*
X100078363Y-111429369D01*
X100078351Y-111429378D01*
X99964378Y-111543351D01*
X99964369Y-111543363D01*
X99882320Y-111682103D01*
X99882317Y-111682110D01*
X99837346Y-111836897D01*
X99837345Y-111836903D01*
X99834500Y-111873057D01*
X99834500Y-112163000D01*
X99814815Y-112230039D01*
X99762011Y-112275794D01*
X99710500Y-112287000D01*
X99272766Y-112287000D01*
X99205727Y-112267315D01*
X99203875Y-112266102D01*
X99072185Y-112178109D01*
X99072172Y-112178102D01*
X98926501Y-112117764D01*
X98926489Y-112117761D01*
X98771845Y-112087000D01*
X98771842Y-112087000D01*
X98614158Y-112087000D01*
X98614155Y-112087000D01*
X98459510Y-112117761D01*
X98459498Y-112117764D01*
X98313827Y-112178102D01*
X98313814Y-112178109D01*
X98182711Y-112265710D01*
X98182707Y-112265713D01*
X98071213Y-112377207D01*
X98071210Y-112377211D01*
X97983609Y-112508314D01*
X97983602Y-112508327D01*
X97923264Y-112653998D01*
X97923261Y-112654010D01*
X97892500Y-112808653D01*
X97892500Y-112966346D01*
X97923261Y-113120989D01*
X97923264Y-113121001D01*
X97983602Y-113266672D01*
X97983609Y-113266685D01*
X98071210Y-113397788D01*
X98071213Y-113397792D01*
X98182707Y-113509286D01*
X98182711Y-113509289D01*
X98313814Y-113596890D01*
X98313827Y-113596897D01*
X98458062Y-113656640D01*
X98459503Y-113657237D01*
X98586669Y-113682532D01*
X98614153Y-113687999D01*
X98614156Y-113688000D01*
X98614158Y-113688000D01*
X98771844Y-113688000D01*
X98771845Y-113687999D01*
X98926497Y-113657237D01*
X99072179Y-113596894D01*
X99097826Y-113579757D01*
X99203875Y-113508898D01*
X99270553Y-113488020D01*
X99272766Y-113488000D01*
X99793911Y-113488000D01*
X99860950Y-113507685D01*
X99900643Y-113548879D01*
X99964372Y-113656640D01*
X99964378Y-113656648D01*
X100078351Y-113770621D01*
X100078355Y-113770624D01*
X100078357Y-113770626D01*
X100078360Y-113770627D01*
X100078363Y-113770630D01*
X100163534Y-113820999D01*
X100217106Y-113852681D01*
X100257928Y-113864541D01*
X100371897Y-113897653D01*
X100371900Y-113897653D01*
X100371902Y-113897654D01*
X100408065Y-113900500D01*
X100550703Y-113900499D01*
X100617741Y-113920183D01*
X100663496Y-113972987D01*
X100673440Y-114042145D01*
X100644416Y-114105701D01*
X100638383Y-114112180D01*
X100179884Y-114570681D01*
X100118561Y-114604166D01*
X100092203Y-114607000D01*
X94133362Y-114607000D01*
X94128657Y-114606911D01*
X93944295Y-114599911D01*
X93913299Y-114589517D01*
X93881961Y-114580315D01*
X93880364Y-114578472D01*
X93878051Y-114577697D01*
X93857589Y-114552189D01*
X93836206Y-114527511D01*
X93835615Y-114524794D01*
X93834332Y-114523195D01*
X93833455Y-114514869D01*
X93825000Y-114476000D01*
X93825000Y-114350000D01*
X94325000Y-114350000D01*
X95772295Y-114350000D01*
X95772295Y-114349998D01*
X95772100Y-114347513D01*
X95726281Y-114189801D01*
X95642685Y-114048447D01*
X95637900Y-114042278D01*
X95640252Y-114040453D01*
X95613445Y-113991405D01*
X95618402Y-113921712D01*
X95639465Y-113888936D01*
X95637900Y-113887722D01*
X95642685Y-113881552D01*
X95726281Y-113740198D01*
X95772100Y-113582486D01*
X95772295Y-113580001D01*
X95772295Y-113580000D01*
X94325000Y-113580000D01*
X94325000Y-114350000D01*
X93825000Y-114350000D01*
X93825000Y-113080000D01*
X94325000Y-113080000D01*
X95772295Y-113080000D01*
X95772295Y-113079998D01*
X95772100Y-113077513D01*
X95726281Y-112919801D01*
X95642685Y-112778447D01*
X95637900Y-112772278D01*
X95640252Y-112770453D01*
X95613445Y-112721405D01*
X95618402Y-112651712D01*
X95639465Y-112618936D01*
X95637900Y-112617722D01*
X95642685Y-112611552D01*
X95726281Y-112470198D01*
X95772100Y-112312486D01*
X95772295Y-112310001D01*
X95772295Y-112310000D01*
X94325000Y-112310000D01*
X94325000Y-113080000D01*
X93825000Y-113080000D01*
X93825000Y-111810000D01*
X94325000Y-111810000D01*
X95772295Y-111810000D01*
X95772295Y-111809998D01*
X95772100Y-111807513D01*
X95726281Y-111649801D01*
X95642685Y-111508447D01*
X95637900Y-111502278D01*
X95640252Y-111500453D01*
X95613445Y-111451405D01*
X95618402Y-111381712D01*
X95639465Y-111348936D01*
X95637900Y-111347722D01*
X95642685Y-111341552D01*
X95726281Y-111200198D01*
X95772100Y-111042486D01*
X95772295Y-111040001D01*
X95772295Y-111040000D01*
X94325000Y-111040000D01*
X94325000Y-111810000D01*
X93825000Y-111810000D01*
X93825000Y-111040000D01*
X92377705Y-111040000D01*
X92377704Y-111040001D01*
X92377899Y-111042486D01*
X92423718Y-111200198D01*
X92507314Y-111341552D01*
X92512100Y-111347722D01*
X92509753Y-111349542D01*
X92536564Y-111398642D01*
X92531580Y-111468334D01*
X92510541Y-111501069D01*
X92512100Y-111502278D01*
X92507314Y-111508447D01*
X92423717Y-111649803D01*
X92423716Y-111649806D01*
X92383547Y-111788069D01*
X92345941Y-111846955D01*
X92282468Y-111876161D01*
X92213282Y-111866415D01*
X92176790Y-111841155D01*
X90105636Y-109770001D01*
X92377704Y-109770001D01*
X92377899Y-109772486D01*
X92423718Y-109930198D01*
X92507314Y-110071552D01*
X92512100Y-110077722D01*
X92509753Y-110079542D01*
X92536564Y-110128642D01*
X92531580Y-110198334D01*
X92510541Y-110231069D01*
X92512100Y-110232278D01*
X92507314Y-110238447D01*
X92423718Y-110379801D01*
X92377899Y-110537513D01*
X92377704Y-110539998D01*
X92377705Y-110540000D01*
X93825000Y-110540000D01*
X94325000Y-110540000D01*
X95772295Y-110540000D01*
X95772295Y-110539998D01*
X95772100Y-110537513D01*
X95726281Y-110379801D01*
X95642685Y-110238447D01*
X95637900Y-110232278D01*
X95640252Y-110230453D01*
X95613445Y-110181405D01*
X95618402Y-110111712D01*
X95639465Y-110078936D01*
X95637900Y-110077722D01*
X95642685Y-110071552D01*
X95726281Y-109930198D01*
X95772100Y-109772486D01*
X95772295Y-109770001D01*
X95772295Y-109770000D01*
X94325000Y-109770000D01*
X94325000Y-110540000D01*
X93825000Y-110540000D01*
X93825000Y-109770000D01*
X92377705Y-109770000D01*
X92377704Y-109770001D01*
X90105636Y-109770001D01*
X89521194Y-109185559D01*
X89487709Y-109124236D01*
X89492693Y-109054544D01*
X89534565Y-108998611D01*
X89561419Y-108983318D01*
X89619179Y-108959394D01*
X89750289Y-108871789D01*
X89861789Y-108760289D01*
X89949394Y-108629179D01*
X90002901Y-108500001D01*
X92377704Y-108500001D01*
X92377899Y-108502486D01*
X92423718Y-108660198D01*
X92507314Y-108801552D01*
X92512100Y-108807722D01*
X92509753Y-108809542D01*
X92536564Y-108858642D01*
X92531580Y-108928334D01*
X92510541Y-108961069D01*
X92512100Y-108962278D01*
X92507314Y-108968447D01*
X92423718Y-109109801D01*
X92377899Y-109267513D01*
X92377704Y-109269998D01*
X92377705Y-109270000D01*
X93825000Y-109270000D01*
X94325000Y-109270000D01*
X95772295Y-109270000D01*
X95772295Y-109269998D01*
X95772100Y-109267513D01*
X95726281Y-109109801D01*
X95642685Y-108968447D01*
X95637900Y-108962278D01*
X95640252Y-108960453D01*
X95613445Y-108911405D01*
X95618402Y-108841712D01*
X95639465Y-108808936D01*
X95637900Y-108807722D01*
X95642685Y-108801552D01*
X95726281Y-108660198D01*
X95743774Y-108599986D01*
X96975001Y-108599986D01*
X96985494Y-108702697D01*
X97040641Y-108869119D01*
X97040643Y-108869124D01*
X97132684Y-109018345D01*
X97256654Y-109142315D01*
X97405875Y-109234356D01*
X97405880Y-109234358D01*
X97572302Y-109289505D01*
X97572309Y-109289506D01*
X97675019Y-109299999D01*
X97949999Y-109299999D01*
X98450000Y-109299999D01*
X98724972Y-109299999D01*
X98724986Y-109299998D01*
X98827697Y-109289505D01*
X98994119Y-109234358D01*
X98994124Y-109234356D01*
X99143345Y-109142315D01*
X99267315Y-109018345D01*
X99359356Y-108869124D01*
X99359358Y-108869119D01*
X99414505Y-108702697D01*
X99414506Y-108702690D01*
X99424999Y-108599986D01*
X99425000Y-108599973D01*
X99425000Y-108462500D01*
X98450000Y-108462500D01*
X98450000Y-109299999D01*
X97949999Y-109299999D01*
X97950000Y-109299998D01*
X97950000Y-108462500D01*
X96975001Y-108462500D01*
X96975001Y-108599986D01*
X95743774Y-108599986D01*
X95772100Y-108502486D01*
X95772296Y-108500000D01*
X94325000Y-108500000D01*
X94325000Y-109270000D01*
X93825000Y-109270000D01*
X93825000Y-108500000D01*
X92377705Y-108500000D01*
X92377704Y-108500001D01*
X90002901Y-108500001D01*
X90009737Y-108483497D01*
X90017980Y-108442058D01*
X90020087Y-108431465D01*
X90020087Y-108431464D01*
X90040500Y-108328844D01*
X90040500Y-108171155D01*
X90040499Y-108171153D01*
X90033022Y-108133562D01*
X90009737Y-108016503D01*
X90002901Y-108000000D01*
X89949397Y-107870827D01*
X89949390Y-107870814D01*
X89884294Y-107773391D01*
X89863416Y-107706713D01*
X89881901Y-107639333D01*
X89933879Y-107592643D01*
X89987396Y-107580500D01*
X90855831Y-107580500D01*
X90855847Y-107580501D01*
X90863443Y-107580501D01*
X91021554Y-107580501D01*
X91021557Y-107580501D01*
X91174285Y-107539577D01*
X91224404Y-107510639D01*
X91311216Y-107460520D01*
X91423020Y-107348716D01*
X91423020Y-107348714D01*
X91433228Y-107338507D01*
X91433229Y-107338504D01*
X91541732Y-107230001D01*
X92377704Y-107230001D01*
X92377899Y-107232486D01*
X92423718Y-107390198D01*
X92507314Y-107531552D01*
X92512100Y-107537722D01*
X92509753Y-107539542D01*
X92536564Y-107588642D01*
X92531580Y-107658334D01*
X92510541Y-107691069D01*
X92512100Y-107692278D01*
X92507314Y-107698447D01*
X92423718Y-107839801D01*
X92377899Y-107997513D01*
X92377704Y-107999998D01*
X92377705Y-108000000D01*
X93825000Y-108000000D01*
X94325000Y-108000000D01*
X95772295Y-108000000D01*
X95772295Y-107999998D01*
X95772100Y-107997513D01*
X95726281Y-107839801D01*
X95642685Y-107698447D01*
X95637900Y-107692278D01*
X95640252Y-107690453D01*
X95613445Y-107641405D01*
X95618402Y-107571712D01*
X95639465Y-107538936D01*
X95637900Y-107537722D01*
X95642685Y-107531552D01*
X95726281Y-107390198D01*
X95772100Y-107232486D01*
X95772295Y-107230001D01*
X95772295Y-107230000D01*
X94325000Y-107230000D01*
X94325000Y-108000000D01*
X93825000Y-108000000D01*
X93825000Y-107230000D01*
X92377705Y-107230000D01*
X92377704Y-107230001D01*
X91541732Y-107230001D01*
X92173048Y-106598686D01*
X92234366Y-106565204D01*
X92304057Y-106570188D01*
X92359991Y-106612059D01*
X92384408Y-106677524D01*
X92379803Y-106720956D01*
X92377901Y-106727504D01*
X92377899Y-106727511D01*
X92377704Y-106729998D01*
X92377705Y-106730000D01*
X93825000Y-106730000D01*
X93825000Y-105834000D01*
X93844685Y-105766961D01*
X93897489Y-105721206D01*
X93949000Y-105710000D01*
X94201000Y-105710000D01*
X94268039Y-105729685D01*
G37*
%TD.AperFunction*%
%TA.AperFunction,Conductor*%
G36*
X129169009Y-109264285D02*
G01*
X129189651Y-109280919D01*
X130123423Y-110214690D01*
X130156908Y-110276013D01*
X130157359Y-110278179D01*
X130166704Y-110325160D01*
X130166707Y-110325170D01*
X130234583Y-110489040D01*
X130234590Y-110489053D01*
X130333135Y-110636534D01*
X130333138Y-110636538D01*
X130458561Y-110761961D01*
X130458565Y-110761964D01*
X130606046Y-110860509D01*
X130606059Y-110860516D01*
X130708685Y-110903024D01*
X130769934Y-110928394D01*
X130769936Y-110928394D01*
X130769941Y-110928396D01*
X130943904Y-110962999D01*
X130943907Y-110963000D01*
X130943909Y-110963000D01*
X131121293Y-110963000D01*
X131121294Y-110962999D01*
X131179282Y-110951464D01*
X131295258Y-110928396D01*
X131295261Y-110928394D01*
X131295266Y-110928394D01*
X131459147Y-110860513D01*
X131459150Y-110860510D01*
X131459152Y-110860510D01*
X131498978Y-110833899D01*
X131565655Y-110813020D01*
X131567870Y-110813000D01*
X134351977Y-110813000D01*
X134419016Y-110832685D01*
X134464771Y-110885489D01*
X134474715Y-110954647D01*
X134445690Y-111018203D01*
X134439658Y-111024681D01*
X134432684Y-111031654D01*
X134340643Y-111180875D01*
X134340641Y-111180880D01*
X134285494Y-111347302D01*
X134285493Y-111347309D01*
X134275000Y-111450013D01*
X134275000Y-111587500D01*
X136724999Y-111587500D01*
X136724999Y-111450028D01*
X136724998Y-111450013D01*
X136714505Y-111347302D01*
X136659358Y-111180880D01*
X136659356Y-111180875D01*
X136567315Y-111031654D01*
X136443344Y-110907683D01*
X136443341Y-110907681D01*
X136440339Y-110905829D01*
X136438713Y-110904021D01*
X136437677Y-110903202D01*
X136437817Y-110903024D01*
X136393617Y-110853880D01*
X136382397Y-110784917D01*
X136410243Y-110720836D01*
X136418431Y-110711944D01*
X136428411Y-110702114D01*
X136443656Y-110692712D01*
X136567712Y-110568656D01*
X136573570Y-110559157D01*
X136584239Y-110548651D01*
X136602370Y-110538929D01*
X136617665Y-110525175D01*
X136635645Y-110521089D01*
X136645817Y-110515636D01*
X136656071Y-110516448D01*
X136671248Y-110513000D01*
X137114216Y-110513000D01*
X137181255Y-110532685D01*
X137227010Y-110585489D01*
X137233292Y-110602405D01*
X137252317Y-110667889D01*
X137252320Y-110667896D01*
X137334369Y-110806636D01*
X137334378Y-110806648D01*
X137448351Y-110920621D01*
X137448355Y-110920624D01*
X137448357Y-110920626D01*
X137448360Y-110920627D01*
X137448363Y-110920630D01*
X137520008Y-110963000D01*
X137587106Y-111002681D01*
X137627928Y-111014541D01*
X137741897Y-111047653D01*
X137741900Y-111047653D01*
X137741902Y-111047654D01*
X137773018Y-111050102D01*
X137838305Y-111074984D01*
X137850972Y-111086039D01*
X138416879Y-111651947D01*
X138416883Y-111651950D01*
X138416885Y-111651952D01*
X138449260Y-111673584D01*
X138539808Y-111734086D01*
X138590373Y-111755030D01*
X138596380Y-111757518D01*
X138676388Y-111790659D01*
X138775076Y-111810289D01*
X138797778Y-111814804D01*
X138821381Y-111819500D01*
X138821382Y-111819500D01*
X138821383Y-111819500D01*
X138969218Y-111819500D01*
X142856432Y-111819500D01*
X142888932Y-111829043D01*
X142921599Y-111838005D01*
X142922368Y-111838861D01*
X142923471Y-111839185D01*
X142945639Y-111864769D01*
X142968289Y-111889984D01*
X142968473Y-111891120D01*
X142969226Y-111891989D01*
X142974047Y-111925520D01*
X142979465Y-111958954D01*
X142979006Y-111960007D01*
X142979170Y-111961147D01*
X142965089Y-111991978D01*
X142951579Y-112023017D01*
X142950453Y-112024028D01*
X142950145Y-112024703D01*
X142925323Y-112046602D01*
X142792125Y-112135602D01*
X142725447Y-112156480D01*
X142723234Y-112156500D01*
X136845362Y-112156500D01*
X136778323Y-112136815D01*
X136757681Y-112120181D01*
X136725000Y-112087500D01*
X134275001Y-112087500D01*
X134242320Y-112120181D01*
X134180997Y-112153666D01*
X134154639Y-112156500D01*
X131448698Y-112156500D01*
X131381659Y-112136815D01*
X131361017Y-112120181D01*
X131259017Y-112018181D01*
X131259016Y-112018180D01*
X131172204Y-111968060D01*
X131172204Y-111968059D01*
X131172200Y-111968058D01*
X131122085Y-111939123D01*
X130969357Y-111898199D01*
X130811243Y-111898199D01*
X130803647Y-111898199D01*
X130803631Y-111898200D01*
X123938241Y-111898200D01*
X123905157Y-111907064D01*
X123905158Y-111907065D01*
X123785514Y-111939123D01*
X123785509Y-111939126D01*
X123648590Y-112018175D01*
X123648582Y-112018181D01*
X123546583Y-112120181D01*
X123485260Y-112153666D01*
X123458902Y-112156500D01*
X116845362Y-112156500D01*
X116778323Y-112136815D01*
X116757681Y-112120181D01*
X116725000Y-112087500D01*
X114275001Y-112087500D01*
X114242320Y-112120181D01*
X114180997Y-112153666D01*
X114154639Y-112156500D01*
X111135170Y-112156500D01*
X111135154Y-112156499D01*
X111127558Y-112156499D01*
X110969443Y-112156499D01*
X110893079Y-112176961D01*
X110816714Y-112197423D01*
X110816709Y-112197426D01*
X110679790Y-112276475D01*
X110679782Y-112276481D01*
X110486680Y-112469583D01*
X110425357Y-112503068D01*
X110355665Y-112498084D01*
X110299732Y-112456212D01*
X110275315Y-112390748D01*
X110274999Y-112381902D01*
X110274999Y-111873128D01*
X110274998Y-111873106D01*
X110272155Y-111836978D01*
X110227220Y-111682310D01*
X110227219Y-111682307D01*
X110145229Y-111543668D01*
X110145223Y-111543660D01*
X110031339Y-111429776D01*
X110031331Y-111429770D01*
X109892692Y-111347780D01*
X109892689Y-111347778D01*
X109750001Y-111306323D01*
X109750000Y-111306324D01*
X109750000Y-112476000D01*
X109730315Y-112543039D01*
X109677511Y-112588794D01*
X109626000Y-112600000D01*
X109374000Y-112600000D01*
X109306961Y-112580315D01*
X109261206Y-112527511D01*
X109250000Y-112476000D01*
X109250000Y-111306324D01*
X109249998Y-111306323D01*
X109107310Y-111347778D01*
X109107307Y-111347780D01*
X108968671Y-111429768D01*
X108968659Y-111429777D01*
X108953030Y-111445406D01*
X108891705Y-111478888D01*
X108822014Y-111473901D01*
X108777672Y-111445402D01*
X108761648Y-111429378D01*
X108761636Y-111429369D01*
X108622896Y-111347320D01*
X108622889Y-111347317D01*
X108468102Y-111302346D01*
X108468096Y-111302345D01*
X108431942Y-111299500D01*
X108431935Y-111299500D01*
X108387797Y-111299500D01*
X108320758Y-111279815D01*
X108300116Y-111263181D01*
X107756473Y-110719537D01*
X107722988Y-110658214D01*
X107722537Y-110656047D01*
X107715428Y-110620306D01*
X107691637Y-110500703D01*
X107691635Y-110500698D01*
X107631297Y-110355027D01*
X107631290Y-110355014D01*
X107543810Y-110224091D01*
X107522932Y-110157413D01*
X107541417Y-110090033D01*
X107593395Y-110043343D01*
X107646912Y-110031200D01*
X110637359Y-110031200D01*
X110704398Y-110050885D01*
X110750153Y-110103689D01*
X110760097Y-110172847D01*
X110731072Y-110236403D01*
X110725040Y-110242881D01*
X110628213Y-110339707D01*
X110628210Y-110339711D01*
X110540609Y-110470814D01*
X110540602Y-110470827D01*
X110480264Y-110616498D01*
X110480261Y-110616510D01*
X110449500Y-110771153D01*
X110449500Y-110928846D01*
X110480261Y-111083489D01*
X110480264Y-111083501D01*
X110540602Y-111229172D01*
X110540609Y-111229185D01*
X110628210Y-111360288D01*
X110628213Y-111360292D01*
X110739707Y-111471786D01*
X110739711Y-111471789D01*
X110870814Y-111559390D01*
X110870827Y-111559397D01*
X111016498Y-111619735D01*
X111016503Y-111619737D01*
X111167644Y-111649801D01*
X111171153Y-111650499D01*
X111171156Y-111650500D01*
X111171158Y-111650500D01*
X111328844Y-111650500D01*
X111328845Y-111650499D01*
X111483497Y-111619737D01*
X111629179Y-111559394D01*
X111689651Y-111518988D01*
X111760875Y-111471398D01*
X111827553Y-111450520D01*
X111829766Y-111450500D01*
X114151000Y-111450500D01*
X114218039Y-111470185D01*
X114263794Y-111522989D01*
X114275000Y-111574500D01*
X114275000Y-111587500D01*
X116724999Y-111587500D01*
X116724999Y-111574500D01*
X116744684Y-111507461D01*
X116797488Y-111461706D01*
X116848999Y-111450500D01*
X127200071Y-111450500D01*
X127267110Y-111470185D01*
X127275560Y-111476126D01*
X127281279Y-111480514D01*
X127281284Y-111480519D01*
X127418215Y-111559577D01*
X127570943Y-111600501D01*
X127570946Y-111600501D01*
X127729054Y-111600501D01*
X127729057Y-111600501D01*
X127881785Y-111559577D01*
X128018716Y-111480519D01*
X128458506Y-111040727D01*
X128458511Y-111040724D01*
X128468714Y-111030520D01*
X128468716Y-111030520D01*
X128580520Y-110918716D01*
X128641406Y-110813257D01*
X128641555Y-110813000D01*
X128647463Y-110802766D01*
X128659577Y-110781785D01*
X128700500Y-110629057D01*
X128700500Y-110470943D01*
X128700500Y-110429765D01*
X128720185Y-110362726D01*
X128721398Y-110360874D01*
X128749712Y-110318500D01*
X128809394Y-110229179D01*
X128815396Y-110214690D01*
X128829182Y-110181405D01*
X128869737Y-110083497D01*
X128900500Y-109928842D01*
X128900500Y-109771158D01*
X128900500Y-109771155D01*
X128900499Y-109771153D01*
X128875152Y-109643728D01*
X128869737Y-109616503D01*
X128868929Y-109614552D01*
X128809397Y-109470827D01*
X128809395Y-109470823D01*
X128809394Y-109470821D01*
X128787124Y-109437491D01*
X128784086Y-109427790D01*
X128777432Y-109420111D01*
X128773823Y-109395013D01*
X128766246Y-109370814D01*
X128768934Y-109361013D01*
X128767488Y-109350953D01*
X128778022Y-109327886D01*
X128784730Y-109303434D01*
X128792290Y-109296642D01*
X128796513Y-109287397D01*
X128817845Y-109273687D01*
X128836709Y-109256743D01*
X128848306Y-109254111D01*
X128855291Y-109249623D01*
X128890226Y-109244600D01*
X129101970Y-109244600D01*
X129169009Y-109264285D01*
G37*
%TD.AperFunction*%
%TA.AperFunction,Conductor*%
G36*
X102623577Y-88840085D02*
G01*
X102644219Y-88856719D01*
X102675000Y-88887500D01*
X103776000Y-88887500D01*
X103843039Y-88907185D01*
X103888794Y-88959989D01*
X103900000Y-89011500D01*
X103900000Y-89263500D01*
X103880315Y-89330539D01*
X103827511Y-89376294D01*
X103776000Y-89387500D01*
X102675001Y-89387500D01*
X102675001Y-89524986D01*
X102685493Y-89627695D01*
X102712832Y-89710195D01*
X102715234Y-89780024D01*
X102679502Y-89840066D01*
X102616982Y-89871259D01*
X102595126Y-89873200D01*
X98489733Y-89873200D01*
X98442281Y-89863761D01*
X98356101Y-89828064D01*
X98356089Y-89828061D01*
X98201445Y-89797300D01*
X98201442Y-89797300D01*
X98043758Y-89797300D01*
X98043755Y-89797300D01*
X97889110Y-89828061D01*
X97889098Y-89828064D01*
X97743427Y-89888402D01*
X97743414Y-89888409D01*
X97612311Y-89976010D01*
X97612307Y-89976013D01*
X97500813Y-90087507D01*
X97500810Y-90087511D01*
X97413209Y-90218614D01*
X97413202Y-90218627D01*
X97360212Y-90346560D01*
X97316371Y-90400964D01*
X97250077Y-90423029D01*
X97182378Y-90405750D01*
X97134767Y-90354613D01*
X97124034Y-90323299D01*
X97123538Y-90320810D01*
X97123537Y-90320803D01*
X97081215Y-90218627D01*
X97063197Y-90175127D01*
X97063190Y-90175114D01*
X96986838Y-90060846D01*
X96965960Y-89994169D01*
X96984444Y-89926788D01*
X97002254Y-89904279D01*
X98049817Y-88856719D01*
X98111140Y-88823234D01*
X98137498Y-88820400D01*
X102556538Y-88820400D01*
X102623577Y-88840085D01*
G37*
%TD.AperFunction*%
%TD*%
M02*
